<svg width="424" height="88" viewBox="0 0 424 88" fill="none" xmlns="http://www.w3.org/2000/svg">
<path d="M50 8H272.5H374L424 48L374 88H50L0 48L50 8Z" fill="black"/>
<path d="M0.80039 40L50.1754 0.5H272.5H373.825L423.2 40L373.825 79.5H50.1754L0.80039 40Z" fill="#FFBB00" stroke="black"/>
<path d="M182.36 48.36C177.032 48.36 173.48 44.856 173.48 39.6C173.48 34.344 177.032 30.84 182.36 30.84C187.688 30.84 191.24 34.344 191.24 39.6C191.24 44.856 187.688 48.36 182.36 48.36ZM182.36 43.08C183.92 43.08 185 41.736 185 39.6C185 37.464 183.92 36.12 182.36 36.12C180.8 36.12 179.72 37.464 179.72 39.6C179.72 41.736 180.8 43.08 182.36 43.08ZM207.223 36.888V31.2H213.343V48H207.223V42.048H203.383V48H197.263V31.2H203.383V36.888H207.223ZM232.051 48H226.099L225.427 45.12H220.795L220.123 48H214.411L218.995 31.2H227.467L232.051 48ZM223.051 35.4L221.731 41.04H224.491L223.171 35.4H223.051ZM240.813 48.36C235.437 48.36 231.933 44.856 231.933 39.6C231.933 34.344 235.437 30.84 240.813 30.84C245.421 30.84 248.517 33.552 249.045 37.68L243.309 38.184C242.949 36.912 242.085 36.12 240.885 36.12C239.253 36.12 238.173 37.464 238.173 39.6C238.173 41.736 239.253 43.08 240.885 43.08C242.133 43.08 243.021 42.288 243.357 41.016L249.093 41.52C248.565 45.648 245.469 48.36 240.813 48.36Z" fill="black"/>
</svg>
