<svg width="1920" height="1400" viewBox="0 0 1920 1400" fill="none" xmlns="http://www.w3.org/2000/svg">
<rect width="1920" height="1276" fill="#FF5101"/>
<rect x="-24" width="82" height="1400" fill="#792CA6"/>
<rect y="58" width="82.0244" height="82.0244" transform="rotate(-45 0 58)" fill="#FFBB00"/>
<rect y="174" width="82.0244" height="82.0244" transform="rotate(-45 0 174)" fill="#FFBB00"/>
<rect y="290" width="82.0244" height="82.0244" transform="rotate(-45 0 290)" fill="#FFBB00"/>
<rect y="406" width="82.0244" height="82.0244" transform="rotate(-45 0 406)" fill="#FFBB00"/>
<rect y="522" width="82.0244" height="82.0244" transform="rotate(-45 0 522)" fill="#FFBB00"/>
<rect y="638" width="82.0244" height="82.0244" transform="rotate(-45 0 638)" fill="#FFBB00"/>
<rect y="754" width="82.0244" height="82.0244" transform="rotate(-45 0 754)" fill="#FFBB00"/>
<rect y="870" width="82.0244" height="82.0244" transform="rotate(-45 0 870)" fill="#FFBB00"/>
<rect y="986" width="82.0244" height="82.0244" transform="rotate(-45 0 986)" fill="#FFBB00"/>
<rect y="1102" width="82.0244" height="82.0244" transform="rotate(-45 0 1102)" fill="#FFBB00"/>
<rect y="1218" width="82.0244" height="82.0244" transform="rotate(-45 0 1218)" fill="#FFBB00"/>
<rect y="1334" width="82.0244" height="82.0244" transform="rotate(-45 0 1334)" fill="#FFBB00"/>
<rect width="82" height="1400" transform="matrix(-1 0 0 1 1944 0)" fill="#792CA6"/>
<rect width="82.0244" height="82.0244" transform="matrix(-0.707107 -0.707107 -0.707107 0.707107 1920 58)" fill="#FFBB00"/>
<rect width="82.0244" height="82.0244" transform="matrix(-0.707107 -0.707107 -0.707107 0.707107 1920 174)" fill="#FFBB00"/>
<rect width="82.0244" height="82.0244" transform="matrix(-0.707107 -0.707107 -0.707107 0.707107 1920 290)" fill="#FFBB00"/>
<rect width="82.0244" height="82.0244" transform="matrix(-0.707107 -0.707107 -0.707107 0.707107 1920 406)" fill="#FFBB00"/>
<rect width="82.0244" height="82.0244" transform="matrix(-0.707107 -0.707107 -0.707107 0.707107 1920 522)" fill="#FFBB00"/>
<rect width="82.0244" height="82.0244" transform="matrix(-0.707107 -0.707107 -0.707107 0.707107 1920 638)" fill="#FFBB00"/>
<rect width="82.0244" height="82.0244" transform="matrix(-0.707107 -0.707107 -0.707107 0.707107 1920 754)" fill="#FFBB00"/>
<rect width="82.0244" height="82.0244" transform="matrix(-0.707107 -0.707107 -0.707107 0.707107 1920 870)" fill="#FFBB00"/>
<rect width="82.0244" height="82.0244" transform="matrix(-0.707107 -0.707107 -0.707107 0.707107 1920 986)" fill="#FFBB00"/>
<rect width="82.0244" height="82.0244" transform="matrix(-0.707107 -0.707107 -0.707107 0.707107 1920 1102)" fill="#FFBB00"/>
<rect width="82.0244" height="82.0244" transform="matrix(-0.707107 -0.707107 -0.707107 0.707107 1920 1218)" fill="#FFBB00"/>
<rect width="82.0244" height="82.0244" transform="matrix(-0.707107 -0.707107 -0.707107 0.707107 1920 1334)" fill="#FFBB00"/>
<path d="M279.288 111.288C281.827 110.109 285.317 109.475 289.76 109.384C294.293 109.293 297.512 109.747 299.416 110.744C301.501 111.832 303.904 113.691 306.624 116.32C308.709 118.224 310.205 119.267 311.112 119.448C312.109 119.629 314.149 119.312 317.232 118.496C321.221 117.499 324.44 117.544 326.888 118.632C329.427 119.629 331.603 121.941 333.416 125.568C335.864 130.283 336.091 135.587 334.096 141.48C332.101 147.373 328.203 153.04 322.4 158.48C318.592 162.197 314.784 164.736 310.976 166.096C307.168 167.365 303.904 167.365 301.184 166.096C297.195 164.464 295.744 159.749 296.832 151.952C297.195 149.141 297.24 147.373 296.968 146.648C296.696 145.832 295.789 145.061 294.248 144.336C291.981 143.429 289.171 143.429 285.816 144.336C282.371 145.515 279.515 146.149 277.248 146.24C275.888 146.421 274.981 146.875 274.528 147.6C274.075 148.235 273.712 149.595 273.44 151.68C273.168 155.035 273.621 157.709 274.8 159.704C275.979 161.699 278.291 163.739 281.736 165.824C286.088 168.725 289.488 171.309 291.936 173.576C293.931 175.48 295.381 176.613 296.288 176.976C297.285 177.248 298.781 177.021 300.776 176.296C303.224 175.389 306.125 174.573 309.48 173.848C312.291 173.304 316.008 170.448 320.632 165.28C324.259 161.109 328.157 157.755 332.328 155.216C336.589 152.677 340.397 151.408 343.752 151.408C346.653 151.408 348.965 152.859 350.688 155.76C352.501 158.571 353.408 162.288 353.408 166.912C353.408 170.811 352.728 174.029 351.368 176.568C350.099 179.107 347.651 181.872 344.024 184.864C340.216 188.128 334.187 192.48 325.936 197.92C320.859 201.365 314.557 203.269 307.032 203.632C299.507 204.085 292.389 202.907 285.68 200.096C282.869 199.008 278.835 198.419 273.576 198.328C265.688 198.147 258.797 195.427 252.904 190.168C247.101 184.819 244.064 178.563 243.792 171.4C243.611 166.595 242.341 161.744 239.984 156.848C237.899 152.405 236.811 148.688 236.72 145.696C236.629 142.704 237.491 139.168 239.304 135.088C242.205 128.741 246.376 123.528 251.816 119.448C257.347 115.368 262.968 113.328 268.68 113.328C273.485 113.147 277.021 112.467 279.288 111.288ZM365.844 117.544C369.017 115.368 371.918 114.371 374.548 114.552C377.177 114.733 379.988 116.139 382.98 118.768C389.054 124.027 392.59 131.235 393.588 140.392C394.041 145.651 395.809 151.816 398.892 158.888C402.065 165.869 405.057 170.448 407.868 172.624C410.95 174.981 414.849 176.205 419.564 176.296C424.369 176.387 427.996 175.299 430.444 173.032C432.076 171.491 433.662 168.861 435.204 165.144C436.836 161.336 437.516 158.571 437.244 156.848C436.972 155.76 436.836 154.445 436.836 152.904C436.836 152.269 435.884 150.819 433.98 148.552C432.71 147.101 430.444 144.744 427.18 141.48C420.833 135.496 417.66 131.325 417.66 128.968C417.66 124.253 419.02 120.581 421.74 117.952C424.46 115.232 427.86 114.235 431.94 114.96C433.662 115.323 436.11 116.683 439.284 119.04C441.822 121.035 446.492 125.205 453.292 131.552C456.284 134.272 460.318 138.171 465.396 143.248C468.932 146.875 471.017 149.187 471.652 150.184C473.193 152.904 474.054 156.259 474.236 160.248C474.417 164.147 473.918 167.728 472.74 170.992C471.017 175.525 468.796 179.197 466.076 182.008C463.356 184.728 459.412 187.357 454.244 189.896C447.534 193.16 443.182 195.563 441.188 197.104C436.473 200.459 430.534 202.317 423.372 202.68C416.209 203.043 409.545 201.909 403.38 199.28C397.124 196.56 391.729 194.429 387.196 192.888C383.66 191.709 381.076 190.485 379.444 189.216C377.812 187.947 375.772 185.589 373.324 182.144C365.708 171.899 361.9 160.973 361.9 149.368C361.9 143.293 361.265 137.944 359.996 133.32C358.817 129.512 358.636 126.52 359.452 124.344C360.267 122.168 362.398 119.901 365.844 117.544ZM513.018 117.952C515.012 117.408 517.551 117.408 520.634 117.952C523.807 118.405 526.3 119.221 528.114 120.4C529.383 121.216 530.244 122.168 530.698 123.256C531.151 124.253 531.378 125.84 531.378 128.016C531.378 134.816 528.204 141.117 521.858 146.92C518.231 150.275 515.058 155.443 512.338 162.424C509.527 169.496 508.394 173.304 508.938 173.848C509.391 174.301 513.335 174.845 520.77 175.48C529.111 176.205 535.866 177.112 541.034 178.2C549.466 179.832 553.682 179.605 553.682 177.52C553.772 177.067 553.591 176.432 553.138 175.616C552.14 173.621 551.687 170.267 551.778 165.552C551.959 160.837 552.639 157.347 553.818 155.08C555.087 152.541 556.991 151 559.53 150.456C562.068 149.821 564.607 150.048 567.146 151.136C569.684 152.224 572.042 154.128 574.218 156.848C576.394 159.477 577.799 162.469 578.434 165.824C578.887 168.725 580.519 172.488 583.33 177.112C585.506 180.557 586.548 183.277 586.458 185.272C586.458 187.176 585.279 190.077 582.922 193.976C580.655 197.421 578.207 199.371 575.578 199.824C571.679 200.731 567.735 201.139 563.746 201.048C562.93 201.048 559.484 201.139 553.41 201.32C547.426 201.501 543.074 201.501 540.354 201.32C518.956 201.139 504.812 201.365 497.922 202C493.479 202.453 490.487 202.544 488.946 202.272C487.404 202.091 485.364 201.184 482.826 199.552C478.655 197.013 475.98 193.568 474.802 189.216C473.714 184.773 474.212 180.059 476.298 175.072C477.658 171.627 478.338 168.227 478.338 164.872C478.338 162.696 478.655 160.883 479.29 159.432C480.015 157.891 481.42 155.941 483.506 153.584C486.951 149.595 489.444 145.56 490.986 141.48C492.074 138.216 493.706 134.725 495.882 131.008C497.242 128.832 499.826 126.293 503.634 123.392C507.442 120.491 510.57 118.677 513.018 117.952ZM601.649 117.816C603.916 117.363 615.204 117.408 635.513 117.952C655.913 118.405 669.785 118.995 677.129 119.72C684.655 120.536 690.412 121.715 694.401 123.256C698.391 124.707 701.247 126.747 702.969 129.376C706.143 134.544 707.911 138.579 708.273 141.48C708.636 144.291 707.729 147.147 705.553 150.048C703.921 152.224 702.199 153.675 700.385 154.4C697.847 155.035 695.217 155.125 692.497 154.672C689.868 154.219 685.697 153.176 679.985 151.544C668.924 148.371 662.895 146.784 661.897 146.784C660.447 146.784 659.449 148.733 658.905 152.632C658.271 156.44 656.82 160.837 654.553 165.824C652.921 169.36 652.015 171.944 651.833 173.576C651.652 175.117 651.969 178.064 652.785 182.416C653.783 188.037 653.873 192.027 653.057 194.384C652.241 196.741 650.156 198.691 646.801 200.232C644.353 201.411 641.452 202.136 638.097 202.408C634.833 202.68 632.204 202.453 630.209 201.728C627.127 200.459 624.951 196.333 623.681 189.352C622.503 182.371 622.865 175.661 624.769 169.224C627.036 160.883 628.305 155.76 628.577 153.856C629.031 151.045 629.076 148.869 628.713 147.328C628.351 145.605 627.761 144.608 626.945 144.336C626.129 144.155 623.817 144.291 620.009 144.744C614.841 145.379 609.583 145.152 604.233 144.064C598.975 142.885 595.348 141.253 593.353 139.168C590.905 136.811 589.772 134.136 589.953 131.144C590.225 128.152 591.767 125.341 594.577 122.712C597.297 119.992 599.655 118.36 601.649 117.816ZM720.851 117.544C724.025 115.368 726.926 114.371 729.555 114.552C732.185 114.733 734.995 116.139 737.987 118.768C744.062 124.027 747.598 131.235 748.595 140.392C749.049 145.651 750.817 151.816 753.899 158.888C757.073 165.869 760.065 170.448 762.875 172.624C765.958 174.981 769.857 176.205 774.571 176.296C779.377 176.387 783.003 175.299 785.451 173.032C787.083 171.491 788.67 168.861 790.211 165.144C791.843 161.336 792.523 158.571 792.251 156.848C791.979 155.76 791.843 154.445 791.843 152.904C791.843 152.269 790.891 150.819 788.987 148.552C787.718 147.101 785.451 144.744 782.187 141.48C775.841 135.496 772.667 131.325 772.667 128.968C772.667 124.253 774.027 120.581 776.747 117.952C779.467 115.232 782.867 114.235 786.947 114.96C788.67 115.323 791.118 116.683 794.291 119.04C796.83 121.035 801.499 125.205 808.299 131.552C811.291 134.272 815.326 138.171 820.403 143.248C823.939 146.875 826.025 149.187 826.659 150.184C828.201 152.904 829.062 156.259 829.243 160.248C829.425 164.147 828.926 167.728 827.747 170.992C826.025 175.525 823.803 179.197 821.083 182.008C818.363 184.728 814.419 187.357 809.251 189.896C802.542 193.16 798.19 195.563 796.195 197.104C791.481 200.459 785.542 202.317 778.379 202.68C771.217 203.043 764.553 201.909 758.387 199.28C752.131 196.56 746.737 194.429 742.203 192.888C738.667 191.709 736.083 190.485 734.451 189.216C732.819 187.947 730.779 185.589 728.331 182.144C720.715 171.899 716.907 160.973 716.907 149.368C716.907 143.293 716.273 137.944 715.003 133.32C713.825 129.512 713.643 126.52 714.459 124.344C715.275 122.168 717.406 119.901 720.851 117.544ZM889.514 117.952C890.148 117.317 893.639 117 899.986 117C903.794 117 906.967 117.317 909.506 117.952C912.135 118.587 915.762 119.901 920.386 121.896C926.551 124.525 931.175 127.109 934.258 129.648C937.34 132.096 939.879 135.224 941.874 139.032C944.956 144.925 945.41 150.32 943.234 155.216C941.058 160.021 936.343 164.056 929.09 167.32L921.202 170.856L927.594 176.16C931.674 179.515 934.756 182.189 936.842 184.184C938.927 186.179 940.514 188.128 941.602 190.032C942.78 191.845 943.143 193.477 942.69 194.928C942.327 196.288 941.33 197.739 939.698 199.28C936.615 202.453 931.719 203.315 925.01 201.864C918.391 200.323 911.364 196.787 903.93 191.256C898.399 187.176 894.591 184.683 892.506 183.776C890.42 182.779 887.564 182.28 883.938 182.28C880.855 182.28 879.132 182.416 878.77 182.688C878.407 182.869 878.724 183.731 879.722 185.272C882.623 189.352 882.895 193.296 880.538 197.104C878.271 200.821 874.463 202.68 869.114 202.68C865.396 202.589 861.044 201.547 856.058 199.552C851.162 197.467 847.898 195.336 846.266 193.16C844.815 191.165 842.594 186.36 839.602 178.744C836.7 171.128 834.57 164.509 833.21 158.888C829.583 144.563 834.388 132.731 847.626 123.392C850.436 121.397 852.884 120.173 854.97 119.72C856.511 119.448 861.86 119.221 871.018 119.04C882.623 119.04 888.788 118.677 889.514 117.952ZM909.234 142.84C907.239 141.843 904.882 141.48 902.162 141.752C899.17 142.205 893.095 143.429 883.938 145.424C875.959 147.237 871.29 148.461 869.93 149.096C868.388 149.821 867.618 150.955 867.618 152.496C867.618 154.037 867.98 154.944 868.706 155.216C869.25 155.579 871.154 155.669 874.418 155.488C879.042 155.035 884.255 153.811 890.058 151.816C896.314 149.368 901.436 147.963 905.426 147.6C911.954 146.693 913.223 145.107 909.234 142.84ZM1061.17 172.08C1057.99 178.789 1056.23 182.416 1055.86 182.96L1051.78 186.904L1042.81 193.568C1035.19 199.189 1027.8 202.363 1020.64 203.088C1018.65 203.269 1016.65 203.269 1014.66 203.088C1012.75 202.907 1010.58 202.544 1008.13 202C1005.68 201.365 1004.18 201.003 1003.64 200.912L988 198.192C987.184 198.011 985.733 197.784 983.648 197.512C981.653 197.24 980.067 197.013 978.888 196.832C977.709 196.651 976.259 196.333 974.536 195.88C972.813 195.427 971.317 194.883 970.048 194.248C963.339 190.984 958.488 184.229 955.496 173.984L950.872 157.8L947.472 144.336C946.837 141.888 948.016 138.397 951.008 133.864C954 129.331 957.128 125.795 960.392 123.256C966.195 118.904 974.808 115.912 986.232 114.28C993.395 113.555 999.741 113.419 1005.27 113.872C1010.8 114.235 1015.06 114.96 1018.06 116.048L1027.17 119.448C1036.51 123.075 1041.86 125.931 1043.22 128.016C1044.3 129.739 1045.12 132.64 1045.66 136.72C1046.21 140.709 1046.16 143.883 1045.53 146.24C1044.8 148.869 1041.81 152.541 1036.55 157.256C1031.29 161.971 1025.67 166.277 1019.69 170.176C1013.79 173.984 1009.44 176.115 1006.63 176.568L1003.64 177.112L1004.59 177.928C1006.77 179.832 1011.48 179.379 1018.74 176.568C1025.99 173.667 1031.88 170.04 1036.42 165.688C1039.77 162.515 1042.67 160.203 1045.12 158.752C1047.66 157.301 1050.33 156.667 1053.14 156.848C1056.05 156.939 1059.04 158.163 1062.12 160.52C1062.3 160.611 1062.53 160.792 1062.8 161.064C1063.07 161.245 1063.25 161.381 1063.34 161.472C1063.53 161.563 1063.71 161.699 1063.89 161.88C1064.16 162.061 1064.34 162.243 1064.43 162.424C1064.52 162.515 1064.61 162.696 1064.7 162.968C1064.79 163.149 1064.84 163.376 1064.84 163.648C1064.93 163.829 1064.98 164.056 1064.98 164.328C1064.98 165.869 1063.89 168.272 1061.71 171.536C1061.44 171.899 1061.26 172.08 1061.17 172.08ZM1006.9 150.184C1006.63 149.277 1004.5 148.733 1000.51 148.552C996.523 148.28 993.531 148.552 991.536 149.368C987.909 150.819 986.549 153.357 987.456 156.984C988.091 159.16 989.405 160.248 991.4 160.248C994.392 160.248 997.837 159.069 1001.74 156.712C1005.73 154.355 1007.45 152.179 1006.9 150.184ZM1119.43 116.864C1122.97 115.957 1129.22 115.64 1138.2 115.912C1139.65 115.821 1141.15 115.867 1142.69 116.048C1144.32 116.139 1145.45 116.139 1146.09 116.048C1146.81 115.867 1147.77 115.957 1148.94 116.32C1150.21 116.592 1151.21 116.819 1151.94 117C1152.75 117.181 1154.02 117.635 1155.74 118.36C1157.47 118.995 1159.14 119.72 1160.78 120.536C1162.41 121.261 1164.72 122.304 1167.71 123.664C1172.06 124.843 1176.23 131.371 1180.22 143.248L1187.43 144.2C1191.69 144.744 1195.68 145.968 1199.4 147.872C1203.21 149.776 1205.93 151.861 1207.56 154.128C1209.01 156.395 1210.6 157.755 1212.32 158.208C1214.22 158.843 1216.04 161.064 1217.76 164.872C1219.48 168.68 1220.34 172.443 1220.34 176.16C1220.34 178.789 1220.03 180.92 1219.39 182.552C1218.85 184.093 1217.76 185.861 1216.13 187.856C1212.86 191.755 1209.1 194.611 1204.84 196.424C1200.67 198.237 1194.69 199.552 1186.89 200.368C1179.18 201.184 1167.53 201.728 1151.94 202C1137.07 202.181 1127.5 202.181 1123.24 202C1119.07 201.819 1116.21 201.275 1114.67 200.368C1111.32 198.101 1109.1 194.157 1108.01 188.536C1107.01 182.915 1107.28 176.16 1108.82 168.272C1109.64 163.557 1109.37 156.984 1108.01 148.552C1106.47 140.211 1106.01 134.453 1106.65 131.28C1107.19 127.925 1108.64 124.933 1111 122.304C1113.45 119.584 1116.26 117.771 1119.43 116.864ZM1141.87 133.864C1140.24 133.411 1137.47 133.229 1133.58 133.32C1129.77 133.411 1127.64 133.683 1127.18 134.136C1126.37 134.861 1126.14 135.995 1126.5 137.536C1126.87 138.987 1127.59 139.939 1128.68 140.392C1130.04 140.936 1131.94 141.208 1134.39 141.208C1136.84 141.208 1139.11 140.936 1141.19 140.392C1142.91 139.939 1143.87 138.896 1144.05 137.264C1144.23 135.541 1143.5 134.408 1141.87 133.864ZM1178.59 170.992C1177.78 170.267 1171.43 169.677 1159.55 169.224C1147.77 168.771 1140.92 168.861 1139.02 169.496C1138.02 169.768 1136.75 171.264 1135.21 173.984C1134.21 175.888 1133.76 177.112 1133.85 177.656C1134.03 178.2 1134.94 178.789 1136.57 179.424C1138.93 180.512 1146 180.421 1157.78 179.152C1169.57 177.792 1176.28 176.341 1177.91 174.8C1179.36 173.259 1179.59 171.989 1178.59 170.992ZM1261.81 117.952C1263.81 117.408 1266.35 117.408 1269.43 117.952C1272.6 118.405 1275.1 119.221 1276.91 120.4C1278.18 121.216 1279.04 122.168 1279.49 123.256C1279.95 124.253 1280.17 125.84 1280.17 128.016C1280.17 134.816 1277 141.117 1270.65 146.92C1267.03 150.275 1263.85 155.443 1261.13 162.424C1258.32 169.496 1257.19 173.304 1257.73 173.848C1258.19 174.301 1262.13 174.845 1269.57 175.48C1277.91 176.205 1284.66 177.112 1289.83 178.2C1298.26 179.832 1302.48 179.605 1302.48 177.52C1302.57 177.067 1302.39 176.432 1301.93 175.616C1300.94 173.621 1300.48 170.267 1300.57 165.552C1300.76 160.837 1301.44 157.347 1302.61 155.08C1303.88 152.541 1305.79 151 1308.33 150.456C1310.87 149.821 1313.4 150.048 1315.94 151.136C1318.48 152.224 1320.84 154.128 1323.01 156.848C1325.19 159.477 1326.6 162.469 1327.23 165.824C1327.68 168.725 1329.32 172.488 1332.13 177.112C1334.3 180.557 1335.35 183.277 1335.25 185.272C1335.25 187.176 1334.08 190.077 1331.72 193.976C1329.45 197.421 1327 199.371 1324.37 199.824C1320.48 200.731 1316.53 201.139 1312.54 201.048C1311.73 201.048 1308.28 201.139 1302.21 201.32C1296.22 201.501 1291.87 201.501 1289.15 201.32C1267.75 201.139 1253.61 201.365 1246.72 202C1242.28 202.453 1239.28 202.544 1237.74 202.272C1236.2 202.091 1234.16 201.184 1231.62 199.552C1227.45 197.013 1224.78 193.568 1223.6 189.216C1222.51 184.773 1223.01 180.059 1225.09 175.072C1226.45 171.627 1227.13 168.227 1227.13 164.872C1227.13 162.696 1227.45 160.883 1228.09 159.432C1228.81 157.891 1230.22 155.941 1232.3 153.584C1235.75 149.595 1238.24 145.56 1239.78 141.48C1240.87 138.216 1242.5 134.725 1244.68 131.008C1246.04 128.832 1248.62 126.293 1252.43 123.392C1256.24 120.491 1259.37 118.677 1261.81 117.952ZM1383.09 117.952C1388.16 114.779 1393.83 114.779 1400.09 117.952C1406.8 121.488 1411.65 128.56 1414.64 139.168C1416.18 144.517 1417.63 148.552 1418.99 151.272C1420.44 153.901 1422.8 157.12 1426.06 160.928C1429.69 165.099 1431.77 168.997 1432.32 172.624C1432.95 175.797 1434.77 179.741 1437.76 184.456C1442.02 190.259 1443.38 194.701 1441.84 197.784C1440.39 200.867 1436.13 202.408 1429.05 202.408C1425.43 202.408 1422.48 202.136 1420.21 201.592C1418.04 200.957 1414.96 199.597 1410.97 197.512C1406.34 194.973 1403.26 193.568 1401.72 193.296C1400.27 193.024 1397.55 193.341 1393.56 194.248C1388.12 195.336 1383.95 195.381 1381.05 194.384C1377.51 193.205 1374.61 192.843 1372.34 193.296C1370.17 193.659 1367.4 195.109 1364.05 197.648C1355.98 203.995 1349.18 204.403 1343.65 198.872C1342.1 197.331 1341.2 195.789 1340.93 194.248C1340.47 191.619 1342.24 184.637 1346.23 173.304C1348.13 168.045 1349.81 164.101 1351.26 161.472C1352.8 158.752 1354.8 156.123 1357.25 153.584C1361.51 149.323 1365 144.291 1367.72 138.488C1373.07 127.699 1378.19 120.853 1383.09 117.952ZM1394.24 156.984C1392.97 152.179 1391.7 149.776 1390.43 149.776C1389.16 149.776 1387.3 152.179 1384.85 156.984C1383.49 159.613 1383.27 161.517 1384.17 162.696C1385.17 163.784 1387.44 164.328 1390.97 164.328C1394.42 164.328 1396.14 164.192 1396.14 163.92L1394.24 156.984ZM1471.23 112.376C1485.01 107.48 1503.1 109.203 1525.49 117.544C1530.2 119.267 1533.74 120.219 1536.1 120.4C1538.36 120.4 1540.77 121.171 1543.31 122.712C1545.94 124.163 1547.48 125.659 1547.93 127.2C1549.38 132.187 1547.43 137.264 1542.08 142.432C1537.37 146.965 1533.29 149.549 1529.84 150.184C1526.4 150.819 1523.09 149.549 1519.91 146.376C1517.28 143.747 1515.97 141.797 1515.97 140.528C1515.97 138.805 1513.88 137.037 1509.71 135.224C1505.54 133.411 1501.46 132.504 1497.47 132.504C1492.4 132.413 1489.63 132.595 1489.18 133.048C1488.09 134.136 1488.63 135.723 1490.81 137.808C1492.99 139.893 1496.16 142.024 1500.33 144.2C1504.59 146.285 1508.9 147.872 1513.25 148.96C1517.42 149.957 1521.09 151.544 1524.27 153.72C1527.35 155.715 1530.84 157.256 1534.74 158.344C1538.18 159.251 1541.45 161.381 1544.53 164.736C1550.6 171.808 1552.64 178.699 1550.65 185.408C1548.75 192.117 1543.17 197.195 1533.92 200.64C1529.48 202.363 1524.67 203.179 1519.51 203.088C1514.34 202.997 1503.91 201.773 1488.23 199.416C1475.9 197.603 1467.24 195.608 1462.25 193.432C1457.35 191.165 1453.64 187.629 1451.1 182.824C1449.01 178.472 1447.97 175.435 1447.97 173.712C1447.97 171.627 1448.7 169.269 1450.15 166.64C1451.6 163.92 1453.09 162.107 1454.63 161.2C1456.63 160.203 1458.99 159.795 1461.71 159.976C1464.52 160.157 1466.38 160.837 1467.28 162.016C1469.73 165.099 1472.27 167.773 1474.9 170.04C1477.53 172.307 1479.48 173.44 1480.75 173.44C1482.56 173.44 1486.73 174.845 1493.26 177.656C1500.33 180.557 1505.86 182.008 1509.85 182.008C1512.84 182.099 1514.75 182.008 1515.56 181.736C1516.29 181.464 1516.65 180.557 1516.65 179.016C1516.65 176.477 1515.06 174.301 1511.89 172.488C1508.72 170.765 1503.41 169.224 1495.98 167.864C1483.01 165.416 1472.22 161.245 1463.61 155.352C1455 149.368 1450.69 143.157 1450.69 136.72C1450.69 125.205 1457.54 117.091 1471.23 112.376ZM1566.4 117.816C1568.67 117.363 1579.95 117.408 1600.26 117.952C1620.66 118.405 1634.54 118.995 1641.88 119.72C1649.4 120.536 1655.16 121.715 1659.15 123.256C1663.14 124.707 1666 126.747 1667.72 129.376C1670.89 134.544 1672.66 138.579 1673.02 141.48C1673.39 144.291 1672.48 147.147 1670.3 150.048C1668.67 152.224 1666.95 153.675 1665.14 154.4C1662.6 155.035 1659.97 155.125 1657.25 154.672C1654.62 154.219 1650.45 153.176 1644.74 151.544C1633.67 148.371 1627.64 146.784 1626.65 146.784C1625.2 146.784 1624.2 148.733 1623.66 152.632C1623.02 156.44 1621.57 160.837 1619.3 165.824C1617.67 169.36 1616.76 171.944 1616.58 173.576C1616.4 175.117 1616.72 178.064 1617.54 182.416C1618.53 188.037 1618.62 192.027 1617.81 194.384C1616.99 196.741 1614.91 198.691 1611.55 200.232C1609.1 201.411 1606.2 202.136 1602.85 202.408C1599.58 202.68 1596.95 202.453 1594.96 201.728C1591.88 200.459 1589.7 196.333 1588.43 189.352C1587.25 182.371 1587.62 175.661 1589.52 169.224C1591.79 160.883 1593.06 155.76 1593.33 153.856C1593.78 151.045 1593.83 148.869 1593.46 147.328C1593.1 145.605 1592.51 144.608 1591.7 144.336C1590.88 144.155 1588.57 144.291 1584.76 144.744C1579.59 145.379 1574.33 145.152 1568.98 144.064C1563.72 142.885 1560.1 141.253 1558.1 139.168C1555.66 136.811 1554.52 134.136 1554.7 131.144C1554.98 128.152 1556.52 125.341 1559.33 122.712C1562.05 119.992 1564.4 118.36 1566.4 117.816Z" fill="#2E281D"/>
<path d="M289.288 98.288C291.827 97.1093 295.317 96.4747 299.76 96.384C304.293 96.2933 307.512 96.7467 309.416 97.744C311.501 98.832 313.904 100.691 316.624 103.32C318.709 105.224 320.205 106.267 321.112 106.448C322.109 106.629 324.149 106.312 327.232 105.496C331.221 104.499 334.44 104.544 336.888 105.632C339.427 106.629 341.603 108.941 343.416 112.568C345.864 117.283 346.091 122.587 344.096 128.48C342.101 134.373 338.203 140.04 332.4 145.48C328.592 149.197 324.784 151.736 320.976 153.096C317.168 154.365 313.904 154.365 311.184 153.096C307.195 151.464 305.744 146.749 306.832 138.952C307.195 136.141 307.24 134.373 306.968 133.648C306.696 132.832 305.789 132.061 304.248 131.336C301.981 130.429 299.171 130.429 295.816 131.336C292.371 132.515 289.515 133.149 287.248 133.24C285.888 133.421 284.981 133.875 284.528 134.6C284.075 135.235 283.712 136.595 283.44 138.68C283.168 142.035 283.621 144.709 284.8 146.704C285.979 148.699 288.291 150.739 291.736 152.824C296.088 155.725 299.488 158.309 301.936 160.576C303.931 162.48 305.381 163.613 306.288 163.976C307.285 164.248 308.781 164.021 310.776 163.296C313.224 162.389 316.125 161.573 319.48 160.848C322.291 160.304 326.008 157.448 330.632 152.28C334.259 148.109 338.157 144.755 342.328 142.216C346.589 139.677 350.397 138.408 353.752 138.408C356.653 138.408 358.965 139.859 360.688 142.76C362.501 145.571 363.408 149.288 363.408 153.912C363.408 157.811 362.728 161.029 361.368 163.568C360.099 166.107 357.651 168.872 354.024 171.864C350.216 175.128 344.187 179.48 335.936 184.92C330.859 188.365 324.557 190.269 317.032 190.632C309.507 191.085 302.389 189.907 295.68 187.096C292.869 186.008 288.835 185.419 283.576 185.328C275.688 185.147 268.797 182.427 262.904 177.168C257.101 171.819 254.064 165.563 253.792 158.4C253.611 153.595 252.341 148.744 249.984 143.848C247.899 139.405 246.811 135.688 246.72 132.696C246.629 129.704 247.491 126.168 249.304 122.088C252.205 115.741 256.376 110.528 261.816 106.448C267.347 102.368 272.968 100.328 278.68 100.328C283.485 100.147 287.021 99.4667 289.288 98.288ZM375.844 104.544C379.017 102.368 381.918 101.371 384.548 101.552C387.177 101.733 389.988 103.139 392.98 105.768C399.054 111.027 402.59 118.235 403.588 127.392C404.041 132.651 405.809 138.816 408.892 145.888C412.065 152.869 415.057 157.448 417.868 159.624C420.95 161.981 424.849 163.205 429.564 163.296C434.369 163.387 437.996 162.299 440.444 160.032C442.076 158.491 443.662 155.861 445.204 152.144C446.836 148.336 447.516 145.571 447.244 143.848C446.972 142.76 446.836 141.445 446.836 139.904C446.836 139.269 445.884 137.819 443.98 135.552C442.71 134.101 440.444 131.744 437.18 128.48C430.833 122.496 427.66 118.325 427.66 115.968C427.66 111.253 429.02 107.581 431.74 104.952C434.46 102.232 437.86 101.235 441.94 101.96C443.662 102.323 446.11 103.683 449.284 106.04C451.822 108.035 456.492 112.205 463.292 118.552C466.284 121.272 470.318 125.171 475.396 130.248C478.932 133.875 481.017 136.187 481.652 137.184C483.193 139.904 484.054 143.259 484.236 147.248C484.417 151.147 483.918 154.728 482.74 157.992C481.017 162.525 478.796 166.197 476.076 169.008C473.356 171.728 469.412 174.357 464.244 176.896C457.534 180.16 453.182 182.563 451.188 184.104C446.473 187.459 440.534 189.317 433.372 189.68C426.209 190.043 419.545 188.909 413.38 186.28C407.124 183.56 401.729 181.429 397.196 179.888C393.66 178.709 391.076 177.485 389.444 176.216C387.812 174.947 385.772 172.589 383.324 169.144C375.708 158.899 371.9 147.973 371.9 136.368C371.9 130.293 371.265 124.944 369.996 120.32C368.817 116.512 368.636 113.52 369.452 111.344C370.267 109.168 372.398 106.901 375.844 104.544ZM523.018 104.952C525.012 104.408 527.551 104.408 530.634 104.952C533.807 105.405 536.3 106.221 538.114 107.4C539.383 108.216 540.244 109.168 540.698 110.256C541.151 111.253 541.378 112.84 541.378 115.016C541.378 121.816 538.204 128.117 531.858 133.92C528.231 137.275 525.058 142.443 522.338 149.424C519.527 156.496 518.394 160.304 518.938 160.848C519.391 161.301 523.335 161.845 530.77 162.48C539.111 163.205 545.866 164.112 551.034 165.2C559.466 166.832 563.682 166.605 563.682 164.52C563.772 164.067 563.591 163.432 563.138 162.616C562.14 160.621 561.687 157.267 561.778 152.552C561.959 147.837 562.639 144.347 563.818 142.08C565.087 139.541 566.991 138 569.53 137.456C572.068 136.821 574.607 137.048 577.146 138.136C579.684 139.224 582.042 141.128 584.218 143.848C586.394 146.477 587.799 149.469 588.434 152.824C588.887 155.725 590.519 159.488 593.33 164.112C595.506 167.557 596.548 170.277 596.458 172.272C596.458 174.176 595.279 177.077 592.922 180.976C590.655 184.421 588.207 186.371 585.578 186.824C581.679 187.731 577.735 188.139 573.746 188.048C572.93 188.048 569.484 188.139 563.41 188.32C557.426 188.501 553.074 188.501 550.354 188.32C528.956 188.139 514.812 188.365 507.922 189C503.479 189.453 500.487 189.544 498.946 189.272C497.404 189.091 495.364 188.184 492.826 186.552C488.655 184.013 485.98 180.568 484.802 176.216C483.714 171.773 484.212 167.059 486.298 162.072C487.658 158.627 488.338 155.227 488.338 151.872C488.338 149.696 488.655 147.883 489.29 146.432C490.015 144.891 491.42 142.941 493.506 140.584C496.951 136.595 499.444 132.56 500.986 128.48C502.074 125.216 503.706 121.725 505.882 118.008C507.242 115.832 509.826 113.293 513.634 110.392C517.442 107.491 520.57 105.677 523.018 104.952ZM611.649 104.816C613.916 104.363 625.204 104.408 645.513 104.952C665.913 105.405 679.785 105.995 687.129 106.72C694.655 107.536 700.412 108.715 704.401 110.256C708.391 111.707 711.247 113.747 712.969 116.376C716.143 121.544 717.911 125.579 718.273 128.48C718.636 131.291 717.729 134.147 715.553 137.048C713.921 139.224 712.199 140.675 710.385 141.4C707.847 142.035 705.217 142.125 702.497 141.672C699.868 141.219 695.697 140.176 689.985 138.544C678.924 135.371 672.895 133.784 671.897 133.784C670.447 133.784 669.449 135.733 668.905 139.632C668.271 143.44 666.82 147.837 664.553 152.824C662.921 156.36 662.015 158.944 661.833 160.576C661.652 162.117 661.969 165.064 662.785 169.416C663.783 175.037 663.873 179.027 663.057 181.384C662.241 183.741 660.156 185.691 656.801 187.232C654.353 188.411 651.452 189.136 648.097 189.408C644.833 189.68 642.204 189.453 640.209 188.728C637.127 187.459 634.951 183.333 633.681 176.352C632.503 169.371 632.865 162.661 634.769 156.224C637.036 147.883 638.305 142.76 638.577 140.856C639.031 138.045 639.076 135.869 638.713 134.328C638.351 132.605 637.761 131.608 636.945 131.336C636.129 131.155 633.817 131.291 630.009 131.744C624.841 132.379 619.583 132.152 614.233 131.064C608.975 129.885 605.348 128.253 603.353 126.168C600.905 123.811 599.772 121.136 599.953 118.144C600.225 115.152 601.767 112.341 604.577 109.712C607.297 106.992 609.655 105.36 611.649 104.816ZM730.851 104.544C734.025 102.368 736.926 101.371 739.555 101.552C742.185 101.733 744.995 103.139 747.987 105.768C754.062 111.027 757.598 118.235 758.595 127.392C759.049 132.651 760.817 138.816 763.899 145.888C767.073 152.869 770.065 157.448 772.875 159.624C775.958 161.981 779.857 163.205 784.571 163.296C789.377 163.387 793.003 162.299 795.451 160.032C797.083 158.491 798.67 155.861 800.211 152.144C801.843 148.336 802.523 145.571 802.251 143.848C801.979 142.76 801.843 141.445 801.843 139.904C801.843 139.269 800.891 137.819 798.987 135.552C797.718 134.101 795.451 131.744 792.187 128.48C785.841 122.496 782.667 118.325 782.667 115.968C782.667 111.253 784.027 107.581 786.747 104.952C789.467 102.232 792.867 101.235 796.947 101.96C798.67 102.323 801.118 103.683 804.291 106.04C806.83 108.035 811.499 112.205 818.299 118.552C821.291 121.272 825.326 125.171 830.403 130.248C833.939 133.875 836.025 136.187 836.659 137.184C838.201 139.904 839.062 143.259 839.243 147.248C839.425 151.147 838.926 154.728 837.747 157.992C836.025 162.525 833.803 166.197 831.083 169.008C828.363 171.728 824.419 174.357 819.251 176.896C812.542 180.16 808.19 182.563 806.195 184.104C801.481 187.459 795.542 189.317 788.379 189.68C781.217 190.043 774.553 188.909 768.387 186.28C762.131 183.56 756.737 181.429 752.203 179.888C748.667 178.709 746.083 177.485 744.451 176.216C742.819 174.947 740.779 172.589 738.331 169.144C730.715 158.899 726.907 147.973 726.907 136.368C726.907 130.293 726.273 124.944 725.003 120.32C723.825 116.512 723.643 113.52 724.459 111.344C725.275 109.168 727.406 106.901 730.851 104.544ZM899.514 104.952C900.148 104.317 903.639 104 909.986 104C913.794 104 916.967 104.317 919.506 104.952C922.135 105.587 925.762 106.901 930.386 108.896C936.551 111.525 941.175 114.109 944.258 116.648C947.34 119.096 949.879 122.224 951.874 126.032C954.956 131.925 955.41 137.32 953.234 142.216C951.058 147.021 946.343 151.056 939.09 154.32L931.202 157.856L937.594 163.16C941.674 166.515 944.756 169.189 946.842 171.184C948.927 173.179 950.514 175.128 951.602 177.032C952.78 178.845 953.143 180.477 952.69 181.928C952.327 183.288 951.33 184.739 949.698 186.28C946.615 189.453 941.719 190.315 935.01 188.864C928.391 187.323 921.364 183.787 913.93 178.256C908.399 174.176 904.591 171.683 902.506 170.776C900.42 169.779 897.564 169.28 893.938 169.28C890.855 169.28 889.132 169.416 888.77 169.688C888.407 169.869 888.724 170.731 889.722 172.272C892.623 176.352 892.895 180.296 890.538 184.104C888.271 187.821 884.463 189.68 879.114 189.68C875.396 189.589 871.044 188.547 866.058 186.552C861.162 184.467 857.898 182.336 856.266 180.16C854.815 178.165 852.594 173.36 849.602 165.744C846.7 158.128 844.57 151.509 843.21 145.888C839.583 131.563 844.388 119.731 857.626 110.392C860.436 108.397 862.884 107.173 864.97 106.72C866.511 106.448 871.86 106.221 881.018 106.04C892.623 106.04 898.788 105.677 899.514 104.952ZM919.234 129.84C917.239 128.843 914.882 128.48 912.162 128.752C909.17 129.205 903.095 130.429 893.938 132.424C885.959 134.237 881.29 135.461 879.93 136.096C878.388 136.821 877.618 137.955 877.618 139.496C877.618 141.037 877.98 141.944 878.706 142.216C879.25 142.579 881.154 142.669 884.418 142.488C889.042 142.035 894.255 140.811 900.058 138.816C906.314 136.368 911.436 134.963 915.426 134.6C921.954 133.693 923.223 132.107 919.234 129.84ZM1071.17 159.08C1067.99 165.789 1066.23 169.416 1065.86 169.96L1061.78 173.904L1052.81 180.568C1045.19 186.189 1037.8 189.363 1030.64 190.088C1028.65 190.269 1026.65 190.269 1024.66 190.088C1022.75 189.907 1020.58 189.544 1018.13 189C1015.68 188.365 1014.18 188.003 1013.64 187.912L998 185.192C997.184 185.011 995.733 184.784 993.648 184.512C991.653 184.24 990.067 184.013 988.888 183.832C987.709 183.651 986.259 183.333 984.536 182.88C982.813 182.427 981.317 181.883 980.048 181.248C973.339 177.984 968.488 171.229 965.496 160.984L960.872 144.8L957.472 131.336C956.837 128.888 958.016 125.397 961.008 120.864C964 116.331 967.128 112.795 970.392 110.256C976.195 105.904 984.808 102.912 996.232 101.28C1003.39 100.555 1009.74 100.419 1015.27 100.872C1020.8 101.235 1025.06 101.96 1028.06 103.048L1037.17 106.448C1046.51 110.075 1051.86 112.931 1053.22 115.016C1054.3 116.739 1055.12 119.64 1055.66 123.72C1056.21 127.709 1056.16 130.883 1055.53 133.24C1054.8 135.869 1051.81 139.541 1046.55 144.256C1041.29 148.971 1035.67 153.277 1029.69 157.176C1023.79 160.984 1019.44 163.115 1016.63 163.568L1013.64 164.112L1014.59 164.928C1016.77 166.832 1021.48 166.379 1028.74 163.568C1035.99 160.667 1041.88 157.04 1046.42 152.688C1049.77 149.515 1052.67 147.203 1055.12 145.752C1057.66 144.301 1060.33 143.667 1063.14 143.848C1066.05 143.939 1069.04 145.163 1072.12 147.52C1072.3 147.611 1072.53 147.792 1072.8 148.064C1073.07 148.245 1073.25 148.381 1073.34 148.472C1073.53 148.563 1073.71 148.699 1073.89 148.88C1074.16 149.061 1074.34 149.243 1074.43 149.424C1074.52 149.515 1074.61 149.696 1074.7 149.968C1074.79 150.149 1074.84 150.376 1074.84 150.648C1074.93 150.829 1074.98 151.056 1074.98 151.328C1074.98 152.869 1073.89 155.272 1071.71 158.536C1071.44 158.899 1071.26 159.08 1071.17 159.08ZM1016.9 137.184C1016.63 136.277 1014.5 135.733 1010.51 135.552C1006.52 135.28 1003.53 135.552 1001.54 136.368C997.909 137.819 996.549 140.357 997.456 143.984C998.091 146.16 999.405 147.248 1001.4 147.248C1004.39 147.248 1007.84 146.069 1011.74 143.712C1015.73 141.355 1017.45 139.179 1016.9 137.184ZM1129.43 103.864C1132.97 102.957 1139.22 102.64 1148.2 102.912C1149.65 102.821 1151.15 102.867 1152.69 103.048C1154.32 103.139 1155.45 103.139 1156.09 103.048C1156.81 102.867 1157.77 102.957 1158.94 103.32C1160.21 103.592 1161.21 103.819 1161.94 104C1162.75 104.181 1164.02 104.635 1165.74 105.36C1167.47 105.995 1169.14 106.72 1170.78 107.536C1172.41 108.261 1174.72 109.304 1177.71 110.664C1182.06 111.843 1186.23 118.371 1190.22 130.248L1197.43 131.2C1201.69 131.744 1205.68 132.968 1209.4 134.872C1213.21 136.776 1215.93 138.861 1217.56 141.128C1219.01 143.395 1220.6 144.755 1222.32 145.208C1224.22 145.843 1226.04 148.064 1227.76 151.872C1229.48 155.68 1230.34 159.443 1230.34 163.16C1230.34 165.789 1230.03 167.92 1229.39 169.552C1228.85 171.093 1227.76 172.861 1226.13 174.856C1222.86 178.755 1219.1 181.611 1214.84 183.424C1210.67 185.237 1204.69 186.552 1196.89 187.368C1189.18 188.184 1177.53 188.728 1161.94 189C1147.07 189.181 1137.5 189.181 1133.24 189C1129.07 188.819 1126.21 188.275 1124.67 187.368C1121.32 185.101 1119.1 181.157 1118.01 175.536C1117.01 169.915 1117.28 163.16 1118.82 155.272C1119.64 150.557 1119.37 143.984 1118.01 135.552C1116.47 127.211 1116.01 121.453 1116.65 118.28C1117.19 114.925 1118.64 111.933 1121 109.304C1123.45 106.584 1126.26 104.771 1129.43 103.864ZM1151.87 120.864C1150.24 120.411 1147.47 120.229 1143.58 120.32C1139.77 120.411 1137.64 120.683 1137.18 121.136C1136.37 121.861 1136.14 122.995 1136.5 124.536C1136.87 125.987 1137.59 126.939 1138.68 127.392C1140.04 127.936 1141.94 128.208 1144.39 128.208C1146.84 128.208 1149.11 127.936 1151.19 127.392C1152.91 126.939 1153.87 125.896 1154.05 124.264C1154.23 122.541 1153.5 121.408 1151.87 120.864ZM1188.59 157.992C1187.78 157.267 1181.43 156.677 1169.55 156.224C1157.77 155.771 1150.92 155.861 1149.02 156.496C1148.02 156.768 1146.75 158.264 1145.21 160.984C1144.21 162.888 1143.76 164.112 1143.85 164.656C1144.03 165.2 1144.94 165.789 1146.57 166.424C1148.93 167.512 1156 167.421 1167.78 166.152C1179.57 164.792 1186.28 163.341 1187.91 161.8C1189.36 160.259 1189.59 158.989 1188.59 157.992ZM1271.81 104.952C1273.81 104.408 1276.35 104.408 1279.43 104.952C1282.6 105.405 1285.1 106.221 1286.91 107.4C1288.18 108.216 1289.04 109.168 1289.49 110.256C1289.95 111.253 1290.17 112.84 1290.17 115.016C1290.17 121.816 1287 128.117 1280.65 133.92C1277.03 137.275 1273.85 142.443 1271.13 149.424C1268.32 156.496 1267.19 160.304 1267.73 160.848C1268.19 161.301 1272.13 161.845 1279.57 162.48C1287.91 163.205 1294.66 164.112 1299.83 165.2C1308.26 166.832 1312.48 166.605 1312.48 164.52C1312.57 164.067 1312.39 163.432 1311.93 162.616C1310.94 160.621 1310.48 157.267 1310.57 152.552C1310.76 147.837 1311.44 144.347 1312.61 142.08C1313.88 139.541 1315.79 138 1318.33 137.456C1320.87 136.821 1323.4 137.048 1325.94 138.136C1328.48 139.224 1330.84 141.128 1333.01 143.848C1335.19 146.477 1336.6 149.469 1337.23 152.824C1337.68 155.725 1339.32 159.488 1342.13 164.112C1344.3 167.557 1345.35 170.277 1345.25 172.272C1345.25 174.176 1344.08 177.077 1341.72 180.976C1339.45 184.421 1337 186.371 1334.37 186.824C1330.48 187.731 1326.53 188.139 1322.54 188.048C1321.73 188.048 1318.28 188.139 1312.21 188.32C1306.22 188.501 1301.87 188.501 1299.15 188.32C1277.75 188.139 1263.61 188.365 1256.72 189C1252.28 189.453 1249.28 189.544 1247.74 189.272C1246.2 189.091 1244.16 188.184 1241.62 186.552C1237.45 184.013 1234.78 180.568 1233.6 176.216C1232.51 171.773 1233.01 167.059 1235.09 162.072C1236.45 158.627 1237.13 155.227 1237.13 151.872C1237.13 149.696 1237.45 147.883 1238.09 146.432C1238.81 144.891 1240.22 142.941 1242.3 140.584C1245.75 136.595 1248.24 132.56 1249.78 128.48C1250.87 125.216 1252.5 121.725 1254.68 118.008C1256.04 115.832 1258.62 113.293 1262.43 110.392C1266.24 107.491 1269.37 105.677 1271.81 104.952ZM1393.09 104.952C1398.16 101.779 1403.83 101.779 1410.09 104.952C1416.8 108.488 1421.65 115.56 1424.64 126.168C1426.18 131.517 1427.63 135.552 1428.99 138.272C1430.44 140.901 1432.8 144.12 1436.06 147.928C1439.69 152.099 1441.77 155.997 1442.32 159.624C1442.95 162.797 1444.77 166.741 1447.76 171.456C1452.02 177.259 1453.38 181.701 1451.84 184.784C1450.39 187.867 1446.13 189.408 1439.05 189.408C1435.43 189.408 1432.48 189.136 1430.21 188.592C1428.04 187.957 1424.96 186.597 1420.97 184.512C1416.34 181.973 1413.26 180.568 1411.72 180.296C1410.27 180.024 1407.55 180.341 1403.56 181.248C1398.12 182.336 1393.95 182.381 1391.05 181.384C1387.51 180.205 1384.61 179.843 1382.34 180.296C1380.17 180.659 1377.4 182.109 1374.05 184.648C1365.98 190.995 1359.18 191.403 1353.65 185.872C1352.1 184.331 1351.2 182.789 1350.93 181.248C1350.47 178.619 1352.24 171.637 1356.23 160.304C1358.13 155.045 1359.81 151.101 1361.26 148.472C1362.8 145.752 1364.8 143.123 1367.25 140.584C1371.51 136.323 1375 131.291 1377.72 125.488C1383.07 114.699 1388.19 107.853 1393.09 104.952ZM1404.24 143.984C1402.97 139.179 1401.7 136.776 1400.43 136.776C1399.16 136.776 1397.3 139.179 1394.85 143.984C1393.49 146.613 1393.27 148.517 1394.17 149.696C1395.17 150.784 1397.44 151.328 1400.97 151.328C1404.42 151.328 1406.14 151.192 1406.14 150.92L1404.24 143.984ZM1481.23 99.376C1495.01 94.48 1513.1 96.2027 1535.49 104.544C1540.2 106.267 1543.74 107.219 1546.1 107.4C1548.36 107.4 1550.77 108.171 1553.31 109.712C1555.94 111.163 1557.48 112.659 1557.93 114.2C1559.38 119.187 1557.43 124.264 1552.08 129.432C1547.37 133.965 1543.29 136.549 1539.84 137.184C1536.4 137.819 1533.09 136.549 1529.91 133.376C1527.28 130.747 1525.97 128.797 1525.97 127.528C1525.97 125.805 1523.88 124.037 1519.71 122.224C1515.54 120.411 1511.46 119.504 1507.47 119.504C1502.4 119.413 1499.63 119.595 1499.18 120.048C1498.09 121.136 1498.63 122.723 1500.81 124.808C1502.99 126.893 1506.16 129.024 1510.33 131.2C1514.59 133.285 1518.9 134.872 1523.25 135.96C1527.42 136.957 1531.09 138.544 1534.27 140.72C1537.35 142.715 1540.84 144.256 1544.74 145.344C1548.18 146.251 1551.45 148.381 1554.53 151.736C1560.6 158.808 1562.64 165.699 1560.65 172.408C1558.75 179.117 1553.17 184.195 1543.92 187.64C1539.48 189.363 1534.67 190.179 1529.51 190.088C1524.34 189.997 1513.91 188.773 1498.23 186.416C1485.9 184.603 1477.24 182.608 1472.25 180.432C1467.35 178.165 1463.64 174.629 1461.1 169.824C1459.01 165.472 1457.97 162.435 1457.97 160.712C1457.97 158.627 1458.7 156.269 1460.15 153.64C1461.6 150.92 1463.09 149.107 1464.63 148.2C1466.63 147.203 1468.99 146.795 1471.71 146.976C1474.52 147.157 1476.38 147.837 1477.28 149.016C1479.73 152.099 1482.27 154.773 1484.9 157.04C1487.53 159.307 1489.48 160.44 1490.75 160.44C1492.56 160.44 1496.73 161.845 1503.26 164.656C1510.33 167.557 1515.86 169.008 1519.85 169.008C1522.84 169.099 1524.75 169.008 1525.56 168.736C1526.29 168.464 1526.65 167.557 1526.65 166.016C1526.65 163.477 1525.06 161.301 1521.89 159.488C1518.72 157.765 1513.41 156.224 1505.98 154.864C1493.01 152.416 1482.22 148.245 1473.61 142.352C1465 136.368 1460.69 130.157 1460.69 123.72C1460.69 112.205 1467.54 104.091 1481.23 99.376ZM1576.4 104.816C1578.67 104.363 1589.95 104.408 1610.26 104.952C1630.66 105.405 1644.54 105.995 1651.88 106.72C1659.4 107.536 1665.16 108.715 1669.15 110.256C1673.14 111.707 1676 113.747 1677.72 116.376C1680.89 121.544 1682.66 125.579 1683.02 128.48C1683.39 131.291 1682.48 134.147 1680.3 137.048C1678.67 139.224 1676.95 140.675 1675.14 141.4C1672.6 142.035 1669.97 142.125 1667.25 141.672C1664.62 141.219 1660.45 140.176 1654.74 138.544C1643.67 135.371 1637.64 133.784 1636.65 133.784C1635.2 133.784 1634.2 135.733 1633.66 139.632C1633.02 143.44 1631.57 147.837 1629.3 152.824C1627.67 156.36 1626.76 158.944 1626.58 160.576C1626.4 162.117 1626.72 165.064 1627.54 169.416C1628.53 175.037 1628.62 179.027 1627.81 181.384C1626.99 183.741 1624.91 185.691 1621.55 187.232C1619.1 188.411 1616.2 189.136 1612.85 189.408C1609.58 189.68 1606.95 189.453 1604.96 188.728C1601.88 187.459 1599.7 183.333 1598.43 176.352C1597.25 169.371 1597.62 162.661 1599.52 156.224C1601.79 147.883 1603.06 142.76 1603.33 140.856C1603.78 138.045 1603.83 135.869 1603.46 134.328C1603.1 132.605 1602.51 131.608 1601.7 131.336C1600.88 131.155 1598.57 131.291 1594.76 131.744C1589.59 132.379 1584.33 132.152 1578.98 131.064C1573.72 129.885 1570.1 128.253 1568.1 126.168C1565.66 123.811 1564.52 121.136 1564.7 118.144C1564.98 115.152 1566.52 112.341 1569.33 109.712C1572.05 106.992 1574.4 105.36 1576.4 104.816Z" fill="#FFE100"/>
<path d="M1690 672L960.001 272L230.001 672L960.001 1072L1690 672Z" fill="#FBF5EE"/>
</svg>
