<svg width="1920" height="56" viewBox="0 0 1920 56" fill="none" xmlns="http://www.w3.org/2000/svg">
<g clip-path="url(#clip0_1312_372)">
<rect width="2014" height="56" transform="translate(-7)" fill="#FBF5EE"/>
<path d="M43 0L86.3013 56.25H-0.30127L43 0Z" fill="#FF5101"/>
<path d="M130 0L173.301 56.25H86.6987L130 0Z" fill="#FF5101"/>
<path d="M217 0L260.301 56.25H173.699L217 0Z" fill="#FF5101"/>
<path d="M304 0L347.301 56.25H260.699L304 0Z" fill="#FF5101"/>
<path d="M391 0L434.301 56.25H347.699L391 0Z" fill="#FF5101"/>
<path d="M478 0L521.301 56.25H434.699L478 0Z" fill="#FF5101"/>
<path d="M565 0L608.301 56.25H521.699L565 0Z" fill="#FF5101"/>
<path d="M652 0L695.301 56.25H608.699L652 0Z" fill="#FF5101"/>
<path d="M739 0L782.301 56.25H695.699L739 0Z" fill="#FF5101"/>
<path d="M826 0L869.301 56.25H782.699L826 0Z" fill="#FF5101"/>
<path d="M913 0L956.301 56.25H869.699L913 0Z" fill="#FF5101"/>
<path d="M1000 0L1043.3 56.25H956.699L1000 0Z" fill="#FF5101"/>
<path d="M1087 0L1130.3 56.25H1043.7L1087 0Z" fill="#FF5101"/>
<path d="M1174 0L1217.3 56.25H1130.7L1174 0Z" fill="#FF5101"/>
<path d="M1261 0L1304.3 56.25H1217.7L1261 0Z" fill="#FF5101"/>
<path d="M1348 0L1391.3 56.25H1304.7L1348 0Z" fill="#FF5101"/>
<path d="M1435 0L1478.3 56.25H1391.7L1435 0Z" fill="#FF5101"/>
<path d="M1522 0L1565.3 56.25H1478.7L1522 0Z" fill="#FF5101"/>
<path d="M1609 0L1652.3 56.25H1565.7L1609 0Z" fill="#FF5101"/>
<path d="M1696 0L1739.3 56.25H1652.7L1696 0Z" fill="#FF5101"/>
<path d="M1783 0L1826.3 56.25H1739.7L1783 0Z" fill="#FF5101"/>
<path d="M1870 0L1913.3 56.25H1826.7L1870 0Z" fill="#FF5101"/>
<path d="M1957 0L2000.3 56.25H1913.7L1957 0Z" fill="#FF5101"/>
</g>
<defs>
<clipPath id="clip0_1312_372">
<rect width="2014" height="56" fill="white" transform="translate(-7)"/>
</clipPath>
</defs>
</svg>
