<svg width="1920" height="56" viewBox="0 0 1920 56" fill="none" xmlns="http://www.w3.org/2000/svg">
<g clip-path="url(#clip0_1312_370)">
<rect width="2014" height="56" transform="matrix(-1 0 0 -1 2007 56)" fill="#FBF5EE"/>
<path d="M1957 56L1913.7 -0.25L2000.3 -0.25L1957 56Z" fill="#FF5101"/>
<path d="M1870 56L1826.7 -0.25L1913.3 -0.25L1870 56Z" fill="#FF5101"/>
<path d="M1783 56L1739.7 -0.25L1826.3 -0.25L1783 56Z" fill="#FF5101"/>
<path d="M1696 56L1652.7 -0.25L1739.3 -0.25L1696 56Z" fill="#FF5101"/>
<path d="M1609 56L1565.7 -0.25L1652.3 -0.25L1609 56Z" fill="#FF5101"/>
<path d="M1522 56L1478.7 -0.25L1565.3 -0.25L1522 56Z" fill="#FF5101"/>
<path d="M1435 56L1391.7 -0.25L1478.3 -0.25L1435 56Z" fill="#FF5101"/>
<path d="M1348 56L1304.7 -0.25L1391.3 -0.25L1348 56Z" fill="#FF5101"/>
<path d="M1261 56L1217.7 -0.25L1304.3 -0.25L1261 56Z" fill="#FF5101"/>
<path d="M1174 56L1130.7 -0.25L1217.3 -0.25L1174 56Z" fill="#FF5101"/>
<path d="M1087 56L1043.7 -0.25L1130.3 -0.25L1087 56Z" fill="#FF5101"/>
<path d="M1000 56L956.699 -0.25L1043.3 -0.25L1000 56Z" fill="#FF5101"/>
<path d="M913 56L869.699 -0.25L956.301 -0.25L913 56Z" fill="#FF5101"/>
<path d="M826 56L782.699 -0.25L869.301 -0.25L826 56Z" fill="#FF5101"/>
<path d="M739 56L695.699 -0.25L782.301 -0.25L739 56Z" fill="#FF5101"/>
<path d="M652 56L608.699 -0.25L695.301 -0.25L652 56Z" fill="#FF5101"/>
<path d="M565 56L521.699 -0.25L608.301 -0.25L565 56Z" fill="#FF5101"/>
<path d="M478 56L434.699 -0.25L521.301 -0.25L478 56Z" fill="#FF5101"/>
<path d="M391 56L347.699 -0.25L434.301 -0.25L391 56Z" fill="#FF5101"/>
<path d="M304 56L260.699 -0.25L347.301 -0.25L304 56Z" fill="#FF5101"/>
<path d="M217 56L173.699 -0.25L260.301 -0.25L217 56Z" fill="#FF5101"/>
<path d="M130 56L86.6987 -0.25L173.301 -0.25L130 56Z" fill="#FF5101"/>
<path d="M43 56L-0.30127 -0.25L86.3013 -0.25L43 56Z" fill="#FF5101"/>
</g>
<defs>
<clipPath id="clip0_1312_370">
<rect width="2014" height="56" fill="white" transform="matrix(-1 0 0 -1 2007 56)"/>
</clipPath>
</defs>
</svg>
