<svg width="424" height="88" viewBox="0 0 424 88" fill="none" xmlns="http://www.w3.org/2000/svg">
<path d="M50 8H272.5H374L424 48L374 88H50L0 48L50 8Z" fill="black"/>
<path d="M0.80039 40L50.1754 0.5H272.5H373.825L423.2 40L373.825 79.5H50.1754L0.80039 40Z" fill="#FFBB00" stroke="black"/>
<path d="M122.08 37.2H125.2C128.92 37.2 131.44 39.384 131.44 42.6C131.44 45.816 128.92 48 125.2 48H116.2V31.2H130.12V35.4H122.08V37.2ZM122.08 43.68H124C124.96 43.68 125.56 43.152 125.56 42.288C125.56 41.448 124.96 40.92 124 40.92H122.08V43.68ZM149.325 48H143.373L142.701 45.12H138.069L137.397 48H131.685L136.269 31.2H144.741L149.325 48ZM140.325 35.4L139.005 41.04H141.765L140.445 35.4H140.325ZM150.395 31.2H158.795C162.587 31.2 165.275 33.672 165.275 37.128C165.275 40.608 162.587 43.08 158.795 43.08H156.515V48H150.395V31.2ZM156.155 38.76H157.595C158.747 38.76 159.395 38.088 159.395 37.128C159.395 36.192 158.747 35.52 157.595 35.52H156.155V38.76ZM176.785 36.888V31.2H182.905V48H176.785V42.048H172.945V48H166.825V31.2H172.945V36.888H176.785ZM201.614 48H195.662L194.99 45.12H190.358L189.686 48H183.974L188.558 31.2H197.03L201.614 48ZM192.614 35.4L191.294 41.04H194.054L192.734 35.4H192.614ZM208.793 31.2H217.913V48H212.033V42.6H210.737L208.001 48H201.713L205.649 41.04C203.921 40.128 202.793 38.448 202.793 36.6C202.793 33.504 205.313 31.2 208.793 31.2ZM212.153 35.52H210.233C209.249 35.52 208.553 36.168 208.553 37.08C208.553 37.992 209.249 38.64 210.233 38.64H212.153V35.52ZM236.802 38.808L242.154 48H235.338L231.234 40.656V48H225.114V31.2H231.234V38.112L235.242 31.2H241.434L236.802 38.808ZM259.551 48H253.599L252.927 45.12H248.295L247.623 48H241.911L246.495 31.2H254.967L259.551 48ZM250.551 35.4L249.231 41.04H251.991L250.671 35.4H250.551ZM260.622 31.2H269.022C272.814 31.2 275.502 33.672 275.502 37.128C275.502 40.608 272.814 43.08 269.022 43.08H266.742V48H260.622V31.2ZM266.382 38.76H267.822C268.974 38.76 269.622 38.088 269.622 37.128C269.622 36.192 268.974 35.52 267.822 35.52H266.382V38.76ZM286.532 48H280.412V36.12H275.972V31.2H290.972V36.12H286.532V48ZM307.176 48H301.224L300.552 45.12H295.92L295.248 48H289.536L294.12 31.2H302.592L307.176 48ZM298.176 35.4L296.856 41.04H299.616L298.296 35.4H298.176Z" fill="#2E281D"/>
</svg>
