<svg width="424" height="88" viewBox="0 0 424 88" fill="none" xmlns="http://www.w3.org/2000/svg">
<path d="M50 8H272.5H374L424 48L374 88H50L0 48L50 8Z" fill="black"/>
<path d="M0.80039 40L50.1754 0.5H272.5H373.825L423.2 40L373.825 79.5H50.1754L0.80039 40Z" fill="#FFBB00" stroke="black"/>
<path d="M140.16 36.888V31.2H146.28V48H140.16V42.048H136.32V48H130.2V31.2H136.32V36.888H140.16ZM164.989 48H159.037L158.365 45.12H153.733L153.061 48H147.349L151.933 31.2H160.405L164.989 48ZM155.989 35.4L154.669 41.04H157.429L156.109 35.4H155.989ZM190.539 48H166.059V31.2H172.179V42.96H175.299V31.2H181.299V42.96H184.419V31.2H190.539V48ZM198.942 41.472V43.44H205.782V48H192.942V31.2H205.662V35.76H198.942V37.632H204.942V41.472H198.942ZM218.15 48H212.63V31.2H220.118L223.262 41.04H223.382L226.526 31.2H233.75V48H228.23V38.832H228.11L225.086 48H221.294L218.27 38.832H218.15V48ZM242.161 41.472V43.44H249.001V48H236.161V31.2H248.881V35.76H242.161V37.632H248.161V41.472H242.161ZM261.004 36.888V31.2H267.124V48H261.004V42.048H257.164V48H251.044V31.2H257.164V36.888H261.004ZM285.233 30.84C290.177 30.84 293.513 34.344 293.513 39.6C293.513 44.856 290.177 48.36 285.233 48.36C281.009 48.36 277.985 45.816 277.169 41.808H275.513V48H269.513V31.2H275.513V37.128H277.217C278.105 33.264 281.105 30.84 285.233 30.84ZM285.113 43.08C286.481 43.08 287.393 41.76 287.393 39.6C287.393 37.44 286.481 36.12 285.113 36.12C283.745 36.12 282.833 37.44 282.833 39.6C282.833 41.76 283.745 43.08 285.113 43.08Z" fill="#2E281D"/>
</svg>
