<svg width="424" height="424" viewBox="0 0 424 424" fill="none" xmlns="http://www.w3.org/2000/svg">
<path d="M251.432 70.375L315.952 31.9503L314.935 107.038L314.907 109.093L316.962 109.065L392.05 108.048L353.625 172.568L352.574 174.333L354.367 175.337L419.904 212L354.367 248.663L352.574 249.667L353.625 251.432L392.05 315.952L316.962 314.935L314.907 314.907L314.935 316.962L315.952 392.05L251.432 353.625L249.667 352.574L248.663 354.367L212 419.904L175.337 354.367L174.333 352.574L172.568 353.625L108.048 392.05L109.065 316.962L109.093 314.907L107.038 314.935L31.9503 315.952L70.375 251.432L71.4264 249.667L69.6331 248.663L4.09647 212L69.6331 175.337L71.4264 174.333L70.375 172.568L31.9503 108.048L107.038 109.065L109.093 109.093L109.065 107.038L108.048 31.9503L172.568 70.375L174.333 71.4264L175.337 69.6331L212 4.09647L248.663 69.6331L249.667 71.4264L251.432 70.375Z" stroke="#2E281D" stroke-width="4"/>
<path d="M105.15 180L98.7937 160.4H104.506L109.854 177.368H106.97L112.598 160.4H117.694L123.014 177.368H120.242L125.758 160.4H131.05L124.694 180H118.758L114.222 165.58H115.818L111.086 180H105.15ZM146.14 160.4H151.684V180H146.14V160.4ZM138.58 180H133.036V160.4H138.58V180ZM146.532 172.356H138.188V167.764H146.532V172.356ZM160.691 167.988H169.791V172.132H160.691V167.988ZM161.083 175.716H171.331V180H155.595V160.4H170.967V164.684H161.083V175.716ZM174.407 180V160.4H183.367C185.159 160.4 186.699 160.689 187.987 161.268C189.294 161.847 190.302 162.687 191.011 163.788C191.721 164.871 192.075 166.159 192.075 167.652C192.075 169.127 191.721 170.405 191.011 171.488C190.302 172.552 189.294 173.373 187.987 173.952C186.699 174.512 185.159 174.792 183.367 174.792H177.487L179.951 172.468V180H174.407ZM186.531 180L181.659 172.86H187.567L192.467 180H186.531ZM179.951 173.056L177.487 170.508H183.031C184.189 170.508 185.047 170.256 185.607 169.752C186.186 169.248 186.475 168.548 186.475 167.652C186.475 166.737 186.186 166.028 185.607 165.524C185.047 165.02 184.189 164.768 183.031 164.768H177.487L179.951 162.22V173.056ZM200.23 167.988H209.33V172.132H200.23V167.988ZM200.622 175.716H210.87V180H195.134V160.4H210.506V164.684H200.622V175.716ZM212.772 180V176.528L220.108 169.668C220.63 169.183 221.013 168.753 221.256 168.38C221.517 168.007 221.685 167.671 221.76 167.372C221.853 167.055 221.9 166.765 221.9 166.504C221.9 165.869 221.685 165.375 221.256 165.02C220.845 164.665 220.22 164.488 219.38 164.488C218.67 164.488 218.008 164.647 217.392 164.964C216.776 165.281 216.272 165.757 215.88 166.392L211.764 164.096C212.492 162.864 213.546 161.875 214.928 161.128C216.309 160.381 217.961 160.008 219.884 160.008C221.396 160.008 222.721 160.251 223.86 160.736C224.998 161.221 225.885 161.912 226.52 162.808C227.173 163.704 227.5 164.759 227.5 165.972C227.5 166.607 227.416 167.241 227.248 167.876C227.08 168.492 226.753 169.155 226.268 169.864C225.801 170.555 225.101 171.329 224.168 172.188L218.344 177.564L217.42 175.604H228.032V180H212.772ZM230.653 180V160.4H239.921C242.087 160.4 243.991 160.801 245.633 161.604C247.276 162.407 248.555 163.536 249.469 164.992C250.403 166.448 250.869 168.184 250.869 170.2C250.869 172.197 250.403 173.933 249.469 175.408C248.555 176.864 247.276 177.993 245.633 178.796C243.991 179.599 242.087 180 239.921 180H230.653ZM236.197 175.576H239.697C240.817 175.576 241.788 175.371 242.609 174.96C243.449 174.531 244.103 173.915 244.569 173.112C245.036 172.291 245.269 171.32 245.269 170.2C245.269 169.061 245.036 168.091 244.569 167.288C244.103 166.485 243.449 165.879 242.609 165.468C241.788 165.039 240.817 164.824 239.697 164.824H236.197V175.576ZM253.786 180V160.4H262.746C264.538 160.4 266.078 160.689 267.366 161.268C268.673 161.847 269.681 162.687 270.39 163.788C271.1 164.871 271.454 166.159 271.454 167.652C271.454 169.127 271.1 170.405 270.39 171.488C269.681 172.552 268.673 173.373 267.366 173.952C266.078 174.512 264.538 174.792 262.746 174.792H256.866L259.33 172.468V180H253.786ZM265.91 180L261.038 172.86H266.946L271.846 180H265.91ZM259.33 173.056L256.866 170.508H262.41C263.568 170.508 264.426 170.256 264.986 169.752C265.565 169.248 265.854 168.548 265.854 167.652C265.854 166.737 265.565 166.028 264.986 165.524C264.426 165.02 263.568 164.768 262.41 164.768H256.866L259.33 162.22V173.056ZM274.513 180V160.4H280.057V180H274.513ZM284.001 180V160.4H288.565L299.373 173.448H297.217V160.4H302.649V180H298.085L287.277 166.952H289.433V180H284.001ZM311.516 175.66L311.208 169.444L319.636 160.4H325.74L317.34 169.5L314.26 172.72L311.516 175.66ZM306.56 180V160.4H312.048V180H306.56ZM319.72 180L313.336 171.908L316.948 168.044L326.16 180H319.72ZM111.23 208V188.4H120.19C121.982 188.4 123.522 188.689 124.81 189.268C126.116 189.847 127.124 190.687 127.834 191.788C128.543 192.871 128.898 194.159 128.898 195.652C128.898 197.127 128.543 198.405 127.834 199.488C127.124 200.552 126.116 201.373 124.81 201.952C123.522 202.512 121.982 202.792 120.19 202.792H114.31L116.774 200.468V208H111.23ZM123.354 208L118.482 200.86H124.39L129.29 208H123.354ZM116.774 201.056L114.31 198.508H119.854C121.011 198.508 121.87 198.256 122.43 197.752C123.008 197.248 123.298 196.548 123.298 195.652C123.298 194.737 123.008 194.028 122.43 193.524C121.87 193.02 121.011 192.768 119.854 192.768H114.31L116.774 190.22V201.056ZM141 208.392C138.107 208.392 135.848 207.599 134.224 206.012C132.6 204.425 131.788 202.176 131.788 199.264V188.4H137.332V199.096C137.332 200.776 137.659 201.98 138.312 202.708C138.984 203.436 139.899 203.8 141.056 203.8C142.213 203.8 143.119 203.436 143.772 202.708C144.425 201.98 144.752 200.776 144.752 199.096V188.4H150.212V199.264C150.212 202.176 149.4 204.425 147.776 206.012C146.152 207.599 143.893 208.392 141 208.392ZM160.856 208.392C159.25 208.392 157.701 208.196 156.208 207.804C154.733 207.393 153.529 206.871 152.596 206.236L154.416 202.148C155.293 202.708 156.301 203.175 157.44 203.548C158.597 203.903 159.745 204.08 160.884 204.08C161.649 204.08 162.265 204.015 162.732 203.884C163.198 203.735 163.534 203.548 163.74 203.324C163.964 203.081 164.076 202.801 164.076 202.484C164.076 202.036 163.87 201.681 163.46 201.42C163.049 201.159 162.517 200.944 161.864 200.776C161.21 200.608 160.482 200.44 159.68 200.272C158.896 200.104 158.102 199.889 157.3 199.628C156.516 199.367 155.797 199.031 155.144 198.62C154.49 198.191 153.958 197.64 153.548 196.968C153.137 196.277 152.932 195.409 152.932 194.364C152.932 193.188 153.249 192.124 153.884 191.172C154.537 190.22 155.508 189.455 156.796 188.876C158.084 188.297 159.689 188.008 161.612 188.008C162.9 188.008 164.16 188.157 165.392 188.456C166.642 188.736 167.753 189.156 168.724 189.716L167.016 193.832C166.082 193.328 165.158 192.955 164.244 192.712C163.329 192.451 162.442 192.32 161.584 192.32C160.818 192.32 160.202 192.404 159.736 192.572C159.269 192.721 158.933 192.927 158.728 193.188C158.522 193.449 158.42 193.748 158.42 194.084C158.42 194.513 158.616 194.859 159.008 195.12C159.418 195.363 159.95 195.568 160.604 195.736C161.276 195.885 162.004 196.044 162.788 196.212C163.59 196.38 164.384 196.595 165.168 196.856C165.97 197.099 166.698 197.435 167.352 197.864C168.005 198.275 168.528 198.825 168.92 199.516C169.33 200.188 169.536 201.037 169.536 202.064C169.536 203.203 169.209 204.257 168.556 205.228C167.921 206.18 166.96 206.945 165.672 207.524C164.402 208.103 162.797 208.392 160.856 208.392ZM178.985 208.392C177.379 208.392 175.83 208.196 174.337 207.804C172.862 207.393 171.658 206.871 170.725 206.236L172.545 202.148C173.422 202.708 174.43 203.175 175.569 203.548C176.726 203.903 177.874 204.08 179.013 204.08C179.778 204.08 180.394 204.015 180.861 203.884C181.327 203.735 181.663 203.548 181.869 203.324C182.093 203.081 182.205 202.801 182.205 202.484C182.205 202.036 181.999 201.681 181.589 201.42C181.178 201.159 180.646 200.944 179.993 200.776C179.339 200.608 178.611 200.44 177.809 200.272C177.025 200.104 176.231 199.889 175.429 199.628C174.645 199.367 173.926 199.031 173.273 198.62C172.619 198.191 172.087 197.64 171.677 196.968C171.266 196.277 171.061 195.409 171.061 194.364C171.061 193.188 171.378 192.124 172.013 191.172C172.666 190.22 173.637 189.455 174.925 188.876C176.213 188.297 177.818 188.008 179.741 188.008C181.029 188.008 182.289 188.157 183.521 188.456C184.771 188.736 185.882 189.156 186.853 189.716L185.145 193.832C184.211 193.328 183.287 192.955 182.373 192.712C181.458 192.451 180.571 192.32 179.713 192.32C178.947 192.32 178.331 192.404 177.865 192.572C177.398 192.721 177.062 192.927 176.857 193.188C176.651 193.449 176.549 193.748 176.549 194.084C176.549 194.513 176.745 194.859 177.137 195.12C177.547 195.363 178.079 195.568 178.733 195.736C179.405 195.885 180.133 196.044 180.917 196.212C181.719 196.38 182.513 196.595 183.297 196.856C184.099 197.099 184.827 197.435 185.481 197.864C186.134 198.275 186.657 198.825 187.049 199.516C187.459 200.188 187.665 201.037 187.665 202.064C187.665 203.203 187.338 204.257 186.685 205.228C186.05 206.18 185.089 206.945 183.801 207.524C182.531 208.103 180.926 208.392 178.985 208.392ZM190.226 208V188.4H195.77V208H190.226ZM197.362 208L206.014 188.4H211.474L220.154 208H214.386L207.61 191.116H209.794L203.018 208H197.362ZM202.094 204.192L203.522 200.104H213.098L214.526 204.192H202.094ZM221.726 208V188.4H226.29L237.098 201.448H234.942V188.4H240.374V208H235.81L225.002 194.952H227.158V208H221.726ZM252.433 208V188.4H262.457C265.033 188.4 266.955 188.876 268.225 189.828C269.494 190.761 270.129 191.993 270.129 193.524C270.129 194.532 269.858 195.419 269.317 196.184C268.794 196.931 268.047 197.528 267.077 197.976C266.125 198.405 264.986 198.62 263.661 198.62L264.221 197.276C265.602 197.276 266.806 197.491 267.833 197.92C268.859 198.331 269.653 198.937 270.213 199.74C270.791 200.524 271.081 201.485 271.081 202.624C271.081 204.323 270.39 205.648 269.009 206.6C267.646 207.533 265.649 208 263.017 208H252.433ZM257.921 203.996H262.569C263.521 203.996 264.239 203.837 264.725 203.52C265.229 203.184 265.481 202.68 265.481 202.008C265.481 201.336 265.229 200.841 264.725 200.524C264.239 200.188 263.521 200.02 262.569 200.02H257.529V196.184H261.729C262.662 196.184 263.362 196.025 263.829 195.708C264.295 195.391 264.529 194.915 264.529 194.28C264.529 193.645 264.295 193.179 263.829 192.88C263.362 192.563 262.662 192.404 261.729 192.404H257.921V203.996ZM271.6 208L280.252 188.4H285.712L294.392 208H288.624L281.848 191.116H284.032L277.256 208H271.6ZM276.332 204.192L277.76 200.104H287.336L288.764 204.192H276.332ZM295.964 208V188.4H304.924C306.716 188.4 308.256 188.689 309.544 189.268C310.851 189.847 311.859 190.687 312.568 191.788C313.277 192.871 313.632 194.159 313.632 195.652C313.632 197.127 313.277 198.405 312.568 199.488C311.859 200.552 310.851 201.373 309.544 201.952C308.256 202.512 306.716 202.792 304.924 202.792H299.044L301.508 200.468V208H295.964ZM308.088 208L303.216 200.86H309.124L314.024 208H308.088ZM301.508 201.056L299.044 198.508H304.588C305.745 198.508 306.604 198.256 307.164 197.752C307.743 197.248 308.032 196.548 308.032 195.652C308.032 194.737 307.743 194.028 307.164 193.524C306.604 193.02 305.745 192.768 304.588 192.768H299.044L301.508 190.22V201.056ZM103.081 236L111.733 216.4H117.193L125.873 236H120.105L113.329 219.116H115.513L108.737 236H103.081ZM107.813 232.192L109.241 228.104H118.817L120.245 232.192H107.813ZM131.195 236L124.839 216.4H130.551L135.899 233.368H133.015L138.643 216.4H143.739L149.059 233.368H146.287L151.803 216.4H157.095L150.739 236H144.803L140.267 221.58H141.863L137.131 236H131.195ZM156.045 236L164.698 216.4H170.158L178.838 236H173.07L166.294 219.116H168.478L161.702 236H156.045ZM160.778 232.192L162.206 228.104H171.782L173.21 232.192H160.778ZM180.409 236V216.4H189.369C191.161 216.4 192.701 216.689 193.989 217.268C195.296 217.847 196.304 218.687 197.013 219.788C197.723 220.871 198.077 222.159 198.077 223.652C198.077 225.127 197.723 226.405 197.013 227.488C196.304 228.552 195.296 229.373 193.989 229.952C192.701 230.512 191.161 230.792 189.369 230.792H183.489L185.953 228.468V236H180.409ZM192.533 236L187.661 228.86H193.569L198.469 236H192.533ZM185.953 229.056L183.489 226.508H189.033C190.191 226.508 191.049 226.256 191.609 225.752C192.188 225.248 192.477 224.548 192.477 223.652C192.477 222.737 192.188 222.028 191.609 221.524C191.049 221.02 190.191 220.768 189.033 220.768H183.489L185.953 218.22V229.056ZM201.136 236V216.4H210.404C212.569 216.4 214.473 216.801 216.116 217.604C217.758 218.407 219.037 219.536 219.952 220.992C220.885 222.448 221.352 224.184 221.352 226.2C221.352 228.197 220.885 229.933 219.952 231.408C219.037 232.864 217.758 233.993 216.116 234.796C214.473 235.599 212.569 236 210.404 236H201.136ZM206.68 231.576H210.18C211.3 231.576 212.27 231.371 213.092 230.96C213.932 230.531 214.585 229.915 215.052 229.112C215.518 228.291 215.752 227.32 215.752 226.2C215.752 225.061 215.518 224.091 215.052 223.288C214.585 222.485 213.932 221.879 213.092 221.468C212.27 221.039 211.3 220.824 210.18 220.824H206.68V231.576ZM231.157 236.392C229.551 236.392 228.002 236.196 226.509 235.804C225.034 235.393 223.83 234.871 222.897 234.236L224.717 230.148C225.594 230.708 226.602 231.175 227.741 231.548C228.898 231.903 230.046 232.08 231.185 232.08C231.95 232.08 232.566 232.015 233.033 231.884C233.499 231.735 233.835 231.548 234.041 231.324C234.265 231.081 234.377 230.801 234.377 230.484C234.377 230.036 234.171 229.681 233.761 229.42C233.35 229.159 232.818 228.944 232.165 228.776C231.511 228.608 230.783 228.44 229.981 228.272C229.197 228.104 228.403 227.889 227.601 227.628C226.817 227.367 226.098 227.031 225.445 226.62C224.791 226.191 224.259 225.64 223.849 224.968C223.438 224.277 223.233 223.409 223.233 222.364C223.233 221.188 223.55 220.124 224.185 219.172C224.838 218.22 225.809 217.455 227.097 216.876C228.385 216.297 229.99 216.008 231.913 216.008C233.201 216.008 234.461 216.157 235.693 216.456C236.943 216.736 238.054 217.156 239.025 217.716L237.317 221.832C236.383 221.328 235.459 220.955 234.545 220.712C233.63 220.451 232.743 220.32 231.885 220.32C231.119 220.32 230.503 220.404 230.037 220.572C229.57 220.721 229.234 220.927 229.029 221.188C228.823 221.449 228.721 221.748 228.721 222.084C228.721 222.513 228.917 222.859 229.309 223.12C229.719 223.363 230.251 223.568 230.905 223.736C231.577 223.885 232.305 224.044 233.089 224.212C233.891 224.38 234.685 224.595 235.469 224.856C236.271 225.099 236.999 225.435 237.653 225.864C238.306 226.275 238.829 226.825 239.221 227.516C239.631 228.188 239.837 229.037 239.837 230.064C239.837 231.203 239.51 232.257 238.857 233.228C238.222 234.18 237.261 234.945 235.973 235.524C234.703 236.103 233.098 236.392 231.157 236.392ZM249.426 236V232.528L256.762 225.668C257.285 225.183 257.667 224.753 257.91 224.38C258.171 224.007 258.339 223.671 258.414 223.372C258.507 223.055 258.554 222.765 258.554 222.504C258.554 221.869 258.339 221.375 257.91 221.02C257.499 220.665 256.874 220.488 256.034 220.488C255.325 220.488 254.662 220.647 254.046 220.964C253.43 221.281 252.926 221.757 252.534 222.392L248.418 220.096C249.146 218.864 250.201 217.875 251.582 217.128C252.963 216.381 254.615 216.008 256.538 216.008C258.05 216.008 259.375 216.251 260.514 216.736C261.653 217.221 262.539 217.912 263.174 218.808C263.827 219.704 264.154 220.759 264.154 221.972C264.154 222.607 264.07 223.241 263.902 223.876C263.734 224.492 263.407 225.155 262.922 225.864C262.455 226.555 261.755 227.329 260.822 228.188L254.998 233.564L254.074 231.604H264.686V236H249.426ZM274.952 236.392C273.272 236.392 271.778 235.991 270.472 235.188C269.184 234.385 268.166 233.228 267.42 231.716C266.673 230.204 266.3 228.365 266.3 226.2C266.3 224.035 266.673 222.196 267.42 220.684C268.166 219.172 269.184 218.015 270.472 217.212C271.778 216.409 273.272 216.008 274.952 216.008C276.613 216.008 278.088 216.409 279.376 217.212C280.682 218.015 281.709 219.172 282.456 220.684C283.202 222.196 283.576 224.035 283.576 226.2C283.576 228.365 283.202 230.204 282.456 231.716C281.709 233.228 280.682 234.385 279.376 235.188C278.088 235.991 276.613 236.392 274.952 236.392ZM274.952 231.856C275.549 231.856 276.072 231.669 276.52 231.296C276.986 230.923 277.35 230.325 277.612 229.504C277.873 228.664 278.004 227.563 278.004 226.2C278.004 224.819 277.873 223.717 277.612 222.896C277.35 222.075 276.986 221.477 276.52 221.104C276.072 220.731 275.549 220.544 274.952 220.544C274.354 220.544 273.822 220.731 273.356 221.104C272.908 221.477 272.544 222.075 272.264 222.896C272.002 223.717 271.872 224.819 271.872 226.2C271.872 227.563 272.002 228.664 272.264 229.504C272.544 230.325 272.908 230.923 273.356 231.296C273.822 231.669 274.354 231.856 274.952 231.856ZM285.164 236V232.528L292.5 225.668C293.023 225.183 293.406 224.753 293.648 224.38C293.91 224.007 294.078 223.671 294.152 223.372C294.246 223.055 294.292 222.765 294.292 222.504C294.292 221.869 294.078 221.375 293.648 221.02C293.238 220.665 292.612 220.488 291.772 220.488C291.063 220.488 290.4 220.647 289.784 220.964C289.168 221.281 288.664 221.757 288.272 222.392L284.156 220.096C284.884 218.864 285.939 217.875 287.32 217.128C288.702 216.381 290.354 216.008 292.276 216.008C293.788 216.008 295.114 216.251 296.252 216.736C297.391 217.221 298.278 217.912 298.912 218.808C299.566 219.704 299.892 220.759 299.892 221.972C299.892 222.607 299.808 223.241 299.64 223.876C299.472 224.492 299.146 225.155 298.66 225.864C298.194 226.555 297.494 227.329 296.56 228.188L290.736 233.564L289.812 231.604H300.424V236H285.164ZM301.678 232.248V228.636L310.47 216.4H316.21L307.67 228.636L305.038 227.852H320.354V232.248H301.678ZM312.038 236V232.248L312.206 227.852V224.52H317.442V236H312.038Z" fill="#2E281D"/>
<path d="M165.568 265V263.368L172.408 256.768C173.016 256.192 173.464 255.688 173.752 255.256C174.056 254.808 174.256 254.4 174.352 254.032C174.464 253.648 174.52 253.28 174.52 252.928C174.52 252.064 174.216 251.384 173.608 250.888C173 250.392 172.112 250.144 170.944 250.144C170.048 250.144 169.24 250.296 168.52 250.6C167.8 250.888 167.176 251.344 166.648 251.968L165.016 250.552C165.656 249.736 166.512 249.112 167.584 248.68C168.672 248.232 169.864 248.008 171.16 248.008C172.328 248.008 173.344 248.2 174.208 248.584C175.072 248.952 175.736 249.488 176.2 250.192C176.68 250.896 176.92 251.728 176.92 252.688C176.92 253.232 176.848 253.768 176.704 254.296C176.56 254.824 176.288 255.384 175.888 255.976C175.488 256.568 174.912 257.232 174.16 257.968L168.064 263.848L167.488 262.912H177.64V265H165.568ZM187.138 265V252.28H189.514L194.986 261.688H194.026L199.642 252.28H201.802V265H199.714V254.872L200.098 255.088L194.962 263.56H193.954L188.794 254.92L189.25 254.824V265H187.138ZM211.951 265.144C210.591 265.144 209.391 264.864 208.351 264.304C207.327 263.744 206.527 262.976 205.951 262C205.391 261.024 205.111 259.904 205.111 258.64C205.111 257.376 205.383 256.256 205.927 255.28C206.487 254.304 207.247 253.544 208.207 253C209.183 252.44 210.279 252.16 211.495 252.16C212.727 252.16 213.815 252.432 214.759 252.976C215.703 253.52 216.439 254.288 216.967 255.28C217.511 256.256 217.783 257.4 217.783 258.712C217.783 258.808 217.775 258.92 217.759 259.048C217.759 259.176 217.751 259.296 217.735 259.408H206.911V257.752H216.535L215.599 258.328C215.615 257.512 215.447 256.784 215.095 256.144C214.743 255.504 214.255 255.008 213.631 254.656C213.023 254.288 212.311 254.104 211.495 254.104C210.695 254.104 209.983 254.288 209.359 254.656C208.735 255.008 208.247 255.512 207.895 256.168C207.543 256.808 207.367 257.544 207.367 258.376V258.76C207.367 259.608 207.559 260.368 207.943 261.04C208.343 261.696 208.895 262.208 209.599 262.576C210.303 262.944 211.111 263.128 212.023 263.128C212.775 263.128 213.455 263 214.063 262.744C214.687 262.488 215.231 262.104 215.695 261.592L216.967 263.08C216.391 263.752 215.671 264.264 214.807 264.616C213.959 264.968 213.007 265.144 211.951 265.144ZM226.901 265.144C225.605 265.144 224.445 264.864 223.421 264.304C222.413 263.744 221.621 262.976 221.045 262C220.469 261.024 220.181 259.904 220.181 258.64C220.181 257.376 220.469 256.256 221.045 255.28C221.621 254.304 222.413 253.544 223.421 253C224.445 252.44 225.605 252.16 226.901 252.16C228.053 252.16 229.077 252.392 229.973 252.856C230.885 253.304 231.589 253.976 232.085 254.872L230.333 256C229.917 255.376 229.405 254.92 228.797 254.632C228.205 254.328 227.565 254.176 226.877 254.176C226.045 254.176 225.301 254.36 224.645 254.728C223.989 255.096 223.469 255.616 223.085 256.288C222.701 256.944 222.509 257.728 222.509 258.64C222.509 259.552 222.701 260.344 223.085 261.016C223.469 261.688 223.989 262.208 224.645 262.576C225.301 262.944 226.045 263.128 226.877 263.128C227.565 263.128 228.205 262.984 228.797 262.696C229.405 262.392 229.917 261.928 230.333 261.304L232.085 262.408C231.589 263.288 230.885 263.968 229.973 264.448C229.077 264.912 228.053 265.144 226.901 265.144ZM237.424 265V253.696L238 254.296H232.768V252.28H244.384V254.296H239.176L239.728 253.696V265H237.424ZM251.625 265.144C250.345 265.144 249.209 264.864 248.217 264.304C247.225 263.744 246.441 262.976 245.865 262C245.289 261.008 245.001 259.888 245.001 258.64C245.001 257.376 245.289 256.256 245.865 255.28C246.441 254.304 247.225 253.544 248.217 253C249.209 252.44 250.345 252.16 251.625 252.16C252.889 252.16 254.017 252.44 255.009 253C256.017 253.544 256.801 254.304 257.361 255.28C257.937 256.24 258.225 257.36 258.225 258.64C258.225 259.904 257.937 261.024 257.361 262C256.801 262.976 256.017 263.744 255.009 264.304C254.017 264.864 252.889 265.144 251.625 265.144ZM251.625 263.128C252.441 263.128 253.169 262.944 253.809 262.576C254.465 262.208 254.977 261.688 255.345 261.016C255.713 260.328 255.897 259.536 255.897 258.64C255.897 257.728 255.713 256.944 255.345 256.288C254.977 255.616 254.465 255.096 253.809 254.728C253.169 254.36 252.441 254.176 251.625 254.176C250.809 254.176 250.081 254.36 249.441 254.728C248.801 255.096 248.289 255.616 247.905 256.288C247.521 256.944 247.329 257.728 247.329 258.64C247.329 259.536 247.521 260.328 247.905 261.016C248.289 261.688 248.801 262.208 249.441 262.576C250.081 262.944 250.809 263.128 251.625 263.128Z" fill="#2E281D"/>
</svg>
