<svg width="424" height="424" viewBox="0 0 424 424" fill="none" xmlns="http://www.w3.org/2000/svg">
<path d="M251.432 70.375L315.952 31.9503L314.935 107.038L314.907 109.093L316.962 109.065L392.05 108.048L353.625 172.568L352.574 174.333L354.367 175.337L419.904 212L354.367 248.663L352.574 249.667L353.625 251.432L392.05 315.952L316.962 314.935L314.907 314.907L314.935 316.962L315.952 392.05L251.432 353.625L249.667 352.574L248.663 354.367L212 419.904L175.337 354.367L174.333 352.574L172.568 353.625L108.048 392.05L109.065 316.962L109.093 314.907L107.038 314.935L31.9503 315.952L70.375 251.432L71.4264 249.667L69.6331 248.663L4.09647 212L69.6331 175.337L71.4264 174.333L70.375 172.568L31.9503 108.048L107.038 109.065L109.093 109.093L109.065 107.038L108.048 31.9503L172.568 70.375L174.333 71.4264L175.337 69.6331L212 4.09647L248.663 69.6331L249.667 71.4264L251.432 70.375Z" stroke="#2E281D" stroke-width="4"/>
<path d="M134.77 168.996H143.814V173.28H134.77V168.996ZM135.162 180H129.618V160.4H144.99V164.684H135.162V180ZM147.583 180V160.4H153.127V175.604H162.479V180H147.583ZM162.512 180L171.164 160.4H176.624L185.304 180H179.536L172.76 163.116H174.944L168.168 180H162.512ZM167.244 176.192L168.672 172.104H178.248L179.676 176.192H167.244ZM191.802 180L183.43 160.4H189.422L196.478 177.368H192.95L200.174 160.4H205.662L197.262 180H191.802ZM216.448 180.392C214.88 180.392 213.433 180.14 212.108 179.636C210.782 179.132 209.625 178.423 208.636 177.508C207.665 176.575 206.909 175.492 206.368 174.26C205.826 173.028 205.556 171.675 205.556 170.2C205.556 168.725 205.826 167.372 206.368 166.14C206.909 164.908 207.665 163.835 208.636 162.92C209.625 161.987 210.782 161.268 212.108 160.764C213.433 160.26 214.88 160.008 216.448 160.008C218.034 160.008 219.481 160.26 220.788 160.764C222.113 161.268 223.261 161.987 224.232 162.92C225.202 163.835 225.958 164.908 226.5 166.14C227.06 167.372 227.34 168.725 227.34 170.2C227.34 171.675 227.06 173.037 226.5 174.288C225.958 175.52 225.202 176.593 224.232 177.508C223.261 178.423 222.113 179.132 220.788 179.636C219.481 180.14 218.034 180.392 216.448 180.392ZM216.448 175.8C217.194 175.8 217.885 175.669 218.52 175.408C219.173 175.147 219.733 174.773 220.2 174.288C220.685 173.784 221.058 173.187 221.32 172.496C221.6 171.805 221.74 171.04 221.74 170.2C221.74 169.341 221.6 168.576 221.32 167.904C221.058 167.213 220.685 166.625 220.2 166.14C219.733 165.636 219.173 165.253 218.52 164.992C217.885 164.731 217.194 164.6 216.448 164.6C215.701 164.6 215.001 164.731 214.348 164.992C213.713 165.253 213.153 165.636 212.668 166.14C212.201 166.625 211.828 167.213 211.548 167.904C211.286 168.576 211.156 169.341 211.156 170.2C211.156 171.04 211.286 171.805 211.548 172.496C211.828 173.187 212.201 173.784 212.668 174.288C213.153 174.773 213.713 175.147 214.348 175.408C215.001 175.669 215.701 175.8 216.448 175.8ZM230.243 180V160.4H239.203C240.995 160.4 242.535 160.689 243.823 161.268C245.13 161.847 246.138 162.687 246.847 163.788C247.557 164.871 247.911 166.159 247.911 167.652C247.911 169.127 247.557 170.405 246.847 171.488C246.138 172.552 245.13 173.373 243.823 173.952C242.535 174.512 240.995 174.792 239.203 174.792H233.323L235.787 172.468V180H230.243ZM242.367 180L237.495 172.86H243.403L248.303 180H242.367ZM235.787 173.056L233.323 170.508H238.867C240.025 170.508 240.883 170.256 241.443 169.752C242.022 169.248 242.311 168.548 242.311 167.652C242.311 166.737 242.022 166.028 241.443 165.524C240.883 165.02 240.025 164.768 238.867 164.768H233.323L235.787 162.22V173.056ZM257.858 180.392C256.252 180.392 254.703 180.196 253.21 179.804C251.735 179.393 250.531 178.871 249.598 178.236L251.418 174.148C252.295 174.708 253.303 175.175 254.442 175.548C255.599 175.903 256.747 176.08 257.886 176.08C258.651 176.08 259.267 176.015 259.734 175.884C260.2 175.735 260.536 175.548 260.742 175.324C260.966 175.081 261.078 174.801 261.078 174.484C261.078 174.036 260.872 173.681 260.462 173.42C260.051 173.159 259.519 172.944 258.866 172.776C258.212 172.608 257.484 172.44 256.682 172.272C255.898 172.104 255.104 171.889 254.302 171.628C253.518 171.367 252.799 171.031 252.146 170.62C251.492 170.191 250.96 169.64 250.55 168.968C250.139 168.277 249.934 167.409 249.934 166.364C249.934 165.188 250.251 164.124 250.886 163.172C251.539 162.22 252.51 161.455 253.798 160.876C255.086 160.297 256.691 160.008 258.614 160.008C259.902 160.008 261.162 160.157 262.394 160.456C263.644 160.736 264.755 161.156 265.726 161.716L264.018 165.832C263.084 165.328 262.16 164.955 261.246 164.712C260.331 164.451 259.444 164.32 258.586 164.32C257.82 164.32 257.204 164.404 256.738 164.572C256.271 164.721 255.935 164.927 255.73 165.188C255.524 165.449 255.422 165.748 255.422 166.084C255.422 166.513 255.618 166.859 256.01 167.12C256.42 167.363 256.952 167.568 257.606 167.736C258.278 167.885 259.006 168.044 259.79 168.212C260.592 168.38 261.386 168.595 262.17 168.856C262.972 169.099 263.7 169.435 264.354 169.864C265.007 170.275 265.53 170.825 265.922 171.516C266.332 172.188 266.538 173.037 266.538 174.064C266.538 175.203 266.211 176.257 265.558 177.228C264.923 178.18 263.962 178.945 262.674 179.524C261.404 180.103 259.799 180.392 257.858 180.392ZM283.967 180.392C282.474 180.392 281.139 180.159 279.963 179.692C278.787 179.207 277.854 178.544 277.163 177.704C276.491 176.864 276.155 175.921 276.155 174.876C276.155 173.849 276.379 172.935 276.827 172.132C277.294 171.329 278.003 170.592 278.955 169.92C279.926 169.248 281.158 168.604 282.651 167.988C283.64 167.559 284.415 167.176 284.975 166.84C285.535 166.504 285.927 166.187 286.151 165.888C286.394 165.571 286.515 165.253 286.515 164.936C286.515 164.544 286.384 164.227 286.123 163.984C285.862 163.741 285.47 163.62 284.947 163.62C284.406 163.62 283.976 163.76 283.659 164.04C283.36 164.32 283.211 164.665 283.211 165.076C283.211 165.319 283.258 165.561 283.351 165.804C283.463 166.047 283.668 166.327 283.967 166.644C284.284 166.961 284.723 167.372 285.283 167.876L295.615 177.06L292.759 180.336L281.111 169.948C280.476 169.388 279.954 168.847 279.543 168.324C279.151 167.801 278.852 167.279 278.647 166.756C278.46 166.233 278.367 165.701 278.367 165.16C278.367 164.152 278.638 163.275 279.179 162.528C279.72 161.763 280.486 161.175 281.475 160.764C282.464 160.335 283.622 160.12 284.947 160.12C286.16 160.12 287.215 160.307 288.111 160.68C289.026 161.053 289.735 161.595 290.239 162.304C290.743 163.013 290.995 163.853 290.995 164.824C290.995 165.683 290.771 166.467 290.323 167.176C289.894 167.885 289.222 168.539 288.307 169.136C287.411 169.733 286.263 170.321 284.863 170.9C284.004 171.255 283.314 171.609 282.791 171.964C282.287 172.319 281.923 172.683 281.699 173.056C281.475 173.411 281.363 173.821 281.363 174.288C281.363 174.661 281.484 175.007 281.727 175.324C281.97 175.641 282.315 175.893 282.763 176.08C283.211 176.248 283.743 176.332 284.359 176.332C285.442 176.332 286.44 176.071 287.355 175.548C288.27 175.007 289.054 174.223 289.707 173.196C290.379 172.169 290.836 170.928 291.079 169.472L295.363 170.76C294.952 172.683 294.206 174.363 293.123 175.8C292.059 177.237 290.743 178.367 289.175 179.188C287.626 179.991 285.89 180.392 283.967 180.392ZM140.255 208V188.4H149.215C151.007 188.4 152.547 188.689 153.835 189.268C155.142 189.847 156.15 190.687 156.859 191.788C157.568 192.871 157.923 194.159 157.923 195.652C157.923 197.127 157.568 198.405 156.859 199.488C156.15 200.552 155.142 201.373 153.835 201.952C152.547 202.512 151.007 202.792 149.215 202.792H143.335L145.799 200.468V208H140.255ZM152.379 208L147.507 200.86H153.415L158.315 208H152.379ZM145.799 201.056L143.335 198.508H148.879C150.036 198.508 150.895 198.256 151.455 197.752C152.034 197.248 152.323 196.548 152.323 195.652C152.323 194.737 152.034 194.028 151.455 193.524C150.895 193.02 150.036 192.768 148.879 192.768H143.335L145.799 190.22V201.056ZM174.085 188.4H179.629V208H174.085V188.4ZM166.525 208H160.981V188.4H166.525V208ZM174.477 200.356H166.133V195.764H174.477V200.356ZM188.496 208V199.712L189.784 203.044L181.02 188.4H186.872L193.2 199.012H189.812L196.168 188.4H201.544L192.808 203.044L194.04 199.712V208H188.496ZM206.661 208V192.796H200.641V188.4H218.197V192.796H212.205V208H206.661ZM233.367 188.4H238.911V208H233.367V188.4ZM225.807 208H220.263V188.4H225.807V208ZM233.759 200.356H225.415V195.764H233.759V200.356ZM242.821 208V188.4H247.385L255.505 201.728H253.097L260.993 188.4H265.557L265.613 208H260.517L260.461 196.156H261.329L255.421 206.068H252.957L246.881 196.156H247.945V208H242.821ZM276.424 208.392C274.819 208.392 273.27 208.196 271.776 207.804C270.302 207.393 269.098 206.871 268.164 206.236L269.984 202.148C270.862 202.708 271.87 203.175 273.008 203.548C274.166 203.903 275.314 204.08 276.452 204.08C277.218 204.08 277.834 204.015 278.3 203.884C278.767 203.735 279.103 203.548 279.308 203.324C279.532 203.081 279.644 202.801 279.644 202.484C279.644 202.036 279.439 201.681 279.028 201.42C278.618 201.159 278.086 200.944 277.432 200.776C276.779 200.608 276.051 200.44 275.248 200.272C274.464 200.104 273.671 199.889 272.868 199.628C272.084 199.367 271.366 199.031 270.712 198.62C270.059 198.191 269.527 197.64 269.116 196.968C268.706 196.277 268.5 195.409 268.5 194.364C268.5 193.188 268.818 192.124 269.452 191.172C270.106 190.22 271.076 189.455 272.364 188.876C273.652 188.297 275.258 188.008 277.18 188.008C278.468 188.008 279.728 188.157 280.96 188.456C282.211 188.736 283.322 189.156 284.292 189.716L282.584 193.832C281.651 193.328 280.727 192.955 279.812 192.712C278.898 192.451 278.011 192.32 277.152 192.32C276.387 192.32 275.771 192.404 275.304 192.572C274.838 192.721 274.502 192.927 274.296 193.188C274.091 193.449 273.988 193.748 273.988 194.084C273.988 194.513 274.184 194.859 274.576 195.12C274.987 195.363 275.519 195.568 276.172 195.736C276.844 195.885 277.572 196.044 278.356 196.212C279.159 196.38 279.952 196.595 280.736 196.856C281.539 197.099 282.267 197.435 282.92 197.864C283.574 198.275 284.096 198.825 284.488 199.516C284.899 200.188 285.104 201.037 285.104 202.064C285.104 203.203 284.778 204.257 284.124 205.228C283.49 206.18 282.528 206.945 281.24 207.524C279.971 208.103 278.366 208.392 276.424 208.392ZM103.081 236L111.733 216.4H117.193L125.873 236H120.105L113.329 219.116H115.513L108.737 236H103.081ZM107.813 232.192L109.241 228.104H118.817L120.245 232.192H107.813ZM131.195 236L124.839 216.4H130.551L135.899 233.368H133.015L138.643 216.4H143.739L149.059 233.368H146.287L151.803 216.4H157.095L150.739 236H144.803L140.267 221.58H141.863L137.131 236H131.195ZM156.045 236L164.698 216.4H170.158L178.838 236H173.07L166.294 219.116H168.478L161.702 236H156.045ZM160.778 232.192L162.206 228.104H171.782L173.21 232.192H160.778ZM180.409 236V216.4H189.369C191.161 216.4 192.701 216.689 193.989 217.268C195.296 217.847 196.304 218.687 197.013 219.788C197.723 220.871 198.077 222.159 198.077 223.652C198.077 225.127 197.723 226.405 197.013 227.488C196.304 228.552 195.296 229.373 193.989 229.952C192.701 230.512 191.161 230.792 189.369 230.792H183.489L185.953 228.468V236H180.409ZM192.533 236L187.661 228.86H193.569L198.469 236H192.533ZM185.953 229.056L183.489 226.508H189.033C190.191 226.508 191.049 226.256 191.609 225.752C192.188 225.248 192.477 224.548 192.477 223.652C192.477 222.737 192.188 222.028 191.609 221.524C191.049 221.02 190.191 220.768 189.033 220.768H183.489L185.953 218.22V229.056ZM201.136 236V216.4H210.404C212.569 216.4 214.473 216.801 216.116 217.604C217.758 218.407 219.037 219.536 219.952 220.992C220.885 222.448 221.352 224.184 221.352 226.2C221.352 228.197 220.885 229.933 219.952 231.408C219.037 232.864 217.758 233.993 216.116 234.796C214.473 235.599 212.569 236 210.404 236H201.136ZM206.68 231.576H210.18C211.3 231.576 212.27 231.371 213.092 230.96C213.932 230.531 214.585 229.915 215.052 229.112C215.518 228.291 215.752 227.32 215.752 226.2C215.752 225.061 215.518 224.091 215.052 223.288C214.585 222.485 213.932 221.879 213.092 221.468C212.27 221.039 211.3 220.824 210.18 220.824H206.68V231.576ZM231.157 236.392C229.551 236.392 228.002 236.196 226.509 235.804C225.034 235.393 223.83 234.871 222.897 234.236L224.717 230.148C225.594 230.708 226.602 231.175 227.741 231.548C228.898 231.903 230.046 232.08 231.185 232.08C231.95 232.08 232.566 232.015 233.033 231.884C233.499 231.735 233.835 231.548 234.041 231.324C234.265 231.081 234.377 230.801 234.377 230.484C234.377 230.036 234.171 229.681 233.761 229.42C233.35 229.159 232.818 228.944 232.165 228.776C231.511 228.608 230.783 228.44 229.981 228.272C229.197 228.104 228.403 227.889 227.601 227.628C226.817 227.367 226.098 227.031 225.445 226.62C224.791 226.191 224.259 225.64 223.849 224.968C223.438 224.277 223.233 223.409 223.233 222.364C223.233 221.188 223.55 220.124 224.185 219.172C224.838 218.22 225.809 217.455 227.097 216.876C228.385 216.297 229.99 216.008 231.913 216.008C233.201 216.008 234.461 216.157 235.693 216.456C236.943 216.736 238.054 217.156 239.025 217.716L237.317 221.832C236.383 221.328 235.459 220.955 234.545 220.712C233.63 220.451 232.743 220.32 231.885 220.32C231.119 220.32 230.503 220.404 230.037 220.572C229.57 220.721 229.234 220.927 229.029 221.188C228.823 221.449 228.721 221.748 228.721 222.084C228.721 222.513 228.917 222.859 229.309 223.12C229.719 223.363 230.251 223.568 230.905 223.736C231.577 223.885 232.305 224.044 233.089 224.212C233.891 224.38 234.685 224.595 235.469 224.856C236.271 225.099 236.999 225.435 237.653 225.864C238.306 226.275 238.829 226.825 239.221 227.516C239.631 228.188 239.837 229.037 239.837 230.064C239.837 231.203 239.51 232.257 238.857 233.228C238.222 234.18 237.261 234.945 235.973 235.524C234.703 236.103 233.098 236.392 231.157 236.392ZM249.426 236V232.528L256.762 225.668C257.285 225.183 257.667 224.753 257.91 224.38C258.171 224.007 258.339 223.671 258.414 223.372C258.507 223.055 258.554 222.765 258.554 222.504C258.554 221.869 258.339 221.375 257.91 221.02C257.499 220.665 256.874 220.488 256.034 220.488C255.325 220.488 254.662 220.647 254.046 220.964C253.43 221.281 252.926 221.757 252.534 222.392L248.418 220.096C249.146 218.864 250.201 217.875 251.582 217.128C252.963 216.381 254.615 216.008 256.538 216.008C258.05 216.008 259.375 216.251 260.514 216.736C261.653 217.221 262.539 217.912 263.174 218.808C263.827 219.704 264.154 220.759 264.154 221.972C264.154 222.607 264.07 223.241 263.902 223.876C263.734 224.492 263.407 225.155 262.922 225.864C262.455 226.555 261.755 227.329 260.822 228.188L254.998 233.564L254.074 231.604H264.686V236H249.426ZM274.952 236.392C273.272 236.392 271.778 235.991 270.472 235.188C269.184 234.385 268.166 233.228 267.42 231.716C266.673 230.204 266.3 228.365 266.3 226.2C266.3 224.035 266.673 222.196 267.42 220.684C268.166 219.172 269.184 218.015 270.472 217.212C271.778 216.409 273.272 216.008 274.952 216.008C276.613 216.008 278.088 216.409 279.376 217.212C280.682 218.015 281.709 219.172 282.456 220.684C283.202 222.196 283.576 224.035 283.576 226.2C283.576 228.365 283.202 230.204 282.456 231.716C281.709 233.228 280.682 234.385 279.376 235.188C278.088 235.991 276.613 236.392 274.952 236.392ZM274.952 231.856C275.549 231.856 276.072 231.669 276.52 231.296C276.986 230.923 277.35 230.325 277.612 229.504C277.873 228.664 278.004 227.563 278.004 226.2C278.004 224.819 277.873 223.717 277.612 222.896C277.35 222.075 276.986 221.477 276.52 221.104C276.072 220.731 275.549 220.544 274.952 220.544C274.354 220.544 273.822 220.731 273.356 221.104C272.908 221.477 272.544 222.075 272.264 222.896C272.002 223.717 271.872 224.819 271.872 226.2C271.872 227.563 272.002 228.664 272.264 229.504C272.544 230.325 272.908 230.923 273.356 231.296C273.822 231.669 274.354 231.856 274.952 231.856ZM285.164 236V232.528L292.5 225.668C293.023 225.183 293.406 224.753 293.648 224.38C293.91 224.007 294.078 223.671 294.152 223.372C294.246 223.055 294.292 222.765 294.292 222.504C294.292 221.869 294.078 221.375 293.648 221.02C293.238 220.665 292.612 220.488 291.772 220.488C291.063 220.488 290.4 220.647 289.784 220.964C289.168 221.281 288.664 221.757 288.272 222.392L284.156 220.096C284.884 218.864 285.939 217.875 287.32 217.128C288.702 216.381 290.354 216.008 292.276 216.008C293.788 216.008 295.114 216.251 296.252 216.736C297.391 217.221 298.278 217.912 298.912 218.808C299.566 219.704 299.892 220.759 299.892 221.972C299.892 222.607 299.808 223.241 299.64 223.876C299.472 224.492 299.146 225.155 298.66 225.864C298.194 226.555 297.494 227.329 296.56 228.188L290.736 233.564L289.812 231.604H300.424V236H285.164ZM301.678 232.248V228.636L310.47 216.4H316.21L307.67 228.636L305.038 227.852H320.354V232.248H301.678ZM312.038 236V232.248L312.206 227.852V224.52H317.442V236H312.038Z" fill="#2E281D"/>
<path d="M168.454 265L175.582 249.208L176.206 250.288H166.222L167.422 249.112V253.288H165.118V248.2H177.79V249.832L170.998 265H168.454ZM187.42 265V252.28H189.796L195.268 261.688H194.308L199.924 252.28H202.084V265H199.996V254.872L200.38 255.088L195.244 263.56H194.236L189.076 254.92L189.532 254.824V265H187.42ZM212.232 265.144C210.872 265.144 209.672 264.864 208.632 264.304C207.608 263.744 206.808 262.976 206.232 262C205.672 261.024 205.392 259.904 205.392 258.64C205.392 257.376 205.664 256.256 206.208 255.28C206.768 254.304 207.528 253.544 208.488 253C209.464 252.44 210.56 252.16 211.776 252.16C213.008 252.16 214.096 252.432 215.04 252.976C215.984 253.52 216.72 254.288 217.248 255.28C217.792 256.256 218.064 257.4 218.064 258.712C218.064 258.808 218.056 258.92 218.04 259.048C218.04 259.176 218.032 259.296 218.016 259.408H207.192V257.752H216.816L215.88 258.328C215.896 257.512 215.728 256.784 215.376 256.144C215.024 255.504 214.536 255.008 213.912 254.656C213.304 254.288 212.592 254.104 211.776 254.104C210.976 254.104 210.264 254.288 209.64 254.656C209.016 255.008 208.528 255.512 208.176 256.168C207.824 256.808 207.648 257.544 207.648 258.376V258.76C207.648 259.608 207.84 260.368 208.224 261.04C208.624 261.696 209.176 262.208 209.88 262.576C210.584 262.944 211.392 263.128 212.304 263.128C213.056 263.128 213.736 263 214.344 262.744C214.968 262.488 215.512 262.104 215.976 261.592L217.248 263.08C216.672 263.752 215.952 264.264 215.088 264.616C214.24 264.968 213.288 265.144 212.232 265.144ZM227.182 265.144C225.886 265.144 224.726 264.864 223.702 264.304C222.694 263.744 221.902 262.976 221.326 262C220.75 261.024 220.462 259.904 220.462 258.64C220.462 257.376 220.75 256.256 221.326 255.28C221.902 254.304 222.694 253.544 223.702 253C224.726 252.44 225.886 252.16 227.182 252.16C228.334 252.16 229.358 252.392 230.254 252.856C231.166 253.304 231.87 253.976 232.366 254.872L230.614 256C230.198 255.376 229.686 254.92 229.078 254.632C228.486 254.328 227.846 254.176 227.158 254.176C226.326 254.176 225.582 254.36 224.926 254.728C224.27 255.096 223.75 255.616 223.366 256.288C222.982 256.944 222.79 257.728 222.79 258.64C222.79 259.552 222.982 260.344 223.366 261.016C223.75 261.688 224.27 262.208 224.926 262.576C225.582 262.944 226.326 263.128 227.158 263.128C227.846 263.128 228.486 262.984 229.078 262.696C229.686 262.392 230.198 261.928 230.614 261.304L232.366 262.408C231.87 263.288 231.166 263.968 230.254 264.448C229.358 264.912 228.334 265.144 227.182 265.144ZM237.705 265V253.696L238.281 254.296H233.049V252.28H244.665V254.296H239.457L240.009 253.696V265H237.705ZM251.907 265.144C250.627 265.144 249.491 264.864 248.499 264.304C247.507 263.744 246.723 262.976 246.147 262C245.571 261.008 245.283 259.888 245.283 258.64C245.283 257.376 245.571 256.256 246.147 255.28C246.723 254.304 247.507 253.544 248.499 253C249.491 252.44 250.627 252.16 251.907 252.16C253.171 252.16 254.299 252.44 255.291 253C256.299 253.544 257.083 254.304 257.643 255.28C258.219 256.24 258.507 257.36 258.507 258.64C258.507 259.904 258.219 261.024 257.643 262C257.083 262.976 256.299 263.744 255.291 264.304C254.299 264.864 253.171 265.144 251.907 265.144ZM251.907 263.128C252.723 263.128 253.451 262.944 254.091 262.576C254.747 262.208 255.259 261.688 255.627 261.016C255.995 260.328 256.179 259.536 256.179 258.64C256.179 257.728 255.995 256.944 255.627 256.288C255.259 255.616 254.747 255.096 254.091 254.728C253.451 254.36 252.723 254.176 251.907 254.176C251.091 254.176 250.363 254.36 249.723 254.728C249.083 255.096 248.571 255.616 248.187 256.288C247.803 256.944 247.611 257.728 247.611 258.64C247.611 259.536 247.803 260.328 248.187 261.016C248.571 261.688 249.083 262.208 249.723 262.576C250.363 262.944 251.091 263.128 251.907 263.128Z" fill="#2E281D"/>
</svg>
