<svg width="424" height="424" viewBox="0 0 424 424" fill="none" xmlns="http://www.w3.org/2000/svg">
<path d="M251.432 70.375L315.952 31.9503L314.935 107.038L314.907 109.093L316.962 109.065L392.05 108.048L353.625 172.568L352.574 174.333L354.367 175.337L419.904 212L354.367 248.663L352.574 249.667L353.625 251.432L392.05 315.952L316.962 314.935L314.907 314.907L314.935 316.962L315.952 392.05L251.432 353.625L249.667 352.574L248.663 354.367L212 419.904L175.337 354.367L174.333 352.574L172.568 353.625L108.048 392.05L109.065 316.962L109.093 314.907L107.038 314.935L31.9503 315.952L70.375 251.432L71.4264 249.667L69.6331 248.663L4.09647 212L69.6331 175.337L71.4264 174.333L70.375 172.568L31.9503 108.048L107.038 109.065L109.093 109.093L109.065 107.038L108.048 31.9503L172.568 70.375L174.333 71.4264L175.337 69.6331L212 4.09647L248.663 69.6331L249.667 71.4264L251.432 70.375Z" stroke="#2E281D" stroke-width="4"/>
<path d="M147.433 180V160.4H156.393C158.185 160.4 159.725 160.689 161.013 161.268C162.319 161.847 163.327 162.687 164.037 163.788C164.746 164.871 165.101 166.159 165.101 167.652C165.101 169.127 164.746 170.405 164.037 171.488C163.327 172.552 162.319 173.373 161.013 173.952C159.725 174.512 158.185 174.792 156.393 174.792H150.513L152.977 172.468V180H147.433ZM159.557 180L154.685 172.86H160.593L165.493 180H159.557ZM152.977 173.056L150.513 170.508H156.057C157.214 170.508 158.073 170.256 158.633 169.752C159.211 169.248 159.501 168.548 159.501 167.652C159.501 166.737 159.211 166.028 158.633 165.524C158.073 165.02 157.214 164.768 156.057 164.768H150.513L152.977 162.22V173.056ZM177.203 180.392C174.31 180.392 172.051 179.599 170.427 178.012C168.803 176.425 167.991 174.176 167.991 171.264V160.4H173.535V171.096C173.535 172.776 173.862 173.98 174.515 174.708C175.187 175.436 176.102 175.8 177.259 175.8C178.417 175.8 179.322 175.436 179.975 174.708C180.629 173.98 180.955 172.776 180.955 171.096V160.4H186.415V171.264C186.415 174.176 185.603 176.425 183.979 178.012C182.355 179.599 180.097 180.392 177.203 180.392ZM197.059 180.392C195.454 180.392 193.904 180.196 192.411 179.804C190.936 179.393 189.732 178.871 188.799 178.236L190.619 174.148C191.496 174.708 192.504 175.175 193.643 175.548C194.8 175.903 195.948 176.08 197.087 176.08C197.852 176.08 198.468 176.015 198.935 175.884C199.402 175.735 199.738 175.548 199.943 175.324C200.167 175.081 200.279 174.801 200.279 174.484C200.279 174.036 200.074 173.681 199.663 173.42C199.252 173.159 198.72 172.944 198.067 172.776C197.414 172.608 196.686 172.44 195.883 172.272C195.099 172.104 194.306 171.889 193.503 171.628C192.719 171.367 192 171.031 191.347 170.62C190.694 170.191 190.162 169.64 189.751 168.968C189.34 168.277 189.135 167.409 189.135 166.364C189.135 165.188 189.452 164.124 190.087 163.172C190.74 162.22 191.711 161.455 192.999 160.876C194.287 160.297 195.892 160.008 197.815 160.008C199.103 160.008 200.363 160.157 201.595 160.456C202.846 160.736 203.956 161.156 204.927 161.716L203.219 165.832C202.286 165.328 201.362 164.955 200.447 164.712C199.532 164.451 198.646 164.32 197.787 164.32C197.022 164.32 196.406 164.404 195.939 164.572C195.472 164.721 195.136 164.927 194.931 165.188C194.726 165.449 194.623 165.748 194.623 166.084C194.623 166.513 194.819 166.859 195.211 167.12C195.622 167.363 196.154 167.568 196.807 167.736C197.479 167.885 198.207 168.044 198.991 168.212C199.794 168.38 200.587 168.595 201.371 168.856C202.174 169.099 202.902 169.435 203.555 169.864C204.208 170.275 204.731 170.825 205.123 171.516C205.534 172.188 205.739 173.037 205.739 174.064C205.739 175.203 205.412 176.257 204.759 177.228C204.124 178.18 203.163 178.945 201.875 179.524C200.606 180.103 199 180.392 197.059 180.392ZM215.188 180.392C213.583 180.392 212.033 180.196 210.54 179.804C209.065 179.393 207.861 178.871 206.928 178.236L208.748 174.148C209.625 174.708 210.633 175.175 211.772 175.548C212.929 175.903 214.077 176.08 215.216 176.08C215.981 176.08 216.597 176.015 217.064 175.884C217.531 175.735 217.867 175.548 218.072 175.324C218.296 175.081 218.408 174.801 218.408 174.484C218.408 174.036 218.203 173.681 217.792 173.42C217.381 173.159 216.849 172.944 216.196 172.776C215.543 172.608 214.815 172.44 214.012 172.272C213.228 172.104 212.435 171.889 211.632 171.628C210.848 171.367 210.129 171.031 209.476 170.62C208.823 170.191 208.291 169.64 207.88 168.968C207.469 168.277 207.264 167.409 207.264 166.364C207.264 165.188 207.581 164.124 208.216 163.172C208.869 162.22 209.84 161.455 211.128 160.876C212.416 160.297 214.021 160.008 215.944 160.008C217.232 160.008 218.492 160.157 219.724 160.456C220.975 160.736 222.085 161.156 223.056 161.716L221.348 165.832C220.415 165.328 219.491 164.955 218.576 164.712C217.661 164.451 216.775 164.32 215.916 164.32C215.151 164.32 214.535 164.404 214.068 164.572C213.601 164.721 213.265 164.927 213.06 165.188C212.855 165.449 212.752 165.748 212.752 166.084C212.752 166.513 212.948 166.859 213.34 167.12C213.751 167.363 214.283 167.568 214.936 167.736C215.608 167.885 216.336 168.044 217.12 168.212C217.923 168.38 218.716 168.595 219.5 168.856C220.303 169.099 221.031 169.435 221.684 169.864C222.337 170.275 222.86 170.825 223.252 171.516C223.663 172.188 223.868 173.037 223.868 174.064C223.868 175.203 223.541 176.257 222.888 177.228C222.253 178.18 221.292 178.945 220.004 179.524C218.735 180.103 217.129 180.392 215.188 180.392ZM226.429 180V160.4H231.973V180H226.429ZM233.565 180L242.217 160.4H247.677L256.357 180H250.589L243.813 163.116H245.997L239.221 180H233.565ZM238.297 176.192L239.725 172.104H249.301L250.729 176.192H238.297ZM257.929 180V160.4H262.493L273.301 173.448H271.145V160.4H276.577V180H272.013L261.205 166.952H263.361V180H257.929ZM161.963 208.392C160.414 208.392 158.976 208.149 157.651 207.664C156.326 207.16 155.178 206.451 154.207 205.536C153.255 204.621 152.508 203.548 151.967 202.316C151.426 201.065 151.155 199.693 151.155 198.2C151.155 196.707 151.426 195.344 151.967 194.112C152.508 192.861 153.264 191.779 154.235 190.864C155.206 189.949 156.354 189.249 157.679 188.764C159.023 188.26 160.488 188.008 162.075 188.008C163.923 188.008 165.575 188.316 167.031 188.932C168.487 189.548 169.691 190.435 170.643 191.592L167.115 194.784C166.443 194.056 165.715 193.515 164.931 193.16C164.166 192.787 163.307 192.6 162.355 192.6C161.515 192.6 160.75 192.731 160.059 192.992C159.368 193.253 158.78 193.636 158.295 194.14C157.81 194.625 157.427 195.213 157.147 195.904C156.886 196.576 156.755 197.341 156.755 198.2C156.755 199.021 156.886 199.777 157.147 200.468C157.427 201.159 157.81 201.756 158.295 202.26C158.78 202.745 159.359 203.128 160.031 203.408C160.722 203.669 161.478 203.8 162.299 203.8C163.12 203.8 163.923 203.669 164.707 203.408C165.491 203.128 166.284 202.661 167.087 202.008L170.195 205.9C169.075 206.703 167.778 207.319 166.303 207.748C164.828 208.177 163.382 208.392 161.963 208.392ZM165.295 205.172V197.78H170.195V205.9L165.295 205.172ZM171.358 208L180.01 188.4H185.47L194.15 208H188.382L181.606 191.116H183.79L177.014 208H171.358ZM176.09 204.192L177.518 200.104H187.094L188.522 204.192H176.09ZM202.61 208.392C201.004 208.392 199.455 208.196 197.962 207.804C196.487 207.393 195.283 206.871 194.35 206.236L196.17 202.148C197.047 202.708 198.055 203.175 199.194 203.548C200.351 203.903 201.499 204.08 202.638 204.08C203.403 204.08 204.019 204.015 204.486 203.884C204.952 203.735 205.288 203.548 205.494 203.324C205.718 203.081 205.83 202.801 205.83 202.484C205.83 202.036 205.624 201.681 205.214 201.42C204.803 201.159 204.271 200.944 203.618 200.776C202.964 200.608 202.236 200.44 201.434 200.272C200.65 200.104 199.856 199.889 199.054 199.628C198.27 199.367 197.551 199.031 196.898 198.62C196.244 198.191 195.712 197.64 195.302 196.968C194.891 196.277 194.686 195.409 194.686 194.364C194.686 193.188 195.003 192.124 195.638 191.172C196.291 190.22 197.262 189.455 198.55 188.876C199.838 188.297 201.443 188.008 203.366 188.008C204.654 188.008 205.914 188.157 207.146 188.456C208.396 188.736 209.507 189.156 210.478 189.716L208.77 193.832C207.836 193.328 206.912 192.955 205.998 192.712C205.083 192.451 204.196 192.32 203.338 192.32C202.572 192.32 201.956 192.404 201.49 192.572C201.023 192.721 200.687 192.927 200.482 193.188C200.276 193.449 200.174 193.748 200.174 194.084C200.174 194.513 200.37 194.859 200.762 195.12C201.172 195.363 201.704 195.568 202.358 195.736C203.03 195.885 203.758 196.044 204.542 196.212C205.344 196.38 206.138 196.595 206.922 196.856C207.724 197.099 208.452 197.435 209.106 197.864C209.759 198.275 210.282 198.825 210.674 199.516C211.084 200.188 211.29 201.037 211.29 202.064C211.29 203.203 210.963 204.257 210.31 205.228C209.675 206.18 208.714 206.945 207.426 207.524C206.156 208.103 204.551 208.392 202.61 208.392ZM217.749 208V192.796H211.729V188.4H229.285V192.796H223.293V208H217.749ZM231.351 208V188.4H240.311C242.103 188.4 243.643 188.689 244.931 189.268C246.237 189.847 247.245 190.687 247.955 191.788C248.664 192.871 249.019 194.159 249.019 195.652C249.019 197.127 248.664 198.405 247.955 199.488C247.245 200.552 246.237 201.373 244.931 201.952C243.643 202.512 242.103 202.792 240.311 202.792H234.431L236.895 200.468V208H231.351ZM243.475 208L238.603 200.86H244.511L249.411 208H243.475ZM236.895 201.056L234.431 198.508H239.975C241.132 198.508 241.991 198.256 242.551 197.752C243.129 197.248 243.419 196.548 243.419 195.652C243.419 194.737 243.129 194.028 242.551 193.524C241.991 193.02 241.132 192.768 239.975 192.768H234.431L236.895 190.22V201.056ZM261.961 208.392C260.393 208.392 258.947 208.14 257.621 207.636C256.296 207.132 255.139 206.423 254.149 205.508C253.179 204.575 252.423 203.492 251.881 202.26C251.34 201.028 251.069 199.675 251.069 198.2C251.069 196.725 251.34 195.372 251.881 194.14C252.423 192.908 253.179 191.835 254.149 190.92C255.139 189.987 256.296 189.268 257.621 188.764C258.947 188.26 260.393 188.008 261.961 188.008C263.548 188.008 264.995 188.26 266.301 188.764C267.627 189.268 268.775 189.987 269.745 190.92C270.716 191.835 271.472 192.908 272.013 194.14C272.573 195.372 272.853 196.725 272.853 198.2C272.853 199.675 272.573 201.037 272.013 202.288C271.472 203.52 270.716 204.593 269.745 205.508C268.775 206.423 267.627 207.132 266.301 207.636C264.995 208.14 263.548 208.392 261.961 208.392ZM261.961 203.8C262.708 203.8 263.399 203.669 264.033 203.408C264.687 203.147 265.247 202.773 265.713 202.288C266.199 201.784 266.572 201.187 266.833 200.496C267.113 199.805 267.253 199.04 267.253 198.2C267.253 197.341 267.113 196.576 266.833 195.904C266.572 195.213 266.199 194.625 265.713 194.14C265.247 193.636 264.687 193.253 264.033 192.992C263.399 192.731 262.708 192.6 261.961 192.6C261.215 192.6 260.515 192.731 259.861 192.992C259.227 193.253 258.667 193.636 258.181 194.14C257.715 194.625 257.341 195.213 257.061 195.904C256.8 196.576 256.669 197.341 256.669 198.2C256.669 199.04 256.8 199.805 257.061 200.496C257.341 201.187 257.715 201.784 258.181 202.288C258.667 202.773 259.227 203.147 259.861 203.408C260.515 203.669 261.215 203.8 261.961 203.8ZM103.081 236L111.733 216.4H117.193L125.873 236H120.105L113.329 219.116H115.513L108.737 236H103.081ZM107.813 232.192L109.241 228.104H118.817L120.245 232.192H107.813ZM131.195 236L124.839 216.4H130.551L135.899 233.368H133.015L138.643 216.4H143.739L149.059 233.368H146.287L151.803 216.4H157.095L150.739 236H144.803L140.267 221.58H141.863L137.131 236H131.195ZM156.045 236L164.698 216.4H170.158L178.838 236H173.07L166.294 219.116H168.478L161.702 236H156.045ZM160.778 232.192L162.206 228.104H171.782L173.21 232.192H160.778ZM180.409 236V216.4H189.369C191.161 216.4 192.701 216.689 193.989 217.268C195.296 217.847 196.304 218.687 197.013 219.788C197.723 220.871 198.077 222.159 198.077 223.652C198.077 225.127 197.723 226.405 197.013 227.488C196.304 228.552 195.296 229.373 193.989 229.952C192.701 230.512 191.161 230.792 189.369 230.792H183.489L185.953 228.468V236H180.409ZM192.533 236L187.661 228.86H193.569L198.469 236H192.533ZM185.953 229.056L183.489 226.508H189.033C190.191 226.508 191.049 226.256 191.609 225.752C192.188 225.248 192.477 224.548 192.477 223.652C192.477 222.737 192.188 222.028 191.609 221.524C191.049 221.02 190.191 220.768 189.033 220.768H183.489L185.953 218.22V229.056ZM201.136 236V216.4H210.404C212.569 216.4 214.473 216.801 216.116 217.604C217.758 218.407 219.037 219.536 219.952 220.992C220.885 222.448 221.352 224.184 221.352 226.2C221.352 228.197 220.885 229.933 219.952 231.408C219.037 232.864 217.758 233.993 216.116 234.796C214.473 235.599 212.569 236 210.404 236H201.136ZM206.68 231.576H210.18C211.3 231.576 212.27 231.371 213.092 230.96C213.932 230.531 214.585 229.915 215.052 229.112C215.518 228.291 215.752 227.32 215.752 226.2C215.752 225.061 215.518 224.091 215.052 223.288C214.585 222.485 213.932 221.879 213.092 221.468C212.27 221.039 211.3 220.824 210.18 220.824H206.68V231.576ZM231.157 236.392C229.551 236.392 228.002 236.196 226.509 235.804C225.034 235.393 223.83 234.871 222.897 234.236L224.717 230.148C225.594 230.708 226.602 231.175 227.741 231.548C228.898 231.903 230.046 232.08 231.185 232.08C231.95 232.08 232.566 232.015 233.033 231.884C233.499 231.735 233.835 231.548 234.041 231.324C234.265 231.081 234.377 230.801 234.377 230.484C234.377 230.036 234.171 229.681 233.761 229.42C233.35 229.159 232.818 228.944 232.165 228.776C231.511 228.608 230.783 228.44 229.981 228.272C229.197 228.104 228.403 227.889 227.601 227.628C226.817 227.367 226.098 227.031 225.445 226.62C224.791 226.191 224.259 225.64 223.849 224.968C223.438 224.277 223.233 223.409 223.233 222.364C223.233 221.188 223.55 220.124 224.185 219.172C224.838 218.22 225.809 217.455 227.097 216.876C228.385 216.297 229.99 216.008 231.913 216.008C233.201 216.008 234.461 216.157 235.693 216.456C236.943 216.736 238.054 217.156 239.025 217.716L237.317 221.832C236.383 221.328 235.459 220.955 234.545 220.712C233.63 220.451 232.743 220.32 231.885 220.32C231.119 220.32 230.503 220.404 230.037 220.572C229.57 220.721 229.234 220.927 229.029 221.188C228.823 221.449 228.721 221.748 228.721 222.084C228.721 222.513 228.917 222.859 229.309 223.12C229.719 223.363 230.251 223.568 230.905 223.736C231.577 223.885 232.305 224.044 233.089 224.212C233.891 224.38 234.685 224.595 235.469 224.856C236.271 225.099 236.999 225.435 237.653 225.864C238.306 226.275 238.829 226.825 239.221 227.516C239.631 228.188 239.837 229.037 239.837 230.064C239.837 231.203 239.51 232.257 238.857 233.228C238.222 234.18 237.261 234.945 235.973 235.524C234.703 236.103 233.098 236.392 231.157 236.392ZM249.426 236V232.528L256.762 225.668C257.285 225.183 257.667 224.753 257.91 224.38C258.171 224.007 258.339 223.671 258.414 223.372C258.507 223.055 258.554 222.765 258.554 222.504C258.554 221.869 258.339 221.375 257.91 221.02C257.499 220.665 256.874 220.488 256.034 220.488C255.325 220.488 254.662 220.647 254.046 220.964C253.43 221.281 252.926 221.757 252.534 222.392L248.418 220.096C249.146 218.864 250.201 217.875 251.582 217.128C252.963 216.381 254.615 216.008 256.538 216.008C258.05 216.008 259.375 216.251 260.514 216.736C261.653 217.221 262.539 217.912 263.174 218.808C263.827 219.704 264.154 220.759 264.154 221.972C264.154 222.607 264.07 223.241 263.902 223.876C263.734 224.492 263.407 225.155 262.922 225.864C262.455 226.555 261.755 227.329 260.822 228.188L254.998 233.564L254.074 231.604H264.686V236H249.426ZM274.952 236.392C273.272 236.392 271.778 235.991 270.472 235.188C269.184 234.385 268.166 233.228 267.42 231.716C266.673 230.204 266.3 228.365 266.3 226.2C266.3 224.035 266.673 222.196 267.42 220.684C268.166 219.172 269.184 218.015 270.472 217.212C271.778 216.409 273.272 216.008 274.952 216.008C276.613 216.008 278.088 216.409 279.376 217.212C280.682 218.015 281.709 219.172 282.456 220.684C283.202 222.196 283.576 224.035 283.576 226.2C283.576 228.365 283.202 230.204 282.456 231.716C281.709 233.228 280.682 234.385 279.376 235.188C278.088 235.991 276.613 236.392 274.952 236.392ZM274.952 231.856C275.549 231.856 276.072 231.669 276.52 231.296C276.986 230.923 277.35 230.325 277.612 229.504C277.873 228.664 278.004 227.563 278.004 226.2C278.004 224.819 277.873 223.717 277.612 222.896C277.35 222.075 276.986 221.477 276.52 221.104C276.072 220.731 275.549 220.544 274.952 220.544C274.354 220.544 273.822 220.731 273.356 221.104C272.908 221.477 272.544 222.075 272.264 222.896C272.002 223.717 271.872 224.819 271.872 226.2C271.872 227.563 272.002 228.664 272.264 229.504C272.544 230.325 272.908 230.923 273.356 231.296C273.822 231.669 274.354 231.856 274.952 231.856ZM285.164 236V232.528L292.5 225.668C293.023 225.183 293.406 224.753 293.648 224.38C293.91 224.007 294.078 223.671 294.152 223.372C294.246 223.055 294.292 222.765 294.292 222.504C294.292 221.869 294.078 221.375 293.648 221.02C293.238 220.665 292.612 220.488 291.772 220.488C291.063 220.488 290.4 220.647 289.784 220.964C289.168 221.281 288.664 221.757 288.272 222.392L284.156 220.096C284.884 218.864 285.939 217.875 287.32 217.128C288.702 216.381 290.354 216.008 292.276 216.008C293.788 216.008 295.114 216.251 296.252 216.736C297.391 217.221 298.278 217.912 298.912 218.808C299.566 219.704 299.892 220.759 299.892 221.972C299.892 222.607 299.808 223.241 299.64 223.876C299.472 224.492 299.146 225.155 298.66 225.864C298.194 226.555 297.494 227.329 296.56 228.188L290.736 233.564L289.812 231.604H300.424V236H285.164ZM301.678 232.248V228.636L310.47 216.4H316.21L307.67 228.636L305.038 227.852H320.354V232.248H301.678ZM312.038 236V232.248L312.206 227.852V224.52H317.442V236H312.038Z" fill="#2E281D"/>
<path d="M168.454 265L175.582 249.208L176.206 250.288H166.222L167.422 249.112V253.288H165.118V248.2H177.79V249.832L170.998 265H168.454ZM187.42 265V252.28H189.796L195.268 261.688H194.308L199.924 252.28H202.084V265H199.996V254.872L200.38 255.088L195.244 263.56H194.236L189.076 254.92L189.532 254.824V265H187.42ZM212.232 265.144C210.872 265.144 209.672 264.864 208.632 264.304C207.608 263.744 206.808 262.976 206.232 262C205.672 261.024 205.392 259.904 205.392 258.64C205.392 257.376 205.664 256.256 206.208 255.28C206.768 254.304 207.528 253.544 208.488 253C209.464 252.44 210.56 252.16 211.776 252.16C213.008 252.16 214.096 252.432 215.04 252.976C215.984 253.52 216.72 254.288 217.248 255.28C217.792 256.256 218.064 257.4 218.064 258.712C218.064 258.808 218.056 258.92 218.04 259.048C218.04 259.176 218.032 259.296 218.016 259.408H207.192V257.752H216.816L215.88 258.328C215.896 257.512 215.728 256.784 215.376 256.144C215.024 255.504 214.536 255.008 213.912 254.656C213.304 254.288 212.592 254.104 211.776 254.104C210.976 254.104 210.264 254.288 209.64 254.656C209.016 255.008 208.528 255.512 208.176 256.168C207.824 256.808 207.648 257.544 207.648 258.376V258.76C207.648 259.608 207.84 260.368 208.224 261.04C208.624 261.696 209.176 262.208 209.88 262.576C210.584 262.944 211.392 263.128 212.304 263.128C213.056 263.128 213.736 263 214.344 262.744C214.968 262.488 215.512 262.104 215.976 261.592L217.248 263.08C216.672 263.752 215.952 264.264 215.088 264.616C214.24 264.968 213.288 265.144 212.232 265.144ZM227.182 265.144C225.886 265.144 224.726 264.864 223.702 264.304C222.694 263.744 221.902 262.976 221.326 262C220.75 261.024 220.462 259.904 220.462 258.64C220.462 257.376 220.75 256.256 221.326 255.28C221.902 254.304 222.694 253.544 223.702 253C224.726 252.44 225.886 252.16 227.182 252.16C228.334 252.16 229.358 252.392 230.254 252.856C231.166 253.304 231.87 253.976 232.366 254.872L230.614 256C230.198 255.376 229.686 254.92 229.078 254.632C228.486 254.328 227.846 254.176 227.158 254.176C226.326 254.176 225.582 254.36 224.926 254.728C224.27 255.096 223.75 255.616 223.366 256.288C222.982 256.944 222.79 257.728 222.79 258.64C222.79 259.552 222.982 260.344 223.366 261.016C223.75 261.688 224.27 262.208 224.926 262.576C225.582 262.944 226.326 263.128 227.158 263.128C227.846 263.128 228.486 262.984 229.078 262.696C229.686 262.392 230.198 261.928 230.614 261.304L232.366 262.408C231.87 263.288 231.166 263.968 230.254 264.448C229.358 264.912 228.334 265.144 227.182 265.144ZM237.705 265V253.696L238.281 254.296H233.049V252.28H244.665V254.296H239.457L240.009 253.696V265H237.705ZM251.907 265.144C250.627 265.144 249.491 264.864 248.499 264.304C247.507 263.744 246.723 262.976 246.147 262C245.571 261.008 245.283 259.888 245.283 258.64C245.283 257.376 245.571 256.256 246.147 255.28C246.723 254.304 247.507 253.544 248.499 253C249.491 252.44 250.627 252.16 251.907 252.16C253.171 252.16 254.299 252.44 255.291 253C256.299 253.544 257.083 254.304 257.643 255.28C258.219 256.24 258.507 257.36 258.507 258.64C258.507 259.904 258.219 261.024 257.643 262C257.083 262.976 256.299 263.744 255.291 264.304C254.299 264.864 253.171 265.144 251.907 265.144ZM251.907 263.128C252.723 263.128 253.451 262.944 254.091 262.576C254.747 262.208 255.259 261.688 255.627 261.016C255.995 260.328 256.179 259.536 256.179 258.64C256.179 257.728 255.995 256.944 255.627 256.288C255.259 255.616 254.747 255.096 254.091 254.728C253.451 254.36 252.723 254.176 251.907 254.176C251.091 254.176 250.363 254.36 249.723 254.728C249.083 255.096 248.571 255.616 248.187 256.288C247.803 256.944 247.611 257.728 247.611 258.64C247.611 259.536 247.803 260.328 248.187 261.016C248.571 261.688 249.083 262.208 249.723 262.576C250.363 262.944 251.091 263.128 251.907 263.128Z" fill="#2E281D"/>
</svg>
