<svg width="424" height="424" viewBox="0 0 424 424" fill="none" xmlns="http://www.w3.org/2000/svg">
<path d="M251.432 70.375L315.952 31.9503L314.935 107.038L314.907 109.093L316.962 109.065L392.05 108.048L353.625 172.568L352.574 174.333L354.367 175.337L419.904 212L354.367 248.663L352.574 249.667L353.625 251.432L392.05 315.952L316.962 314.935L314.907 314.907L314.935 316.962L315.952 392.05L251.432 353.625L249.667 352.574L248.663 354.367L212 419.904L175.337 354.367L174.333 352.574L172.568 353.625L108.048 392.05L109.065 316.962L109.093 314.907L107.038 314.935L31.9503 315.952L70.375 251.432L71.4264 249.667L69.6331 248.663L4.09647 212L69.6331 175.337L71.4264 174.333L70.375 172.568L31.9503 108.048L107.038 109.065L109.093 109.093L109.065 107.038L108.048 31.9503L172.568 70.375L174.333 71.4264L175.337 69.6331L212 4.09647L248.663 69.6331L249.667 71.4264L251.432 70.375Z" stroke="#2E281D" stroke-width="4"/>
<path d="M127.77 194.392C126.22 194.392 124.783 194.149 123.458 193.664C122.132 193.16 120.984 192.451 120.014 191.536C119.062 190.621 118.315 189.548 117.774 188.316C117.232 187.065 116.962 185.693 116.962 184.2C116.962 182.707 117.232 181.344 117.774 180.112C118.315 178.861 119.071 177.779 120.042 176.864C121.012 175.949 122.16 175.249 123.486 174.764C124.83 174.26 126.295 174.008 127.882 174.008C129.73 174.008 131.382 174.316 132.838 174.932C134.294 175.548 135.498 176.435 136.45 177.592L132.922 180.784C132.25 180.056 131.522 179.515 130.738 179.16C129.972 178.787 129.114 178.6 128.162 178.6C127.322 178.6 126.556 178.731 125.866 178.992C125.175 179.253 124.587 179.636 124.102 180.14C123.616 180.625 123.234 181.213 122.954 181.904C122.692 182.576 122.562 183.341 122.562 184.2C122.562 185.021 122.692 185.777 122.954 186.468C123.234 187.159 123.616 187.756 124.102 188.26C124.587 188.745 125.166 189.128 125.838 189.408C126.528 189.669 127.284 189.8 128.106 189.8C128.927 189.8 129.73 189.669 130.514 189.408C131.298 189.128 132.091 188.661 132.894 188.008L136.002 191.9C134.882 192.703 133.584 193.319 132.11 193.748C130.635 194.177 129.188 194.392 127.77 194.392ZM131.102 191.172V183.78H136.002V191.9L131.102 191.172ZM137.165 194L145.817 174.4H151.277L159.957 194H154.189L147.413 177.116H149.597L142.821 194H137.165ZM141.897 190.192L143.325 186.104H152.901L154.329 190.192H141.897ZM168.416 194.392C166.811 194.392 165.262 194.196 163.768 193.804C162.294 193.393 161.09 192.871 160.156 192.236L161.976 188.148C162.854 188.708 163.862 189.175 165 189.548C166.158 189.903 167.306 190.08 168.444 190.08C169.21 190.08 169.826 190.015 170.292 189.884C170.759 189.735 171.095 189.548 171.3 189.324C171.524 189.081 171.636 188.801 171.636 188.484C171.636 188.036 171.431 187.681 171.02 187.42C170.61 187.159 170.078 186.944 169.424 186.776C168.771 186.608 168.043 186.44 167.24 186.272C166.456 186.104 165.663 185.889 164.86 185.628C164.076 185.367 163.358 185.031 162.704 184.62C162.051 184.191 161.519 183.64 161.108 182.968C160.698 182.277 160.492 181.409 160.492 180.364C160.492 179.188 160.81 178.124 161.444 177.172C162.098 176.22 163.068 175.455 164.356 174.876C165.644 174.297 167.25 174.008 169.172 174.008C170.46 174.008 171.72 174.157 172.952 174.456C174.203 174.736 175.314 175.156 176.284 175.716L174.576 179.832C173.643 179.328 172.719 178.955 171.804 178.712C170.89 178.451 170.003 178.32 169.144 178.32C168.379 178.32 167.763 178.404 167.296 178.572C166.83 178.721 166.494 178.927 166.288 179.188C166.083 179.449 165.98 179.748 165.98 180.084C165.98 180.513 166.176 180.859 166.568 181.12C166.979 181.363 167.511 181.568 168.164 181.736C168.836 181.885 169.564 182.044 170.348 182.212C171.151 182.38 171.944 182.595 172.728 182.856C173.531 183.099 174.259 183.435 174.912 183.864C175.566 184.275 176.088 184.825 176.48 185.516C176.891 186.188 177.096 187.037 177.096 188.064C177.096 189.203 176.77 190.257 176.116 191.228C175.482 192.18 174.52 192.945 173.232 193.524C171.963 194.103 170.358 194.392 168.416 194.392ZM183.556 194V178.796H177.536V174.4H195.092V178.796H189.1V194H183.556ZM197.157 194V174.4H206.117C207.909 174.4 209.449 174.689 210.737 175.268C212.044 175.847 213.052 176.687 213.761 177.788C214.471 178.871 214.825 180.159 214.825 181.652C214.825 183.127 214.471 184.405 213.761 185.488C213.052 186.552 212.044 187.373 210.737 187.952C209.449 188.512 207.909 188.792 206.117 188.792H200.237L202.701 186.468V194H197.157ZM209.281 194L204.409 186.86H210.317L215.217 194H209.281ZM202.701 187.056L200.237 184.508H205.781C206.939 184.508 207.797 184.256 208.357 183.752C208.936 183.248 209.225 182.548 209.225 181.652C209.225 180.737 208.936 180.028 208.357 179.524C207.797 179.02 206.939 178.768 205.781 178.768H200.237L202.701 176.22V187.056ZM227.768 194.392C226.2 194.392 224.753 194.14 223.428 193.636C222.102 193.132 220.945 192.423 219.956 191.508C218.985 190.575 218.229 189.492 217.688 188.26C217.146 187.028 216.876 185.675 216.876 184.2C216.876 182.725 217.146 181.372 217.688 180.14C218.229 178.908 218.985 177.835 219.956 176.92C220.945 175.987 222.102 175.268 223.428 174.764C224.753 174.26 226.2 174.008 227.768 174.008C229.354 174.008 230.801 174.26 232.108 174.764C233.433 175.268 234.581 175.987 235.552 176.92C236.522 177.835 237.278 178.908 237.82 180.14C238.38 181.372 238.66 182.725 238.66 184.2C238.66 185.675 238.38 187.037 237.82 188.288C237.278 189.52 236.522 190.593 235.552 191.508C234.581 192.423 233.433 193.132 232.108 193.636C230.801 194.14 229.354 194.392 227.768 194.392ZM227.768 189.8C228.514 189.8 229.205 189.669 229.84 189.408C230.493 189.147 231.053 188.773 231.52 188.288C232.005 187.784 232.378 187.187 232.64 186.496C232.92 185.805 233.06 185.04 233.06 184.2C233.06 183.341 232.92 182.576 232.64 181.904C232.378 181.213 232.005 180.625 231.52 180.14C231.053 179.636 230.493 179.253 229.84 178.992C229.205 178.731 228.514 178.6 227.768 178.6C227.021 178.6 226.321 178.731 225.668 178.992C225.033 179.253 224.473 179.636 223.988 180.14C223.521 180.625 223.148 181.213 222.868 181.904C222.606 182.576 222.476 183.341 222.476 184.2C222.476 185.04 222.606 185.805 222.868 186.496C223.148 187.187 223.521 187.784 223.988 188.288C224.473 188.773 225.033 189.147 225.668 189.408C226.321 189.669 227.021 189.8 227.768 189.8ZM247.36 194L256.012 174.4H261.472L270.152 194H264.384L257.608 177.116H259.792L253.016 194H247.36ZM252.092 190.192L253.52 186.104H263.096L264.524 190.192H252.092ZM271.724 194V174.4H280.684C282.476 174.4 284.016 174.689 285.304 175.268C286.61 175.847 287.618 176.687 288.328 177.788C289.037 178.871 289.392 180.159 289.392 181.652C289.392 183.127 289.037 184.405 288.328 185.488C287.618 186.552 286.61 187.373 285.304 187.952C284.016 188.512 282.476 188.792 280.684 188.792H274.804L277.268 186.468V194H271.724ZM283.848 194L278.976 186.86H284.884L289.784 194H283.848ZM277.268 187.056L274.804 184.508H280.348C281.505 184.508 282.364 184.256 282.924 183.752C283.502 183.248 283.792 182.548 283.792 181.652C283.792 180.737 283.502 180.028 282.924 179.524C282.364 179.02 281.505 178.768 280.348 178.768H274.804L277.268 176.22V187.056ZM296.349 194V178.796H290.329V174.4H307.885V178.796H301.893V194H296.349ZM104.42 222L113.073 202.4H118.533L127.213 222H121.445L114.669 205.116H116.853L110.077 222H104.42ZM109.153 218.192L110.581 214.104H120.157L121.585 218.192H109.153ZM132.534 222L126.178 202.4H131.89L137.238 219.368H134.354L139.982 202.4H145.078L150.398 219.368H147.626L153.142 202.4H158.434L152.078 222H146.142L141.606 207.58H143.202L138.47 222H132.534ZM157.385 222L166.037 202.4H171.497L180.177 222H174.409L167.633 205.116H169.817L163.041 222H157.385ZM162.117 218.192L163.545 214.104H173.121L174.549 218.192H162.117ZM181.749 222V202.4H190.709C192.501 202.4 194.041 202.689 195.329 203.268C196.636 203.847 197.644 204.687 198.353 205.788C199.062 206.871 199.417 208.159 199.417 209.652C199.417 211.127 199.062 212.405 198.353 213.488C197.644 214.552 196.636 215.373 195.329 215.952C194.041 216.512 192.501 216.792 190.709 216.792H184.829L187.293 214.468V222H181.749ZM193.873 222L189.001 214.86H194.909L199.809 222H193.873ZM187.293 215.056L184.829 212.508H190.373C191.53 212.508 192.389 212.256 192.949 211.752C193.528 211.248 193.817 210.548 193.817 209.652C193.817 208.737 193.528 208.028 192.949 207.524C192.389 207.02 191.53 206.768 190.373 206.768H184.829L187.293 204.22V215.056ZM202.476 222V202.4H211.744C213.909 202.4 215.813 202.801 217.456 203.604C219.098 204.407 220.377 205.536 221.292 206.992C222.225 208.448 222.692 210.184 222.692 212.2C222.692 214.197 222.225 215.933 221.292 217.408C220.377 218.864 219.098 219.993 217.456 220.796C215.813 221.599 213.909 222 211.744 222H202.476ZM208.02 217.576H211.52C212.64 217.576 213.61 217.371 214.432 216.96C215.272 216.531 215.925 215.915 216.392 215.112C216.858 214.291 217.092 213.32 217.092 212.2C217.092 211.061 216.858 210.091 216.392 209.288C215.925 208.485 215.272 207.879 214.432 207.468C213.61 207.039 212.64 206.824 211.52 206.824H208.02V217.576ZM232.496 222.392C230.891 222.392 229.342 222.196 227.848 221.804C226.374 221.393 225.17 220.871 224.236 220.236L226.056 216.148C226.934 216.708 227.942 217.175 229.08 217.548C230.238 217.903 231.386 218.08 232.524 218.08C233.29 218.08 233.906 218.015 234.372 217.884C234.839 217.735 235.175 217.548 235.38 217.324C235.604 217.081 235.716 216.801 235.716 216.484C235.716 216.036 235.511 215.681 235.1 215.42C234.69 215.159 234.158 214.944 233.504 214.776C232.851 214.608 232.123 214.44 231.32 214.272C230.536 214.104 229.743 213.889 228.94 213.628C228.156 213.367 227.438 213.031 226.784 212.62C226.131 212.191 225.599 211.64 225.188 210.968C224.778 210.277 224.572 209.409 224.572 208.364C224.572 207.188 224.89 206.124 225.524 205.172C226.178 204.22 227.148 203.455 228.436 202.876C229.724 202.297 231.33 202.008 233.252 202.008C234.54 202.008 235.8 202.157 237.032 202.456C238.283 202.736 239.394 203.156 240.364 203.716L238.656 207.832C237.723 207.328 236.799 206.955 235.884 206.712C234.97 206.451 234.083 206.32 233.224 206.32C232.459 206.32 231.843 206.404 231.376 206.572C230.91 206.721 230.574 206.927 230.368 207.188C230.163 207.449 230.06 207.748 230.06 208.084C230.06 208.513 230.256 208.859 230.648 209.12C231.059 209.363 231.591 209.568 232.244 209.736C232.916 209.885 233.644 210.044 234.428 210.212C235.231 210.38 236.024 210.595 236.808 210.856C237.611 211.099 238.339 211.435 238.992 211.864C239.646 212.275 240.168 212.825 240.56 213.516C240.971 214.188 241.176 215.037 241.176 216.064C241.176 217.203 240.85 218.257 240.196 219.228C239.562 220.18 238.6 220.945 237.312 221.524C236.043 222.103 234.438 222.392 232.496 222.392ZM250.766 222V218.528L258.102 211.668C258.624 211.183 259.007 210.753 259.25 210.38C259.511 210.007 259.679 209.671 259.754 209.372C259.847 209.055 259.894 208.765 259.894 208.504C259.894 207.869 259.679 207.375 259.25 207.02C258.839 206.665 258.214 206.488 257.374 206.488C256.664 206.488 256.002 206.647 255.386 206.964C254.77 207.281 254.266 207.757 253.874 208.392L249.758 206.096C250.486 204.864 251.54 203.875 252.922 203.128C254.303 202.381 255.955 202.008 257.878 202.008C259.39 202.008 260.715 202.251 261.854 202.736C262.992 203.221 263.879 203.912 264.514 204.808C265.167 205.704 265.494 206.759 265.494 207.972C265.494 208.607 265.41 209.241 265.242 209.876C265.074 210.492 264.747 211.155 264.262 211.864C263.795 212.555 263.095 213.329 262.162 214.188L256.338 219.564L255.414 217.604H266.026V222H250.766ZM276.292 222.392C274.612 222.392 273.118 221.991 271.812 221.188C270.524 220.385 269.506 219.228 268.76 217.716C268.013 216.204 267.64 214.365 267.64 212.2C267.64 210.035 268.013 208.196 268.76 206.684C269.506 205.172 270.524 204.015 271.812 203.212C273.118 202.409 274.612 202.008 276.292 202.008C277.953 202.008 279.428 202.409 280.716 203.212C282.022 204.015 283.049 205.172 283.796 206.684C284.542 208.196 284.916 210.035 284.916 212.2C284.916 214.365 284.542 216.204 283.796 217.716C283.049 219.228 282.022 220.385 280.716 221.188C279.428 221.991 277.953 222.392 276.292 222.392ZM276.292 217.856C276.889 217.856 277.412 217.669 277.86 217.296C278.326 216.923 278.69 216.325 278.952 215.504C279.213 214.664 279.344 213.563 279.344 212.2C279.344 210.819 279.213 209.717 278.952 208.896C278.69 208.075 278.326 207.477 277.86 207.104C277.412 206.731 276.889 206.544 276.292 206.544C275.694 206.544 275.162 206.731 274.696 207.104C274.248 207.477 273.884 208.075 273.604 208.896C273.342 209.717 273.212 210.819 273.212 212.2C273.212 213.563 273.342 214.664 273.604 215.504C273.884 216.325 274.248 216.923 274.696 217.296C275.162 217.669 275.694 217.856 276.292 217.856ZM286.504 222V218.528L293.84 211.668C294.363 211.183 294.745 210.753 294.988 210.38C295.249 210.007 295.417 209.671 295.492 209.372C295.585 209.055 295.632 208.765 295.632 208.504C295.632 207.869 295.417 207.375 294.988 207.02C294.577 206.665 293.952 206.488 293.112 206.488C292.403 206.488 291.74 206.647 291.124 206.964C290.508 207.281 290.004 207.757 289.612 208.392L285.496 206.096C286.224 204.864 287.279 203.875 288.66 203.128C290.041 202.381 291.693 202.008 293.616 202.008C295.128 202.008 296.453 202.251 297.592 202.736C298.731 203.221 299.617 203.912 300.252 204.808C300.905 205.704 301.232 206.759 301.232 207.972C301.232 208.607 301.148 209.241 300.98 209.876C300.812 210.492 300.485 211.155 300 211.864C299.533 212.555 298.833 213.329 297.9 214.188L292.076 219.564L291.152 217.604H301.764V222H286.504ZM303.266 222V218.528L310.602 211.668C311.124 211.183 311.507 210.753 311.75 210.38C312.011 210.007 312.179 209.671 312.254 209.372C312.347 209.055 312.394 208.765 312.394 208.504C312.394 207.869 312.179 207.375 311.75 207.02C311.339 206.665 310.714 206.488 309.874 206.488C309.164 206.488 308.502 206.647 307.886 206.964C307.27 207.281 306.766 207.757 306.374 208.392L302.258 206.096C302.986 204.864 304.04 203.875 305.422 203.128C306.803 202.381 308.455 202.008 310.378 202.008C311.89 202.008 313.215 202.251 314.354 202.736C315.492 203.221 316.379 203.912 317.014 204.808C317.667 205.704 317.994 206.759 317.994 207.972C317.994 208.607 317.91 209.241 317.742 209.876C317.574 210.492 317.247 211.155 316.762 211.864C316.295 212.555 315.595 213.329 314.662 214.188L308.838 219.564L307.914 217.604H318.526V222H303.266Z" fill="#2E281D"/>
<path d="M165.568 251V249.368L172.408 242.768C173.016 242.192 173.464 241.688 173.752 241.256C174.056 240.808 174.256 240.4 174.352 240.032C174.464 239.648 174.52 239.28 174.52 238.928C174.52 238.064 174.216 237.384 173.608 236.888C173 236.392 172.112 236.144 170.944 236.144C170.048 236.144 169.24 236.296 168.52 236.6C167.8 236.888 167.176 237.344 166.648 237.968L165.016 236.552C165.656 235.736 166.512 235.112 167.584 234.68C168.672 234.232 169.864 234.008 171.16 234.008C172.328 234.008 173.344 234.2 174.208 234.584C175.072 234.952 175.736 235.488 176.2 236.192C176.68 236.896 176.92 237.728 176.92 238.688C176.92 239.232 176.848 239.768 176.704 240.296C176.56 240.824 176.288 241.384 175.888 241.976C175.488 242.568 174.912 243.232 174.16 243.968L168.064 249.848L167.488 248.912H177.64V251H165.568ZM187.138 251V238.28H189.514L194.986 247.688H194.026L199.642 238.28H201.802V251H199.714V240.872L200.098 241.088L194.962 249.56H193.954L188.794 240.92L189.25 240.824V251H187.138ZM211.951 251.144C210.591 251.144 209.391 250.864 208.351 250.304C207.327 249.744 206.527 248.976 205.951 248C205.391 247.024 205.111 245.904 205.111 244.64C205.111 243.376 205.383 242.256 205.927 241.28C206.487 240.304 207.247 239.544 208.207 239C209.183 238.44 210.279 238.16 211.495 238.16C212.727 238.16 213.815 238.432 214.759 238.976C215.703 239.52 216.439 240.288 216.967 241.28C217.511 242.256 217.783 243.4 217.783 244.712C217.783 244.808 217.775 244.92 217.759 245.048C217.759 245.176 217.751 245.296 217.735 245.408H206.911V243.752H216.535L215.599 244.328C215.615 243.512 215.447 242.784 215.095 242.144C214.743 241.504 214.255 241.008 213.631 240.656C213.023 240.288 212.311 240.104 211.495 240.104C210.695 240.104 209.983 240.288 209.359 240.656C208.735 241.008 208.247 241.512 207.895 242.168C207.543 242.808 207.367 243.544 207.367 244.376V244.76C207.367 245.608 207.559 246.368 207.943 247.04C208.343 247.696 208.895 248.208 209.599 248.576C210.303 248.944 211.111 249.128 212.023 249.128C212.775 249.128 213.455 249 214.063 248.744C214.687 248.488 215.231 248.104 215.695 247.592L216.967 249.08C216.391 249.752 215.671 250.264 214.807 250.616C213.959 250.968 213.007 251.144 211.951 251.144ZM226.901 251.144C225.605 251.144 224.445 250.864 223.421 250.304C222.413 249.744 221.621 248.976 221.045 248C220.469 247.024 220.181 245.904 220.181 244.64C220.181 243.376 220.469 242.256 221.045 241.28C221.621 240.304 222.413 239.544 223.421 239C224.445 238.44 225.605 238.16 226.901 238.16C228.053 238.16 229.077 238.392 229.973 238.856C230.885 239.304 231.589 239.976 232.085 240.872L230.333 242C229.917 241.376 229.405 240.92 228.797 240.632C228.205 240.328 227.565 240.176 226.877 240.176C226.045 240.176 225.301 240.36 224.645 240.728C223.989 241.096 223.469 241.616 223.085 242.288C222.701 242.944 222.509 243.728 222.509 244.64C222.509 245.552 222.701 246.344 223.085 247.016C223.469 247.688 223.989 248.208 224.645 248.576C225.301 248.944 226.045 249.128 226.877 249.128C227.565 249.128 228.205 248.984 228.797 248.696C229.405 248.392 229.917 247.928 230.333 247.304L232.085 248.408C231.589 249.288 230.885 249.968 229.973 250.448C229.077 250.912 228.053 251.144 226.901 251.144ZM237.424 251V239.696L238 240.296H232.768V238.28H244.384V240.296H239.176L239.728 239.696V251H237.424ZM251.625 251.144C250.345 251.144 249.209 250.864 248.217 250.304C247.225 249.744 246.441 248.976 245.865 248C245.289 247.008 245.001 245.888 245.001 244.64C245.001 243.376 245.289 242.256 245.865 241.28C246.441 240.304 247.225 239.544 248.217 239C249.209 238.44 250.345 238.16 251.625 238.16C252.889 238.16 254.017 238.44 255.009 239C256.017 239.544 256.801 240.304 257.361 241.28C257.937 242.24 258.225 243.36 258.225 244.64C258.225 245.904 257.937 247.024 257.361 248C256.801 248.976 256.017 249.744 255.009 250.304C254.017 250.864 252.889 251.144 251.625 251.144ZM251.625 249.128C252.441 249.128 253.169 248.944 253.809 248.576C254.465 248.208 254.977 247.688 255.345 247.016C255.713 246.328 255.897 245.536 255.897 244.64C255.897 243.728 255.713 242.944 255.345 242.288C254.977 241.616 254.465 241.096 253.809 240.728C253.169 240.36 252.441 240.176 251.625 240.176C250.809 240.176 250.081 240.36 249.441 240.728C248.801 241.096 248.289 241.616 247.905 242.288C247.521 242.944 247.329 243.728 247.329 244.64C247.329 245.536 247.521 246.328 247.905 247.016C248.289 247.688 248.801 248.208 249.441 248.576C250.081 248.944 250.809 249.128 251.625 249.128Z" fill="#2E281D"/>
</svg>
