<svg width="1920" height="1400" viewBox="0 0 1920 1400" fill="none" xmlns="http://www.w3.org/2000/svg">
<rect width="1920" height="1276" fill="#FF7F0F"/>
<rect x="-24" width="82" height="1400" fill="#792CA6"/>
<rect y="58" width="82.0244" height="82.0244" transform="rotate(-45 0 58)" fill="#FFBB00"/>
<rect y="174" width="82.0244" height="82.0244" transform="rotate(-45 0 174)" fill="#FFBB00"/>
<rect y="290" width="82.0244" height="82.0244" transform="rotate(-45 0 290)" fill="#FFBB00"/>
<rect y="406" width="82.0244" height="82.0244" transform="rotate(-45 0 406)" fill="#FFBB00"/>
<rect y="522" width="82.0244" height="82.0244" transform="rotate(-45 0 522)" fill="#FFBB00"/>
<rect y="638" width="82.0244" height="82.0244" transform="rotate(-45 0 638)" fill="#FFBB00"/>
<rect y="754" width="82.0244" height="82.0244" transform="rotate(-45 0 754)" fill="#FFBB00"/>
<rect y="870" width="82.0244" height="82.0244" transform="rotate(-45 0 870)" fill="#FFBB00"/>
<rect y="986" width="82.0244" height="82.0244" transform="rotate(-45 0 986)" fill="#FFBB00"/>
<rect y="1102" width="82.0244" height="82.0244" transform="rotate(-45 0 1102)" fill="#FFBB00"/>
<rect y="1218" width="82.0244" height="82.0244" transform="rotate(-45 0 1218)" fill="#FFBB00"/>
<rect y="1334" width="82.0244" height="82.0244" transform="rotate(-45 0 1334)" fill="#FFBB00"/>
<rect width="82" height="1400" transform="matrix(-1 0 0 1 1944 0)" fill="#792CA6"/>
<rect width="82.0244" height="82.0244" transform="matrix(-0.707107 -0.707107 -0.707107 0.707107 1920 58)" fill="#FFBB00"/>
<rect width="82.0244" height="82.0244" transform="matrix(-0.707107 -0.707107 -0.707107 0.707107 1920 174)" fill="#FFBB00"/>
<rect width="82.0244" height="82.0244" transform="matrix(-0.707107 -0.707107 -0.707107 0.707107 1920 290)" fill="#FFBB00"/>
<rect width="82.0244" height="82.0244" transform="matrix(-0.707107 -0.707107 -0.707107 0.707107 1920 406)" fill="#FFBB00"/>
<rect width="82.0244" height="82.0244" transform="matrix(-0.707107 -0.707107 -0.707107 0.707107 1920 522)" fill="#FFBB00"/>
<rect width="82.0244" height="82.0244" transform="matrix(-0.707107 -0.707107 -0.707107 0.707107 1920 638)" fill="#FFBB00"/>
<rect width="82.0244" height="82.0244" transform="matrix(-0.707107 -0.707107 -0.707107 0.707107 1920 754)" fill="#FFBB00"/>
<rect width="82.0244" height="82.0244" transform="matrix(-0.707107 -0.707107 -0.707107 0.707107 1920 870)" fill="#FFBB00"/>
<rect width="82.0244" height="82.0244" transform="matrix(-0.707107 -0.707107 -0.707107 0.707107 1920 986)" fill="#FFBB00"/>
<rect width="82.0244" height="82.0244" transform="matrix(-0.707107 -0.707107 -0.707107 0.707107 1920 1102)" fill="#FFBB00"/>
<rect width="82.0244" height="82.0244" transform="matrix(-0.707107 -0.707107 -0.707107 0.707107 1920 1218)" fill="#FFBB00"/>
<rect width="82.0244" height="82.0244" transform="matrix(-0.707107 -0.707107 -0.707107 0.707107 1920 1334)" fill="#FFBB00"/>
</svg>
