<svg width="759" height="755" viewBox="0 0 759 755" fill="none" xmlns="http://www.w3.org/2000/svg">
<ellipse cx="611" cy="603" rx="611" ry="603" fill="#6F2FB5"/>
<path d="M759 18L821.258 361.92L986.746 54.0714L939.679 400.397L1192.2 158.754L1040.41 473.586L1355.25 321.802L1113.6 574.321L1459.93 527.254L1152.08 692.742L1496 755L1152.08 817.258L1459.93 982.746L1113.6 935.679L1355.25 1188.2L1040.41 1036.41L1192.2 1351.25L939.679 1109.6L986.746 1455.93L821.258 1148.08L759 1492L696.742 1148.08L531.254 1455.93L578.321 1109.6L325.802 1351.25L477.586 1036.41L162.754 1188.2L404.397 935.679L58.0714 982.746L365.92 817.258L22 755L365.92 692.742L58.0714 527.254L404.397 574.321L162.754 321.802L477.586 473.586L325.802 158.754L578.321 400.397L531.254 54.0714L696.742 361.92L759 18Z" fill="#FFE100"/>
</svg>
