<svg width="424" height="88" viewBox="0 0 424 88" fill="none" xmlns="http://www.w3.org/2000/svg">
<path d="M50 8H272.5H374L424 48L374 88H50L0 48L50 8Z" fill="#2E281D"/>
<path d="M373.824 0.5L423.199 40L373.824 79.5H50.1758L0.800781 40L50.1758 0.5H373.824Z" fill="#FFBB00" stroke="#2E281D"/>
<path d="M149.488 48V31.2H162.28V35.592H153.832L155.056 34.368V48H149.488ZM163.369 48.312C163.017 48.312 162.641 48.288 162.241 48.24C161.841 48.192 161.417 48.112 160.969 48L161.257 43.464C161.481 43.512 161.689 43.536 161.881 43.536C162.505 43.536 162.969 43.28 163.273 42.768C163.577 42.256 163.785 41.568 163.897 40.704C164.009 39.824 164.081 38.84 164.113 37.752L164.329 31.2H178.513V48H172.945V34.392L174.169 35.592H168.049L169.153 34.32L169.057 37.536C169.009 39.152 168.897 40.624 168.721 41.952C168.561 43.264 168.281 44.4 167.881 45.36C167.481 46.304 166.913 47.032 166.177 47.544C165.457 48.056 164.521 48.312 163.369 48.312ZM180.064 48L187.408 31.2H192.976L200.32 48H194.464L189.04 33.888H191.248L185.824 48H180.064ZM184.432 45.072L185.872 40.992H193.6L195.04 45.072H184.432ZM201.871 48V31.2H210.391C212.471 31.2 214.079 31.584 215.215 32.352C216.367 33.12 216.943 34.2 216.943 35.592C216.943 36.952 216.415 38.032 215.359 38.832C214.303 39.616 212.879 40.008 211.087 40.008L211.567 38.712C213.471 38.712 214.967 39.088 216.055 39.84C217.143 40.592 217.687 41.688 217.687 43.128C217.687 44.616 217.095 45.8 215.911 46.68C214.727 47.56 213.039 48 210.847 48H201.871ZM207.439 44.04H210.583C211.047 44.04 211.391 43.928 211.615 43.704C211.855 43.464 211.975 43.128 211.975 42.696C211.975 42.264 211.855 41.944 211.615 41.736C211.391 41.512 211.047 41.4 210.583 41.4H207.439V44.04ZM207.439 37.656H209.839C210.319 37.656 210.671 37.552 210.895 37.344C211.119 37.136 211.231 36.832 211.231 36.432C211.231 36.016 211.119 35.704 210.895 35.496C210.671 35.272 210.319 35.16 209.839 35.16H207.439V37.656ZM230.603 31.2H236.267V48H230.603V31.2ZM225.371 48H219.707V31.2H225.371V48ZM230.987 41.808H224.987V37.152H230.987V41.808ZM237.838 48L245.182 31.2H250.75L258.094 48H252.238L246.814 33.888H249.022L243.598 48H237.838ZM242.206 45.072L243.646 40.992H251.374L252.814 45.072H242.206ZM267.851 48V42.888L269.171 44.016H265.307C263.755 44.016 262.411 43.768 261.275 43.272C260.155 42.76 259.291 42.032 258.683 41.088C258.075 40.144 257.771 39.016 257.771 37.704C257.771 36.36 258.083 35.208 258.707 34.248C259.347 33.272 260.251 32.52 261.419 31.992C262.587 31.464 263.963 31.2 265.547 31.2H273.419V48H267.851ZM257.843 48L262.067 41.88H267.707L263.771 48H257.843ZM267.851 41.112V34.2L269.171 35.568H265.643C264.923 35.568 264.379 35.736 264.011 36.072C263.659 36.408 263.483 36.92 263.483 37.608C263.483 38.312 263.667 38.848 264.035 39.216C264.403 39.568 264.939 39.744 265.643 39.744H269.171L267.851 41.112Z" fill="#2E281D"/>
</svg>
