<svg width="64" height="64" viewBox="0 0 64 64" fill="none" xmlns="http://www.w3.org/2000/svg">
<g opacity="0.5">
<path d="M32 0L36.205 5.45094L41.8885 1.56619L44.2033 8.04975L50.8091 6.11146L51.007 12.993L57.8885 13.1909L55.9503 19.7967L62.4338 22.1115L58.5491 27.795L64 32L58.5491 36.205L62.4338 41.8885L55.9503 44.2033L57.8885 50.8091L51.007 51.007L50.8091 57.8885L44.2033 55.9503L41.8885 62.4338L36.205 58.5491L32 64L27.795 58.5491L22.1115 62.4338L19.7967 55.9503L13.1909 57.8885L12.993 51.007L6.11146 50.8091L8.04975 44.2033L1.56619 41.8885L5.45094 36.205L0 32L5.45094 27.795L1.56619 22.1115L8.04975 19.7967L6.11146 13.1909L12.993 12.993L13.1909 6.11146L19.7967 8.04975L22.1115 1.56619L27.795 5.45094L32 0Z" fill="#FFBB00"/>
</g>
</svg>
