<svg width="1920" height="40" viewBox="0 0 1920 40" fill="none" xmlns="http://www.w3.org/2000/svg">
<rect width="1920" height="40" fill="#FBF5EE"/>
<path d="M120 0C120 5.25288 118.448 10.4543 115.433 15.3073C112.417 20.1604 107.998 24.5699 102.426 28.2843C96.8549 31.9986 90.2405 34.945 82.961 36.9552C75.6815 38.9654 67.8793 40 60 40C52.1207 40 44.3185 38.9654 37.039 36.9552C29.7595 34.945 23.1451 31.9986 17.5736 28.2843C12.0021 24.5699 7.58251 20.1604 4.56723 15.3073C1.55194 10.4543 -6.88831e-07 5.25287 0 -3.8147e-06L60 0H120Z" fill="#F1B4D9"/>
<path d="M240 0C240 5.25288 238.448 10.4543 235.433 15.3073C232.417 20.1604 227.998 24.5699 222.426 28.2843C216.855 31.9986 210.241 34.945 202.961 36.9552C195.681 38.9654 187.879 40 180 40C172.121 40 164.319 38.9654 157.039 36.9552C149.759 34.945 143.145 31.9986 137.574 28.2843C132.002 24.5699 127.583 20.1604 124.567 15.3073C121.552 10.4543 120 5.25287 120 -3.8147e-06L180 0H240Z" fill="#F1B4D9"/>
<path d="M360 0C360 5.25288 358.448 10.4543 355.433 15.3073C352.417 20.1604 347.998 24.5699 342.426 28.2843C336.855 31.9986 330.241 34.945 322.961 36.9552C315.681 38.9654 307.879 40 300 40C292.121 40 284.319 38.9654 277.039 36.9552C269.759 34.945 263.145 31.9986 257.574 28.2843C252.002 24.5699 247.583 20.1604 244.567 15.3073C241.552 10.4543 240 5.25287 240 -3.8147e-06L300 0H360Z" fill="#F1B4D9"/>
<path d="M480 0C480 5.25288 478.448 10.4543 475.433 15.3073C472.417 20.1604 467.998 24.5699 462.426 28.2843C456.855 31.9986 450.241 34.945 442.961 36.9552C435.681 38.9654 427.879 40 420 40C412.121 40 404.319 38.9654 397.039 36.9552C389.759 34.945 383.145 31.9986 377.574 28.2843C372.002 24.5699 367.583 20.1604 364.567 15.3073C361.552 10.4543 360 5.25287 360 -3.8147e-06L420 0H480Z" fill="#F1B4D9"/>
<path d="M600 0C600 5.25288 598.448 10.4543 595.433 15.3073C592.417 20.1604 587.998 24.5699 582.426 28.2843C576.855 31.9986 570.241 34.945 562.961 36.9552C555.681 38.9654 547.879 40 540 40C532.121 40 524.319 38.9654 517.039 36.9552C509.759 34.945 503.145 31.9986 497.574 28.2843C492.002 24.5699 487.583 20.1604 484.567 15.3073C481.552 10.4543 480 5.25287 480 -3.8147e-06L540 0H600Z" fill="#F1B4D9"/>
<path d="M720 0C720 5.25288 718.448 10.4543 715.433 15.3073C712.417 20.1604 707.998 24.5699 702.426 28.2843C696.855 31.9986 690.241 34.945 682.961 36.9552C675.681 38.9654 667.879 40 660 40C652.121 40 644.319 38.9654 637.039 36.9552C629.759 34.945 623.145 31.9986 617.574 28.2843C612.002 24.5699 607.583 20.1604 604.567 15.3073C601.552 10.4543 600 5.25287 600 -3.8147e-06L660 0H720Z" fill="#F1B4D9"/>
<path d="M840 0C840 5.25288 838.448 10.4543 835.433 15.3073C832.417 20.1604 827.998 24.5699 822.426 28.2843C816.855 31.9986 810.241 34.945 802.961 36.9552C795.681 38.9654 787.879 40 780 40C772.121 40 764.319 38.9654 757.039 36.9552C749.759 34.945 743.145 31.9986 737.574 28.2843C732.002 24.5699 727.583 20.1604 724.567 15.3073C721.552 10.4543 720 5.25287 720 -3.8147e-06L780 0H840Z" fill="#F1B4D9"/>
<path d="M960 0C960 5.25288 958.448 10.4543 955.433 15.3073C952.417 20.1604 947.998 24.5699 942.426 28.2843C936.855 31.9986 930.241 34.945 922.961 36.9552C915.681 38.9654 907.879 40 900 40C892.121 40 884.319 38.9654 877.039 36.9552C869.759 34.945 863.145 31.9986 857.574 28.2843C852.002 24.5699 847.583 20.1604 844.567 15.3073C841.552 10.4543 840 5.25287 840 -3.8147e-06L900 0H960Z" fill="#F1B4D9"/>
<path d="M1080 0C1080 5.25288 1078.45 10.4543 1075.43 15.3073C1072.42 20.1604 1068 24.5699 1062.43 28.2843C1056.85 31.9986 1050.24 34.945 1042.96 36.9552C1035.68 38.9654 1027.88 40 1020 40C1012.12 40 1004.32 38.9654 997.039 36.9552C989.759 34.945 983.145 31.9986 977.574 28.2843C972.002 24.5699 967.583 20.1604 964.567 15.3073C961.552 10.4543 960 5.25287 960 -3.8147e-06L1020 0H1080Z" fill="#F1B4D9"/>
<path d="M1200 0C1200 5.25288 1198.45 10.4543 1195.43 15.3073C1192.42 20.1604 1188 24.5699 1182.43 28.2843C1176.85 31.9986 1170.24 34.945 1162.96 36.9552C1155.68 38.9654 1147.88 40 1140 40C1132.12 40 1124.32 38.9654 1117.04 36.9552C1109.76 34.945 1103.15 31.9986 1097.57 28.2843C1092 24.5699 1087.58 20.1604 1084.57 15.3073C1081.55 10.4543 1080 5.25287 1080 -3.8147e-06L1140 0H1200Z" fill="#F1B4D9"/>
<path d="M1320 0C1320 5.25288 1318.45 10.4543 1315.43 15.3073C1312.42 20.1604 1308 24.5699 1302.43 28.2843C1296.85 31.9986 1290.24 34.945 1282.96 36.9552C1275.68 38.9654 1267.88 40 1260 40C1252.12 40 1244.32 38.9654 1237.04 36.9552C1229.76 34.945 1223.15 31.9986 1217.57 28.2843C1212 24.5699 1207.58 20.1604 1204.57 15.3073C1201.55 10.4543 1200 5.25287 1200 -3.8147e-06L1260 0H1320Z" fill="#F1B4D9"/>
<path d="M1440 0C1440 5.25288 1438.45 10.4543 1435.43 15.3073C1432.42 20.1604 1428 24.5699 1422.43 28.2843C1416.85 31.9986 1410.24 34.945 1402.96 36.9552C1395.68 38.9654 1387.88 40 1380 40C1372.12 40 1364.32 38.9654 1357.04 36.9552C1349.76 34.945 1343.15 31.9986 1337.57 28.2843C1332 24.5699 1327.58 20.1604 1324.57 15.3073C1321.55 10.4543 1320 5.25287 1320 -3.8147e-06L1380 0H1440Z" fill="#F1B4D9"/>
<path d="M1560 0C1560 5.25288 1558.45 10.4543 1555.43 15.3073C1552.42 20.1604 1548 24.5699 1542.43 28.2843C1536.85 31.9986 1530.24 34.945 1522.96 36.9552C1515.68 38.9654 1507.88 40 1500 40C1492.12 40 1484.32 38.9654 1477.04 36.9552C1469.76 34.945 1463.15 31.9986 1457.57 28.2843C1452 24.5699 1447.58 20.1604 1444.57 15.3073C1441.55 10.4543 1440 5.25287 1440 -3.8147e-06L1500 0H1560Z" fill="#F1B4D9"/>
<path d="M1680 0C1680 5.25288 1678.45 10.4543 1675.43 15.3073C1672.42 20.1604 1668 24.5699 1662.43 28.2843C1656.85 31.9986 1650.24 34.945 1642.96 36.9552C1635.68 38.9654 1627.88 40 1620 40C1612.12 40 1604.32 38.9654 1597.04 36.9552C1589.76 34.945 1583.15 31.9986 1577.57 28.2843C1572 24.5699 1567.58 20.1604 1564.57 15.3073C1561.55 10.4543 1560 5.25287 1560 -3.8147e-06L1620 0H1680Z" fill="#F1B4D9"/>
<path d="M1800 0C1800 5.25288 1798.45 10.4543 1795.43 15.3073C1792.42 20.1604 1788 24.5699 1782.43 28.2843C1776.85 31.9986 1770.24 34.945 1762.96 36.9552C1755.68 38.9654 1747.88 40 1740 40C1732.12 40 1724.32 38.9654 1717.04 36.9552C1709.76 34.945 1703.15 31.9986 1697.57 28.2843C1692 24.5699 1687.58 20.1604 1684.57 15.3073C1681.55 10.4543 1680 5.25287 1680 -3.8147e-06L1740 0H1800Z" fill="#F1B4D9"/>
<path d="M1920 0C1920 5.25288 1918.45 10.4543 1915.43 15.3073C1912.42 20.1604 1908 24.5699 1902.43 28.2843C1896.85 31.9986 1890.24 34.945 1882.96 36.9552C1875.68 38.9654 1867.88 40 1860 40C1852.12 40 1844.32 38.9654 1837.04 36.9552C1829.76 34.945 1823.15 31.9986 1817.57 28.2843C1812 24.5699 1807.58 20.1604 1804.57 15.3073C1801.55 10.4543 1800 5.25287 1800 -3.8147e-06L1860 0H1920Z" fill="#F1B4D9"/>
</svg>
