<svg width="424" height="88" viewBox="0 0 424 88" fill="none" xmlns="http://www.w3.org/2000/svg">
<path d="M50 8H272.5H374L424 48L374 88H50L0 48L50 8Z" fill="black"/>
<path d="M0.80039 40L50.1754 0.5H272.5H373.825L423.2 40L373.825 79.5H50.1754L0.80039 40Z" fill="#FFBB00" stroke="black"/>
<path d="M140.32 48H134.2V31.2H150.04V48H143.92V36.24H140.32V48ZM160.594 48.36C155.266 48.36 151.714 44.856 151.714 39.6C151.714 34.344 155.266 30.84 160.594 30.84C165.922 30.84 169.474 34.344 169.474 39.6C169.474 44.856 165.922 48.36 160.594 48.36ZM160.594 43.08C162.154 43.08 163.234 41.736 163.234 39.6C163.234 37.464 162.154 36.12 160.594 36.12C159.034 36.12 157.954 37.464 157.954 39.6C157.954 41.736 159.034 43.08 160.594 43.08ZM186.892 31.2V42.96H189.412V51.6H184.012V48H175.012V51.6H169.612V42.96H171.412C171.94 42.312 172.348 41.232 172.444 38.832L172.804 31.2H186.892ZM176.812 42.96H181.012V36H177.868L177.724 38.952C177.628 41.136 177.34 42.096 176.812 42.96ZM190.848 31.2H199.248C203.04 31.2 205.728 33.672 205.728 37.128C205.728 40.608 203.04 43.08 199.248 43.08H196.968V48H190.848V31.2ZM196.608 38.76H198.048C199.2 38.76 199.848 38.088 199.848 37.128C199.848 36.192 199.2 35.52 198.048 35.52H196.608V38.76ZM215.438 48.36C210.11 48.36 206.558 44.856 206.558 39.6C206.558 34.344 210.11 30.84 215.438 30.84C220.766 30.84 224.318 34.344 224.318 39.6C224.318 44.856 220.766 48.36 215.438 48.36ZM215.438 43.08C216.998 43.08 218.078 41.736 218.078 39.6C218.078 37.464 216.998 36.12 215.438 36.12C213.878 36.12 212.798 37.464 212.798 39.6C212.798 41.736 213.878 43.08 215.438 43.08ZM231.885 37.2H235.005C238.725 37.2 241.245 39.384 241.245 42.6C241.245 45.816 238.725 48 235.005 48H226.005V31.2H239.925V35.4H231.885V37.2ZM231.885 43.68H233.805C234.765 43.68 235.365 43.152 235.365 42.288C235.365 41.448 234.765 40.92 233.805 40.92H231.885V43.68ZM253.004 36.888V31.2H259.124V48H253.004V42.048H249.164V48H243.044V31.2H249.164V36.888H253.004ZM267.513 41.472V43.44H274.353V48H261.513V31.2H274.233V35.76H267.513V37.632H273.513V41.472H267.513ZM282.395 41.472V43.44H289.235V48H276.395V31.2H289.115V35.76H282.395V37.632H288.395V41.472H282.395Z" fill="#2E281D"/>
</svg>
