<svg width="424" height="88" viewBox="0 0 424 88" fill="none" xmlns="http://www.w3.org/2000/svg">
<path d="M50 8H272.5H374L424 48L374 88H50L0 48L50 8Z" fill="#2E281D"/>
<path d="M373.824 0.5L423.199 40L373.824 79.5H50.1758L0.800781 40L50.1758 0.5H373.824Z" fill="#FFBB00" stroke="#2E281D"/>
<path d="M113.488 48V31.2H129.736V48H124.168V34.392L125.392 35.592H117.832L119.056 34.392V48H113.488ZM141.251 48.384C139.891 48.384 138.627 48.168 137.459 47.736C136.307 47.304 135.307 46.696 134.459 45.912C133.611 45.112 132.947 44.176 132.467 43.104C132.003 42.032 131.771 40.864 131.771 39.6C131.771 38.32 132.003 37.152 132.467 36.096C132.947 35.024 133.611 34.096 134.459 33.312C135.307 32.512 136.307 31.896 137.459 31.464C138.627 31.032 139.891 30.816 141.251 30.816C142.627 30.816 143.891 31.032 145.043 31.464C146.195 31.896 147.195 32.512 148.043 33.312C148.891 34.096 149.547 35.024 150.011 36.096C150.491 37.152 150.731 38.32 150.731 39.6C150.731 40.864 150.491 42.032 150.011 43.104C149.547 44.176 148.891 45.112 148.043 45.912C147.195 46.696 146.195 47.304 145.043 47.736C143.891 48.168 142.627 48.384 141.251 48.384ZM141.251 43.8C141.779 43.8 142.267 43.704 142.715 43.512C143.179 43.32 143.579 43.048 143.915 42.696C144.267 42.328 144.539 41.888 144.731 41.376C144.923 40.848 145.019 40.256 145.019 39.6C145.019 38.944 144.923 38.36 144.731 37.848C144.539 37.32 144.267 36.88 143.915 36.528C143.579 36.16 143.179 35.88 142.715 35.688C142.267 35.496 141.779 35.4 141.251 35.4C140.723 35.4 140.227 35.496 139.763 35.688C139.315 35.88 138.915 36.16 138.563 36.528C138.227 36.88 137.963 37.32 137.771 37.848C137.579 38.36 137.483 38.944 137.483 39.6C137.483 40.256 137.579 40.848 137.771 41.376C137.963 41.888 138.227 42.328 138.563 42.696C138.915 43.048 139.315 43.32 139.763 43.512C140.227 43.704 140.723 43.8 141.251 43.8ZM163.365 45.6V35.592H159.501L159.453 36.792C159.421 37.672 159.365 38.496 159.285 39.264C159.205 40.032 159.093 40.736 158.949 41.376C158.821 42.016 158.653 42.584 158.445 43.08C158.237 43.56 157.981 43.96 157.677 44.28L151.701 43.608C152.229 43.608 152.661 43.432 152.997 43.08C153.349 42.712 153.629 42.208 153.837 41.568C154.045 40.912 154.197 40.144 154.293 39.264C154.405 38.368 154.485 37.384 154.533 36.312L154.725 31.2H168.933V45.6H163.365ZM151.221 51.288V43.608H171.141V51.288H165.957V48H156.405V51.288H151.221ZM176.038 48V34.368L177.262 35.592H171.118V31.2H186.526V35.592H180.382L181.606 34.368V48H176.038ZM188.394 48V31.2H196.914C198.994 31.2 200.602 31.584 201.738 32.352C202.89 33.12 203.466 34.2 203.466 35.592C203.466 36.952 202.938 38.032 201.882 38.832C200.826 39.616 199.402 40.008 197.61 40.008L198.09 38.712C199.994 38.712 201.49 39.088 202.578 39.84C203.666 40.592 204.21 41.688 204.21 43.128C204.21 44.616 203.618 45.8 202.434 46.68C201.25 47.56 199.562 48 197.37 48H188.394ZM193.962 44.04H197.106C197.57 44.04 197.914 43.928 198.138 43.704C198.378 43.464 198.498 43.128 198.498 42.696C198.498 42.264 198.378 41.944 198.138 41.736C197.914 41.512 197.57 41.4 197.106 41.4H193.962V44.04ZM193.962 37.656H196.362C196.842 37.656 197.194 37.552 197.418 37.344C197.642 37.136 197.754 36.832 197.754 36.432C197.754 36.016 197.642 35.704 197.418 35.496C197.194 35.272 196.842 35.16 196.362 35.16H193.962V37.656ZM211.414 37.44H218.902V41.52H211.414V37.44ZM211.798 43.728H220.198V48H206.23V31.2H219.886V35.472H211.798V43.728ZM222.496 48V31.2H230.584C232.152 31.2 233.504 31.456 234.64 31.968C235.792 32.48 236.68 33.216 237.304 34.176C237.928 35.12 238.24 36.24 238.24 37.536C238.24 38.832 237.928 39.952 237.304 40.896C236.68 41.84 235.792 42.576 234.64 43.104C233.504 43.616 232.152 43.872 230.584 43.872H225.64L228.16 41.448V48H222.496ZM228.16 42.072L225.64 39.504H230.224C231.008 39.504 231.584 39.328 231.952 38.976C232.336 38.624 232.528 38.144 232.528 37.536C232.528 36.928 232.336 36.448 231.952 36.096C231.584 35.744 231.008 35.568 230.224 35.568H225.64L228.16 33V42.072ZM250.06 45.6V35.592H246.196L246.148 36.792C246.116 37.672 246.06 38.496 245.98 39.264C245.9 40.032 245.788 40.736 245.644 41.376C245.516 42.016 245.348 42.584 245.14 43.08C244.932 43.56 244.676 43.96 244.372 44.28L238.396 43.608C238.924 43.608 239.356 43.432 239.692 43.08C240.044 42.712 240.324 42.208 240.532 41.568C240.74 40.912 240.892 40.144 240.988 39.264C241.1 38.368 241.18 37.384 241.228 36.312L241.42 31.2H255.628V45.6H250.06ZM237.916 51.288V43.608H257.836V51.288H252.652V48H243.1V51.288H237.916ZM259.738 48V31.2H265.306V39.936L271.09 31.2H276.418V48H270.85V39.288L265.09 48H259.738ZM283.218 48V34.368L284.442 35.592H278.298V31.2H293.706V35.592H287.562L288.786 34.368V48H283.218ZM304.622 36.36C306.67 36.36 308.27 36.824 309.422 37.752C310.59 38.664 311.174 40.048 311.174 41.904C311.174 43.904 310.518 45.424 309.206 46.464C307.894 47.488 306.126 48 303.902 48H295.574V31.2H301.142V36.36H304.622ZM303.518 44.04C304.078 44.04 304.542 43.864 304.91 43.512C305.294 43.144 305.486 42.64 305.486 42C305.486 41.36 305.294 40.92 304.91 40.68C304.542 40.44 304.078 40.32 303.518 40.32H301.142V44.04H303.518Z" fill="#2E281D"/>
</svg>
