<svg width="1010" height="979" viewBox="0 0 1010 979" fill="none" xmlns="http://www.w3.org/2000/svg">
<path d="M547.191 204.742L547.434 206.084L548.079 204.883L660.228 -3.74023L628.331 230.958L628.147 232.31L629.133 231.366L800.258 67.6113L697.398 280.965L696.807 282.193L698.035 281.602L911.388 178.741L747.634 349.867L746.69 350.853L748.042 350.669L982.739 318.771L774.117 430.921L772.916 431.566L774.258 431.809L1007.33 474L774.258 516.191L772.916 516.434L774.117 517.079L982.739 629.228L748.042 597.331L746.69 597.147L747.634 598.133L911.388 769.258L698.035 666.398L696.807 665.807L697.398 667.035L800.258 880.388L629.133 716.634L628.147 715.69L628.331 717.042L660.228 951.739L548.079 743.117L547.434 741.916L547.191 743.258L505 976.325L462.809 743.258L462.566 741.916L461.921 743.117L349.771 951.739L381.669 717.042L381.853 715.69L380.867 716.634L209.741 880.388L312.602 667.035L313.193 665.807L311.965 666.398L98.6113 769.258L262.366 598.133L263.31 597.147L261.958 597.331L27.2598 629.228L235.883 517.079L237.084 516.434L235.742 516.191L2.67383 474L235.742 431.809L237.084 431.566L235.883 430.921L27.2598 318.771L261.958 350.669L263.31 350.853L262.366 349.867L98.6113 178.741L311.965 281.602L313.193 282.193L312.602 280.965L209.741 67.6113L380.867 231.366L381.853 232.31L381.669 230.958L349.771 -3.74023L461.921 204.883L462.566 206.084L462.809 204.742L505 -28.3262L547.191 204.742Z" stroke="#2E281D" stroke-width="0.952681"/>
</svg>
