<svg width="1010" height="931" viewBox="0 0 1010 931" fill="none" xmlns="http://www.w3.org/2000/svg">
<path d="M547.191 156.742L547.434 158.084L548.079 156.883L660.228 -51.7402L628.331 182.958L628.147 184.31L629.133 183.366L800.258 19.6113L697.398 232.965L696.807 234.193L698.035 233.602L911.388 130.741L747.634 301.867L746.69 302.853L748.042 302.669L982.739 270.771L774.117 382.921L772.916 383.566L774.258 383.809L1007.33 426L774.258 468.191L772.916 468.434L774.117 469.079L982.739 581.228L748.042 549.331L746.69 549.147L747.634 550.133L911.388 721.258L698.035 618.398L696.807 617.807L697.398 619.035L800.258 832.388L629.133 668.634L628.147 667.69L628.331 669.042L660.228 903.739L548.079 695.117L547.434 693.916L547.191 695.258L505 928.325L462.809 695.258L462.566 693.916L461.921 695.117L349.771 903.739L381.669 669.042L381.853 667.69L380.867 668.634L209.741 832.388L312.602 619.035L313.193 617.807L311.965 618.398L98.6113 721.258L262.366 550.133L263.31 549.147L261.958 549.331L27.2598 581.228L235.883 469.079L237.084 468.434L235.742 468.191L2.67383 426L235.742 383.809L237.084 383.566L235.883 382.921L27.2598 270.771L261.958 302.669L263.31 302.853L262.366 301.867L98.6113 130.741L311.965 233.602L313.193 234.193L312.602 232.965L209.741 19.6113L380.867 183.366L381.853 184.31L381.669 182.958L349.771 -51.7402L461.921 156.883L462.566 158.084L462.809 156.742L505 -76.3262L547.191 156.742Z" stroke="#2E281D" stroke-width="0.952681"/>
</svg>
