<svg width="424" height="88" viewBox="0 0 424 88" fill="none" xmlns="http://www.w3.org/2000/svg">
<path d="M50 8H272.5H374L424 48L374 88H50L0 48L50 8Z" fill="#2E281D"/>
<path d="M373.824 0.5L423.199 40L373.824 79.5H50.1758L0.800781 40L50.1758 0.5H373.824Z" fill="#FFBB00" stroke="#2E281D"/>
<path d="M153.936 49.384C152.592 49.384 151.344 49.176 150.192 48.76C149.056 48.328 148.064 47.72 147.216 46.936C146.384 46.152 145.736 45.224 145.272 44.152C144.808 43.08 144.576 41.896 144.576 40.6C144.576 39.304 144.808 38.12 145.272 37.048C145.736 35.976 146.384 35.048 147.216 34.264C148.064 33.48 149.056 32.88 150.192 32.464C151.344 32.032 152.592 31.816 153.936 31.816C155.584 31.816 157.04 32.104 158.304 32.68C159.584 33.256 160.64 34.088 161.472 35.176L157.896 38.368C157.4 37.744 156.848 37.264 156.24 36.928C155.648 36.576 154.976 36.4 154.224 36.4C153.632 36.4 153.096 36.496 152.616 36.688C152.136 36.88 151.72 37.16 151.368 37.528C151.032 37.896 150.768 38.344 150.576 38.872C150.384 39.384 150.288 39.96 150.288 40.6C150.288 41.24 150.384 41.824 150.576 42.352C150.768 42.864 151.032 43.304 151.368 43.672C151.72 44.04 152.136 44.32 152.616 44.512C153.096 44.704 153.632 44.8 154.224 44.8C154.976 44.8 155.648 44.632 156.24 44.296C156.848 43.944 157.4 43.456 157.896 42.832L161.472 46.024C160.64 47.096 159.584 47.928 158.304 48.52C157.04 49.096 155.584 49.384 153.936 49.384ZM171.376 49.384C170.016 49.384 168.752 49.168 167.584 48.736C166.432 48.304 165.432 47.696 164.584 46.912C163.736 46.112 163.072 45.176 162.592 44.104C162.128 43.032 161.896 41.864 161.896 40.6C161.896 39.32 162.128 38.152 162.592 37.096C163.072 36.024 163.736 35.096 164.584 34.312C165.432 33.512 166.432 32.896 167.584 32.464C168.752 32.032 170.016 31.816 171.376 31.816C172.752 31.816 174.016 32.032 175.168 32.464C176.32 32.896 177.32 33.512 178.168 34.312C179.016 35.096 179.672 36.024 180.136 37.096C180.616 38.152 180.856 39.32 180.856 40.6C180.856 41.864 180.616 43.032 180.136 44.104C179.672 45.176 179.016 46.112 178.168 46.912C177.32 47.696 176.32 48.304 175.168 48.736C174.016 49.168 172.752 49.384 171.376 49.384ZM171.376 44.8C171.904 44.8 172.392 44.704 172.84 44.512C173.304 44.32 173.704 44.048 174.04 43.696C174.392 43.328 174.664 42.888 174.856 42.376C175.048 41.848 175.144 41.256 175.144 40.6C175.144 39.944 175.048 39.36 174.856 38.848C174.664 38.32 174.392 37.88 174.04 37.528C173.704 37.16 173.304 36.88 172.84 36.688C172.392 36.496 171.904 36.4 171.376 36.4C170.848 36.4 170.352 36.496 169.888 36.688C169.44 36.88 169.04 37.16 168.688 37.528C168.352 37.88 168.088 38.32 167.896 38.848C167.704 39.36 167.608 39.944 167.608 40.6C167.608 41.256 167.704 41.848 167.896 42.376C168.088 42.888 168.352 43.328 168.688 43.696C169.04 44.048 169.44 44.32 169.888 44.512C170.352 44.704 170.848 44.8 171.376 44.8ZM182.894 49V32.2H197.462V36.472H188.462V38.416H192.47C194.518 38.416 196.086 38.856 197.174 39.736C198.278 40.6 198.83 41.856 198.83 43.504C198.83 45.216 198.206 46.56 196.958 47.536C195.71 48.512 193.974 49 191.75 49H182.894ZM188.462 45.04H191.366C191.926 45.04 192.358 44.92 192.662 44.68C192.982 44.44 193.142 44.096 193.142 43.648C193.142 42.784 192.55 42.352 191.366 42.352H188.462V45.04ZM209.825 37.36C211.873 37.36 213.473 37.824 214.625 38.752C215.793 39.664 216.377 41.048 216.377 42.904C216.377 44.904 215.721 46.424 214.409 47.464C213.097 48.488 211.329 49 209.105 49H200.777V32.2H206.345V37.36H209.825ZM208.721 45.04C209.281 45.04 209.745 44.864 210.113 44.512C210.497 44.144 210.689 43.64 210.689 43C210.689 42.36 210.497 41.92 210.113 41.68C209.745 41.44 209.281 41.32 208.721 41.32H206.345V45.04H208.721ZM217.913 49V32.2H223.481V49H217.913ZM230.281 49V35.368L231.505 36.592H225.361V32.2H240.769V36.592H234.625L235.849 35.368V49H230.281ZM242.636 49V32.2H248.204V40.936L253.988 32.2H259.316V49H253.748V40.288L247.988 49H242.636ZM271.469 49V43.888L272.789 45.016H268.925C267.373 45.016 266.029 44.768 264.893 44.272C263.773 43.76 262.909 43.032 262.301 42.088C261.693 41.144 261.389 40.016 261.389 38.704C261.389 37.36 261.701 36.208 262.325 35.248C262.965 34.272 263.869 33.52 265.037 32.992C266.205 32.464 267.581 32.2 269.165 32.2H277.037V49H271.469ZM261.461 49L265.685 42.88H271.325L267.389 49H261.461ZM271.469 42.112V35.2L272.789 36.568H269.261C268.541 36.568 267.997 36.736 267.629 37.072C267.277 37.408 267.101 37.92 267.101 38.608C267.101 39.312 267.285 39.848 267.653 40.216C268.021 40.568 268.557 40.744 269.261 40.744H272.789L271.469 42.112Z" fill="#2E281D"/>
</svg>
