<svg width="572" height="216" viewBox="0 0 572 216" fill="none" xmlns="http://www.w3.org/2000/svg">
<path d="M140.561 105.445C141.173 104.996 142.035 104.876 143.098 105.135C144.211 105.395 144.964 105.814 145.445 106.503C145.946 107.182 146.518 108.35 147.16 109.967C147.591 111.115 148.012 111.774 148.233 111.934C148.464 112.114 148.925 112.094 149.667 111.854C150.68 111.594 151.432 111.834 152.034 112.563C152.616 113.292 153.167 114.679 153.549 116.806C154.12 119.591 154.15 122.546 153.609 125.681C153.097 128.836 152.104 131.701 150.68 134.336C149.757 136.114 148.805 137.222 147.852 137.691C146.949 138.11 146.147 137.791 145.495 136.852C144.552 135.624 144.221 132.819 144.542 128.566C144.653 127.049 144.683 126.1 144.592 125.681C144.522 125.192 144.322 124.693 143.961 124.183C143.399 123.525 142.757 123.305 141.925 123.535C141.082 123.894 140.39 124.004 139.819 123.864C139.518 123.844 139.267 124.034 139.157 124.373C139.046 124.693 138.936 125.391 138.886 126.51C138.765 128.297 138.856 129.804 139.157 131.012C139.407 132.21 139.979 133.548 140.811 135.035C141.824 137.032 142.657 138.789 143.208 140.297C143.71 141.584 144.031 142.373 144.261 142.673C144.512 142.942 144.873 142.912 145.335 142.673C145.936 142.373 146.658 142.153 147.481 142.014C148.103 141.954 149.055 140.636 150.229 138.04C151.111 135.974 152.074 134.366 153.087 133.268C154.14 132.16 155.083 131.761 155.875 132.03C156.597 132.23 157.159 133.238 157.52 135.025C157.971 136.772 158.142 138.969 158.122 141.594C158.082 143.881 157.911 145.697 157.55 147.095C157.249 148.453 156.648 149.88 155.745 151.368C154.812 152.975 153.308 155.052 151.312 157.598C150.048 159.195 148.534 159.814 146.719 159.355C144.873 158.945 143.168 157.618 141.574 155.321C140.892 154.413 139.949 153.704 138.645 153.155C136.75 152.296 135.085 150.02 133.671 146.366C132.287 142.673 131.565 138.729 131.565 134.686C131.544 132.02 131.264 129.275 130.722 126.49C130.221 123.974 130 121.977 130 120.41C130 118.882 130.231 117.105 130.682 115.119C131.434 112.054 132.477 109.648 133.821 107.901C135.215 106.134 136.559 105.435 137.993 105.834C139.127 106.064 139.999 105.914 140.561 105.445ZM161.451 114.599C162.234 113.581 162.956 113.212 163.588 113.481C164.169 113.771 164.892 114.739 165.573 116.406C166.978 119.761 167.8 124.104 168.011 129.385C168.061 132.42 168.452 136.133 169.154 140.436C169.876 144.759 170.548 147.654 171.23 149.172C171.982 150.759 172.905 151.777 174.048 152.187C175.212 152.586 176.094 152.227 176.696 151.049C177.087 150.26 177.498 148.812 177.899 146.726C178.321 144.589 178.491 143.012 178.431 141.974C178.381 141.315 178.331 140.556 178.341 139.668C178.361 139.278 178.15 138.4 177.699 136.902C177.398 135.964 176.866 134.486 176.094 132.34C174.62 128.456 173.878 125.851 173.898 124.473C173.918 121.807 174.279 119.781 174.951 118.443C175.633 117.075 176.485 116.746 177.458 117.375C177.879 117.684 178.441 118.643 179.193 120.2C179.815 121.508 180.868 124.213 182.483 128.307C183.185 130.094 184.148 132.649 185.311 135.934C186.153 138.32 186.655 139.817 186.765 140.436C187.136 142.163 187.337 144.2 187.347 146.576C187.357 148.882 187.226 150.989 186.936 152.856C186.464 155.431 185.913 157.448 185.231 158.955C184.569 160.403 183.596 161.661 182.342 162.829C180.718 164.316 179.644 165.405 179.163 166.223C177.99 167.88 176.535 168.519 174.81 168.24C173.095 167.9 171.461 166.732 170.006 164.676C168.512 162.569 167.218 160.892 166.115 159.614C165.293 158.606 164.681 157.677 164.28 156.779C163.889 155.89 163.387 154.363 162.815 152.137C161.07 145.528 160.208 138.869 160.288 132.24C160.318 128.766 160.208 125.691 159.937 123.005C159.676 120.789 159.636 119.102 159.847 117.924C160.077 116.776 160.609 115.678 161.451 114.599ZM198.309 124.493C198.78 124.283 199.392 124.443 200.144 124.952C200.906 125.431 201.508 126.04 201.929 126.879C202.22 127.418 202.441 128.027 202.551 128.716C202.661 129.345 202.691 130.283 202.681 131.551C202.621 135.594 201.819 139.148 200.214 142.173C199.332 143.92 198.529 146.806 197.827 150.819C197.095 154.822 196.784 157.059 196.925 157.408C197.025 157.717 197.988 158.316 199.793 159.215C201.819 160.203 203.414 161.192 204.667 162.19C206.703 163.757 207.726 163.897 207.736 162.659C207.766 162.39 207.736 161.97 207.636 161.441C207.405 160.193 207.275 158.097 207.335 155.262C207.415 152.436 207.606 150.39 207.907 149.112C208.228 147.654 208.709 146.856 209.321 146.706C209.922 146.476 210.544 146.786 211.126 147.594C211.748 148.423 212.319 149.721 212.801 151.508C213.332 153.195 213.633 155.122 213.754 157.188C213.864 158.985 214.265 161.351 214.927 164.356C215.429 166.593 215.679 168.31 215.639 169.508C215.639 170.696 215.338 172.373 214.737 174.619C214.185 176.566 213.573 177.614 212.941 177.724C211.999 178.013 211.046 178.013 210.073 177.674C209.882 177.634 209.03 177.434 207.566 177.105C206.131 176.806 205.068 176.486 204.406 176.216C199.231 174.599 195.821 173.751 194.137 173.661C193.084 173.641 192.341 173.451 191.96 173.182C191.599 172.962 191.118 172.273 190.516 171.095C189.513 169.268 188.871 167.012 188.641 164.276C188.35 161.551 188.53 158.746 189.052 155.89C189.403 153.934 189.593 151.937 189.613 149.94C189.623 148.653 189.714 147.594 189.874 146.786C190.075 145.937 190.426 144.859 190.917 143.611C191.81 141.485 192.432 139.258 192.813 136.932C193.104 135.095 193.515 133.158 194.046 131.092C194.417 129.914 195.059 128.606 195.972 127.089C196.915 125.651 197.727 124.762 198.309 124.493ZM219.571 129.684C220.102 129.544 222.84 130.253 227.724 131.761C232.669 133.218 235.988 134.356 237.743 135.245C239.569 136.133 240.953 137.182 241.885 138.32C242.858 139.428 243.51 140.816 243.881 142.503C244.633 145.837 245.045 148.403 245.115 150.2C245.195 151.927 244.944 153.644 244.393 155.291C244.002 156.549 243.58 157.328 243.139 157.658C242.517 157.937 241.885 157.817 241.244 157.378C240.602 156.969 239.579 156.05 238.235 154.732C235.597 152.147 234.133 150.819 233.902 150.759C233.541 150.659 233.29 151.797 233.16 154.133C232.97 156.43 232.608 159.015 232.027 161.95C231.616 164.017 231.385 165.544 231.335 166.513C231.285 167.461 231.355 169.318 231.525 172.043C231.766 175.588 231.786 178.063 231.586 179.471C231.355 180.859 230.873 181.957 230.061 182.696C229.459 183.265 228.767 183.524 227.945 183.484C227.153 183.414 226.491 183.105 226.029 182.536C225.287 181.538 224.766 178.852 224.465 174.439C224.184 170.067 224.284 165.984 224.816 162.19C225.398 157.208 225.718 154.193 225.809 153.045C225.959 151.368 225.949 150.06 225.869 149.102C225.809 148.014 225.668 147.345 225.468 147.155C225.277 147.025 224.726 146.945 223.783 146.995C222.559 147.075 221.286 146.596 219.992 145.618C218.708 144.579 217.856 143.391 217.404 141.984C216.813 140.446 216.572 138.749 216.652 137.002C216.722 135.205 217.133 133.618 217.825 132.22C218.507 130.732 219.079 129.904 219.571 129.684ZM273.046 175.208C272.314 179.401 271.923 181.637 271.813 181.977C271.512 182.766 271.211 183.544 270.85 184.313C270.158 185.621 269.456 186.909 268.734 188.196C266.938 191.441 265.113 193.068 263.408 193.148C262.887 193.148 262.425 193.028 261.974 192.799C261.503 192.539 260.961 192.17 260.359 191.681C259.778 191.122 259.416 190.812 259.256 190.702C258.002 189.844 256.739 188.945 255.495 188.047C255.294 187.897 254.943 187.677 254.432 187.368C253.951 187.068 253.579 186.819 253.299 186.639C252.988 186.469 252.647 186.17 252.236 185.781C251.804 185.361 251.463 184.942 251.132 184.473C249.498 182.017 248.334 177.474 247.642 170.895C247.271 167.441 246.91 164.017 246.579 160.593C246.298 157.747 246.068 154.912 245.817 152.107C245.666 150.559 245.997 148.503 246.74 145.907C247.472 143.292 248.264 141.345 249.046 139.967C250.46 137.651 252.597 136.293 255.345 135.914C257.07 135.844 258.564 136.084 259.918 136.613C261.252 137.132 262.255 137.761 262.977 138.559C263.699 139.398 264.391 140.217 265.143 141.055C267.34 143.641 268.603 145.638 268.924 146.955C269.145 148.074 269.305 149.851 269.416 152.406C269.566 154.882 269.506 156.809 269.345 158.266C269.175 159.864 268.453 162.04 267.169 164.746C265.895 167.451 264.541 169.887 263.107 172.063C261.713 174.17 260.65 175.288 259.958 175.448C259.677 175.498 259.497 175.528 259.246 175.578C259.276 175.777 259.406 175.977 259.457 176.167C259.998 177.484 261.131 177.464 262.897 176.067C264.642 174.569 266.026 172.583 267.159 170.057C267.941 168.19 268.653 166.872 269.215 166.063C269.837 165.255 270.469 164.975 271.171 165.215C271.853 165.395 272.565 166.273 273.277 167.9C273.347 167.95 273.387 168.07 273.457 168.26C273.507 168.39 273.578 168.469 273.598 168.529C273.638 168.599 273.678 168.699 273.698 168.809C273.788 168.939 273.818 169.029 273.858 169.168C273.879 169.238 273.909 169.358 273.919 169.538C273.949 169.657 273.949 169.797 273.959 170.007C273.989 170.107 273.979 170.236 273.989 170.416C273.959 171.375 273.728 172.872 273.197 174.899C273.136 175.098 273.096 175.208 273.046 175.208ZM260.058 158.915C259.988 158.316 259.507 157.887 258.524 157.578C257.591 157.208 256.889 157.218 256.408 157.638C255.525 158.336 255.164 159.784 255.375 162.12C255.545 163.498 255.836 164.256 256.317 164.366C257.05 164.546 257.882 163.977 258.815 162.699C259.757 161.441 260.189 160.193 260.058 158.915ZM289.123 143.132C289.273 142.742 290.086 142.553 291.56 142.503C292.483 142.513 293.235 142.643 293.817 142.952C294.418 143.311 295.271 144.05 296.304 145.128C297.748 146.576 298.801 148.083 299.513 149.541C300.205 150.979 300.797 152.846 301.248 155.142C301.95 158.756 302.051 162.16 301.549 165.325C301.068 168.459 299.954 171.175 298.27 173.451C297.668 174.29 297.066 175.108 296.444 175.897C296.956 177.035 297.467 178.173 297.959 179.271C298.951 181.388 299.694 183.065 300.185 184.323C300.687 185.601 301.078 186.859 301.338 188.057C301.619 189.255 301.73 190.303 301.649 191.311C301.549 192.22 301.358 193.228 300.997 194.306C300.315 196.553 299.182 197.291 297.608 196.493C296.043 195.574 294.338 193.308 292.543 189.624C291.159 186.889 290.276 185.241 289.755 184.612C289.253 183.964 288.571 183.624 287.729 183.574C287.007 183.544 286.586 183.604 286.505 183.814C286.445 183.904 286.505 184.463 286.756 185.511C287.498 188.266 287.588 190.912 287.057 193.458C286.565 195.924 285.673 197.112 284.419 196.992C283.517 196.832 282.454 195.973 281.26 194.446C280.036 192.899 279.264 191.361 278.813 189.834C278.452 188.476 277.91 185.251 277.168 180.18C276.416 175.148 275.914 170.835 275.584 167.202C274.721 158.077 275.924 150.959 279.174 145.697C279.846 144.569 280.428 143.93 280.939 143.681C281.32 143.561 282.574 143.561 284.74 143.621C287.488 143.721 288.952 143.551 289.123 143.132ZM293.606 158.167C293.135 157.558 292.593 157.338 291.931 157.518C291.259 157.827 289.825 158.606 287.639 159.834C285.763 160.872 284.66 161.571 284.319 161.94C283.958 162.39 283.787 163.088 283.787 164.067C283.777 165.025 283.858 165.634 284.038 165.804C284.148 166.053 284.61 166.143 285.392 166.093C286.485 165.834 287.699 165.085 289.083 163.847C290.557 162.34 291.761 161.411 292.673 161.192C294.238 160.553 294.539 159.524 293.606 158.167ZM314.577 139.108C315.409 138.33 316.834 137.831 318.879 137.501C320.324 137.232 321.327 137.222 321.898 137.471C322.49 137.701 323.403 138.43 324.606 139.648C326.311 141.485 327.264 142.702 327.464 143.351C327.695 144.15 327.906 145.857 328.136 148.423C328.277 149.781 328.397 151.148 328.528 152.456C329.079 152.546 329.631 152.636 330.202 152.686C331.225 152.905 332.158 153.524 333.021 154.523C333.883 155.451 334.485 156.559 334.846 157.907C335.197 159.265 335.548 160.044 335.949 160.213C336.4 160.503 336.832 161.841 337.233 164.177C337.664 166.523 337.855 168.879 337.865 171.265C337.875 172.962 337.855 174.35 337.714 175.438C337.584 176.476 337.353 177.654 336.972 179.032C336.24 181.747 335.418 183.804 334.415 185.231C333.482 186.639 332.118 187.827 330.333 188.825C328.548 189.794 325.86 190.802 322.289 191.85C318.859 192.739 316.623 193.258 315.63 193.368C314.667 193.458 314.015 193.238 313.664 192.729C312.862 191.381 312.34 188.895 312.03 185.271C311.749 181.657 311.769 177.235 312.1 172.073C312.28 168.999 312.19 164.806 311.869 159.474C311.508 154.263 311.438 150.679 311.588 148.643C311.719 146.526 312.07 144.619 312.621 142.872C313.203 141.085 313.815 139.777 314.577 139.108ZM319.692 148.603C319.311 148.393 318.679 148.393 317.786 148.643C316.914 148.922 316.432 149.172 316.312 149.491C316.121 149.97 316.091 150.719 316.131 151.668C316.232 152.566 316.382 153.135 316.653 153.365C316.964 153.654 317.385 153.714 317.947 153.584C318.508 153.465 319.05 153.195 319.551 152.746C319.943 152.396 320.163 151.648 320.193 150.629C320.243 149.521 320.083 148.832 319.692 148.603ZM328.247 170.316C328.056 169.887 326.562 169.857 323.834 170.236C321.106 170.546 319.511 170.935 319.1 171.434C318.859 171.674 318.569 172.692 318.228 174.539C318.017 175.827 317.917 176.606 317.937 176.965C317.987 177.305 318.187 177.644 318.569 177.994C319.13 178.563 320.755 178.133 323.473 176.706C326.191 175.188 327.715 173.88 328.096 172.812C328.417 171.734 328.477 170.925 328.247 170.316ZM347.804 131.262C348.265 130.782 348.837 130.613 349.549 130.772C350.271 130.862 350.852 131.222 351.264 131.891C351.555 132.32 351.765 132.849 351.845 133.538C351.986 134.147 352.026 135.155 352.026 136.523C352.036 140.905 351.364 145.138 349.93 149.272C349.127 151.648 348.405 155.142 347.834 159.834C347.212 164.516 346.991 167.052 347.102 167.371C347.212 167.611 348.135 167.731 349.819 167.671C351.785 167.621 353.32 167.771 354.513 168.14C356.479 168.659 357.442 168.24 357.432 166.902C357.432 166.613 357.412 166.213 357.271 165.694C357.04 164.496 356.93 162.36 356.91 159.325C356.93 156.28 357.061 154.014 357.311 152.496C357.562 150.779 358.013 149.651 358.575 149.132C359.147 148.583 359.758 148.573 360.34 149.062C360.932 149.621 361.483 150.689 361.995 152.316C362.496 153.824 362.867 155.701 363.008 157.797C363.148 159.624 363.559 161.98 364.231 164.716C364.773 166.812 365.014 168.479 365.034 169.757C365.044 170.965 364.783 172.902 364.282 175.568C363.78 177.904 363.238 179.321 362.647 179.8C361.734 180.609 360.831 181.168 359.919 181.358C359.728 181.418 358.936 181.677 357.532 182.196C356.148 182.676 355.165 182.975 354.523 183.035C349.609 184.273 346.349 185.291 344.765 186.12C343.712 186.689 343.04 186.949 342.689 186.829C342.338 186.839 341.866 186.389 341.245 185.441C340.292 184.093 339.65 182.067 339.329 179.291C339.068 176.506 339.138 173.441 339.58 170.117C339.911 167.831 340.031 165.614 340.001 163.448C340.001 162.07 340.081 160.872 340.201 159.894C340.382 158.885 340.693 157.538 341.144 155.91C341.947 153.145 342.498 150.43 342.829 147.714C343.08 145.528 343.421 143.222 343.932 140.686C344.223 139.228 344.815 137.461 345.677 135.335C346.54 133.268 347.252 131.901 347.804 131.262ZM375.414 123.185C376.547 120.809 377.831 120.4 379.295 122.037C380.84 123.834 382.033 128.147 382.815 134.796C383.237 138.17 383.608 140.676 383.959 142.363C384.31 143.92 384.881 145.877 385.674 148.133C386.556 150.599 387.078 152.945 387.248 155.262C387.439 157.248 387.89 159.684 388.632 162.499C389.645 165.944 390.036 168.649 389.706 170.756C389.395 172.802 388.442 174.05 386.817 174.529C385.935 174.759 385.283 174.779 384.751 174.559C384.25 174.3 383.538 173.641 382.575 172.593C381.492 171.295 380.79 170.606 380.418 170.496C380.088 170.446 379.446 170.826 378.543 171.704C377.299 172.702 376.347 173.022 375.675 172.603C374.842 172.073 374.16 172.023 373.649 172.463C373.137 172.842 372.515 173.96 371.783 175.807C369.978 180.399 368.414 181.078 367.09 177.904C366.719 177.015 366.468 176.127 366.418 175.138C366.297 173.481 366.618 168.879 367.471 161.371C367.882 157.867 368.213 155.202 368.524 153.435C368.845 151.568 369.276 149.751 369.828 147.954C370.78 144.929 371.533 141.475 372.094 137.501C373.228 130.203 374.341 125.411 375.414 123.185ZM378.342 147.714C378.001 144.679 377.701 143.212 377.39 143.301C377.099 143.381 376.708 145.059 376.206 148.333C375.885 150.13 375.855 151.308 376.096 152.037C376.337 152.686 376.848 152.905 377.681 152.666C378.453 152.436 378.854 152.217 378.834 152.027C378.663 150.579 378.523 149.152 378.342 147.714ZM395.352 113.411C398.401 109.228 402.513 109.049 407.688 113.002C408.821 113.781 409.633 114.21 410.155 114.17C410.687 114 411.238 114.34 411.83 115.178C412.452 115.947 412.843 116.876 412.983 117.854C413.414 121.129 413.083 124.653 411.95 128.416C410.997 131.761 410.095 133.747 409.333 134.366C408.55 135.005 407.778 134.396 406.986 132.49C406.314 130.912 406.003 129.694 405.983 128.866C405.943 127.718 405.441 126.699 404.428 125.811C403.476 124.862 402.513 124.553 401.62 124.852C400.477 125.122 399.845 125.411 399.705 125.731C399.514 126.53 399.654 127.538 400.196 128.756C400.718 130.024 401.47 131.202 402.463 132.35C403.476 133.418 404.499 134.167 405.501 134.626C406.484 134.995 407.327 135.814 408.119 137.062C408.861 138.2 409.694 138.989 410.616 139.458C411.419 139.857 412.211 141.035 412.983 143.072C414.518 147.355 415.129 151.757 414.758 156.22C414.427 160.613 413.194 164.157 411.088 166.832C410.065 168.17 408.921 168.979 407.748 169.218C406.555 169.418 404.097 169.328 400.457 168.789C397.598 168.4 395.542 167.701 394.389 166.633C393.206 165.504 392.323 163.498 391.701 160.613C391.17 157.907 390.899 156.06 390.869 154.932C390.829 153.584 390.959 152.027 391.28 150.23C391.591 148.403 391.882 147.085 392.203 146.416C392.694 145.628 393.216 145.218 393.848 145.138C394.489 145.079 394.911 145.398 395.161 146.117C395.773 147.974 396.355 149.521 397.017 150.809C397.639 152.097 398.13 152.726 398.401 152.656C398.822 152.506 399.805 153.165 401.329 154.573C403.014 156 404.288 156.619 405.251 156.36C405.903 156.25 406.374 156.08 406.565 155.831C406.725 155.641 406.805 154.992 406.775 154.024C406.755 152.356 406.324 151.039 405.562 150.09C404.799 149.152 403.556 148.493 401.841 148.083C398.822 147.305 396.285 145.298 394.239 142.054C392.183 138.749 391.12 134.955 391.029 130.772C390.879 123.255 392.323 117.465 395.352 113.411ZM416.824 110.367C417.326 109.877 419.853 109.119 424.467 108.08C429.07 107.072 432.239 106.643 433.914 106.743C435.639 106.922 436.993 107.501 437.936 108.42C438.919 109.358 439.641 110.776 440.162 112.663C441.105 116.476 441.677 119.471 441.867 121.598C442.108 123.704 442.018 125.811 441.627 127.937C441.316 129.515 440.965 130.593 440.563 131.112C440.002 131.591 439.4 131.661 438.718 131.371C438.096 131.112 437.093 130.443 435.699 129.425C433.021 127.518 431.567 126.679 431.357 126.679C431.006 126.739 430.825 128.177 430.845 130.902C430.815 133.598 430.614 136.673 430.233 140.207C429.943 142.663 429.792 144.47 429.812 145.538C429.792 146.576 429.912 148.573 430.193 151.478C430.554 155.142 430.645 157.767 430.504 159.325C430.324 160.852 429.882 162.17 429.07 163.208C428.528 164.017 427.867 164.556 427.084 164.855C426.312 165.105 425.68 165.055 425.219 164.676C424.457 163.987 423.875 161.451 423.494 156.979C423.073 152.516 423.042 148.054 423.333 143.721C423.654 138 423.825 134.486 423.865 133.168C423.895 131.232 423.855 129.754 423.724 128.706C423.594 127.558 423.434 126.889 423.223 126.749C423.052 126.709 422.511 126.919 421.628 127.408C420.485 128.157 419.282 128.317 418.018 127.917C416.784 127.428 415.912 126.569 415.39 125.262C414.778 123.834 414.488 122.147 414.457 120.11C414.437 118.094 414.718 116.067 415.31 114.14C415.872 112.124 416.373 110.846 416.824 110.367Z" fill="#2E281D"/>
<path d="M140.561 97.4448C141.173 96.9955 142.035 96.8757 143.098 97.1353C144.211 97.3949 144.964 97.8142 145.445 98.5032C145.946 99.1821 146.518 100.35 147.16 101.968C147.591 103.116 148.012 103.775 148.233 103.935C148.464 104.115 148.925 104.095 149.667 103.855C150.68 103.595 151.432 103.835 152.034 104.564C152.616 105.293 153.167 106.681 153.549 108.807C154.12 111.593 154.15 114.549 153.609 117.684C153.097 120.839 152.104 123.704 150.68 126.34C149.757 128.118 148.805 129.226 147.852 129.695C146.949 130.115 146.147 129.795 145.495 128.857C144.552 127.628 144.221 124.823 144.542 120.569C144.653 119.052 144.683 118.103 144.592 117.684C144.522 117.194 144.322 116.695 143.961 116.186C143.399 115.527 142.757 115.307 141.925 115.537C141.082 115.896 140.39 116.006 139.819 115.866C139.518 115.847 139.267 116.036 139.157 116.376C139.046 116.695 138.936 117.394 138.886 118.512C138.765 120.3 138.856 121.807 139.157 123.015C139.407 124.214 139.979 125.552 140.811 127.039C141.824 129.036 142.657 130.794 143.208 132.301C143.71 133.589 144.031 134.378 144.261 134.678C144.512 134.947 144.873 134.917 145.335 134.678C145.936 134.378 146.658 134.158 147.481 134.019C148.103 133.959 149.055 132.641 150.229 130.045C151.111 127.978 152.074 126.37 153.087 125.272C154.14 124.164 155.083 123.764 155.875 124.034C156.597 124.234 157.159 125.242 157.52 127.029C157.971 128.777 158.142 130.973 158.122 133.599C158.082 135.886 157.911 137.703 157.55 139.101C157.249 140.459 156.648 141.886 155.745 143.374C154.812 144.982 153.308 147.059 151.312 149.605C150.048 151.202 148.534 151.821 146.719 151.362C144.873 150.953 143.168 149.625 141.574 147.328C140.892 146.42 139.949 145.711 138.645 145.161C136.75 144.303 135.085 142.026 133.671 138.372C132.287 134.678 131.565 130.734 131.565 126.69C131.544 124.024 131.264 121.278 130.722 118.492C130.221 115.976 130 113.979 130 112.412C130 110.884 130.231 109.107 130.682 107.12C131.434 104.055 132.477 101.648 133.821 99.901C135.215 98.1338 136.559 97.4348 137.993 97.8342C139.127 98.0639 139.999 97.9141 140.561 97.4448ZM161.451 106.601C162.234 105.582 162.956 105.213 163.588 105.482C164.169 105.772 164.892 106.741 165.573 108.408C166.978 111.763 167.8 116.106 168.011 121.388C168.061 124.423 168.452 128.138 169.154 132.441C169.876 136.764 170.548 139.66 171.23 141.178C171.982 142.765 172.905 143.784 174.048 144.193C175.212 144.592 176.094 144.233 176.696 143.055C177.087 142.266 177.498 140.818 177.899 138.731C178.321 136.595 178.491 135.017 178.431 133.979C178.381 133.32 178.331 132.561 178.341 131.672C178.361 131.283 178.15 130.404 177.699 128.906C177.398 127.968 176.866 126.49 176.094 124.343C174.62 120.459 173.878 117.853 173.898 116.476C173.918 113.81 174.279 111.783 174.951 110.445C175.633 109.077 176.485 108.747 177.458 109.376C177.879 109.686 178.441 110.645 179.193 112.202C179.815 113.51 180.868 116.216 182.483 120.31C183.185 122.097 184.148 124.653 185.311 127.938C186.153 130.324 186.655 131.822 186.765 132.441C187.136 134.168 187.337 136.205 187.347 138.582C187.357 140.888 187.226 142.995 186.936 144.862C186.464 147.438 185.913 149.455 185.231 150.963C184.569 152.41 183.596 153.668 182.342 154.837C180.718 156.324 179.644 157.413 179.163 158.231C177.99 159.889 176.535 160.528 174.81 160.248C173.095 159.909 171.461 158.741 170.006 156.684C168.512 154.577 167.218 152.9 166.115 151.622C165.293 150.613 164.681 149.684 164.28 148.786C163.889 147.897 163.387 146.37 162.815 144.143C161.07 137.533 160.208 130.873 160.288 124.244C160.318 120.769 160.208 117.694 159.937 115.008C159.676 112.791 159.636 111.104 159.847 109.926C160.077 108.777 160.609 107.679 161.451 106.601ZM198.309 116.496C198.78 116.286 199.392 116.446 200.144 116.955C200.906 117.434 201.508 118.043 201.929 118.882C202.22 119.421 202.441 120.03 202.551 120.719C202.661 121.348 202.691 122.287 202.681 123.555C202.621 127.598 201.819 131.153 200.214 134.178C199.332 135.926 198.529 138.811 197.827 142.825C197.095 146.829 196.784 149.065 196.925 149.415C197.025 149.724 197.988 150.324 199.793 151.222C201.819 152.211 203.414 153.199 204.667 154.198C206.703 155.765 207.726 155.905 207.736 154.667C207.766 154.397 207.736 153.978 207.636 153.449C207.405 152.201 207.275 150.104 207.335 147.268C207.415 144.443 207.606 142.396 207.907 141.118C208.228 139.66 208.709 138.861 209.321 138.711C209.922 138.482 210.544 138.791 211.126 139.6C211.748 140.429 212.319 141.727 212.801 143.514C213.332 145.201 213.633 147.128 213.754 149.195C213.864 150.992 214.265 153.359 214.927 156.364C215.429 158.601 215.679 160.318 215.639 161.516C215.639 162.704 215.338 164.382 214.737 166.628C214.185 168.575 213.573 169.624 212.941 169.734C211.999 170.023 211.046 170.023 210.073 169.684C209.882 169.644 209.03 169.444 207.566 169.115C206.131 168.815 205.068 168.496 204.406 168.226C199.231 166.608 195.821 165.76 194.137 165.67C193.084 165.65 192.341 165.46 191.96 165.191C191.599 164.971 191.118 164.282 190.516 163.104C189.513 161.277 188.871 159.02 188.641 156.284C188.35 153.559 188.53 150.753 189.052 147.897C189.403 145.94 189.593 143.943 189.613 141.946C189.623 140.658 189.714 139.6 189.874 138.791C190.075 137.943 190.426 136.864 190.917 135.616C191.81 133.489 192.432 131.263 192.813 128.936C193.104 127.099 193.515 125.162 194.046 123.095C194.417 121.917 195.059 120.609 195.972 119.092C196.915 117.654 197.727 116.765 198.309 116.496ZM219.571 121.688C220.102 121.548 222.84 122.257 227.724 123.764C232.669 125.222 235.988 126.36 237.743 127.249C239.569 128.138 240.953 129.186 241.885 130.324C242.858 131.433 243.51 132.82 243.881 134.508C244.633 137.843 245.045 140.409 245.115 142.206C245.195 143.933 244.944 145.651 244.393 147.298C244.002 148.556 243.58 149.335 243.139 149.665C242.517 149.944 241.885 149.824 241.244 149.385C240.602 148.976 239.579 148.057 238.235 146.739C235.597 144.153 234.133 142.825 233.902 142.765C233.541 142.665 233.29 143.804 233.16 146.14C232.97 148.436 232.608 151.022 232.027 153.958C231.616 156.025 231.385 157.552 231.335 158.521C231.285 159.469 231.355 161.327 231.525 164.052C231.766 167.597 231.786 170.073 231.586 171.481C231.355 172.869 230.873 173.967 230.061 174.706C229.459 175.275 228.767 175.535 227.945 175.495C227.153 175.425 226.491 175.115 226.029 174.546C225.287 173.548 224.766 170.862 224.465 166.449C224.184 162.075 224.284 157.992 224.816 154.198C225.398 149.215 225.718 146.2 225.809 145.052C225.959 143.374 225.949 142.066 225.869 141.108C225.809 140.019 225.668 139.35 225.468 139.161C225.277 139.031 224.726 138.951 223.783 139.001C222.559 139.081 221.286 138.602 219.992 137.623C218.708 136.585 217.856 135.396 217.404 133.989C216.813 132.451 216.572 130.754 216.652 129.006C216.722 127.209 217.133 125.621 217.825 124.224C218.507 122.736 219.079 121.907 219.571 121.688ZM273.046 167.218C272.314 171.411 271.923 173.648 271.813 173.987C271.512 174.776 271.211 175.555 270.85 176.324C270.158 177.632 269.456 178.92 268.734 180.208C266.938 183.453 265.113 185.08 263.408 185.16C262.887 185.16 262.425 185.04 261.974 184.811C261.503 184.551 260.961 184.181 260.359 183.692C259.778 183.133 259.416 182.824 259.256 182.714C258.002 181.855 256.739 180.956 255.495 180.058C255.294 179.908 254.943 179.688 254.432 179.379C253.951 179.079 253.579 178.83 253.299 178.65C252.988 178.48 252.647 178.181 252.236 177.791C251.804 177.372 251.463 176.953 251.132 176.483C249.498 174.027 248.334 169.484 247.642 162.904C247.271 159.449 246.91 156.025 246.579 152.6C246.298 149.754 246.068 146.919 245.817 144.113C245.666 142.565 245.997 140.509 246.74 137.913C247.472 135.297 248.264 133.35 249.046 131.972C250.46 129.655 252.597 128.297 255.345 127.918C257.07 127.848 258.564 128.088 259.918 128.617C261.252 129.136 262.255 129.765 262.977 130.564C263.699 131.403 264.391 132.221 265.143 133.06C267.34 135.646 268.603 137.643 268.924 138.961C269.145 140.079 269.305 141.857 269.416 144.413C269.566 146.889 269.506 148.816 269.345 150.274C269.175 151.871 268.453 154.048 267.169 156.754C265.895 159.459 264.541 161.896 263.107 164.072C261.713 166.179 260.65 167.297 259.958 167.457C259.677 167.507 259.497 167.537 259.246 167.587C259.276 167.787 259.406 167.986 259.457 168.176C259.998 169.494 261.131 169.474 262.897 168.076C264.642 166.579 266.026 164.592 267.159 162.065C267.941 160.198 268.653 158.88 269.215 158.072C269.837 157.263 270.469 156.983 271.171 157.223C271.853 157.403 272.565 158.281 273.277 159.909C273.347 159.959 273.387 160.079 273.457 160.268C273.507 160.398 273.578 160.478 273.598 160.538C273.638 160.608 273.678 160.708 273.698 160.817C273.788 160.947 273.818 161.037 273.858 161.177C273.879 161.247 273.909 161.367 273.919 161.546C273.949 161.666 273.949 161.806 273.959 162.016C273.989 162.115 273.979 162.245 273.989 162.425C273.959 163.383 273.728 164.881 273.197 166.908C273.136 167.108 273.096 167.218 273.046 167.218ZM260.058 150.923C259.988 150.324 259.507 149.894 258.524 149.585C257.591 149.215 256.889 149.225 256.408 149.645C255.525 150.343 255.164 151.791 255.375 154.128C255.545 155.506 255.836 156.264 256.317 156.374C257.05 156.554 257.882 155.985 258.815 154.707C259.757 153.449 260.189 152.201 260.058 150.923ZM289.123 135.137C289.273 134.747 290.086 134.558 291.56 134.508C292.483 134.518 293.235 134.648 293.817 134.957C294.418 135.317 295.271 136.055 296.304 137.134C297.748 138.582 298.801 140.089 299.513 141.547C300.205 142.985 300.797 144.852 301.248 147.148C301.95 150.763 302.051 154.168 301.549 157.333C301.068 160.468 299.954 163.184 298.27 165.46C297.668 166.299 297.066 167.118 296.444 167.906C296.956 169.045 297.467 170.183 297.959 171.281C298.951 173.398 299.694 175.075 300.185 176.334C300.687 177.612 301.078 178.87 301.338 180.068C301.619 181.266 301.73 182.314 301.649 183.323C301.549 184.231 301.358 185.24 300.997 186.318C300.315 188.565 299.182 189.304 297.608 188.505C296.043 187.586 294.338 185.32 292.543 181.635C291.159 178.9 290.276 177.252 289.755 176.623C289.253 175.974 288.571 175.635 287.729 175.585C287.007 175.555 286.586 175.615 286.505 175.824C286.445 175.914 286.505 176.473 286.756 177.522C287.498 180.277 287.588 182.923 287.057 185.469C286.565 187.936 285.673 189.124 284.419 189.004C283.517 188.844 282.454 187.986 281.26 186.458C280.036 184.91 279.264 183.373 278.813 181.845C278.452 180.487 277.91 177.262 277.168 172.19C276.416 167.158 275.914 162.844 275.584 159.21C274.721 150.084 275.924 142.965 279.174 137.703C279.846 136.575 280.428 135.936 280.939 135.686C281.32 135.566 282.574 135.566 284.74 135.626C287.488 135.726 288.952 135.556 289.123 135.137ZM293.606 150.174C293.135 149.565 292.593 149.345 291.931 149.525C291.259 149.834 289.825 150.613 287.639 151.841C285.763 152.88 284.66 153.579 284.319 153.948C283.958 154.397 283.787 155.096 283.787 156.075C283.777 157.033 283.858 157.642 284.038 157.812C284.148 158.062 284.61 158.151 285.392 158.102C286.485 157.842 287.699 157.093 289.083 155.855C290.557 154.347 291.761 153.419 292.673 153.199C294.238 152.56 294.539 151.532 293.606 150.174ZM314.577 131.113C315.409 130.334 316.834 129.835 318.879 129.506C320.324 129.236 321.327 129.226 321.898 129.476C322.49 129.705 323.403 130.434 324.606 131.652C326.311 133.489 327.264 134.708 327.464 135.357C327.695 136.155 327.906 137.863 328.136 140.429C328.277 141.787 328.397 143.155 328.528 144.463C329.079 144.552 329.631 144.642 330.202 144.692C331.225 144.912 332.158 145.531 333.021 146.529C333.883 147.458 334.485 148.566 334.846 149.914C335.197 151.272 335.548 152.051 335.949 152.221C336.4 152.51 336.832 153.848 337.233 156.185C337.664 158.531 337.855 160.887 337.865 163.274C337.875 164.971 337.855 166.359 337.714 167.447C337.584 168.486 337.353 169.664 336.972 171.042C336.24 173.757 335.418 175.814 334.415 177.242C333.482 178.65 332.118 179.838 330.333 180.837C328.548 181.805 325.86 182.814 322.289 183.862C318.859 184.751 316.623 185.27 315.63 185.38C314.667 185.469 314.015 185.25 313.664 184.741C312.862 183.393 312.34 180.907 312.03 177.282C311.749 173.668 311.769 169.244 312.1 164.082C312.28 161.007 312.19 156.814 311.869 151.482C311.508 146.27 311.438 142.685 311.588 140.648C311.719 138.532 312.07 136.625 312.621 134.877C313.203 133.09 313.815 131.782 314.577 131.113ZM319.692 140.608C319.311 140.399 318.679 140.399 317.786 140.648C316.914 140.928 316.432 141.178 316.312 141.497C316.121 141.976 316.091 142.725 316.131 143.674C316.232 144.572 316.382 145.141 316.653 145.371C316.964 145.661 317.385 145.721 317.947 145.591C318.508 145.471 319.05 145.201 319.551 144.752C319.943 144.403 320.163 143.654 320.193 142.635C320.243 141.527 320.083 140.838 319.692 140.608ZM328.247 162.325C328.056 161.896 326.562 161.866 323.834 162.245C321.106 162.555 319.511 162.944 319.1 163.443C318.859 163.683 318.569 164.701 318.228 166.549C318.017 167.837 317.917 168.615 317.937 168.975C317.987 169.314 318.187 169.654 318.569 170.003C319.13 170.572 320.755 170.143 323.473 168.715C326.191 167.198 327.715 165.89 328.096 164.821C328.417 163.743 328.477 162.934 328.247 162.325ZM347.804 123.265C348.265 122.786 348.837 122.616 349.549 122.776C350.271 122.866 350.852 123.225 351.264 123.894C351.555 124.323 351.765 124.853 351.845 125.542C351.986 126.151 352.026 127.159 352.026 128.527C352.036 132.91 351.364 137.144 349.93 141.277C349.127 143.654 348.405 147.148 347.834 151.841C347.212 156.524 346.991 159.06 347.102 159.38C347.212 159.619 348.135 159.739 349.819 159.679C351.785 159.629 353.32 159.779 354.513 160.148C356.479 160.668 357.442 160.248 357.432 158.91C357.432 158.621 357.412 158.221 357.271 157.702C357.04 156.504 356.93 154.367 356.91 151.332C356.93 148.287 357.061 146.02 357.311 144.502C357.562 142.785 358.013 141.657 358.575 141.138C359.147 140.588 359.758 140.578 360.34 141.068C360.932 141.627 361.483 142.695 361.995 144.323C362.496 145.83 362.867 147.708 363.008 149.804C363.148 151.632 363.559 153.988 364.231 156.724C364.773 158.82 365.014 160.488 365.034 161.766C365.044 162.974 364.783 164.911 364.282 167.577C363.78 169.913 363.238 171.331 362.647 171.81C361.734 172.619 360.831 173.178 359.919 173.368C359.728 173.428 358.936 173.688 357.532 174.207C356.148 174.686 355.165 174.986 354.523 175.046C349.609 176.284 346.349 177.302 344.765 178.131C343.712 178.7 343.04 178.959 342.689 178.84C342.338 178.85 341.866 178.4 341.245 177.452C340.292 176.104 339.65 174.077 339.329 171.301C339.068 168.516 339.138 165.45 339.58 162.125C339.911 159.839 340.031 157.622 340.001 155.456C340.001 154.078 340.081 152.88 340.201 151.901C340.382 150.893 340.693 149.545 341.144 147.917C341.947 145.151 342.498 142.436 342.829 139.72C343.08 137.533 343.421 135.227 343.932 132.691C344.223 131.233 344.815 129.466 345.677 127.339C346.54 125.272 347.252 123.904 347.804 123.265ZM375.414 115.188C376.547 112.811 377.831 112.402 379.295 114.039C380.84 115.837 382.033 120.15 382.815 126.8C383.237 130.174 383.608 132.681 383.959 134.368C384.31 135.926 384.881 137.883 385.674 140.139C386.556 142.605 387.078 144.952 387.248 147.268C387.439 149.255 387.89 151.691 388.632 154.507C389.645 157.952 390.036 160.658 389.706 162.764C389.395 164.811 388.442 166.059 386.817 166.539C385.935 166.768 385.283 166.788 384.751 166.569C384.25 166.309 383.538 165.65 382.575 164.602C381.492 163.304 380.79 162.615 380.418 162.505C380.088 162.455 379.446 162.834 378.543 163.713C377.299 164.711 376.347 165.031 375.675 164.612C374.842 164.082 374.16 164.032 373.649 164.472C373.137 164.851 372.515 165.969 371.783 167.817C369.978 172.41 368.414 173.089 367.09 169.913C366.719 169.025 366.468 168.136 366.418 167.148C366.297 165.49 366.618 160.887 367.471 153.379C367.882 149.874 368.213 147.208 368.524 145.441C368.845 143.574 369.276 141.757 369.828 139.959C370.78 136.934 371.533 133.479 372.094 129.506C373.228 122.207 374.341 117.414 375.414 115.188ZM378.342 139.72C378.001 136.684 377.701 135.217 377.39 135.307C377.099 135.386 376.708 137.064 376.206 140.339C375.885 142.136 375.855 143.314 376.096 144.043C376.337 144.692 376.848 144.912 377.681 144.672C378.453 144.443 378.854 144.223 378.834 144.033C378.663 142.585 378.523 141.158 378.342 139.72ZM395.352 105.413C398.401 101.229 402.513 101.049 407.688 105.003C408.821 105.782 409.633 106.211 410.155 106.171C410.687 106.002 411.238 106.341 411.83 107.18C412.452 107.949 412.843 108.877 412.983 109.856C413.414 113.131 413.083 116.655 411.95 120.419C410.997 123.764 410.095 125.751 409.333 126.37C408.55 127.009 407.778 126.4 406.986 124.493C406.314 122.916 406.003 121.698 405.983 120.869C405.943 119.721 405.441 118.702 404.428 117.813C403.476 116.865 402.513 116.555 401.62 116.855C400.477 117.125 399.845 117.414 399.705 117.734C399.514 118.532 399.654 119.541 400.196 120.759C400.718 122.027 401.47 123.205 402.463 124.353C403.476 125.422 404.499 126.171 405.501 126.63C406.484 126.999 407.327 127.818 408.119 129.066C408.861 130.204 409.694 130.993 410.616 131.463C411.419 131.862 412.211 133.04 412.983 135.077C414.518 139.36 415.129 143.764 414.758 148.227C414.427 152.62 413.194 156.165 411.088 158.84C410.065 160.178 408.921 160.987 407.748 161.227C406.555 161.426 404.097 161.337 400.457 160.797C397.598 160.408 395.542 159.709 394.389 158.641C393.206 157.512 392.323 155.506 391.701 152.62C391.17 149.914 390.899 148.067 390.869 146.939C390.829 145.591 390.959 144.033 391.28 142.236C391.591 140.409 391.882 139.091 392.203 138.422C392.694 137.633 393.216 137.224 393.848 137.144C394.489 137.084 394.911 137.403 395.161 138.122C395.773 139.979 396.355 141.527 397.017 142.815C397.639 144.103 398.13 144.732 398.401 144.662C398.822 144.512 399.805 145.171 401.329 146.579C403.014 148.007 404.288 148.626 405.251 148.367C405.903 148.257 406.374 148.087 406.565 147.837C406.725 147.648 406.805 146.999 406.775 146.03C406.755 144.363 406.324 143.045 405.562 142.096C404.799 141.158 403.556 140.499 401.841 140.089C398.822 139.31 396.285 137.304 394.239 134.059C392.183 130.754 391.12 126.959 391.029 122.776C390.879 115.257 392.323 109.466 395.352 105.413ZM416.824 102.367C417.326 101.878 419.853 101.119 424.467 100.081C429.07 99.0723 432.239 98.643 433.914 98.7428C435.639 98.9225 436.993 99.5016 437.936 100.42C438.919 101.359 439.641 102.777 440.162 104.664C441.105 108.478 441.677 111.473 441.867 113.6C442.108 115.707 442.018 117.813 441.627 119.94C441.316 121.518 440.965 122.596 440.563 123.115C440.002 123.595 439.4 123.664 438.718 123.375C438.096 123.115 437.093 122.446 435.699 121.428C433.021 119.521 431.567 118.682 431.357 118.682C431.006 118.742 430.825 120.18 430.845 122.906C430.815 125.602 430.614 128.677 430.233 132.211C429.943 134.668 429.792 136.475 429.812 137.543C429.792 138.582 429.912 140.578 430.193 143.484C430.554 147.148 430.645 149.774 430.504 151.332C430.324 152.86 429.882 154.178 429.07 155.216C428.528 156.025 427.867 156.564 427.084 156.863C426.312 157.113 425.68 157.063 425.219 156.684C424.457 155.995 423.875 153.459 423.494 148.986C423.073 144.522 423.042 140.059 423.333 135.726C423.654 130.005 423.825 126.49 423.865 125.172C423.895 123.235 423.855 121.757 423.724 120.709C423.594 119.561 423.434 118.892 423.223 118.752C423.052 118.712 422.511 118.922 421.628 119.411C420.485 120.16 419.282 120.32 418.018 119.92C416.784 119.431 415.912 118.572 415.39 117.264C414.778 115.837 414.488 114.149 414.457 112.112C414.437 110.095 414.718 108.068 415.31 106.141C415.872 104.125 416.373 102.847 416.824 102.367Z" fill="white"/>
<path d="M161.08 81.3313C161.08 81.3313 164.564 83.8568 167.071 79.9874C169.578 76.118 166.243 67.8611 162.003 65.9382C157.763 64.0153 156.788 69.4697 156.788 69.4697C156.788 69.4697 153.305 66.9442 149.125 67.469C144.945 67.9929 136.526 72.5189 136.586 74.9666C136.646 77.4133 139.274 78.4384 139.274 78.4384C139.274 78.4384 134.826 85.7254 139.205 89.4077C143.585 93.0902 152.352 80.8064 153.278 83.1877C154.204 85.569 147.484 88.4088 150.968 90.9344C154.451 93.4599 157.916 87.9074 157.916 87.9074C157.916 87.9074 162.216 86.352 161.08 81.3313Z" fill="white"/>
<path d="M154.325 81.4569C154.325 81.4569 145.228 87.6828 143.068 89.6793C140.788 91.7866 137.484 88.6016 139.493 86.6209C141.502 84.6403 146.757 80.833 146.757 80.833" stroke="#162250" stroke-width="1.4269" stroke-miterlimit="10" stroke-linejoin="round"/>
<path d="M143.142 76.3678C143.142 76.3678 132.606 82.7927 138.575 87.6399" stroke="#162250" stroke-width="1.4269" stroke-miterlimit="10" stroke-linejoin="round"/>
<path d="M244.965 63.7313C244.965 63.7313 183.464 65.8235 167.971 74.0822C167.971 74.0822 165.506 70.305 166.117 68.4024C166.727 66.4999 220.752 55.6492 244.938 59.1051L244.965 63.7313Z" fill="#162250"/>
<path d="M160.396 80.5417C160.396 80.5417 163.756 83.6633 167.094 81.0027C170.432 78.3432 167.557 68.5574 162.988 65.8041C158.419 63.0507 156.85 70.6946 156.85 70.6946" stroke="#162250" stroke-width="1.9025" stroke-miterlimit="10"/>
<path d="M409.113 80.9582C409.113 80.9582 405.629 83.4837 403.122 79.6143C400.615 75.7449 403.949 67.4881 408.19 65.5652C412.43 63.6423 413.404 69.0966 413.404 69.0966C413.404 69.0966 416.888 66.5711 421.068 67.096C425.247 67.6198 433.667 72.1458 433.607 74.5936C433.546 77.0403 430.919 78.0654 430.919 78.0654C430.919 78.0654 435.366 85.3523 430.987 89.0346C426.607 92.7172 417.84 80.4334 416.914 82.8147C415.988 85.1959 422.708 88.0358 419.225 90.5613C415.741 93.0868 412.277 87.5343 412.277 87.5343C412.277 87.5343 407.977 85.9789 409.113 80.9582Z" fill="white"/>
<path d="M415.867 81.0839C415.867 81.0839 424.964 87.3097 427.124 89.3063C429.405 91.4135 432.708 88.2286 430.699 86.2479C428.691 84.2672 423.435 80.4599 423.435 80.4599" stroke="#162250" stroke-width="1.4269" stroke-miterlimit="10" stroke-linejoin="round"/>
<path d="M427.05 75.9947C427.05 75.9947 437.587 82.4197 431.618 87.2668" stroke="#162250" stroke-width="1.4269" stroke-miterlimit="10" stroke-linejoin="round"/>
<path d="M325.227 63.3583C325.227 63.3583 386.728 65.4505 402.221 73.7092C402.221 73.7092 404.686 69.932 404.076 68.0294C403.465 66.1268 349.441 55.2762 325.254 58.732L325.227 63.3583Z" fill="#162250"/>
<path d="M409.797 80.1687C409.797 80.1687 406.436 83.2902 403.099 80.6296C399.761 77.9702 402.635 68.1844 407.204 65.431C411.773 62.6776 413.342 70.3216 413.342 70.3216" stroke="#162250" stroke-width="1.9025" stroke-miterlimit="10"/>
<path d="M286 15L292.176 23.0061L300.524 17.3003L303.924 26.8231L313.626 23.9762L313.917 34.0834L324.024 34.3741L321.177 44.0765L330.7 47.4762L324.994 55.824L333 62L324.994 68.176L330.7 76.5238L321.177 79.9235L324.024 89.6259L313.917 89.9166L313.626 100.024L303.924 97.1769L300.524 106.7L292.176 100.994L286 109L279.824 100.994L271.476 106.7L268.076 97.1769L258.374 100.024L258.083 89.9166L247.976 89.6259L250.823 79.9235L241.3 76.5238L247.006 68.176L239 62L247.006 55.824L241.3 47.4762L250.823 44.0765L247.976 34.3741L258.083 34.0834L258.374 23.9762L268.076 26.8231L271.476 17.3003L279.824 23.0061L286 15Z" fill="#6F2FB5"/>
<ellipse cx="272" cy="59" rx="8" ry="12" fill="white"/>
<ellipse cx="272" cy="62.5" rx="8" ry="8.5" fill="#2E281D"/>
<ellipse cx="300" cy="59" rx="8" ry="12" fill="white"/>
<ellipse cx="300" cy="62.5" rx="8" ry="8.5" fill="#2E281D"/>
<path d="M64 36L71.4164 61.1746L92.2137 45.1672L83.4164 69.8932L109.651 69.1672L88 84L109.651 98.8328L83.4164 98.1068L92.2137 122.833L71.4164 106.825L64 132L56.5836 106.825L35.7863 122.833L44.5836 98.1068L18.3493 98.8328L40 84L18.3493 69.1672L44.5836 69.8932L35.7863 45.1672L56.5836 61.1746L64 36Z" fill="white"/>
<path d="M508 36L515.416 61.1746L536.214 45.1672L527.416 69.8932L553.651 69.1672L532 84L553.651 98.8328L527.416 98.1068L536.214 122.833L515.416 106.825L508 132L500.584 106.825L479.786 122.833L488.584 98.1068L462.349 98.8328L484 84L462.349 69.1672L488.584 69.8932L479.786 45.1672L500.584 61.1746L508 36Z" fill="white"/>
</svg>
