<svg width="257" height="257" viewBox="0 0 257 257" fill="none" xmlns="http://www.w3.org/2000/svg">
<path d="M128.629 0.119141L145.449 21.9229L168.183 6.3839L177.442 32.3181L203.865 24.565L204.657 52.091L232.183 52.8826L224.43 79.3061L250.364 88.565L234.825 111.299L256.629 128.119L234.825 144.939L250.364 167.673L224.43 176.932L232.183 203.356L204.657 204.147L203.865 231.673L177.442 223.92L168.183 249.854L145.449 234.315L128.629 256.119L111.809 234.315L89.0747 249.854L79.8158 223.92L53.3924 231.673L52.6008 204.147L25.0747 203.356L32.8279 176.932L6.89367 167.673L22.4327 144.939L0.628906 128.119L22.4327 111.299L6.89367 88.565L32.8279 79.3061L25.0747 52.8826L52.6008 52.091L53.3924 24.565L79.8158 32.3181L89.0747 6.3839L111.809 21.9229L128.629 0.119141Z" fill="#6F2FB5"/>
<ellipse cx="90.5099" cy="119.948" rx="21.7872" ry="32.6809" fill="#FBF5EE"/>
<ellipse cx="90.5099" cy="129.495" rx="21.7872" ry="23.1489" fill="#2E281D"/>
<ellipse cx="166.776" cy="119.948" rx="21.7872" ry="32.6809" fill="#FBF5EE"/>
<ellipse cx="166.776" cy="129.495" rx="21.7872" ry="23.1489" fill="#2E281D"/>
</svg>
