<svg width="424" height="160" viewBox="0 0 424 160" fill="none" xmlns="http://www.w3.org/2000/svg">
<path d="M104.119 78.1078C104.572 77.775 105.211 77.6862 105.998 77.8785C106.823 78.0708 107.38 78.3814 107.737 78.8916C108.108 79.3945 108.531 80.2597 109.007 81.4577C109.326 82.3082 109.638 82.7962 109.802 82.9145C109.973 83.0477 110.314 83.0329 110.864 82.8554C111.615 82.6631 112.172 82.8406 112.617 83.3804C113.048 83.9203 113.457 84.9482 113.739 86.5233C114.163 88.5865 114.185 90.7755 113.784 93.0975C113.405 95.4344 112.669 97.5567 111.615 99.509C110.931 100.825 110.225 101.646 109.52 101.994C108.851 102.304 108.257 102.068 107.774 101.373C107.075 100.463 106.83 98.385 107.068 95.2347C107.15 94.1107 107.172 93.4081 107.105 93.0975C107.053 92.7352 106.905 92.3654 106.637 91.9883C106.221 91.5002 105.746 91.3375 105.129 91.5076C104.505 91.7738 103.992 91.8552 103.569 91.7516C103.346 91.7368 103.16 91.8773 103.079 92.1288C102.997 92.3654 102.915 92.8831 102.878 93.7113C102.789 95.035 102.856 96.1517 103.079 97.0465C103.264 97.9339 103.688 98.9248 104.304 100.027C105.055 101.506 105.671 102.807 106.08 103.924C106.451 104.878 106.689 105.462 106.86 105.684C107.046 105.884 107.313 105.861 107.655 105.684C108.101 105.462 108.635 105.299 109.245 105.196C109.705 105.151 110.411 104.175 111.28 102.253C111.934 100.722 112.647 99.5312 113.397 98.7178C114.178 97.8969 114.876 97.6011 115.463 97.8008C115.998 97.9487 116.414 98.6956 116.681 100.019C117.015 101.313 117.142 102.94 117.127 104.885C117.097 106.579 116.971 107.925 116.703 108.96C116.481 109.966 116.035 111.023 115.366 112.125C114.675 113.316 113.561 114.854 112.083 116.74C111.147 117.923 110.025 118.381 108.68 118.041C107.313 117.738 106.05 116.754 104.869 115.053C104.364 114.38 103.665 113.855 102.7 113.449C101.296 112.813 100.062 111.127 99.0149 108.42C97.9897 105.684 97.4548 102.763 97.4548 99.7679C97.44 97.7934 97.232 95.7597 96.8308 93.6965C96.4593 91.833 96.2959 90.354 96.2959 89.1929C96.2959 88.0615 96.4668 86.7452 96.8011 85.2736C97.3582 83.0033 98.1309 81.2211 99.1264 79.9269C100.159 78.618 101.154 78.1004 102.217 78.3962C103.056 78.5663 103.703 78.4553 104.119 78.1078ZM119.593 84.889C120.173 84.1347 120.708 83.8611 121.176 84.0608C121.607 84.2752 122.141 84.9926 122.647 86.2275C123.687 88.7123 124.296 91.9291 124.452 95.8411C124.489 98.0892 124.779 100.84 125.299 104.027C125.834 107.229 126.331 109.374 126.837 110.498C127.394 111.674 128.077 112.428 128.924 112.731C129.786 113.027 130.44 112.761 130.885 111.888C131.175 111.304 131.48 110.232 131.777 108.686C132.089 107.104 132.215 105.935 132.171 105.166C132.133 104.678 132.096 104.116 132.104 103.458C132.119 103.17 131.963 102.519 131.628 101.41C131.405 100.714 131.012 99.62 130.44 98.03C129.348 95.1534 128.798 93.2232 128.813 92.2027C128.828 90.2283 129.095 88.7271 129.593 87.7361C130.098 86.723 130.729 86.479 131.45 86.9448C131.762 87.1741 132.178 87.884 132.735 89.0376C133.196 90.0064 133.976 92.0105 135.172 95.0424C135.692 96.3661 136.405 98.2593 137.267 100.692C137.891 102.46 138.262 103.569 138.344 104.027C138.619 105.307 138.768 106.815 138.775 108.575C138.782 110.284 138.686 111.844 138.47 113.227C138.121 115.135 137.713 116.629 137.208 117.745C136.717 118.818 135.997 119.749 135.068 120.615C133.864 121.716 133.07 122.522 132.713 123.129C131.844 124.356 130.767 124.83 129.489 124.623C128.218 124.371 127.007 123.506 125.93 121.983C124.823 120.422 123.865 119.18 123.048 118.233C122.439 117.486 121.985 116.799 121.688 116.133C121.399 115.475 121.027 114.344 120.604 112.694C119.311 107.799 118.672 102.866 118.732 97.9561C118.754 95.3826 118.672 93.1049 118.472 91.1157C118.278 89.474 118.249 88.2242 118.405 87.3516C118.576 86.5011 118.969 85.6877 119.593 84.889ZM146.895 92.2175C147.244 92.0622 147.697 92.1805 148.254 92.5577C148.819 92.9127 149.265 93.3638 149.577 93.9849C149.792 94.3843 149.956 94.8354 150.037 95.3456C150.119 95.8115 150.141 96.5066 150.134 97.4458C150.089 100.441 149.495 103.073 148.306 105.314C147.653 106.608 147.058 108.745 146.538 111.718C145.996 114.684 145.766 116.34 145.87 116.599C145.944 116.828 146.657 117.272 147.994 117.938C149.495 118.67 150.676 119.402 151.605 120.141C153.113 121.302 153.871 121.406 153.878 120.489C153.901 120.289 153.878 119.979 153.804 119.587C153.633 118.662 153.536 117.109 153.581 115.009C153.64 112.916 153.782 111.4 154.005 110.454C154.242 109.374 154.599 108.782 155.052 108.672C155.498 108.501 155.958 108.731 156.389 109.33C156.85 109.943 157.273 110.905 157.63 112.229C158.024 113.478 158.246 114.906 158.336 116.436C158.417 117.767 158.715 119.52 159.205 121.746C159.576 123.402 159.762 124.674 159.732 125.562C159.732 126.442 159.509 127.684 159.064 129.348C158.655 130.79 158.202 131.567 157.734 131.648C157.036 131.862 156.33 131.862 155.609 131.611C155.468 131.581 154.837 131.433 153.752 131.189C152.69 130.968 151.902 130.731 151.412 130.531C147.578 129.333 145.053 128.705 143.804 128.638C143.024 128.623 142.475 128.483 142.192 128.283C141.925 128.12 141.568 127.61 141.123 126.738C140.38 125.384 139.904 123.713 139.733 121.687C139.518 119.668 139.652 117.59 140.038 115.475C140.298 114.026 140.439 112.547 140.454 111.068C140.461 110.114 140.528 109.33 140.647 108.731C140.796 108.102 141.056 107.303 141.42 106.379C142.081 104.804 142.542 103.155 142.824 101.432C143.039 100.071 143.344 98.6364 143.738 97.1056C144.012 96.233 144.488 95.2643 145.164 94.1402C145.862 93.0753 146.464 92.4172 146.895 92.2175ZM162.644 96.0629C163.038 95.9594 165.066 96.4845 168.684 97.6011C172.347 98.6808 174.806 99.5238 176.106 100.182C177.458 100.84 178.483 101.617 179.174 102.46C179.895 103.281 180.378 104.308 180.652 105.558C181.21 108.028 181.514 109.929 181.566 111.26C181.626 112.539 181.44 113.811 181.031 115.031C180.742 115.963 180.43 116.54 180.103 116.784C179.642 116.991 179.174 116.902 178.699 116.577C178.223 116.274 177.465 115.593 176.47 114.617C174.516 112.702 173.431 111.718 173.261 111.674C172.993 111.6 172.807 112.443 172.711 114.173C172.57 115.874 172.302 117.79 171.871 119.964C171.567 121.495 171.396 122.626 171.359 123.343C171.322 124.046 171.374 125.421 171.5 127.44C171.678 130.065 171.693 131.899 171.544 132.942C171.374 133.97 171.017 134.783 170.415 135.331C169.969 135.752 169.457 135.944 168.848 135.915C168.261 135.863 167.77 135.634 167.429 135.212C166.879 134.473 166.493 132.484 166.27 129.215C166.062 125.976 166.136 122.951 166.53 120.141C166.961 116.451 167.198 114.218 167.265 113.367C167.377 112.125 167.369 111.156 167.31 110.446C167.265 109.64 167.161 109.145 167.013 109.004C166.872 108.908 166.463 108.849 165.765 108.886C164.858 108.945 163.915 108.59 162.956 107.865C162.006 107.096 161.374 106.216 161.04 105.174C160.601 104.035 160.423 102.778 160.483 101.484C160.535 100.152 160.839 98.9766 161.352 97.9413C161.857 96.8394 162.28 96.2256 162.644 96.0629ZM202.256 129.784C201.714 132.89 201.424 134.547 201.342 134.798C201.119 135.382 200.896 135.959 200.629 136.529C200.116 137.497 199.596 138.451 199.062 139.405C197.732 141.809 196.38 143.014 195.117 143.073C194.73 143.073 194.389 142.985 194.054 142.814C193.705 142.622 193.304 142.349 192.858 141.986C192.427 141.572 192.16 141.343 192.041 141.261C191.112 140.626 190.176 139.96 189.255 139.294C189.107 139.183 188.847 139.021 188.468 138.792C188.111 138.57 187.836 138.385 187.628 138.252C187.398 138.126 187.145 137.904 186.841 137.616C186.521 137.305 186.269 136.995 186.024 136.647C184.813 134.828 183.951 131.463 183.438 126.59C183.163 124.031 182.896 121.495 182.651 118.958C182.443 116.85 182.272 114.75 182.086 112.672C181.975 111.526 182.22 110.003 182.77 108.08C183.312 106.142 183.899 104.7 184.478 103.68C185.526 101.964 187.108 100.958 189.144 100.677C190.422 100.626 191.528 100.803 192.531 101.195C193.519 101.58 194.262 102.046 194.797 102.637C195.332 103.258 195.845 103.865 196.402 104.486C198.029 106.401 198.965 107.88 199.203 108.856C199.366 109.685 199.485 111.001 199.567 112.894C199.678 114.728 199.634 116.155 199.515 117.235C199.388 118.418 198.854 120.03 197.903 122.034C196.959 124.038 195.956 125.843 194.894 127.455C193.861 129.015 193.074 129.844 192.561 129.962C192.353 129.999 192.219 130.021 192.034 130.058C192.056 130.206 192.153 130.354 192.19 130.494C192.591 131.47 193.43 131.456 194.738 130.42C196.03 129.311 197.056 127.839 197.895 125.969C198.475 124.586 199.002 123.61 199.418 123.011C199.879 122.412 200.347 122.204 200.867 122.382C201.372 122.515 201.899 123.166 202.427 124.371C202.479 124.408 202.509 124.497 202.561 124.637C202.598 124.734 202.65 124.793 202.665 124.837C202.694 124.889 202.724 124.963 202.739 125.044C202.806 125.14 202.828 125.207 202.858 125.31C202.873 125.362 202.895 125.451 202.902 125.584C202.925 125.673 202.925 125.776 202.932 125.932C202.954 126.006 202.947 126.102 202.954 126.235C202.932 126.945 202.761 128.054 202.367 129.555C202.323 129.703 202.293 129.784 202.256 129.784ZM192.635 117.716C192.583 117.272 192.227 116.954 191.499 116.725C190.808 116.451 190.288 116.458 189.931 116.769C189.277 117.287 189.01 118.359 189.166 120.089C189.292 121.11 189.508 121.672 189.864 121.753C190.407 121.886 191.023 121.465 191.714 120.518C192.413 119.587 192.732 118.662 192.635 117.716ZM214.165 106.024C214.276 105.736 214.878 105.595 215.97 105.558C216.653 105.566 217.211 105.662 217.641 105.891C218.087 106.157 218.719 106.704 219.484 107.503C220.554 108.575 221.334 109.692 221.861 110.772C222.374 111.837 222.812 113.219 223.146 114.92C223.666 117.597 223.741 120.119 223.369 122.463C223.013 124.785 222.188 126.797 220.94 128.483C220.494 129.104 220.048 129.71 219.588 130.295C219.967 131.138 220.346 131.981 220.71 132.794C221.445 134.362 221.995 135.604 222.359 136.536C222.73 137.483 223.02 138.414 223.213 139.302C223.421 140.189 223.503 140.966 223.444 141.713C223.369 142.386 223.228 143.132 222.961 143.931C222.455 145.595 221.616 146.142 220.45 145.551C219.291 144.87 218.028 143.192 216.698 140.463C215.673 138.437 215.019 137.216 214.633 136.751C214.261 136.27 213.756 136.018 213.132 135.981C212.597 135.959 212.285 136.004 212.226 136.159C212.181 136.225 212.226 136.64 212.411 137.416C212.961 139.457 213.028 141.417 212.634 143.303C212.27 145.129 211.609 146.009 210.68 145.92C210.012 145.802 209.224 145.166 208.34 144.035C207.434 142.888 206.862 141.75 206.528 140.618C206.26 139.612 205.859 137.224 205.309 133.467C204.752 129.74 204.381 126.545 204.136 123.854C203.497 117.094 204.388 111.822 206.795 107.925C207.293 107.089 207.724 106.616 208.103 106.431C208.385 106.342 209.314 106.342 210.918 106.386C212.954 106.46 214.038 106.335 214.165 106.024ZM217.485 117.161C217.136 116.71 216.735 116.547 216.245 116.68C215.747 116.91 214.685 117.486 213.065 118.396C211.676 119.165 210.859 119.683 210.606 119.956C210.339 120.289 210.212 120.807 210.212 121.531C210.205 122.241 210.264 122.693 210.398 122.818C210.48 123.003 210.822 123.07 211.401 123.033C212.211 122.84 213.11 122.286 214.135 121.369C215.227 120.252 216.119 119.564 216.795 119.402C217.954 118.928 218.176 118.167 217.485 117.161ZM233.02 103.044C233.636 102.467 234.691 102.097 236.207 101.853C237.276 101.654 238.019 101.646 238.443 101.831C238.881 102.001 239.557 102.541 240.449 103.443C241.712 104.804 242.417 105.706 242.566 106.187C242.737 106.778 242.893 108.043 243.064 109.943C243.168 110.949 243.257 111.962 243.353 112.931C243.762 112.998 244.171 113.064 244.594 113.101C245.352 113.264 246.043 113.722 246.682 114.462C247.32 115.15 247.766 115.97 248.034 116.969C248.294 117.974 248.554 118.551 248.851 118.677C249.185 118.891 249.505 119.882 249.802 121.613C250.121 123.351 250.262 125.096 250.27 126.863C250.277 128.12 250.262 129.148 250.158 129.954C250.062 130.724 249.891 131.596 249.609 132.617C249.066 134.628 248.457 136.152 247.714 137.209C247.023 138.252 246.013 139.132 244.691 139.871C243.368 140.589 241.377 141.335 238.732 142.112C236.192 142.77 234.535 143.155 233.8 143.236C233.086 143.303 232.604 143.14 232.344 142.763C231.749 141.764 231.363 139.923 231.133 137.239C230.925 134.562 230.939 131.286 231.185 127.462C231.318 125.185 231.251 122.079 231.014 118.13C230.746 114.27 230.694 111.615 230.806 110.106C230.902 108.538 231.162 107.126 231.571 105.832C232.002 104.508 232.455 103.539 233.02 103.044ZM236.808 110.077C236.526 109.921 236.058 109.921 235.397 110.106C234.751 110.313 234.394 110.498 234.305 110.735C234.164 111.09 234.141 111.644 234.171 112.347C234.245 113.012 234.357 113.434 234.557 113.604C234.788 113.818 235.1 113.863 235.516 113.767C235.932 113.678 236.333 113.478 236.704 113.146C236.994 112.887 237.158 112.332 237.18 111.578C237.217 110.757 237.098 110.247 236.808 110.077ZM243.145 126.161C243.004 125.843 241.897 125.821 239.877 126.102C237.856 126.331 236.675 126.619 236.37 126.989C236.192 127.167 235.976 127.921 235.724 129.289C235.568 130.243 235.493 130.82 235.508 131.086C235.545 131.337 235.694 131.589 235.976 131.848C236.392 132.269 237.596 131.951 239.609 130.894C241.622 129.77 242.752 128.801 243.034 128.01C243.272 127.211 243.316 126.612 243.145 126.161ZM257.632 97.2314C257.974 96.8764 258.397 96.7507 258.925 96.869C259.459 96.9356 259.89 97.2018 260.195 97.6973C260.41 98.0152 260.566 98.4072 260.626 98.9174C260.73 99.3685 260.76 100.115 260.76 101.129C260.767 104.375 260.269 107.51 259.207 110.572C258.613 112.332 258.078 114.92 257.654 118.396C257.194 121.864 257.03 123.743 257.112 123.979C257.194 124.157 257.877 124.245 259.125 124.201C260.581 124.164 261.718 124.275 262.602 124.549C264.058 124.933 264.771 124.623 264.764 123.632C264.764 123.417 264.749 123.121 264.645 122.737C264.474 121.849 264.392 120.267 264.377 118.019C264.392 115.763 264.489 114.085 264.675 112.961C264.86 111.689 265.195 110.853 265.611 110.469C266.034 110.062 266.487 110.054 266.918 110.417C267.356 110.831 267.765 111.622 268.144 112.828C268.515 113.944 268.79 115.334 268.894 116.887C268.998 118.241 269.303 119.986 269.801 122.012C270.202 123.565 270.38 124.8 270.395 125.747C270.402 126.641 270.209 128.076 269.838 130.051C269.466 131.781 269.065 132.831 268.627 133.186C267.951 133.785 267.282 134.199 266.606 134.34C266.465 134.384 265.878 134.576 264.838 134.961C263.813 135.316 263.085 135.538 262.609 135.582C258.969 136.499 256.555 137.253 255.381 137.867C254.601 138.289 254.103 138.481 253.843 138.392C253.583 138.4 253.234 138.067 252.773 137.364C252.068 136.366 251.592 134.865 251.354 132.809C251.161 130.746 251.213 128.475 251.54 126.013C251.785 124.319 251.874 122.678 251.852 121.073C251.852 120.052 251.912 119.165 252.001 118.44C252.134 117.693 252.365 116.695 252.699 115.49C253.293 113.441 253.702 111.43 253.947 109.418C254.133 107.799 254.385 106.091 254.764 104.212C254.98 103.133 255.418 101.824 256.057 100.249C256.696 98.7178 257.223 97.7046 257.632 97.2314ZM278.084 91.2488C278.923 89.4887 279.874 89.1855 280.959 90.3983C282.103 91.7294 282.987 94.9241 283.567 99.8492C283.879 102.349 284.153 104.205 284.414 105.455C284.674 106.608 285.097 108.058 285.684 109.729C286.338 111.556 286.724 113.293 286.85 115.009C286.991 116.481 287.326 118.285 287.875 120.37C288.626 122.922 288.915 124.926 288.67 126.486C288.44 128.002 287.734 128.927 286.531 129.282C285.877 129.452 285.394 129.466 285 129.304C284.629 129.111 284.101 128.623 283.388 127.847C282.586 126.886 282.066 126.375 281.791 126.294C281.546 126.257 281.07 126.538 280.402 127.189C279.481 127.928 278.775 128.165 278.277 127.854C277.661 127.462 277.155 127.425 276.776 127.751C276.398 128.032 275.937 128.86 275.395 130.228C274.057 133.63 272.899 134.133 271.918 131.781C271.643 131.123 271.457 130.465 271.42 129.733C271.331 128.505 271.569 125.096 272.2 119.535C272.505 116.939 272.75 114.965 272.98 113.656C273.218 112.273 273.537 110.927 273.946 109.596C274.652 107.355 275.209 104.796 275.625 101.853C276.464 96.4475 277.289 92.8979 278.084 91.2488ZM280.253 109.418C280.001 107.17 279.778 106.083 279.548 106.15C279.332 106.209 279.042 107.451 278.671 109.877C278.433 111.208 278.411 112.081 278.589 112.62C278.767 113.101 279.146 113.264 279.763 113.086C280.335 112.916 280.632 112.754 280.617 112.613C280.491 111.541 280.387 110.483 280.253 109.418ZM292.853 84.009C295.111 80.9105 298.157 80.7774 301.991 83.7058C302.83 84.2826 303.432 84.6006 303.818 84.571C304.212 84.4453 304.62 84.6968 305.059 85.3179C305.519 85.8874 305.809 86.5751 305.913 87.2998C306.233 89.7254 305.987 92.3358 305.148 95.1238C304.442 97.6011 303.774 99.0727 303.209 99.5312C302.629 100.005 302.057 99.5534 301.471 98.141C300.973 96.9725 300.742 96.0703 300.728 95.4566C300.698 94.6061 300.326 93.8518 299.576 93.1937C298.87 92.4911 298.157 92.2619 297.496 92.4837C296.649 92.6834 296.181 92.8979 296.077 93.1345C295.936 93.7261 296.04 94.473 296.441 95.3752C296.827 96.3144 297.385 97.187 298.12 98.0374C298.87 98.8287 299.628 99.3833 300.371 99.7235C301.099 99.9971 301.723 100.604 302.31 101.528C302.86 102.371 303.476 102.955 304.16 103.303C304.754 103.599 305.341 104.471 305.913 105.98C307.05 109.152 307.503 112.413 307.228 115.719C306.983 118.973 306.069 121.598 304.509 123.58C303.751 124.571 302.904 125.17 302.035 125.347C301.151 125.495 299.331 125.429 296.634 125.029C294.517 124.741 292.994 124.223 292.14 123.432C291.263 122.596 290.609 121.11 290.149 118.973C289.755 116.969 289.554 115.601 289.532 114.765C289.502 113.767 289.599 112.613 289.837 111.282C290.067 109.929 290.282 108.953 290.52 108.457C290.884 107.873 291.27 107.57 291.739 107.51C292.214 107.466 292.526 107.703 292.712 108.235C293.165 109.611 293.596 110.757 294.086 111.711C294.547 112.665 294.911 113.131 295.111 113.079C295.423 112.968 296.151 113.456 297.281 114.499C298.529 115.556 299.472 116.015 300.185 115.823C300.668 115.741 301.017 115.615 301.159 115.431C301.277 115.29 301.337 114.809 301.315 114.092C301.3 112.857 300.98 111.881 300.416 111.178C299.851 110.483 298.93 109.995 297.659 109.692C295.423 109.115 293.544 107.629 292.028 105.225C290.505 102.778 289.718 99.9675 289.651 96.869C289.54 91.3005 290.609 87.0114 292.853 84.009ZM308.758 81.7535C309.13 81.3912 311.002 80.8291 314.419 80.0601C317.829 79.3132 320.177 78.9952 321.417 79.0691C322.695 79.2022 323.698 79.6311 324.396 80.3115C325.125 81.0066 325.659 82.0567 326.046 83.4544C326.744 86.2793 327.168 88.4978 327.309 90.073C327.487 91.6333 327.42 93.1937 327.13 94.7688C326.9 95.9372 326.64 96.7359 326.343 97.1204C325.927 97.4754 325.481 97.5272 324.976 97.3127C324.515 97.1204 323.772 96.625 322.74 95.8707C320.756 94.4582 319.679 93.837 319.523 93.837C319.263 93.8814 319.129 94.9463 319.144 96.9651C319.122 98.9618 318.973 101.239 318.691 103.857C318.476 105.677 318.364 107.015 318.379 107.806C318.364 108.575 318.453 110.054 318.661 112.206C318.929 114.92 318.996 116.865 318.892 118.019C318.758 119.15 318.431 120.126 317.829 120.896C317.428 121.495 316.938 121.894 316.358 122.116C315.786 122.301 315.318 122.264 314.976 121.983C314.412 121.472 313.981 119.594 313.699 116.281C313.387 112.975 313.364 109.67 313.58 106.46C313.818 102.223 313.944 99.62 313.974 98.6438C313.996 97.2092 313.966 96.1147 313.87 95.3382C313.773 94.4878 313.654 93.9923 313.498 93.8888C313.372 93.8592 312.971 94.0145 312.317 94.3769C311.47 94.9315 310.579 95.0498 309.642 94.754C308.729 94.3917 308.082 93.7557 307.696 92.7869C307.243 91.7294 307.027 90.4797 307.005 88.9711C306.99 87.4773 307.198 85.9761 307.637 84.5489C308.053 83.0551 308.424 82.1085 308.758 81.7535Z" fill="#2E281D"/>
<path d="M104.119 72.182C104.572 71.8492 105.211 71.7605 105.998 71.9528C106.823 72.145 107.38 72.4557 107.737 72.966C108.108 73.4689 108.531 74.3343 109.007 75.5324C109.326 76.383 109.638 76.8711 109.802 76.9895C109.973 77.1226 110.314 77.1078 110.864 76.9303C111.615 76.738 112.172 76.9155 112.617 77.4554C113.048 77.9953 113.457 79.0234 113.739 80.5987C114.163 82.6622 114.185 84.8514 113.784 87.1738C113.405 89.5109 112.669 91.6336 111.615 93.5862C110.931 94.9027 110.225 95.7236 109.52 96.0712C108.851 96.3819 108.257 96.1452 107.774 95.45C107.075 94.5402 106.83 92.462 107.068 89.3112C107.15 88.1871 107.172 87.4844 107.105 87.1738C107.053 86.8114 106.905 86.4416 106.637 86.0644C106.221 85.5763 105.746 85.4135 105.129 85.5836C104.505 85.8499 103.992 85.9313 103.569 85.8277C103.346 85.8129 103.16 85.9534 103.079 86.2049C102.997 86.4416 102.915 86.9593 102.878 87.7877C102.789 89.1116 102.856 90.2284 103.079 91.1233C103.264 92.0108 103.688 93.0019 104.304 94.1039C105.055 95.5831 105.671 96.8848 106.08 98.0016C106.451 98.9557 106.689 99.54 106.86 99.7619C107.046 99.9615 107.313 99.9394 107.655 99.7619C108.101 99.54 108.635 99.3773 109.245 99.2737C109.705 99.2293 110.411 98.2531 111.28 96.3301C111.934 94.7991 112.647 93.6083 113.397 92.7948C114.178 91.9738 114.876 91.678 115.463 91.8777C115.998 92.0256 116.414 92.7726 116.681 94.0965C117.015 95.3908 117.142 97.0179 117.127 98.9631C117.097 100.657 116.971 102.003 116.703 103.038C116.481 104.044 116.035 105.102 115.366 106.204C114.675 107.395 113.561 108.933 112.083 110.819C111.147 112.002 110.025 112.461 108.68 112.121C107.313 111.817 106.05 110.834 104.869 109.133C104.364 108.46 103.665 107.934 102.7 107.528C101.296 106.892 100.062 105.205 99.0149 102.498C97.9897 99.7619 97.4548 96.8404 97.4548 93.845C97.44 91.8703 97.232 89.8364 96.8308 87.7729C96.4593 85.9091 96.2959 84.4299 96.2959 83.2687C96.2959 82.1371 96.4668 80.8206 96.8011 79.3488C97.3582 77.0782 98.1309 75.2958 99.1264 74.0015C100.159 72.6924 101.154 72.1746 102.217 72.4705C103.056 72.6406 103.703 72.5296 104.119 72.182ZM119.593 78.9642C120.173 78.2098 120.708 77.9361 121.176 78.1358C121.607 78.3503 122.141 79.0677 122.647 80.3029C123.687 82.7879 124.296 86.0052 124.452 89.9177C124.489 92.1661 124.779 94.9174 125.299 98.1051C125.834 101.308 126.331 103.452 126.837 104.577C127.394 105.753 128.077 106.507 128.924 106.81C129.786 107.106 130.44 106.84 130.885 105.967C131.175 105.383 131.48 104.31 131.777 102.765C132.089 101.182 132.215 100.013 132.171 99.2441C132.133 98.756 132.096 98.1939 132.104 97.5356C132.119 97.2472 131.963 96.5963 131.628 95.4869C131.405 94.7917 131.012 93.6971 130.44 92.107C129.348 89.2299 128.798 87.2995 128.813 86.2789C128.828 84.3041 129.095 82.8027 129.593 81.8117C130.098 80.7984 130.729 80.5543 131.45 81.0203C131.762 81.2496 132.178 81.9596 132.735 83.1134C133.196 84.0823 133.976 86.0866 135.172 89.119C135.692 90.4428 136.405 92.3362 137.267 94.7695C137.891 96.5372 138.262 97.6466 138.344 98.1051C138.619 99.3847 138.768 100.893 138.775 102.654C138.782 104.362 138.686 105.923 138.47 107.306C138.121 109.214 137.713 110.708 137.208 111.825C136.717 112.897 135.997 113.829 135.068 114.694C133.864 115.796 133.07 116.603 132.713 117.209C131.844 118.437 130.767 118.91 129.489 118.703C128.218 118.452 127.007 117.586 125.93 116.063C124.823 114.502 123.865 113.26 123.048 112.313C122.439 111.566 121.985 110.878 121.688 110.212C121.399 109.554 121.027 108.423 120.604 106.773C119.311 101.877 118.672 96.944 118.732 92.033C118.754 89.4592 118.672 87.1812 118.472 85.1917C118.278 83.5497 118.249 82.2998 118.405 81.4271C118.576 80.5765 118.969 79.763 119.593 78.9642ZM146.895 86.2937C147.244 86.1383 147.697 86.2567 148.254 86.6339C148.819 86.9889 149.265 87.4401 149.577 88.0613C149.792 88.4607 149.956 88.9119 150.037 89.4222C150.119 89.8881 150.141 90.5834 150.134 91.5227C150.089 94.5181 149.495 97.1511 148.306 99.392C147.653 100.686 147.058 102.824 146.538 105.797C145.996 108.763 145.766 110.42 145.87 110.678C145.944 110.908 146.657 111.351 147.994 112.017C149.495 112.749 150.676 113.481 151.605 114.221C153.113 115.382 153.871 115.486 153.878 114.569C153.901 114.369 153.878 114.058 153.804 113.666C153.633 112.742 153.536 111.189 153.581 109.088C153.64 106.995 153.782 105.479 154.005 104.532C154.242 103.452 154.599 102.861 155.052 102.75C155.498 102.58 155.958 102.809 156.389 103.408C156.85 104.022 157.273 104.983 157.63 106.307C158.024 107.557 158.246 108.985 158.336 110.516C158.417 111.847 158.715 113.6 159.205 115.826C159.576 117.483 159.762 118.755 159.732 119.642C159.732 120.523 159.509 121.765 159.064 123.429C158.655 124.871 158.202 125.648 157.734 125.729C157.036 125.944 156.33 125.944 155.609 125.692C155.468 125.663 154.837 125.515 153.752 125.271C152.69 125.049 151.902 124.812 151.412 124.613C147.578 123.414 145.053 122.786 143.804 122.719C143.024 122.704 142.475 122.564 142.192 122.364C141.925 122.201 141.568 121.691 141.123 120.818C140.38 119.465 139.904 117.793 139.733 115.767C139.518 113.748 139.652 111.669 140.038 109.554C140.298 108.105 140.439 106.625 140.454 105.146C140.461 104.192 140.528 103.408 140.647 102.809C140.796 102.18 141.056 101.382 141.42 100.457C142.081 98.8817 142.542 97.2324 142.824 95.5091C143.039 94.1483 143.344 92.7134 143.738 91.1824C144.012 90.3097 144.488 89.3408 145.164 88.2166C145.862 87.1516 146.464 86.4934 146.895 86.2937ZM162.644 90.1396C163.038 90.0361 165.066 90.5612 168.684 91.678C172.347 92.7578 174.806 93.601 176.106 94.2592C177.458 94.9174 178.483 95.694 179.174 96.5372C179.895 97.3581 180.378 98.3862 180.652 99.6361C181.21 102.106 181.514 104.007 181.566 105.338C181.626 106.618 181.44 107.89 181.031 109.11C180.742 110.042 180.43 110.619 180.103 110.863C179.642 111.07 179.174 110.982 178.699 110.656C178.223 110.353 177.465 109.673 176.47 108.696C174.516 106.781 173.431 105.797 173.261 105.753C172.993 105.679 172.807 106.522 172.711 108.253C172.57 109.954 172.302 111.869 171.871 114.044C171.567 115.575 171.396 116.706 171.359 117.424C171.322 118.126 171.374 119.502 171.5 121.521C171.678 124.147 171.693 125.981 171.544 127.024C171.374 128.052 171.017 128.865 170.415 129.413C169.969 129.834 169.457 130.026 168.848 129.997C168.261 129.945 167.77 129.716 167.429 129.294C166.879 128.555 166.493 126.565 166.27 123.296C166.062 120.057 166.136 117.032 166.53 114.221C166.961 110.53 167.198 108.297 167.265 107.446C167.377 106.204 167.369 105.235 167.31 104.525C167.265 103.719 167.161 103.223 167.013 103.083C166.872 102.987 166.463 102.927 165.765 102.964C164.858 103.024 163.915 102.668 162.956 101.944C162.006 101.174 161.374 100.294 161.04 99.2515C160.601 98.1125 160.423 96.8552 160.483 95.5609C160.535 94.2296 160.839 93.0536 161.352 92.0182C161.857 90.9162 162.28 90.3023 162.644 90.1396ZM202.256 123.866C201.714 126.972 201.424 128.629 201.342 128.88C201.119 129.464 200.896 130.041 200.629 130.611C200.116 131.58 199.596 132.534 199.062 133.488C197.732 135.891 196.38 137.097 195.117 137.156C194.73 137.156 194.389 137.067 194.054 136.897C193.705 136.705 193.304 136.431 192.858 136.069C192.427 135.655 192.16 135.426 192.041 135.344C191.112 134.708 190.176 134.042 189.255 133.377C189.107 133.266 188.847 133.103 188.468 132.874C188.111 132.652 187.836 132.467 187.628 132.334C187.398 132.208 187.145 131.986 186.841 131.698C186.521 131.387 186.269 131.077 186.024 130.729C184.813 128.91 183.951 125.544 183.438 120.67C183.163 118.111 182.896 115.575 182.651 113.038C182.443 110.93 182.272 108.829 182.086 106.751C181.975 105.605 182.22 104.081 182.77 102.158C183.312 100.22 183.899 98.7782 184.478 97.7575C185.526 96.0416 187.108 95.0358 189.144 94.7547C190.422 94.703 191.528 94.8805 192.531 95.2725C193.519 95.657 194.262 96.123 194.797 96.7147C195.332 97.3359 195.845 97.9424 196.402 98.5637C198.029 100.479 198.965 101.958 199.203 102.935C199.366 103.763 199.485 105.08 199.567 106.973C199.678 108.807 199.634 110.235 199.515 111.314C199.388 112.498 198.854 114.11 197.903 116.114C196.959 118.119 195.956 119.923 194.894 121.536C193.861 123.096 193.074 123.925 192.561 124.043C192.353 124.08 192.219 124.102 192.034 124.139C192.056 124.287 192.153 124.435 192.19 124.576C192.591 125.552 193.43 125.537 194.738 124.502C196.03 123.392 197.056 121.92 197.895 120.049C198.475 118.666 199.002 117.69 199.418 117.091C199.879 116.492 200.347 116.285 200.867 116.462C201.372 116.595 201.899 117.246 202.427 118.452C202.479 118.489 202.509 118.577 202.561 118.718C202.598 118.814 202.65 118.873 202.665 118.918C202.694 118.969 202.724 119.043 202.739 119.125C202.806 119.221 202.828 119.287 202.858 119.391C202.873 119.443 202.895 119.531 202.902 119.665C202.925 119.753 202.925 119.857 202.932 120.012C202.954 120.086 202.947 120.182 202.954 120.315C202.932 121.025 202.761 122.135 202.367 123.636C202.323 123.784 202.293 123.866 202.256 123.866ZM192.635 111.795C192.583 111.351 192.227 111.033 191.499 110.804C190.808 110.53 190.288 110.538 189.931 110.849C189.277 111.366 189.01 112.439 189.166 114.169C189.292 115.19 189.508 115.752 189.864 115.833C190.407 115.967 191.023 115.545 191.714 114.598C192.413 113.666 192.732 112.742 192.635 111.795ZM214.165 100.102C214.276 99.8136 214.878 99.6731 215.97 99.6361C216.653 99.6435 217.211 99.7397 217.641 99.9689C218.087 100.235 218.719 100.783 219.484 101.581C220.554 102.654 221.334 103.771 221.861 104.85C222.374 105.915 222.812 107.298 223.146 109C223.666 111.677 223.741 114.199 223.369 116.543C223.013 118.866 222.188 120.878 220.94 122.564C220.494 123.185 220.048 123.792 219.588 124.376C219.967 125.219 220.346 126.062 220.71 126.876C221.445 128.444 221.995 129.686 222.359 130.618C222.73 131.565 223.02 132.497 223.213 133.384C223.421 134.272 223.503 135.048 223.444 135.795C223.369 136.468 223.228 137.215 222.961 138.014C222.455 139.678 221.616 140.226 220.45 139.634C219.291 138.953 218.028 137.275 216.698 134.545C215.673 132.519 215.019 131.299 214.633 130.833C214.261 130.352 213.756 130.1 213.132 130.063C212.597 130.041 212.285 130.086 212.226 130.241C212.181 130.307 212.226 130.722 212.411 131.498C212.961 133.54 213.028 135.5 212.634 137.385C212.27 139.212 211.609 140.092 210.68 140.004C210.012 139.885 209.224 139.249 208.34 138.118C207.434 136.971 206.862 135.832 206.528 134.701C206.26 133.695 205.859 131.306 205.309 127.549C204.752 123.821 204.381 120.626 204.136 117.934C203.497 111.174 204.388 105.901 206.795 102.003C207.293 101.167 207.724 100.694 208.103 100.509C208.385 100.42 209.314 100.42 210.918 100.464C212.954 100.538 214.038 100.413 214.165 100.102ZM217.485 111.241C217.136 110.789 216.735 110.627 216.245 110.76C215.747 110.989 214.685 111.566 213.065 112.476C211.676 113.245 210.859 113.763 210.606 114.036C210.339 114.369 210.212 114.887 210.212 115.612C210.205 116.322 210.264 116.773 210.398 116.898C210.48 117.083 210.822 117.15 211.401 117.113C212.211 116.921 213.11 116.366 214.135 115.449C215.227 114.332 216.119 113.644 216.795 113.481C217.954 113.008 218.176 112.246 217.485 111.241ZM233.02 97.1215C233.636 96.5446 234.691 96.1748 236.207 95.9307C237.276 95.731 238.019 95.7236 238.443 95.9085C238.881 96.0786 239.557 96.6185 240.449 97.5209C241.712 98.8817 242.417 99.784 242.566 100.265C242.737 100.856 242.893 102.121 243.064 104.022C243.168 105.028 243.257 106.041 243.353 107.01C243.762 107.077 244.171 107.143 244.594 107.18C245.352 107.343 246.043 107.801 246.682 108.541C247.32 109.229 247.766 110.05 248.034 111.048C248.294 112.054 248.554 112.631 248.851 112.757C249.185 112.971 249.505 113.962 249.802 115.693C250.121 117.431 250.262 119.176 250.27 120.944C250.277 122.201 250.262 123.229 250.158 124.036C250.062 124.805 249.891 125.678 249.609 126.698C249.066 128.71 248.457 130.234 247.714 131.291C247.023 132.334 246.013 133.214 244.691 133.954C243.368 134.671 241.377 135.418 238.732 136.195C236.192 136.853 234.535 137.238 233.8 137.319C233.086 137.385 232.604 137.223 232.344 136.846C231.749 135.847 231.363 134.006 231.133 131.321C230.925 128.643 230.939 125.367 231.185 121.543C231.318 119.265 231.251 116.159 231.014 112.209C230.746 108.349 230.694 105.693 230.806 104.185C230.902 102.617 231.162 101.204 231.571 99.9098C232.002 98.5859 232.455 97.617 233.02 97.1215ZM236.808 104.155C236.526 104 236.058 104 235.397 104.185C234.751 104.392 234.394 104.577 234.305 104.813C234.164 105.168 234.141 105.723 234.171 106.426C234.245 107.091 234.357 107.513 234.557 107.683C234.788 107.897 235.1 107.942 235.516 107.846C235.932 107.757 236.333 107.557 236.704 107.224C236.994 106.966 237.158 106.411 237.18 105.656C237.217 104.836 237.098 104.325 236.808 104.155ZM243.145 120.241C243.004 119.923 241.897 119.901 239.877 120.182C237.856 120.412 236.675 120.7 236.37 121.07C236.192 121.247 235.976 122.002 235.724 123.37C235.568 124.324 235.493 124.901 235.508 125.167C235.545 125.419 235.694 125.67 235.976 125.929C236.392 126.351 237.596 126.033 239.609 124.975C241.622 123.851 242.752 122.882 243.034 122.09C243.272 121.292 243.316 120.693 243.145 120.241ZM257.632 91.3082C257.974 90.9532 258.397 90.8274 258.925 90.9458C259.459 91.0123 259.89 91.2786 260.195 91.7741C260.41 92.0922 260.566 92.4841 260.626 92.9945C260.73 93.4456 260.76 94.1926 260.76 95.2059C260.767 98.4528 260.269 101.589 259.207 104.651C258.613 106.411 258.078 109 257.654 112.476C257.194 115.944 257.03 117.823 257.112 118.06C257.194 118.237 257.877 118.326 259.125 118.282C260.581 118.245 261.718 118.355 262.602 118.629C264.058 119.014 264.771 118.703 264.764 117.712C264.764 117.498 264.749 117.202 264.645 116.817C264.474 115.93 264.392 114.347 264.377 112.098C264.392 109.843 264.489 108.164 264.675 107.04C264.86 105.767 265.195 104.932 265.611 104.547C266.034 104.14 266.487 104.133 266.918 104.495C267.356 104.909 267.765 105.701 268.144 106.906C268.515 108.023 268.79 109.414 268.894 110.967C268.998 112.32 269.303 114.066 269.801 116.092C270.202 117.645 270.38 118.881 270.395 119.827C270.402 120.722 270.209 122.157 269.838 124.132C269.466 125.862 269.065 126.913 268.627 127.268C267.951 127.867 267.282 128.281 266.606 128.421C266.465 128.466 265.878 128.658 264.838 129.043C263.813 129.398 263.085 129.62 262.609 129.664C258.969 130.581 256.555 131.336 255.381 131.949C254.601 132.371 254.103 132.563 253.843 132.475C253.583 132.482 253.234 132.149 252.773 131.446C252.068 130.448 251.592 128.947 251.354 126.891C251.161 124.827 251.213 122.556 251.54 120.094C251.785 118.4 251.874 116.758 251.852 115.153C251.852 114.132 251.912 113.245 252.001 112.52C252.134 111.773 252.365 110.775 252.699 109.569C253.293 107.52 253.702 105.509 253.947 103.497C254.133 101.877 254.385 100.169 254.764 98.29C254.98 97.2102 255.418 95.9011 256.057 94.3258C256.696 92.7948 257.223 91.7815 257.632 91.3082ZM278.084 85.3248C278.923 83.5645 279.874 83.2613 280.959 84.4742C282.103 85.8055 282.987 89.0006 283.567 93.9264C283.879 96.4262 284.153 98.2826 284.414 99.5326C284.674 100.686 285.097 102.136 285.684 103.807C286.338 105.634 286.724 107.372 286.85 109.088C286.991 110.56 287.326 112.365 287.875 114.45C288.626 117.002 288.915 119.006 288.67 120.567C288.44 122.083 287.734 123.008 286.531 123.363C285.877 123.533 285.394 123.548 285 123.385C284.629 123.192 284.101 122.704 283.388 121.928C282.586 120.966 282.066 120.456 281.791 120.375C281.546 120.338 281.07 120.619 280.402 121.27C279.481 122.009 278.775 122.246 278.277 121.935C277.661 121.543 277.155 121.506 276.776 121.832C276.398 122.113 275.937 122.941 275.395 124.309C274.057 127.711 272.899 128.214 271.918 125.862C271.643 125.204 271.457 124.546 271.42 123.814C271.331 122.586 271.569 119.176 272.2 113.615C272.505 111.019 272.75 109.044 272.98 107.735C273.218 106.352 273.537 105.006 273.946 103.674C274.652 101.433 275.209 98.8743 275.625 95.9307C276.464 90.5242 277.289 86.9741 278.084 85.3248ZM280.253 103.497C280.001 101.248 279.778 100.161 279.548 100.228C279.332 100.287 279.042 101.53 278.671 103.955C278.433 105.287 278.411 106.159 278.589 106.699C278.767 107.18 279.146 107.343 279.763 107.165C280.335 106.995 280.632 106.832 280.617 106.692C280.491 105.62 280.387 104.562 280.253 103.497ZM292.853 78.0841C295.111 74.9851 298.157 74.852 301.991 77.7808C302.83 78.3577 303.432 78.6757 303.818 78.6462C304.212 78.5204 304.62 78.7719 305.059 79.3932C305.519 79.9627 305.809 80.6505 305.913 81.3753C306.233 83.8012 305.987 86.412 305.148 89.2003C304.442 91.678 303.774 93.1498 303.209 93.6083C302.629 94.0817 302.057 93.6305 301.471 92.2179C300.973 91.0493 300.742 90.147 300.728 89.5331C300.698 88.6826 300.326 87.9282 299.576 87.2699C298.87 86.5673 298.157 86.338 297.496 86.5599C296.649 86.7596 296.181 86.9741 296.077 87.2108C295.936 87.8025 296.04 88.5495 296.441 89.4518C296.827 90.3911 297.385 91.2638 298.12 92.1143C298.87 92.9057 299.628 93.4604 300.371 93.8006C301.099 94.0743 301.723 94.6808 302.31 95.6053C302.86 96.4484 303.476 97.0327 304.16 97.3803C304.754 97.6762 305.341 98.5489 305.913 100.058C307.05 103.231 307.503 106.492 307.228 109.798C306.983 113.053 306.069 115.678 304.509 117.66C303.751 118.651 302.904 119.25 302.035 119.428C301.151 119.576 299.331 119.509 296.634 119.11C294.517 118.821 292.994 118.304 292.14 117.512C291.263 116.677 290.609 115.19 290.149 113.053C289.755 111.048 289.554 109.68 289.532 108.844C289.502 107.846 289.599 106.692 289.837 105.361C290.067 104.007 290.282 103.031 290.52 102.535C290.884 101.951 291.27 101.648 291.739 101.589C292.214 101.544 292.526 101.781 292.712 102.313C293.165 103.689 293.596 104.836 294.086 105.79C294.547 106.744 294.911 107.21 295.111 107.158C295.423 107.047 296.151 107.535 297.281 108.578C298.529 109.636 299.472 110.094 300.185 109.902C300.668 109.82 301.017 109.695 301.159 109.51C301.277 109.369 301.337 108.889 301.315 108.171C301.3 106.936 300.98 105.96 300.416 105.257C299.851 104.562 298.93 104.074 297.659 103.771C295.423 103.194 293.544 101.707 292.028 99.3033C290.505 96.8552 289.718 94.0447 289.651 90.9458C289.54 85.3766 290.609 81.0869 292.853 78.0841ZM308.758 75.8283C309.13 75.4659 311.002 74.9038 314.419 74.1346C317.829 73.3876 320.177 73.0696 321.417 73.1435C322.695 73.2766 323.698 73.7056 324.396 74.386C325.125 75.0813 325.659 76.1315 326.046 77.5294C326.744 80.3546 327.168 82.5735 327.309 84.1488C327.487 85.7094 327.42 87.2699 327.13 88.8453C326.9 90.0139 326.64 90.8126 326.343 91.1972C325.927 91.5522 325.481 91.604 324.976 91.3895C324.515 91.1972 323.772 90.7017 322.74 89.9473C320.756 88.5347 319.679 87.9134 319.523 87.9134C319.263 87.9578 319.129 89.0228 319.144 91.0419C319.122 93.0389 318.973 95.3168 318.691 97.935C318.476 99.7545 318.364 101.093 318.379 101.885C318.364 102.654 318.453 104.133 318.661 106.285C318.929 109 318.996 110.945 318.892 112.098C318.758 113.23 318.431 114.206 317.829 114.975C317.428 115.575 316.938 115.974 316.358 116.196C315.786 116.381 315.318 116.344 314.976 116.063C314.412 115.552 313.981 113.674 313.699 110.36C313.387 107.054 313.364 103.748 313.58 100.538C313.818 96.3005 313.944 93.6971 313.974 92.7208C313.996 91.286 313.966 90.1914 313.87 89.4148C313.773 88.5642 313.654 88.0687 313.498 87.9652C313.372 87.9356 312.971 88.0909 312.317 88.4533C311.47 89.008 310.579 89.1263 309.642 88.8305C308.729 88.4681 308.082 87.832 307.696 86.8632C307.243 85.8055 307.027 84.5556 307.005 83.0468C306.99 81.5528 307.198 80.0514 307.637 78.624C308.053 77.13 308.424 76.1833 308.758 75.8283Z" fill="white"/>
<path d="M119.318 60.2453C119.318 60.2453 121.898 62.116 123.755 59.2498C125.613 56.3836 123.142 50.2674 120.001 48.843C116.861 47.4187 116.139 51.4589 116.139 51.4589C116.139 51.4589 113.558 49.5882 110.462 49.9769C107.366 50.365 101.129 53.7176 101.174 55.5307C101.219 57.3431 103.165 58.1024 103.165 58.1024C103.165 58.1024 99.8705 63.5002 103.114 66.2278C106.359 68.9556 112.853 59.8565 113.539 61.6204C114.224 63.3843 109.247 65.4879 111.827 67.3587C114.408 69.2294 116.974 65.1165 116.974 65.1165C116.974 65.1165 120.159 63.9643 119.318 60.2453Z" fill="white"/>
<path d="M114.315 60.3383C114.315 60.3383 107.576 64.95 105.976 66.429C104.287 67.9899 101.84 65.6306 103.328 64.1635C104.816 62.6963 108.709 59.8761 108.709 59.8761" stroke="#162250" stroke-width="1.05696" stroke-miterlimit="10" stroke-linejoin="round"/>
<path d="M106.03 56.5685C106.03 56.5685 98.2256 61.3277 102.647 64.9182" stroke="#162250" stroke-width="1.05696" stroke-miterlimit="10" stroke-linejoin="round"/>
<path d="M181.455 47.2085C181.455 47.2085 135.899 48.7583 124.423 54.8759C124.423 54.8759 122.597 52.0779 123.049 50.6686C123.502 49.2593 163.52 41.2218 181.435 43.7817L181.455 47.2085Z" fill="#162250"/>
<path d="M118.811 59.6607C118.811 59.6607 121.3 61.973 123.772 60.0022C126.245 58.0322 124.116 50.7835 120.731 48.744C117.347 46.7044 116.185 52.3666 116.185 52.3666" stroke="#162250" stroke-width="1.40926" stroke-miterlimit="10"/>
<path d="M303.046 59.9689C303.046 59.9689 300.465 61.8397 298.608 58.9734C296.751 56.1072 299.221 49.991 302.362 48.5667C305.503 47.1423 306.224 51.1826 306.224 51.1826C306.224 51.1826 308.805 49.3118 311.901 49.7006C314.997 50.0886 321.234 53.4412 321.189 55.2543C321.145 57.0667 319.198 57.826 319.198 57.826C319.198 57.826 322.493 63.2238 319.249 65.9514C316.005 68.6792 309.51 59.5801 308.825 61.344C308.139 63.1079 313.117 65.2116 310.536 67.0823C307.956 68.9531 305.389 64.8401 305.389 64.8401C305.389 64.8401 302.204 63.688 303.046 59.9689Z" fill="white"/>
<path d="M308.049 60.0619C308.049 60.0619 314.787 64.6737 316.387 66.1526C318.076 67.7135 320.523 65.3543 319.035 63.8871C317.547 62.4199 313.655 59.5997 313.655 59.5997" stroke="#162250" stroke-width="1.05696" stroke-miterlimit="10" stroke-linejoin="round"/>
<path d="M316.333 56.2921C316.333 56.2921 324.138 61.0513 319.716 64.6418" stroke="#162250" stroke-width="1.05696" stroke-miterlimit="10" stroke-linejoin="round"/>
<path d="M240.908 46.9322C240.908 46.9322 286.464 48.482 297.94 54.5995C297.94 54.5995 299.766 51.8016 299.314 50.3922C298.862 48.9829 258.844 40.9454 240.928 43.5053L240.908 46.9322Z" fill="#162250"/>
<path d="M303.552 59.3844C303.552 59.3844 301.063 61.6967 298.591 59.7258C296.118 57.7559 298.248 50.5071 301.632 48.4676C305.016 46.428 306.179 52.0902 306.179 52.0902" stroke="#162250" stroke-width="1.40926" stroke-miterlimit="10"/>
<path d="M211.851 11.1113L216.426 17.0417L222.609 12.8153L225.128 19.8692L232.315 17.7604L232.53 25.2472L240.017 25.4625L237.908 32.6494L244.962 35.1678L240.735 41.3513L246.666 45.9261L240.735 50.501L244.962 56.6845L237.908 59.2028L240.017 66.3898L232.53 66.6051L232.315 74.0919L225.128 71.9831L222.609 79.037L216.426 74.8105L211.851 80.741L207.276 74.8105L201.093 79.037L198.574 71.9831L191.387 74.0919L191.172 66.6051L183.685 66.3898L185.794 59.2028L178.74 56.6845L182.967 50.501L177.036 45.9261L182.967 41.3513L178.74 35.1678L185.794 32.6494L183.685 25.4625L191.172 25.2472L191.387 17.7604L198.574 19.8692L201.093 12.8153L207.276 17.0417L211.851 11.1113Z" fill="#6F2FB5"/>
<ellipse cx="201.481" cy="43.7043" rx="5.92593" ry="8.88889" fill="white"/>
<ellipse cx="201.481" cy="46.2963" rx="5.92593" ry="6.2963" fill="#2E281D"/>
<ellipse cx="222.221" cy="43.7043" rx="5.92593" ry="8.88889" fill="white"/>
<ellipse cx="222.221" cy="46.2963" rx="5.92593" ry="6.2963" fill="#2E281D"/>
<path d="M47.4071 26.667L52.9008 45.3149L68.3062 33.4575L61.7896 51.773L81.2225 51.2353L65.1849 62.2225L81.2225 73.2098L61.7896 72.6721L68.3062 90.9876L52.9008 79.1302L47.4071 97.7781L41.9135 79.1302L26.5081 90.9876L33.0246 72.6721L13.5918 73.2098L29.6293 62.2225L13.5918 51.2353L33.0246 51.773L26.5081 33.4575L41.9135 45.3149L47.4071 26.667Z" fill="white"/>
<path d="M376.296 26.667L381.789 45.3149L397.195 33.4575L390.678 51.773L410.111 51.2353L394.074 62.2225L410.111 73.2098L390.678 72.6721L397.195 90.9876L381.789 79.1302L376.296 97.7781L370.802 79.1302L355.397 90.9876L361.913 72.6721L342.48 73.2098L358.518 62.2225L342.48 51.2353L361.913 51.773L355.397 33.4575L370.802 45.3149L376.296 26.667Z" fill="white"/>
</svg>
