<svg width="1452" height="149" viewBox="0 0 1452 149" fill="none" xmlns="http://www.w3.org/2000/svg">
<path d="M45.288 36.288C47.8267 35.1093 51.3173 34.4747 55.76 34.384C60.2933 34.2933 63.512 34.7467 65.416 35.744C67.5013 36.832 69.904 38.6907 72.624 41.32C74.7093 43.224 76.2053 44.2667 77.112 44.448C78.1093 44.6293 80.1493 44.312 83.232 43.496C87.2213 42.4987 90.44 42.544 92.888 43.632C95.4267 44.6293 97.6027 46.9413 99.416 50.568C101.864 55.2827 102.091 60.5867 100.096 66.48C98.1013 72.3733 94.2027 78.04 88.4 83.48C84.592 87.1973 80.784 89.736 76.976 91.096C73.168 92.3653 69.904 92.3653 67.184 91.096C63.1947 89.464 61.744 84.7493 62.832 76.952C63.1947 74.1413 63.24 72.3733 62.968 71.648C62.696 70.832 61.7893 70.0613 60.248 69.336C57.9813 68.4293 55.1707 68.4293 51.816 69.336C48.3707 70.5147 45.5147 71.1493 43.248 71.24C41.888 71.4213 40.9813 71.8747 40.528 72.6C40.0747 73.2347 39.712 74.5947 39.44 76.68C39.168 80.0347 39.6213 82.7093 40.8 84.704C41.9787 86.6987 44.2907 88.7387 47.736 90.824C52.088 93.7253 55.488 96.3093 57.936 98.576C59.9307 100.48 61.3813 101.613 62.288 101.976C63.2853 102.248 64.7813 102.021 66.776 101.296C69.224 100.389 72.1253 99.5733 75.48 98.848C78.2907 98.304 82.008 95.448 86.632 90.28C90.2587 86.1093 94.1573 82.7547 98.328 80.216C102.589 77.6773 106.397 76.408 109.752 76.408C112.653 76.408 114.965 77.8587 116.688 80.76C118.501 83.5707 119.408 87.288 119.408 91.912C119.408 95.8107 118.728 99.0293 117.368 101.568C116.099 104.107 113.651 106.872 110.024 109.864C106.216 113.128 100.187 117.48 91.936 122.92C86.8587 126.365 80.5573 128.269 73.032 128.632C65.5067 129.085 58.3893 127.907 51.68 125.096C48.8693 124.008 44.8347 123.419 39.576 123.328C31.688 123.147 24.7973 120.427 18.904 115.168C13.1013 109.819 10.064 103.563 9.792 96.4C9.61067 91.5947 8.34133 86.744 5.984 81.848C3.89867 77.4053 2.81067 73.688 2.72 70.696C2.62933 67.704 3.49067 64.168 5.304 60.088C8.20533 53.7413 12.376 48.528 17.816 44.448C23.3467 40.368 28.968 38.328 34.68 38.328C39.4853 38.1467 43.0213 37.4667 45.288 36.288ZM131.844 42.544C135.017 40.368 137.918 39.3707 140.548 39.552C143.177 39.7333 145.988 41.1387 148.98 43.768C155.054 49.0267 158.59 56.2347 159.588 65.392C160.041 70.6507 161.809 76.816 164.892 83.888C168.065 90.8693 171.057 95.448 173.868 97.624C176.95 99.9813 180.849 101.205 185.564 101.296C190.369 101.387 193.996 100.299 196.444 98.032C198.076 96.4907 199.662 93.8613 201.204 90.144C202.836 86.336 203.516 83.5707 203.244 81.848C202.972 80.76 202.836 79.4453 202.836 77.904C202.836 77.2693 201.884 75.8187 199.98 73.552C198.71 72.1013 196.444 69.744 193.18 66.48C186.833 60.496 183.66 56.3253 183.66 53.968C183.66 49.2533 185.02 45.5813 187.74 42.952C190.46 40.232 193.86 39.2347 197.94 39.96C199.662 40.3227 202.11 41.6827 205.284 44.04C207.822 46.0347 212.492 50.2053 219.292 56.552C222.284 59.272 226.318 63.1707 231.396 68.248C234.932 71.8747 237.017 74.1867 237.652 75.184C239.193 77.904 240.054 81.2587 240.236 85.248C240.417 89.1467 239.918 92.728 238.74 95.992C237.017 100.525 234.796 104.197 232.076 107.008C229.356 109.728 225.412 112.357 220.244 114.896C213.534 118.16 209.182 120.563 207.188 122.104C202.473 125.459 196.534 127.317 189.372 127.68C182.209 128.043 175.545 126.909 169.38 124.28C163.124 121.56 157.729 119.429 153.196 117.888C149.66 116.709 147.076 115.485 145.444 114.216C143.812 112.947 141.772 110.589 139.324 107.144C131.708 96.8987 127.9 85.9733 127.9 74.368C127.9 68.2933 127.265 62.944 125.996 58.32C124.817 54.512 124.636 51.52 125.452 49.344C126.267 47.168 128.398 44.9013 131.844 42.544ZM279.018 42.952C281.012 42.408 283.551 42.408 286.634 42.952C289.807 43.4053 292.3 44.2213 294.114 45.4C295.383 46.216 296.244 47.168 296.698 48.256C297.151 49.2533 297.378 50.84 297.378 53.016C297.378 59.816 294.204 66.1173 287.858 71.92C284.231 75.2747 281.058 80.4427 278.338 87.424C275.527 94.496 274.394 98.304 274.938 98.848C275.391 99.3013 279.335 99.8453 286.77 100.48C295.111 101.205 301.866 102.112 307.034 103.2C315.466 104.832 319.682 104.605 319.682 102.52C319.772 102.067 319.591 101.432 319.138 100.616C318.14 98.6213 317.687 95.2667 317.778 90.552C317.959 85.8373 318.639 82.3467 319.818 80.08C321.087 77.5413 322.991 76 325.53 75.456C328.068 74.8213 330.607 75.048 333.146 76.136C335.684 77.224 338.042 79.128 340.218 81.848C342.394 84.4773 343.799 87.4693 344.434 90.824C344.887 93.7253 346.519 97.488 349.33 102.112C351.506 105.557 352.548 108.277 352.458 110.272C352.458 112.176 351.279 115.077 348.922 118.976C346.655 122.421 344.207 124.371 341.578 124.824C337.679 125.731 333.735 126.139 329.746 126.048C328.93 126.048 325.484 126.139 319.41 126.32C313.426 126.501 309.074 126.501 306.354 126.32C284.956 126.139 270.812 126.365 263.922 127C259.479 127.453 256.487 127.544 254.946 127.272C253.404 127.091 251.364 126.184 248.826 124.552C244.655 122.013 241.98 118.568 240.802 114.216C239.714 109.773 240.212 105.059 242.298 100.072C243.658 96.6267 244.338 93.2267 244.338 89.872C244.338 87.696 244.655 85.8827 245.29 84.432C246.015 82.8907 247.42 80.9413 249.506 78.584C252.951 74.5947 255.444 70.56 256.986 66.48C258.074 63.216 259.706 59.7253 261.882 56.008C263.242 53.832 265.826 51.2933 269.634 48.392C273.442 45.4907 276.57 43.6773 279.018 42.952ZM367.649 42.816C369.916 42.3627 381.204 42.408 401.513 42.952C421.913 43.4053 435.785 43.9947 443.129 44.72C450.655 45.536 456.412 46.7147 460.401 48.256C464.391 49.7067 467.247 51.7467 468.969 54.376C472.143 59.544 473.911 63.5787 474.273 66.48C474.636 69.2907 473.729 72.1467 471.553 75.048C469.921 77.224 468.199 78.6747 466.385 79.4C463.847 80.0347 461.217 80.1253 458.497 79.672C455.868 79.2187 451.697 78.176 445.985 76.544C434.924 73.3707 428.895 71.784 427.897 71.784C426.447 71.784 425.449 73.7333 424.905 77.632C424.271 81.44 422.82 85.8373 420.553 90.824C418.921 94.36 418.015 96.944 417.833 98.576C417.652 100.117 417.969 103.064 418.785 107.416C419.783 113.037 419.873 117.027 419.057 119.384C418.241 121.741 416.156 123.691 412.801 125.232C410.353 126.411 407.452 127.136 404.097 127.408C400.833 127.68 398.204 127.453 396.209 126.728C393.127 125.459 390.951 121.333 389.681 114.352C388.503 107.371 388.865 100.661 390.769 94.224C393.036 85.8827 394.305 80.76 394.577 78.856C395.031 76.0453 395.076 73.8693 394.713 72.328C394.351 70.6053 393.761 69.608 392.945 69.336C392.129 69.1547 389.817 69.2907 386.009 69.744C380.841 70.3787 375.583 70.152 370.233 69.064C364.975 67.8853 361.348 66.2533 359.353 64.168C356.905 61.8107 355.772 59.136 355.953 56.144C356.225 53.152 357.767 50.3413 360.577 47.712C363.297 44.992 365.655 43.36 367.649 42.816ZM486.851 42.544C490.025 40.368 492.926 39.3707 495.555 39.552C498.185 39.7333 500.995 41.1387 503.987 43.768C510.062 49.0267 513.598 56.2347 514.595 65.392C515.049 70.6507 516.817 76.816 519.899 83.888C523.073 90.8693 526.065 95.448 528.875 97.624C531.958 99.9813 535.857 101.205 540.571 101.296C545.377 101.387 549.003 100.299 551.451 98.032C553.083 96.4907 554.67 93.8613 556.211 90.144C557.843 86.336 558.523 83.5707 558.251 81.848C557.979 80.76 557.843 79.4453 557.843 77.904C557.843 77.2693 556.891 75.8187 554.987 73.552C553.718 72.1013 551.451 69.744 548.187 66.48C541.841 60.496 538.667 56.3253 538.667 53.968C538.667 49.2533 540.027 45.5813 542.747 42.952C545.467 40.232 548.867 39.2347 552.947 39.96C554.67 40.3227 557.118 41.6827 560.291 44.04C562.83 46.0347 567.499 50.2053 574.299 56.552C577.291 59.272 581.326 63.1707 586.403 68.248C589.939 71.8747 592.025 74.1867 592.659 75.184C594.201 77.904 595.062 81.2587 595.243 85.248C595.425 89.1467 594.926 92.728 593.747 95.992C592.025 100.525 589.803 104.197 587.083 107.008C584.363 109.728 580.419 112.357 575.251 114.896C568.542 118.16 564.19 120.563 562.195 122.104C557.481 125.459 551.542 127.317 544.379 127.68C537.217 128.043 530.553 126.909 524.387 124.28C518.131 121.56 512.737 119.429 508.203 117.888C504.667 116.709 502.083 115.485 500.451 114.216C498.819 112.947 496.779 110.589 494.331 107.144C486.715 96.8987 482.907 85.9733 482.907 74.368C482.907 68.2933 482.273 62.944 481.003 58.32C479.825 54.512 479.643 51.52 480.459 49.344C481.275 47.168 483.406 44.9013 486.851 42.544ZM655.514 42.952C656.148 42.3173 659.639 42 665.986 42C669.794 42 672.967 42.3173 675.506 42.952C678.135 43.5867 681.762 44.9013 686.386 46.896C692.551 49.5253 697.175 52.1093 700.258 54.648C703.34 57.096 705.879 60.224 707.874 64.032C710.956 69.9253 711.41 75.32 709.234 80.216C707.058 85.0213 702.343 89.056 695.09 92.32L687.202 95.856L693.594 101.16C697.674 104.515 700.756 107.189 702.842 109.184C704.927 111.179 706.514 113.128 707.602 115.032C708.78 116.845 709.143 118.477 708.69 119.928C708.327 121.288 707.33 122.739 705.698 124.28C702.615 127.453 697.719 128.315 691.01 126.864C684.391 125.323 677.364 121.787 669.93 116.256C664.399 112.176 660.591 109.683 658.506 108.776C656.42 107.779 653.564 107.28 649.938 107.28C646.855 107.28 645.132 107.416 644.77 107.688C644.407 107.869 644.724 108.731 645.722 110.272C648.623 114.352 648.895 118.296 646.538 122.104C644.271 125.821 640.463 127.68 635.114 127.68C631.396 127.589 627.044 126.547 622.058 124.552C617.162 122.467 613.898 120.336 612.266 118.16C610.815 116.165 608.594 111.36 605.602 103.744C602.7 96.128 600.57 89.5093 599.21 83.888C595.583 69.5627 600.388 57.7307 613.626 48.392C616.436 46.3973 618.884 45.1733 620.97 44.72C622.511 44.448 627.86 44.2213 637.018 44.04C648.623 44.04 654.788 43.6773 655.514 42.952ZM675.234 67.84C673.239 66.8427 670.882 66.48 668.162 66.752C665.17 67.2053 659.095 68.4293 649.938 70.424C641.959 72.2373 637.29 73.4613 635.93 74.096C634.388 74.8213 633.618 75.9547 633.618 77.496C633.618 79.0373 633.98 79.944 634.706 80.216C635.25 80.5787 637.154 80.6693 640.418 80.488C645.042 80.0347 650.255 78.8107 656.058 76.816C662.314 74.368 667.436 72.9627 671.426 72.6C677.954 71.6933 679.223 70.1067 675.234 67.84ZM827.168 97.08C823.995 103.789 822.227 107.416 821.864 107.96L817.784 111.904L808.808 118.568C801.192 124.189 793.803 127.363 786.64 128.088C784.645 128.269 782.651 128.269 780.656 128.088C778.752 127.907 776.576 127.544 774.128 127C771.68 126.365 770.184 126.003 769.64 125.912L754 123.192C753.184 123.011 751.733 122.784 749.648 122.512C747.653 122.24 746.067 122.013 744.888 121.832C743.709 121.651 742.259 121.333 740.536 120.88C738.813 120.427 737.317 119.883 736.048 119.248C729.339 115.984 724.488 109.229 721.496 98.984L716.872 82.8L713.472 69.336C712.837 66.888 714.016 63.3973 717.008 58.864C720 54.3307 723.128 50.7947 726.392 48.256C732.195 43.904 740.808 40.912 752.232 39.28C759.395 38.5547 765.741 38.4187 771.272 38.872C776.803 39.2347 781.064 39.96 784.056 41.048L793.168 44.448C802.507 48.0747 807.856 50.9307 809.216 53.016C810.304 54.7387 811.12 57.64 811.664 61.72C812.208 65.7093 812.163 68.8827 811.528 71.24C810.803 73.8693 807.811 77.5413 802.552 82.256C797.293 86.9707 791.672 91.2773 785.688 95.176C779.795 98.984 775.443 101.115 772.632 101.568L769.64 102.112L770.592 102.928C772.768 104.832 777.483 104.379 784.736 101.568C791.989 98.6667 797.883 95.04 802.416 90.688C805.771 87.5147 808.672 85.2027 811.12 83.752C813.659 82.3013 816.333 81.6667 819.144 81.848C822.045 81.9387 825.037 83.1627 828.12 85.52C828.301 85.6107 828.528 85.792 828.8 86.064C829.072 86.2453 829.253 86.3813 829.344 86.472C829.525 86.5627 829.707 86.6987 829.888 86.88C830.16 87.0613 830.341 87.2427 830.432 87.424C830.523 87.5147 830.613 87.696 830.704 87.968C830.795 88.1493 830.84 88.376 830.84 88.648C830.931 88.8293 830.976 89.056 830.976 89.328C830.976 90.8693 829.888 93.272 827.712 96.536C827.44 96.8987 827.259 97.08 827.168 97.08ZM772.904 75.184C772.632 74.2773 770.501 73.7333 766.512 73.552C762.523 73.28 759.531 73.552 757.536 74.368C753.909 75.8187 752.549 78.3573 753.456 81.984C754.091 84.16 755.405 85.248 757.4 85.248C760.392 85.248 763.837 84.0693 767.736 81.712C771.725 79.3547 773.448 77.1787 772.904 75.184ZM885.432 41.864C888.968 40.9573 895.224 40.64 904.2 40.912C905.651 40.8213 907.147 40.8667 908.688 41.048C910.32 41.1387 911.454 41.1387 912.088 41.048C912.814 40.8667 913.766 40.9573 914.944 41.32C916.214 41.592 917.211 41.8187 917.936 42C918.752 42.1813 920.022 42.6347 921.744 43.36C923.467 43.9947 925.144 44.72 926.776 45.536C928.408 46.2613 930.72 47.304 933.712 48.664C938.064 49.8427 942.235 56.3707 946.224 68.248L953.432 69.2C957.694 69.744 961.683 70.968 965.4 72.872C969.208 74.776 971.928 76.8613 973.56 79.128C975.011 81.3947 976.598 82.7547 978.32 83.208C980.224 83.8427 982.038 86.064 983.76 89.872C985.483 93.68 986.344 97.4427 986.344 101.16C986.344 103.789 986.027 105.92 985.392 107.552C984.848 109.093 983.76 110.861 982.128 112.856C978.864 116.755 975.102 119.611 970.84 121.424C966.67 123.237 960.686 124.552 952.888 125.368C945.182 126.184 933.531 126.728 917.936 127C903.067 127.181 893.502 127.181 889.24 127C885.07 126.819 882.214 126.275 880.672 125.368C877.318 123.101 875.096 119.157 874.008 113.536C873.011 107.915 873.283 101.16 874.824 93.272C875.64 88.5573 875.368 81.984 874.008 73.552C872.467 65.2107 872.014 59.4533 872.648 56.28C873.192 52.9253 874.643 49.9333 877 47.304C879.448 44.584 882.259 42.7707 885.432 41.864ZM907.872 58.864C906.24 58.4107 903.475 58.2293 899.576 58.32C895.768 58.4107 893.638 58.6827 893.184 59.136C892.368 59.8613 892.142 60.9947 892.504 62.536C892.867 63.9867 893.592 64.9387 894.68 65.392C896.04 65.936 897.944 66.208 900.392 66.208C902.84 66.208 905.107 65.936 907.192 65.392C908.915 64.9387 909.867 63.896 910.048 62.264C910.23 60.5413 909.504 59.408 907.872 58.864ZM944.592 95.992C943.776 95.2667 937.43 94.6773 925.552 94.224C913.766 93.7707 906.92 93.8613 905.016 94.496C904.019 94.768 902.75 96.264 901.208 98.984C900.211 100.888 899.758 102.112 899.848 102.656C900.03 103.2 900.936 103.789 902.568 104.424C904.926 105.512 911.998 105.421 923.784 104.152C935.571 102.792 942.28 101.341 943.912 99.8C945.363 98.2587 945.59 96.9893 944.592 95.992ZM1027.81 42.952C1029.81 42.408 1032.35 42.408 1035.43 42.952C1038.6 43.4053 1041.1 44.2213 1042.91 45.4C1044.18 46.216 1045.04 47.168 1045.49 48.256C1045.95 49.2533 1046.17 50.84 1046.17 53.016C1046.17 59.816 1043 66.1173 1036.65 71.92C1033.03 75.2747 1029.85 80.4427 1027.13 87.424C1024.32 94.496 1023.19 98.304 1023.73 98.848C1024.19 99.3013 1028.13 99.8453 1035.57 100.48C1043.91 101.205 1050.66 102.112 1055.83 103.2C1064.26 104.832 1068.48 104.605 1068.48 102.52C1068.57 102.067 1068.39 101.432 1067.93 100.616C1066.94 98.6213 1066.48 95.2667 1066.57 90.552C1066.76 85.8373 1067.44 82.3467 1068.61 80.08C1069.88 77.5413 1071.79 76 1074.33 75.456C1076.87 74.8213 1079.4 75.048 1081.94 76.136C1084.48 77.224 1086.84 79.128 1089.01 81.848C1091.19 84.4773 1092.6 87.4693 1093.23 90.824C1093.68 93.7253 1095.32 97.488 1098.13 102.112C1100.3 105.557 1101.35 108.277 1101.25 110.272C1101.25 112.176 1100.08 115.077 1097.72 118.976C1095.45 122.421 1093 124.371 1090.37 124.824C1086.48 125.731 1082.53 126.139 1078.54 126.048C1077.73 126.048 1074.28 126.139 1068.21 126.32C1062.22 126.501 1057.87 126.501 1055.15 126.32C1033.75 126.139 1019.61 126.365 1012.72 127C1008.28 127.453 1005.28 127.544 1003.74 127.272C1002.2 127.091 1000.16 126.184 997.623 124.552C993.452 122.013 990.777 118.568 989.599 114.216C988.511 109.773 989.009 105.059 991.095 100.072C992.455 96.6267 993.135 93.2267 993.135 89.872C993.135 87.696 993.452 85.8827 994.087 84.432C994.812 82.8907 996.217 80.9413 998.303 78.584C1001.75 74.5947 1004.24 70.56 1005.78 66.48C1006.87 63.216 1008.5 59.7253 1010.68 56.008C1012.04 53.832 1014.62 51.2933 1018.43 48.392C1022.24 45.4907 1025.37 43.6773 1027.81 42.952ZM1149.09 42.952C1154.16 39.7787 1159.83 39.7787 1166.09 42.952C1172.8 46.488 1177.65 53.56 1180.64 64.168C1182.18 69.5173 1183.63 73.552 1184.99 76.272C1186.44 78.9013 1188.8 82.12 1192.06 85.928C1195.69 90.0987 1197.77 93.9973 1198.32 97.624C1198.95 100.797 1200.77 104.741 1203.76 109.456C1208.02 115.259 1209.38 119.701 1207.84 122.784C1206.39 125.867 1202.13 127.408 1195.05 127.408C1191.43 127.408 1188.48 127.136 1186.21 126.592C1184.04 125.957 1180.96 124.597 1176.97 122.512C1172.34 119.973 1169.26 118.568 1167.72 118.296C1166.27 118.024 1163.55 118.341 1159.56 119.248C1154.12 120.336 1149.95 120.381 1147.05 119.384C1143.51 118.205 1140.61 117.843 1138.34 118.296C1136.17 118.659 1133.4 120.109 1130.05 122.648C1121.98 128.995 1115.18 129.403 1109.65 123.872C1108.1 122.331 1107.2 120.789 1106.93 119.248C1106.47 116.619 1108.24 109.637 1112.23 98.304C1114.13 93.0453 1115.81 89.1013 1117.26 86.472C1118.8 83.752 1120.8 81.1227 1123.25 78.584C1127.51 74.3227 1131 69.2907 1133.72 63.488C1139.07 52.6987 1144.19 45.8533 1149.09 42.952ZM1160.24 81.984C1158.97 77.1787 1157.7 74.776 1156.43 74.776C1155.16 74.776 1153.3 77.1787 1150.85 81.984C1149.49 84.6133 1149.27 86.5173 1150.17 87.696C1151.17 88.784 1153.44 89.328 1156.97 89.328C1160.42 89.328 1162.14 89.192 1162.14 88.92L1160.24 81.984ZM1237.23 37.376C1251.01 32.48 1269.1 34.2027 1291.49 42.544C1296.2 44.2667 1299.74 45.2187 1302.1 45.4C1304.36 45.4 1306.77 46.1707 1309.31 47.712C1311.94 49.1627 1313.48 50.6587 1313.93 52.2C1315.38 57.1867 1313.43 62.264 1308.08 67.432C1303.37 71.9653 1299.29 74.5493 1295.84 75.184C1292.4 75.8187 1289.09 74.5493 1285.91 71.376C1283.28 68.7467 1281.97 66.7973 1281.97 65.528C1281.97 63.8053 1279.88 62.0373 1275.71 60.224C1271.54 58.4107 1267.46 57.504 1263.47 57.504C1258.4 57.4133 1255.63 57.5947 1255.18 58.048C1254.09 59.136 1254.63 60.7227 1256.81 62.808C1258.99 64.8933 1262.16 67.024 1266.33 69.2C1270.59 71.2853 1274.9 72.872 1279.25 73.96C1283.42 74.9573 1287.09 76.544 1290.27 78.72C1293.35 80.7147 1296.84 82.256 1300.74 83.344C1304.18 84.2507 1307.45 86.3813 1310.53 89.736C1316.6 96.808 1318.64 103.699 1316.65 110.408C1314.75 117.117 1309.17 122.195 1299.92 125.64C1295.48 127.363 1290.67 128.179 1285.51 128.088C1280.34 127.997 1269.91 126.773 1254.23 124.416C1241.9 122.603 1233.24 120.608 1228.25 118.432C1223.35 116.165 1219.64 112.629 1217.1 107.824C1215.01 103.472 1213.97 100.435 1213.97 98.712C1213.97 96.6267 1214.7 94.2693 1216.15 91.64C1217.6 88.92 1219.09 87.1067 1220.63 86.2C1222.63 85.2027 1224.99 84.7947 1227.71 84.976C1230.52 85.1573 1232.38 85.8373 1233.28 87.016C1235.73 90.0987 1238.27 92.7733 1240.9 95.04C1243.53 97.3067 1245.48 98.44 1246.75 98.44C1248.56 98.44 1252.73 99.8453 1259.26 102.656C1266.33 105.557 1271.86 107.008 1275.85 107.008C1278.84 107.099 1280.75 107.008 1281.56 106.736C1282.29 106.464 1282.65 105.557 1282.65 104.016C1282.65 101.477 1281.06 99.3013 1277.89 97.488C1274.72 95.7653 1269.41 94.224 1261.98 92.864C1249.01 90.416 1238.22 86.2453 1229.61 80.352C1221 74.368 1216.69 68.1573 1216.69 61.72C1216.69 50.2053 1223.54 42.0907 1237.23 37.376ZM1332.4 42.816C1334.67 42.3627 1345.95 42.408 1366.26 42.952C1386.66 43.4053 1400.54 43.9947 1407.88 44.72C1415.4 45.536 1421.16 46.7147 1425.15 48.256C1429.14 49.7067 1432 51.7467 1433.72 54.376C1436.89 59.544 1438.66 63.5787 1439.02 66.48C1439.39 69.2907 1438.48 72.1467 1436.3 75.048C1434.67 77.224 1432.95 78.6747 1431.14 79.4C1428.6 80.0347 1425.97 80.1253 1423.25 79.672C1420.62 79.2187 1416.45 78.176 1410.74 76.544C1399.67 73.3707 1393.64 71.784 1392.65 71.784C1391.2 71.784 1390.2 73.7333 1389.66 77.632C1389.02 81.44 1387.57 85.8373 1385.3 90.824C1383.67 94.36 1382.76 96.944 1382.58 98.576C1382.4 100.117 1382.72 103.064 1383.54 107.416C1384.53 113.037 1384.62 117.027 1383.81 119.384C1382.99 121.741 1380.91 123.691 1377.55 125.232C1375.1 126.411 1372.2 127.136 1368.85 127.408C1365.58 127.68 1362.95 127.453 1360.96 126.728C1357.88 125.459 1355.7 121.333 1354.43 114.352C1353.25 107.371 1353.62 100.661 1355.52 94.224C1357.79 85.8827 1359.06 80.76 1359.33 78.856C1359.78 76.0453 1359.83 73.8693 1359.46 72.328C1359.1 70.6053 1358.51 69.608 1357.7 69.336C1356.88 69.1547 1354.57 69.2907 1350.76 69.744C1345.59 70.3787 1340.33 70.152 1334.98 69.064C1329.72 67.8853 1326.1 66.2533 1324.1 64.168C1321.66 61.8107 1320.52 59.136 1320.7 56.144C1320.98 53.152 1322.52 50.3413 1325.33 47.712C1328.05 44.992 1330.4 43.36 1332.4 42.816Z" fill="#2E281D"/>
<path d="M55.288 23.288C57.8267 22.1093 61.3173 21.4747 65.76 21.384C70.2933 21.2933 73.512 21.7467 75.416 22.744C77.5013 23.832 79.904 25.6907 82.624 28.32C84.7093 30.224 86.2053 31.2667 87.112 31.448C88.1093 31.6293 90.1493 31.312 93.232 30.496C97.2213 29.4987 100.44 29.544 102.888 30.632C105.427 31.6293 107.603 33.9413 109.416 37.568C111.864 42.2827 112.091 47.5867 110.096 53.48C108.101 59.3733 104.203 65.04 98.4 70.48C94.592 74.1973 90.784 76.736 86.976 78.096C83.168 79.3653 79.904 79.3653 77.184 78.096C73.1947 76.464 71.744 71.7493 72.832 63.952C73.1947 61.1413 73.24 59.3733 72.968 58.648C72.696 57.832 71.7893 57.0613 70.248 56.336C67.9813 55.4293 65.1707 55.4293 61.816 56.336C58.3707 57.5147 55.5147 58.1493 53.248 58.24C51.888 58.4213 50.9813 58.8747 50.528 59.6C50.0747 60.2347 49.712 61.5947 49.44 63.68C49.168 67.0347 49.6213 69.7093 50.8 71.704C51.9787 73.6987 54.2907 75.7387 57.736 77.824C62.088 80.7253 65.488 83.3093 67.936 85.576C69.9307 87.48 71.3813 88.6133 72.288 88.976C73.2853 89.248 74.7813 89.0213 76.776 88.296C79.224 87.3893 82.1253 86.5733 85.48 85.848C88.2907 85.304 92.008 82.448 96.632 77.28C100.259 73.1093 104.157 69.7547 108.328 67.216C112.589 64.6773 116.397 63.408 119.752 63.408C122.653 63.408 124.965 64.8587 126.688 67.76C128.501 70.5707 129.408 74.288 129.408 78.912C129.408 82.8107 128.728 86.0293 127.368 88.568C126.099 91.1067 123.651 93.872 120.024 96.864C116.216 100.128 110.187 104.48 101.936 109.92C96.8587 113.365 90.5573 115.269 83.032 115.632C75.5067 116.085 68.3893 114.907 61.68 112.096C58.8693 111.008 54.8347 110.419 49.576 110.328C41.688 110.147 34.7973 107.427 28.904 102.168C23.1013 96.8187 20.064 90.5627 19.792 83.4C19.6107 78.5947 18.3413 73.744 15.984 68.848C13.8987 64.4053 12.8107 60.688 12.72 57.696C12.6293 54.704 13.4907 51.168 15.304 47.088C18.2053 40.7413 22.376 35.528 27.816 31.448C33.3467 27.368 38.968 25.328 44.68 25.328C49.4853 25.1467 53.0213 24.4667 55.288 23.288ZM141.844 29.544C145.017 27.368 147.918 26.3707 150.548 26.552C153.177 26.7333 155.988 28.1387 158.98 30.768C165.054 36.0267 168.59 43.2347 169.588 52.392C170.041 57.6507 171.809 63.816 174.892 70.888C178.065 77.8693 181.057 82.448 183.868 84.624C186.95 86.9813 190.849 88.2053 195.564 88.296C200.369 88.3867 203.996 87.2987 206.444 85.032C208.076 83.4907 209.662 80.8613 211.204 77.144C212.836 73.336 213.516 70.5707 213.244 68.848C212.972 67.76 212.836 66.4453 212.836 64.904C212.836 64.2693 211.884 62.8187 209.98 60.552C208.71 59.1013 206.444 56.744 203.18 53.48C196.833 47.496 193.66 43.3253 193.66 40.968C193.66 36.2533 195.02 32.5813 197.74 29.952C200.46 27.232 203.86 26.2347 207.94 26.96C209.662 27.3227 212.11 28.6827 215.284 31.04C217.822 33.0347 222.492 37.2053 229.292 43.552C232.284 46.272 236.318 50.1707 241.396 55.248C244.932 58.8747 247.017 61.1867 247.652 62.184C249.193 64.904 250.054 68.2587 250.236 72.248C250.417 76.1467 249.918 79.728 248.74 82.992C247.017 87.5253 244.796 91.1973 242.076 94.008C239.356 96.728 235.412 99.3573 230.244 101.896C223.534 105.16 219.182 107.563 217.188 109.104C212.473 112.459 206.534 114.317 199.372 114.68C192.209 115.043 185.545 113.909 179.38 111.28C173.124 108.56 167.729 106.429 163.196 104.888C159.66 103.709 157.076 102.485 155.444 101.216C153.812 99.9467 151.772 97.5893 149.324 94.144C141.708 83.8987 137.9 72.9733 137.9 61.368C137.9 55.2933 137.265 49.944 135.996 45.32C134.817 41.512 134.636 38.52 135.452 36.344C136.267 34.168 138.398 31.9013 141.844 29.544ZM289.018 29.952C291.012 29.408 293.551 29.408 296.634 29.952C299.807 30.4053 302.3 31.2213 304.114 32.4C305.383 33.216 306.244 34.168 306.698 35.256C307.151 36.2533 307.378 37.84 307.378 40.016C307.378 46.816 304.204 53.1173 297.858 58.92C294.231 62.2747 291.058 67.4427 288.338 74.424C285.527 81.496 284.394 85.304 284.938 85.848C285.391 86.3013 289.335 86.8453 296.77 87.48C305.111 88.2053 311.866 89.112 317.034 90.2C325.466 91.832 329.682 91.6053 329.682 89.52C329.772 89.0667 329.591 88.432 329.138 87.616C328.14 85.6213 327.687 82.2667 327.778 77.552C327.959 72.8373 328.639 69.3467 329.818 67.08C331.087 64.5413 332.991 63 335.53 62.456C338.068 61.8213 340.607 62.048 343.146 63.136C345.684 64.224 348.042 66.128 350.218 68.848C352.394 71.4773 353.799 74.4693 354.434 77.824C354.887 80.7253 356.519 84.488 359.33 89.112C361.506 92.5573 362.548 95.2773 362.458 97.272C362.458 99.176 361.279 102.077 358.922 105.976C356.655 109.421 354.207 111.371 351.578 111.824C347.679 112.731 343.735 113.139 339.746 113.048C338.93 113.048 335.484 113.139 329.41 113.32C323.426 113.501 319.074 113.501 316.354 113.32C294.956 113.139 280.812 113.365 273.922 114C269.479 114.453 266.487 114.544 264.946 114.272C263.404 114.091 261.364 113.184 258.826 111.552C254.655 109.013 251.98 105.568 250.802 101.216C249.714 96.7733 250.212 92.0587 252.298 87.072C253.658 83.6267 254.338 80.2267 254.338 76.872C254.338 74.696 254.655 72.8827 255.29 71.432C256.015 69.8907 257.42 67.9413 259.506 65.584C262.951 61.5947 265.444 57.56 266.986 53.48C268.074 50.216 269.706 46.7253 271.882 43.008C273.242 40.832 275.826 38.2933 279.634 35.392C283.442 32.4907 286.57 30.6773 289.018 29.952ZM377.649 29.816C379.916 29.3627 391.204 29.408 411.513 29.952C431.913 30.4053 445.785 30.9947 453.129 31.72C460.655 32.536 466.412 33.7147 470.401 35.256C474.391 36.7067 477.247 38.7467 478.969 41.376C482.143 46.544 483.911 50.5787 484.273 53.48C484.636 56.2907 483.729 59.1467 481.553 62.048C479.921 64.224 478.199 65.6747 476.385 66.4C473.847 67.0347 471.217 67.1253 468.497 66.672C465.868 66.2187 461.697 65.176 455.985 63.544C444.924 60.3707 438.895 58.784 437.897 58.784C436.447 58.784 435.449 60.7333 434.905 64.632C434.271 68.44 432.82 72.8373 430.553 77.824C428.921 81.36 428.015 83.944 427.833 85.576C427.652 87.1173 427.969 90.064 428.785 94.416C429.783 100.037 429.873 104.027 429.057 106.384C428.241 108.741 426.156 110.691 422.801 112.232C420.353 113.411 417.452 114.136 414.097 114.408C410.833 114.68 408.204 114.453 406.209 113.728C403.127 112.459 400.951 108.333 399.681 101.352C398.503 94.3707 398.865 87.6613 400.769 81.224C403.036 72.8827 404.305 67.76 404.577 65.856C405.031 63.0453 405.076 60.8693 404.713 59.328C404.351 57.6053 403.761 56.608 402.945 56.336C402.129 56.1547 399.817 56.2907 396.009 56.744C390.841 57.3787 385.583 57.152 380.233 56.064C374.975 54.8853 371.348 53.2533 369.353 51.168C366.905 48.8107 365.772 46.136 365.953 43.144C366.225 40.152 367.767 37.3413 370.577 34.712C373.297 31.992 375.655 30.36 377.649 29.816ZM496.851 29.544C500.025 27.368 502.926 26.3707 505.555 26.552C508.185 26.7333 510.995 28.1387 513.987 30.768C520.062 36.0267 523.598 43.2347 524.595 52.392C525.049 57.6507 526.817 63.816 529.899 70.888C533.073 77.8693 536.065 82.448 538.875 84.624C541.958 86.9813 545.857 88.2053 550.571 88.296C555.377 88.3867 559.003 87.2987 561.451 85.032C563.083 83.4907 564.67 80.8613 566.211 77.144C567.843 73.336 568.523 70.5707 568.251 68.848C567.979 67.76 567.843 66.4453 567.843 64.904C567.843 64.2693 566.891 62.8187 564.987 60.552C563.718 59.1013 561.451 56.744 558.187 53.48C551.841 47.496 548.667 43.3253 548.667 40.968C548.667 36.2533 550.027 32.5813 552.747 29.952C555.467 27.232 558.867 26.2347 562.947 26.96C564.67 27.3227 567.118 28.6827 570.291 31.04C572.83 33.0347 577.499 37.2053 584.299 43.552C587.291 46.272 591.326 50.1707 596.403 55.248C599.939 58.8747 602.025 61.1867 602.659 62.184C604.201 64.904 605.062 68.2587 605.243 72.248C605.425 76.1467 604.926 79.728 603.747 82.992C602.025 87.5253 599.803 91.1973 597.083 94.008C594.363 96.728 590.419 99.3573 585.251 101.896C578.542 105.16 574.19 107.563 572.195 109.104C567.481 112.459 561.542 114.317 554.379 114.68C547.217 115.043 540.553 113.909 534.387 111.28C528.131 108.56 522.737 106.429 518.203 104.888C514.667 103.709 512.083 102.485 510.451 101.216C508.819 99.9467 506.779 97.5893 504.331 94.144C496.715 83.8987 492.907 72.9733 492.907 61.368C492.907 55.2933 492.273 49.944 491.003 45.32C489.825 41.512 489.643 38.52 490.459 36.344C491.275 34.168 493.406 31.9013 496.851 29.544ZM665.514 29.952C666.148 29.3173 669.639 29 675.986 29C679.794 29 682.967 29.3173 685.506 29.952C688.135 30.5867 691.762 31.9013 696.386 33.896C702.551 36.5253 707.175 39.1093 710.258 41.648C713.34 44.096 715.879 47.224 717.874 51.032C720.956 56.9253 721.41 62.32 719.234 67.216C717.058 72.0213 712.343 76.056 705.09 79.32L697.202 82.856L703.594 88.16C707.674 91.5147 710.756 94.1893 712.842 96.184C714.927 98.1787 716.514 100.128 717.602 102.032C718.78 103.845 719.143 105.477 718.69 106.928C718.327 108.288 717.33 109.739 715.698 111.28C712.615 114.453 707.719 115.315 701.01 113.864C694.391 112.323 687.364 108.787 679.93 103.256C674.399 99.176 670.591 96.6827 668.506 95.776C666.42 94.7787 663.564 94.28 659.938 94.28C656.855 94.28 655.132 94.416 654.77 94.688C654.407 94.8693 654.724 95.7307 655.722 97.272C658.623 101.352 658.895 105.296 656.538 109.104C654.271 112.821 650.463 114.68 645.114 114.68C641.396 114.589 637.044 113.547 632.058 111.552C627.162 109.467 623.898 107.336 622.266 105.16C620.815 103.165 618.594 98.36 615.602 90.744C612.7 83.128 610.57 76.5093 609.21 70.888C605.583 56.5627 610.388 44.7307 623.626 35.392C626.436 33.3973 628.884 32.1733 630.97 31.72C632.511 31.448 637.86 31.2213 647.018 31.04C658.623 31.04 664.788 30.6773 665.514 29.952ZM685.234 54.84C683.239 53.8427 680.882 53.48 678.162 53.752C675.17 54.2053 669.095 55.4293 659.938 57.424C651.959 59.2373 647.29 60.4613 645.93 61.096C644.388 61.8213 643.618 62.9547 643.618 64.496C643.618 66.0373 643.98 66.944 644.706 67.216C645.25 67.5787 647.154 67.6693 650.418 67.488C655.042 67.0347 660.255 65.8107 666.058 63.816C672.314 61.368 677.436 59.9627 681.426 59.6C687.954 58.6933 689.223 57.1067 685.234 54.84ZM837.168 84.08C833.995 90.7893 832.227 94.416 831.864 94.96L827.784 98.904L818.808 105.568C811.192 111.189 803.803 114.363 796.64 115.088C794.645 115.269 792.651 115.269 790.656 115.088C788.752 114.907 786.576 114.544 784.128 114C781.68 113.365 780.184 113.003 779.64 112.912L764 110.192C763.184 110.011 761.733 109.784 759.648 109.512C757.653 109.24 756.067 109.013 754.888 108.832C753.709 108.651 752.259 108.333 750.536 107.88C748.813 107.427 747.317 106.883 746.048 106.248C739.339 102.984 734.488 96.2293 731.496 85.984L726.872 69.8L723.472 56.336C722.837 53.888 724.016 50.3973 727.008 45.864C730 41.3307 733.128 37.7947 736.392 35.256C742.195 30.904 750.808 27.912 762.232 26.28C769.395 25.5547 775.741 25.4187 781.272 25.872C786.803 26.2347 791.064 26.96 794.056 28.048L803.168 31.448C812.507 35.0747 817.856 37.9307 819.216 40.016C820.304 41.7387 821.12 44.64 821.664 48.72C822.208 52.7093 822.163 55.8827 821.528 58.24C820.803 60.8693 817.811 64.5413 812.552 69.256C807.293 73.9707 801.672 78.2773 795.688 82.176C789.795 85.984 785.443 88.1147 782.632 88.568L779.64 89.112L780.592 89.928C782.768 91.832 787.483 91.3787 794.736 88.568C801.989 85.6667 807.883 82.04 812.416 77.688C815.771 74.5147 818.672 72.2027 821.12 70.752C823.659 69.3013 826.333 68.6667 829.144 68.848C832.045 68.9387 835.037 70.1627 838.12 72.52C838.301 72.6107 838.528 72.792 838.8 73.064C839.072 73.2453 839.253 73.3813 839.344 73.472C839.525 73.5627 839.707 73.6987 839.888 73.88C840.16 74.0613 840.341 74.2427 840.432 74.424C840.523 74.5147 840.613 74.696 840.704 74.968C840.795 75.1493 840.84 75.376 840.84 75.648C840.931 75.8293 840.976 76.056 840.976 76.328C840.976 77.8693 839.888 80.272 837.712 83.536C837.44 83.8987 837.259 84.08 837.168 84.08ZM782.904 62.184C782.632 61.2773 780.501 60.7333 776.512 60.552C772.523 60.28 769.531 60.552 767.536 61.368C763.909 62.8187 762.549 65.3573 763.456 68.984C764.091 71.16 765.405 72.248 767.4 72.248C770.392 72.248 773.837 71.0693 777.736 68.712C781.725 66.3547 783.448 64.1787 782.904 62.184ZM895.432 28.864C898.968 27.9573 905.224 27.64 914.2 27.912C915.651 27.8213 917.147 27.8667 918.688 28.048C920.32 28.1387 921.454 28.1387 922.088 28.048C922.814 27.8667 923.766 27.9573 924.944 28.32C926.214 28.592 927.211 28.8187 927.936 29C928.752 29.1813 930.022 29.6347 931.744 30.36C933.467 30.9947 935.144 31.72 936.776 32.536C938.408 33.2613 940.72 34.304 943.712 35.664C948.064 36.8427 952.235 43.3707 956.224 55.248L963.432 56.2C967.694 56.744 971.683 57.968 975.4 59.872C979.208 61.776 981.928 63.8613 983.56 66.128C985.011 68.3947 986.598 69.7547 988.32 70.208C990.224 70.8427 992.038 73.064 993.76 76.872C995.483 80.68 996.344 84.4427 996.344 88.16C996.344 90.7893 996.027 92.92 995.392 94.552C994.848 96.0933 993.76 97.8613 992.128 99.856C988.864 103.755 985.102 106.611 980.84 108.424C976.67 110.237 970.686 111.552 962.888 112.368C955.182 113.184 943.531 113.728 927.936 114C913.067 114.181 903.502 114.181 899.24 114C895.07 113.819 892.214 113.275 890.672 112.368C887.318 110.101 885.096 106.157 884.008 100.536C883.011 94.9147 883.283 88.16 884.824 80.272C885.64 75.5573 885.368 68.984 884.008 60.552C882.467 52.2107 882.014 46.4533 882.648 43.28C883.192 39.9253 884.643 36.9333 887 34.304C889.448 31.584 892.259 29.7707 895.432 28.864ZM917.872 45.864C916.24 45.4107 913.475 45.2293 909.576 45.32C905.768 45.4107 903.638 45.6827 903.184 46.136C902.368 46.8613 902.142 47.9947 902.504 49.536C902.867 50.9867 903.592 51.9387 904.68 52.392C906.04 52.936 907.944 53.208 910.392 53.208C912.84 53.208 915.107 52.936 917.192 52.392C918.915 51.9387 919.867 50.896 920.048 49.264C920.23 47.5413 919.504 46.408 917.872 45.864ZM954.592 82.992C953.776 82.2667 947.43 81.6773 935.552 81.224C923.766 80.7707 916.92 80.8613 915.016 81.496C914.019 81.768 912.75 83.264 911.208 85.984C910.211 87.888 909.758 89.112 909.848 89.656C910.03 90.2 910.936 90.7893 912.568 91.424C914.926 92.512 921.998 92.4213 933.784 91.152C945.571 89.792 952.28 88.3413 953.912 86.8C955.363 85.2587 955.59 83.9893 954.592 82.992ZM1037.81 29.952C1039.81 29.408 1042.35 29.408 1045.43 29.952C1048.6 30.4053 1051.1 31.2213 1052.91 32.4C1054.18 33.216 1055.04 34.168 1055.49 35.256C1055.95 36.2533 1056.17 37.84 1056.17 40.016C1056.17 46.816 1053 53.1173 1046.65 58.92C1043.03 62.2747 1039.85 67.4427 1037.13 74.424C1034.32 81.496 1033.19 85.304 1033.73 85.848C1034.19 86.3013 1038.13 86.8453 1045.57 87.48C1053.91 88.2053 1060.66 89.112 1065.83 90.2C1074.26 91.832 1078.48 91.6053 1078.48 89.52C1078.57 89.0667 1078.39 88.432 1077.93 87.616C1076.94 85.6213 1076.48 82.2667 1076.57 77.552C1076.76 72.8373 1077.44 69.3467 1078.61 67.08C1079.88 64.5413 1081.79 63 1084.33 62.456C1086.87 61.8213 1089.4 62.048 1091.94 63.136C1094.48 64.224 1096.84 66.128 1099.01 68.848C1101.19 71.4773 1102.6 74.4693 1103.23 77.824C1103.68 80.7253 1105.32 84.488 1108.13 89.112C1110.3 92.5573 1111.35 95.2773 1111.25 97.272C1111.25 99.176 1110.08 102.077 1107.72 105.976C1105.45 109.421 1103 111.371 1100.37 111.824C1096.48 112.731 1092.53 113.139 1088.54 113.048C1087.73 113.048 1084.28 113.139 1078.21 113.32C1072.22 113.501 1067.87 113.501 1065.15 113.32C1043.75 113.139 1029.61 113.365 1022.72 114C1018.28 114.453 1015.28 114.544 1013.74 114.272C1012.2 114.091 1010.16 113.184 1007.62 111.552C1003.45 109.013 1000.78 105.568 999.599 101.216C998.511 96.7733 999.009 92.0587 1001.09 87.072C1002.45 83.6267 1003.13 80.2267 1003.13 76.872C1003.13 74.696 1003.45 72.8827 1004.09 71.432C1004.81 69.8907 1006.22 67.9413 1008.3 65.584C1011.75 61.5947 1014.24 57.56 1015.78 53.48C1016.87 50.216 1018.5 46.7253 1020.68 43.008C1022.04 40.832 1024.62 38.2933 1028.43 35.392C1032.24 32.4907 1035.37 30.6773 1037.81 29.952ZM1159.09 29.952C1164.16 26.7787 1169.83 26.7787 1176.09 29.952C1182.8 33.488 1187.65 40.56 1190.64 51.168C1192.18 56.5173 1193.63 60.552 1194.99 63.272C1196.44 65.9013 1198.8 69.12 1202.06 72.928C1205.69 77.0987 1207.77 80.9973 1208.32 84.624C1208.95 87.7973 1210.77 91.7413 1213.76 96.456C1218.02 102.259 1219.38 106.701 1217.84 109.784C1216.39 112.867 1212.13 114.408 1205.05 114.408C1201.43 114.408 1198.48 114.136 1196.21 113.592C1194.04 112.957 1190.96 111.597 1186.97 109.512C1182.34 106.973 1179.26 105.568 1177.72 105.296C1176.27 105.024 1173.55 105.341 1169.56 106.248C1164.12 107.336 1159.95 107.381 1157.05 106.384C1153.51 105.205 1150.61 104.843 1148.34 105.296C1146.17 105.659 1143.4 107.109 1140.05 109.648C1131.98 115.995 1125.18 116.403 1119.65 110.872C1118.1 109.331 1117.2 107.789 1116.93 106.248C1116.47 103.619 1118.24 96.6373 1122.23 85.304C1124.13 80.0453 1125.81 76.1013 1127.26 73.472C1128.8 70.752 1130.8 68.1227 1133.25 65.584C1137.51 61.3227 1141 56.2907 1143.72 50.488C1149.07 39.6987 1154.19 32.8533 1159.09 29.952ZM1170.24 68.984C1168.97 64.1787 1167.7 61.776 1166.43 61.776C1165.16 61.776 1163.3 64.1787 1160.85 68.984C1159.49 71.6133 1159.27 73.5173 1160.17 74.696C1161.17 75.784 1163.44 76.328 1166.97 76.328C1170.42 76.328 1172.14 76.192 1172.14 75.92L1170.24 68.984ZM1247.23 24.376C1261.01 19.48 1279.1 21.2027 1301.49 29.544C1306.2 31.2667 1309.74 32.2187 1312.1 32.4C1314.36 32.4 1316.77 33.1707 1319.31 34.712C1321.94 36.1627 1323.48 37.6587 1323.93 39.2C1325.38 44.1867 1323.43 49.264 1318.08 54.432C1313.37 58.9653 1309.29 61.5493 1305.84 62.184C1302.4 62.8187 1299.09 61.5493 1295.91 58.376C1293.28 55.7467 1291.97 53.7973 1291.97 52.528C1291.97 50.8053 1289.88 49.0373 1285.71 47.224C1281.54 45.4107 1277.46 44.504 1273.47 44.504C1268.4 44.4133 1265.63 44.5947 1265.18 45.048C1264.09 46.136 1264.63 47.7227 1266.81 49.808C1268.99 51.8933 1272.16 54.024 1276.33 56.2C1280.59 58.2853 1284.9 59.872 1289.25 60.96C1293.42 61.9573 1297.09 63.544 1300.27 65.72C1303.35 67.7147 1306.84 69.256 1310.74 70.344C1314.18 71.2507 1317.45 73.3813 1320.53 76.736C1326.6 83.808 1328.64 90.6987 1326.65 97.408C1324.75 104.117 1319.17 109.195 1309.92 112.64C1305.48 114.363 1300.67 115.179 1295.51 115.088C1290.34 114.997 1279.91 113.773 1264.23 111.416C1251.9 109.603 1243.24 107.608 1238.25 105.432C1233.35 103.165 1229.64 99.6293 1227.1 94.824C1225.01 90.472 1223.97 87.4347 1223.97 85.712C1223.97 83.6267 1224.7 81.2693 1226.15 78.64C1227.6 75.92 1229.09 74.1067 1230.63 73.2C1232.63 72.2027 1234.99 71.7947 1237.71 71.976C1240.52 72.1573 1242.38 72.8373 1243.28 74.016C1245.73 77.0987 1248.27 79.7733 1250.9 82.04C1253.53 84.3067 1255.48 85.44 1256.75 85.44C1258.56 85.44 1262.73 86.8453 1269.26 89.656C1276.33 92.5573 1281.86 94.008 1285.85 94.008C1288.84 94.0987 1290.75 94.008 1291.56 93.736C1292.29 93.464 1292.65 92.5573 1292.65 91.016C1292.65 88.4773 1291.06 86.3013 1287.89 84.488C1284.72 82.7653 1279.41 81.224 1271.98 79.864C1259.01 77.416 1248.22 73.2453 1239.61 67.352C1231 61.368 1226.69 55.1573 1226.69 48.72C1226.69 37.2053 1233.54 29.0907 1247.23 24.376ZM1342.4 29.816C1344.67 29.3627 1355.95 29.408 1376.26 29.952C1396.66 30.4053 1410.54 30.9947 1417.88 31.72C1425.4 32.536 1431.16 33.7147 1435.15 35.256C1439.14 36.7067 1442 38.7467 1443.72 41.376C1446.89 46.544 1448.66 50.5787 1449.02 53.48C1449.39 56.2907 1448.48 59.1467 1446.3 62.048C1444.67 64.224 1442.95 65.6747 1441.14 66.4C1438.6 67.0347 1435.97 67.1253 1433.25 66.672C1430.62 66.2187 1426.45 65.176 1420.74 63.544C1409.67 60.3707 1403.64 58.784 1402.65 58.784C1401.2 58.784 1400.2 60.7333 1399.66 64.632C1399.02 68.44 1397.57 72.8373 1395.3 77.824C1393.67 81.36 1392.76 83.944 1392.58 85.576C1392.4 87.1173 1392.72 90.064 1393.54 94.416C1394.53 100.037 1394.62 104.027 1393.81 106.384C1392.99 108.741 1390.91 110.691 1387.55 112.232C1385.1 113.411 1382.2 114.136 1378.85 114.408C1375.58 114.68 1372.95 114.453 1370.96 113.728C1367.88 112.459 1365.7 108.333 1364.43 101.352C1363.25 94.3707 1363.62 87.6613 1365.52 81.224C1367.79 72.8827 1369.06 67.76 1369.33 65.856C1369.78 63.0453 1369.83 60.8693 1369.46 59.328C1369.1 57.6053 1368.51 56.608 1367.7 56.336C1366.88 56.1547 1364.57 56.2907 1360.76 56.744C1355.59 57.3787 1350.33 57.152 1344.98 56.064C1339.72 54.8853 1336.1 53.2533 1334.1 51.168C1331.66 48.8107 1330.52 46.136 1330.7 43.144C1330.98 40.152 1332.52 37.3413 1335.33 34.712C1338.05 31.992 1340.4 30.36 1342.4 29.816Z" fill="#FFE100"/>
</svg>
