<svg width="300" height="52" viewBox="0 0 300 52" fill="none" xmlns="http://www.w3.org/2000/svg">
<path d="M9.6 24.32C8.08533 24.32 6.73067 24.0107 5.536 23.392C4.36267 22.7733 3.43467 21.8133 2.752 20.512C2.09067 19.2107 1.76 17.5467 1.76 15.52C1.76 13.408 2.112 11.6907 2.816 10.368C3.52 9.04533 4.46933 8.07467 5.664 7.456C6.88 6.83733 8.256 6.528 9.792 6.528C10.6667 6.528 11.5093 6.624 12.32 6.816C13.1307 6.98667 13.792 7.2 14.304 7.456L13.44 9.792C12.928 9.6 12.3307 9.41867 11.648 9.248C10.9653 9.07733 10.3253 8.992 9.728 8.992C8.576 8.992 7.62667 9.23733 6.88 9.728C6.13333 10.2187 5.57867 10.944 5.216 11.904C4.85333 12.864 4.672 14.0587 4.672 15.488C4.672 16.8533 4.85333 18.016 5.216 18.976C5.57867 19.936 6.12267 20.6613 6.848 21.152C7.57333 21.6427 8.48 21.888 9.568 21.888C10.5067 21.888 11.328 21.792 12.032 21.6C12.7573 21.408 13.4187 21.1733 14.016 20.896V23.392C13.44 23.6907 12.8 23.9147 12.096 24.064C11.4133 24.2347 10.5813 24.32 9.6 24.32ZM36.495 6.848V24H33.967V13.056C33.967 12.608 33.9777 12.1387 33.999 11.648C34.0417 11.1573 34.0843 10.6773 34.127 10.208H34.031L28.431 24H26.063L20.623 10.208H20.527C20.5697 10.6773 20.591 11.1573 20.591 11.648C20.6123 12.1387 20.623 12.64 20.623 13.152V24H18.095V6.848H21.839L27.247 20.64L32.751 6.848H36.495ZM56.882 15.392C56.882 16.8213 56.69 18.0907 56.306 19.2C55.9433 20.288 55.41 21.216 54.706 21.984C54.0233 22.752 53.1807 23.3387 52.178 23.744C51.1967 24.128 50.098 24.32 48.882 24.32C47.7513 24.32 46.706 24.128 45.746 23.744C44.786 23.3387 43.954 22.752 43.25 21.984C42.546 21.216 41.9913 20.288 41.586 19.2C41.202 18.0907 41.01 16.8213 41.01 15.392C41.01 13.4933 41.33 11.8933 41.97 10.592C42.61 9.26933 43.5273 8.26667 44.722 7.584C45.9167 6.88 47.3353 6.528 48.978 6.528C50.5353 6.528 51.9007 6.88 53.074 7.584C54.2687 8.26667 55.1967 9.26933 55.858 10.592C56.5407 11.8933 56.882 13.4933 56.882 15.392ZM43.922 15.392C43.922 16.736 44.0927 17.9093 44.434 18.912C44.7967 19.8933 45.3513 20.6507 46.098 21.184C46.8447 21.7173 47.794 21.984 48.946 21.984C50.098 21.984 51.0473 21.7173 51.794 21.184C52.5407 20.6507 53.0847 19.8933 53.426 18.912C53.7887 17.9093 53.97 16.736 53.97 15.392C53.97 14.0267 53.7887 12.864 53.426 11.904C53.0633 10.944 52.5087 10.208 51.762 9.696C51.0367 9.16267 50.0873 8.896 48.914 8.896C47.1647 8.896 45.8953 9.472 45.106 10.624C44.3167 11.776 43.922 13.3653 43.922 15.392ZM72.8725 9.216H67.2725V24H64.4885V9.216H58.9525V6.848H72.8725V9.216ZM84.4113 6.528C86.5233 6.528 88.2193 7.264 89.4993 8.736C90.8006 10.208 91.4513 12.4267 91.4513 15.392C91.4513 17.3333 91.1526 18.976 90.5553 20.32C89.9792 21.6427 89.1579 22.6453 88.0913 23.328C87.0459 23.9893 85.8086 24.32 84.3793 24.32C83.5046 24.32 82.7259 24.2027 82.0433 23.968C81.3606 23.7333 80.7739 23.4347 80.2833 23.072C79.8139 22.688 79.4086 22.272 79.0673 21.824H78.8753C78.9179 22.1867 78.9606 22.6453 79.0033 23.2C79.0459 23.7547 79.0673 24.2347 79.0673 24.64V31.68H76.2513V6.848H78.5553L78.9393 9.184H79.0673C79.4086 8.69333 79.8139 8.24533 80.2833 7.84C80.7739 7.43467 81.3499 7.11467 82.0113 6.88C82.6939 6.64533 83.4939 6.528 84.4113 6.528ZM83.8993 8.896C82.7473 8.896 81.8193 9.12 81.1153 9.568C80.4113 9.99467 79.8993 10.6453 79.5793 11.52C79.2593 12.3947 79.0886 13.504 79.0673 14.848V15.392C79.0673 16.8 79.2166 17.9947 79.5153 18.976C79.8139 19.9573 80.3153 20.704 81.0193 21.216C81.7446 21.728 82.7259 21.984 83.9633 21.984C85.0086 21.984 85.8619 21.696 86.5233 21.12C87.2059 20.544 87.7073 19.7653 88.0273 18.784C88.3686 17.7813 88.5393 16.64 88.5393 15.36C88.5393 13.3973 88.1553 11.8293 87.3873 10.656C86.6406 9.48267 85.4779 8.896 83.8993 8.896ZM102.563 6.528C104.035 6.528 105.293 6.848 106.339 7.488C107.405 8.128 108.216 9.03467 108.771 10.208C109.347 11.36 109.635 12.7147 109.635 14.272V15.968H97.8908C97.9334 17.9093 98.4241 19.392 99.3628 20.416C100.323 21.4187 101.656 21.92 103.363 21.92C104.451 21.92 105.411 21.824 106.243 21.632C107.096 21.4187 107.971 21.12 108.867 20.736V23.2C107.992 23.584 107.128 23.8613 106.275 24.032C105.421 24.224 104.408 24.32 103.235 24.32C101.613 24.32 100.173 23.9893 98.9148 23.328C97.6774 22.6667 96.7068 21.6853 96.0028 20.384C95.3201 19.0613 94.9788 17.4507 94.9788 15.552C94.9788 13.6747 95.2881 12.064 95.9068 10.72C96.5468 9.376 97.4321 8.34133 98.5628 7.616C99.7148 6.89067 101.048 6.528 102.563 6.528ZM102.531 8.832C101.187 8.832 100.12 9.26933 99.3308 10.144C98.5628 10.9973 98.1041 12.192 97.9548 13.728H106.691C106.691 12.7467 106.541 11.8933 106.243 11.168C105.944 10.4427 105.485 9.87733 104.867 9.472C104.269 9.04533 103.491 8.832 102.531 8.832ZM125.841 9.216H120.241V24H117.457V9.216H111.921V6.848H125.841V9.216ZM137.124 13.888C138.617 13.888 139.855 14.0693 140.836 14.432C141.817 14.7947 142.553 15.3387 143.044 16.064C143.556 16.768 143.812 17.664 143.812 18.752C143.812 19.8187 143.567 20.7467 143.076 21.536C142.607 22.3253 141.871 22.9333 140.868 23.36C139.865 23.7867 138.575 24 136.996 24H129.22V6.848H132.036V13.888H137.124ZM140.996 18.912C140.996 17.8667 140.623 17.1627 139.876 16.8C139.151 16.416 138.127 16.224 136.804 16.224H132.036V21.728H136.868C138.063 21.728 139.044 21.5147 139.812 21.088C140.601 20.6613 140.996 19.936 140.996 18.912ZM167.05 6.848V21.632H169.546V29.952H166.826V24H154.89V29.952H152.202V21.632H153.578C154.559 20.2667 155.37 18.784 156.01 17.184C156.671 15.5627 157.162 13.8773 157.482 12.128C157.823 10.3573 158.004 8.59733 158.026 6.848H167.05ZM160.522 9.056C160.436 10.5067 160.212 12.0107 159.85 13.568C159.487 15.104 159.018 16.576 158.442 17.984C157.887 19.392 157.236 20.608 156.49 21.632H164.33V9.056H160.522ZM179.404 6.56C181.494 6.56 183.041 7.01867 184.044 7.936C185.046 8.85333 185.548 10.3147 185.548 12.32V24H183.5L182.956 21.568H182.828C182.337 22.1867 181.825 22.7093 181.292 23.136C180.78 23.5413 180.182 23.84 179.5 24.032C178.838 24.224 178.028 24.32 177.068 24.32C176.044 24.32 175.116 24.1387 174.284 23.776C173.473 23.4133 172.833 22.8587 172.364 22.112C171.894 21.344 171.66 20.384 171.66 19.232C171.66 17.5253 172.332 16.2133 173.676 15.296C175.02 14.3573 177.089 13.8453 179.884 13.76L182.796 13.664V12.64C182.796 11.2107 182.486 10.2187 181.868 9.664C181.249 9.10933 180.374 8.832 179.244 8.832C178.348 8.832 177.494 8.97067 176.684 9.248C175.873 9.504 175.116 9.80267 174.411 10.144L173.548 8.032C174.294 7.62667 175.18 7.28533 176.204 7.008C177.228 6.70933 178.294 6.56 179.404 6.56ZM180.236 15.712C178.102 15.7973 176.62 16.1387 175.788 16.736C174.977 17.3333 174.572 18.176 174.572 19.264C174.572 20.224 174.86 20.928 175.436 21.376C176.033 21.824 176.79 22.048 177.708 22.048C179.158 22.048 180.364 21.6533 181.324 20.864C182.284 20.0533 182.764 18.816 182.764 17.152V15.616L180.236 15.712ZM203.901 24H201.053V9.184H195.997C195.784 11.8933 195.517 14.208 195.197 16.128C194.877 18.0267 194.472 19.5733 193.981 20.768C193.49 21.9627 192.904 22.8373 192.221 23.392C191.538 23.9467 190.738 24.224 189.821 24.224C189.544 24.224 189.266 24.2027 188.989 24.16C188.733 24.1387 188.52 24.0853 188.349 24V21.888C188.477 21.9307 188.616 21.9627 188.765 21.984C188.914 22.0053 189.064 22.016 189.213 22.016C189.682 22.016 190.109 21.824 190.493 21.44C190.877 21.056 191.218 20.4693 191.517 19.68C191.837 18.8907 192.125 17.8987 192.381 16.704C192.637 15.488 192.861 14.0587 193.053 12.416C193.245 10.7733 193.416 8.91733 193.565 6.848H203.901V24ZM217.249 13.888C218.742 13.888 219.98 14.0693 220.961 14.432C221.942 14.7947 222.678 15.3387 223.169 16.064C223.681 16.768 223.937 17.664 223.937 18.752C223.937 19.8187 223.692 20.7467 223.201 21.536C222.732 22.3253 221.996 22.9333 220.993 23.36C219.99 23.7867 218.7 24 217.121 24H209.345V6.848H212.161V13.888H217.249ZM221.121 18.912C221.121 17.8667 220.748 17.1627 220.001 16.8C219.276 16.416 218.252 16.224 216.929 16.224H212.161V21.728H216.993C218.188 21.728 219.169 21.5147 219.937 21.088C220.726 20.6613 221.121 19.936 221.121 18.912ZM251.609 6.848V24H228.345V6.848H231.161V21.632H238.553V6.848H241.369V21.632H248.793V6.848H251.609ZM263.719 6.528C265.191 6.528 266.45 6.848 267.495 7.488C268.562 8.128 269.372 9.03467 269.927 10.208C270.503 11.36 270.791 12.7147 270.791 14.272V15.968H259.047C259.09 17.9093 259.58 19.392 260.519 20.416C261.479 21.4187 262.812 21.92 264.519 21.92C265.607 21.92 266.567 21.824 267.399 21.632C268.252 21.4187 269.127 21.12 270.023 20.736V23.2C269.148 23.584 268.284 23.8613 267.431 24.032C266.578 24.224 265.564 24.32 264.391 24.32C262.77 24.32 261.33 23.9893 260.071 23.328C258.834 22.6667 257.863 21.6853 257.159 20.384C256.476 19.0613 256.135 17.4507 256.135 15.552C256.135 13.6747 256.444 12.064 257.063 10.72C257.703 9.376 258.588 8.34133 259.719 7.616C260.871 6.89067 262.204 6.528 263.719 6.528ZM263.687 8.832C262.343 8.832 261.276 9.26933 260.487 10.144C259.719 10.9973 259.26 12.192 259.111 13.728H267.847C267.847 12.7467 267.698 11.8933 267.399 11.168C267.1 10.4427 266.642 9.87733 266.023 9.472C265.426 9.04533 264.647 8.832 263.687 8.832Z" fill="white"/>
<path d="M150 52L140 40H160L150 52Z" fill="white"/>
</svg>
