<svg width="399" height="184" viewBox="0 0 399 184" fill="none" xmlns="http://www.w3.org/2000/svg">
<path d="M3.56641 24.8555C5.71484 25.8294 6.90365 26.8464 7.13281 27.9062V42.3438C8.10677 42.3438 12.6042 38.0326 20.625 29.4102H22.043C24.2201 30.3841 25.4089 31.401 25.6094 32.4609V33.1914L10.6562 48.4023C14.8385 55.793 25.7526 62.1237 43.3984 67.3945C51.9349 67.3945 56.2031 68.6693 56.2031 71.2188V71.9492L54.0547 75C41.3359 75 27.3424 69.9297 12.0742 59.7891L9.23828 56.7812L9.96875 60.5625V61.3359L7.13281 64.3438H6.40234C4.59766 64.3438 2.70703 59.5312 0.730469 49.9062V31.6875L0 28.6367C0 27.2904 1.1888 26.0299 3.56641 24.8555ZM86.2383 23.5234H89.1172C92.612 27.4479 98.6706 40.8685 107.293 63.7852L111.117 67.5234V70.3164L107.293 74.0547H106.348C100.905 71.2474 94.832 58.457 88.1289 35.6836H87.1836L63.25 75H58.4805L57.4922 74.0547H56.5469C63.9661 57.6406 73.8633 40.7969 86.2383 23.5234ZM141.625 23.8672H143.73L145.793 27.3477V28.5078C143.329 37.2734 141.253 49.2904 139.562 64.5586H154.816C158.483 64.5586 161.72 61.4505 164.527 55.2344H166.633C168.008 55.2344 168.695 56.7812 168.695 59.875C165.917 69.9583 161.061 75 154.129 75H136.082L133.289 70.3594L129.852 71.5195C118.279 68.3685 112.492 62.9401 112.492 55.2344C114.698 35.8698 117.706 26.1875 121.516 26.1875C123.836 27.5052 124.996 29.4388 124.996 31.9883H134.02L138.145 34.3086C139.434 27.3477 140.594 23.8672 141.625 23.8672ZM119.41 44.793V47.1133L118.723 55.2344C123.65 59.1016 127.13 61.0352 129.164 61.0352H130.539C132.372 55.1341 133.289 48.9466 133.289 42.4727H128.434L119.41 44.793ZM190.395 26.1016H191.469C195.279 26.1016 197.757 27.4049 198.902 30.0117V31C198.902 33.1771 193.947 35.1393 184.035 36.8867C180.311 41.1549 178.191 45.3802 177.676 49.5625V66.1914H181.887C185.267 66.1914 192.357 62.6107 203.156 55.4492H207.41L210.59 58.3711V59.3594C198.473 69.7865 188.561 75 180.855 75H172.348L168.094 71.0898V48.6172C172.878 33.6068 180.311 26.1016 190.395 26.1016ZM233.363 26.1016H234.438C238.247 26.1016 240.725 27.4049 241.871 30.0117V31C241.871 33.1771 236.915 35.1393 227.004 36.8867C223.28 41.1549 221.16 45.3802 220.645 49.5625V66.1914H224.855C228.236 66.1914 235.326 62.6107 246.125 55.4492H250.379L253.559 58.3711V59.3594C241.441 69.7865 231.53 75 223.824 75H215.316L211.062 71.0898V48.6172C215.846 33.6068 223.28 26.1016 233.363 26.1016ZM307.227 24.8555H309.719L312.211 27.8203C307.227 42.888 303.904 55.3346 302.242 65.1602V71.0469L298.934 75H298.074L294.766 71.0469V64.1719L296.398 56.3086L267.309 51.4102H262.324C261.78 61.2357 260.405 66.1484 258.199 66.1484H257.34L254.031 62.2383V60.2617L255.707 44.5352V36.6719C256.051 32.7188 256.882 30.7422 258.199 30.7422H260.691L263.184 33.707V42.5586H268.168L298.074 48.4453C302.514 32.7188 305.565 24.8555 307.227 24.8555ZM325.445 22.5352C351.714 25.4857 364.848 29.7682 364.848 35.3828C364.848 49.2474 358.474 62.4531 345.727 75H342.332C323.569 72.7083 314.188 68.4258 314.188 62.1523V61.0781C314.188 49.0755 319.444 40.1523 329.957 34.3086L331.074 33.2344V32.1602C322.824 32.1602 318.699 30.7422 318.699 27.9062C319.902 24.3255 322.151 22.5352 325.445 22.5352ZM324.328 61.0781L338.938 65.375H342.332C345.712 65.375 349.837 56.0938 354.707 37.5312H353.59L346.844 35.3828C331.833 41.4844 324.328 49.6914 324.328 60.0039V61.0781Z" fill="white"/>
<path d="M53.8516 122.488H58.2344L73.2305 127.859L73.875 128.762V130.566L71.3828 134.176L62.6172 132.371L63.2188 133.273V135.078L60.7266 140.449L61.3711 168.293L58.8789 171H58.2344L55.7422 167.391L55.0977 141.352L55.7422 135.078L51.3594 134.176H42.5938L40.1016 130.566C40.6745 127.559 42.1354 126.055 44.4844 126.055H50.1133C50.1133 123.677 51.3594 122.488 53.8516 122.488ZM111.645 128.676L114.051 130.051V133.23C110.842 150.246 107.362 160.559 103.609 164.168C102.549 168.723 100.945 171 98.7969 171H97.9805L94.7578 169.195C97.2786 162.406 99.6992 157.694 102.02 155.059H101.203C98.9401 155.059 95.1875 152.337 89.9453 146.895L73.875 135.938V133.703L75.4648 132.758H77.9141C91.8932 141.38 99.9284 147.453 102.02 150.977H102.793L107.605 129.148L108.422 128.676H111.645ZM139.145 122.102H140.219C144.029 122.102 146.507 123.405 147.652 126.012V127C147.652 129.177 142.697 131.139 132.785 132.887C129.061 137.155 126.941 141.38 126.426 145.562V162.191H130.637C134.017 162.191 141.107 158.611 151.906 151.449H156.16L159.34 154.371V155.359C147.223 165.786 137.311 171 129.605 171H121.098L116.844 167.09V144.617C121.628 129.607 129.061 122.102 139.145 122.102ZM165.742 118.879C170.583 118.879 174.15 127.072 176.441 143.457L188.301 125.754L197.797 118.879C201.406 120.139 203.383 121.457 203.727 122.832V140.535L208.496 159.184V161.16L203.727 165.113H202.566C197.324 165.113 194.159 155.273 193.07 135.594H191.867C182.844 159.198 177.301 171 175.238 171H168.105L165.742 169.023V144.445C165.742 137.542 163.766 130.652 159.812 123.777C159.812 122.059 161.789 120.426 165.742 118.879ZM222.547 122.488H226.93L241.926 127.859L242.57 128.762V130.566L240.078 134.176L231.312 132.371L231.914 133.273V135.078L229.422 140.449L230.066 168.293L227.574 171H226.93L224.438 167.391L223.793 141.352L224.438 135.078L220.055 134.176H211.289L208.797 130.566C209.37 127.559 210.831 126.055 213.18 126.055H218.809C218.809 123.677 220.055 122.488 222.547 122.488ZM266.203 118.879C269.612 119.91 271.488 120.97 271.832 122.059V122.832C264.355 129.65 258.727 136.224 254.945 142.555C263.453 142.555 269.454 144.66 272.949 148.871V151.277C272.949 164.426 268.079 171 258.34 171H253.828C246.323 169.969 242.57 167.333 242.57 163.094V149.688C245.464 138.745 252.969 128.475 265.086 118.879H266.203ZM252.711 149.688V163.91H260.574L262.809 154.414V150.461L257.18 149.688H252.711Z" fill="white"/>
</svg>
