<svg width="345" height="184" viewBox="0 0 345 184" fill="none" xmlns="http://www.w3.org/2000/svg">
<path d="M22.3008 26.1016H23.375C27.1849 26.1016 29.6628 27.4049 30.8086 30.0117V31C30.8086 33.1771 25.8529 35.1393 15.9414 36.8867C12.2174 41.1549 10.0977 45.3802 9.58203 49.5625V66.1914H13.793C17.1732 66.1914 24.263 62.6107 35.0625 55.4492H39.3164L42.4961 58.3711V59.3594C30.3789 69.7865 20.4674 75 12.7617 75H4.25391L0 71.0898V48.6172C4.78385 33.6068 12.2174 26.1016 22.3008 26.1016ZM72.6602 23.5234H75.5391C79.0339 27.4479 85.0924 40.8685 93.7148 63.7852L97.5391 67.5234V70.3164L93.7148 74.0547H92.7695C87.3268 71.2474 81.2539 58.457 74.5508 35.6836H73.6055L49.6719 75H44.9023L43.9141 74.0547H42.9688C50.388 57.6406 60.2852 40.7969 72.6602 23.5234ZM136.684 32.6758L139.09 34.0508V37.2305C135.882 54.2461 132.401 64.5586 128.648 68.168C127.589 72.7227 125.984 75 123.836 75H123.02L119.797 73.1953C122.318 66.4062 124.738 61.694 127.059 59.0586H126.242C123.979 59.0586 120.227 56.3372 114.984 50.8945L98.9141 39.9375V37.7031L100.504 36.7578H102.953C116.932 45.3802 124.967 51.4531 127.059 54.9766H127.832L132.645 33.1484L133.461 32.6758H136.684ZM180.855 23.8672H184.766L186.312 25.3711V27.6055L180.855 57.6836C180.855 67.2227 179.294 71.9922 176.172 71.9922L145.793 75C143.186 74.3125 141.883 72.5508 141.883 69.7148V42.6445C142.198 39.6367 142.971 38.1328 144.203 38.1328H146.566L148.887 40.4102V68.2109L158.254 67.4805L157.48 66.707V34.3945C157.796 31.3867 158.569 29.8828 159.801 29.8828H162.164L164.484 32.1172V65.9766H173.852V57.6836L179.309 29.8828V25.3711L180.855 23.8672ZM213.984 23.8672H216.09L218.152 27.3477V28.5078C215.689 37.2734 213.612 49.2904 211.922 64.5586H227.176C230.842 64.5586 234.079 61.4505 236.887 55.2344H238.992C240.367 55.2344 241.055 56.7812 241.055 59.875C238.276 69.9583 233.421 75 226.488 75H208.441L205.648 70.3594L202.211 71.5195C190.638 68.3685 184.852 62.9401 184.852 55.2344C187.057 35.8698 190.065 26.1875 193.875 26.1875C196.195 27.5052 197.355 29.4388 197.355 31.9883H206.379L210.504 34.3086C211.793 27.3477 212.953 23.8672 213.984 23.8672ZM191.77 44.793V47.1133L191.082 55.2344C196.009 59.1016 199.49 61.0352 201.523 61.0352H202.898C204.732 55.1341 205.648 48.9466 205.648 42.4727H200.793L191.77 44.793ZM254.805 26.4883H259.188L274.184 31.8594L274.828 32.7617V34.5664L272.336 38.1758L263.57 36.3711L264.172 37.2734V39.0781L261.68 44.4492L262.324 72.293L259.832 75H259.188L256.695 71.3906L256.051 45.3516L256.695 39.0781L252.312 38.1758H243.547L241.055 34.5664C241.628 31.5586 243.089 30.0547 245.438 30.0547H251.066C251.066 27.6771 252.312 26.4883 254.805 26.4883ZM298.461 22.8789C301.87 23.9102 303.746 24.9701 304.09 26.0586V26.832C296.613 33.6497 290.984 40.224 287.203 46.5547C295.711 46.5547 301.712 48.6602 305.207 52.8711V55.2773C305.207 68.4258 300.337 75 290.598 75H286.086C278.581 73.9688 274.828 71.3333 274.828 67.0938V53.6875C277.721 42.7448 285.227 32.4753 297.344 22.8789H298.461ZM284.969 53.6875V67.9102H292.832L295.066 58.4141V54.4609L289.438 53.6875H284.969Z" fill="white"/>
<path d="M48.4961 119.223C51.6185 119.223 57.2474 125.238 65.3828 137.27L75.9531 145.09C80.1068 132.027 84.6758 125.496 89.6602 125.496L95.9766 122.359C99.5 123.247 101.262 124.551 101.262 126.27C97.2227 156.09 94.0573 171 91.7656 171H86.4805L84.375 169.41L90.6914 135.68V134.906H89.6602C85.793 145.247 82.9714 151.263 81.1953 152.953H79.0898C71.6706 152.953 61.8307 145.634 49.5703 130.996L48.4961 142.77V151.406L44.2852 154.543H43.2109L39 151.406V143.543C40.4323 127.329 43.5977 119.223 48.4961 119.223ZM140.191 128.676L142.598 130.051V133.23C139.389 150.246 135.909 160.559 132.156 164.168C131.096 168.723 129.492 171 127.344 171H126.527L123.305 169.195C125.826 162.406 128.246 157.694 130.566 155.059H129.75C127.487 155.059 123.734 152.337 118.492 146.895L102.422 135.938V133.703L104.012 132.758H106.461C120.44 141.38 128.475 147.453 130.566 150.977H131.34L136.152 129.148L136.969 128.676H140.191ZM165.199 118.535H173.836C181.255 118.535 188.259 122.073 194.848 129.148L197.34 142.426L192.398 149.086V168.336L187.457 171H184.965C176.457 171 163.266 166.345 145.391 157.035L149.086 154.414H154.07C167.734 160.43 176.801 163.738 181.27 164.34V150.418H172.59C168.322 150.418 165.858 149.759 165.199 148.441V145.777C166.001 144.431 168.465 143.758 172.59 143.758H182.516L186.211 141.781C186.211 130.266 181.27 124.508 171.387 124.508H163.953L155.273 129.148H154.07L150.332 127.172V125.84C150.332 122.202 155.288 119.767 165.199 118.535ZM237.473 118.879H239.836L242.156 120.383L241.383 150.59V165.715L238.289 168.723H237.473L234.379 165.715V149.086C234.379 128.948 235.41 118.879 237.473 118.879ZM201.637 134.004H203.957L206.32 135.508L204.73 144.574L208.641 143.801H209.414C213.568 143.801 215.645 145.82 215.645 149.859V158.152C212.207 162.678 209.099 164.941 206.32 164.941H200.09L196.953 161.934V155.875C196.953 142.44 198.514 135.15 201.637 134.004ZM203.957 149.859V158.152H206.32L208.641 155.875V150.59L203.957 149.859ZM248.902 120.855C251.051 121.829 252.24 122.846 252.469 123.906V138.344C253.443 138.344 257.94 134.033 265.961 125.41H267.379C269.556 126.384 270.745 127.401 270.945 128.461V129.191L255.992 144.402C260.174 151.793 271.089 158.124 288.734 163.395C297.271 163.395 301.539 164.669 301.539 167.219V167.949L299.391 171C286.672 171 272.678 165.93 257.41 155.789L254.574 152.781L255.305 156.562V157.336L252.469 160.344H251.738C249.934 160.344 248.043 155.531 246.066 145.906V127.688L245.336 124.637C245.336 123.29 246.525 122.03 248.902 120.855ZM339.652 128.676L342.059 130.051V133.23C338.85 150.246 335.37 160.559 331.617 164.168C330.557 168.723 328.953 171 326.805 171H325.988L322.766 169.195C325.286 162.406 327.707 157.694 330.027 155.059H329.211C326.948 155.059 323.195 152.337 317.953 146.895L301.883 135.938V133.703L303.473 132.758H305.922C319.901 141.38 327.936 147.453 330.027 150.977H330.801L335.613 129.148L336.43 128.676H339.652Z" fill="white"/>
</svg>
