<svg width="273" height="54" viewBox="0 0 273 54" fill="none" xmlns="http://www.w3.org/2000/svg">
<path d="M9.6 26.32C8.08533 26.32 6.73067 26.0107 5.536 25.392C4.36267 24.7733 3.43467 23.8133 2.752 22.512C2.09067 21.2107 1.76 19.5467 1.76 17.52C1.76 15.408 2.112 13.6907 2.816 12.368C3.52 11.0453 4.46933 10.0747 5.664 9.456C6.88 8.83733 8.256 8.528 9.792 8.528C10.6667 8.528 11.5093 8.624 12.32 8.816C13.1307 8.98667 13.792 9.2 14.304 9.456L13.44 11.792C12.928 11.6 12.3307 11.4187 11.648 11.248C10.9653 11.0773 10.3253 10.992 9.728 10.992C8.576 10.992 7.62667 11.2373 6.88 11.728C6.13333 12.2187 5.57867 12.944 5.216 13.904C4.85333 14.864 4.672 16.0587 4.672 17.488C4.672 18.8533 4.85333 20.016 5.216 20.976C5.57867 21.936 6.12267 22.6613 6.848 23.152C7.57333 23.6427 8.48 23.888 9.568 23.888C10.5067 23.888 11.328 23.792 12.032 23.6C12.7573 23.408 13.4187 23.1733 14.016 22.896V25.392C13.44 25.6907 12.8 25.9147 12.096 26.064C11.4133 26.2347 10.5813 26.32 9.6 26.32ZM36.495 8.848V26H33.967V15.056C33.967 14.608 33.9777 14.1387 33.999 13.648C34.0417 13.1573 34.0843 12.6773 34.127 12.208H34.031L28.431 26H26.063L20.623 12.208H20.527C20.5697 12.6773 20.591 13.1573 20.591 13.648C20.6123 14.1387 20.623 14.64 20.623 15.152V26H18.095V8.848H21.839L27.247 22.64L32.751 8.848H36.495ZM56.882 17.392C56.882 18.8213 56.69 20.0907 56.306 21.2C55.9433 22.288 55.41 23.216 54.706 23.984C54.0233 24.752 53.1807 25.3387 52.178 25.744C51.1967 26.128 50.098 26.32 48.882 26.32C47.7513 26.32 46.706 26.128 45.746 25.744C44.786 25.3387 43.954 24.752 43.25 23.984C42.546 23.216 41.9913 22.288 41.586 21.2C41.202 20.0907 41.01 18.8213 41.01 17.392C41.01 15.4933 41.33 13.8933 41.97 12.592C42.61 11.2693 43.5273 10.2667 44.722 9.584C45.9167 8.88 47.3353 8.528 48.978 8.528C50.5353 8.528 51.9007 8.88 53.074 9.584C54.2687 10.2667 55.1967 11.2693 55.858 12.592C56.5407 13.8933 56.882 15.4933 56.882 17.392ZM43.922 17.392C43.922 18.736 44.0927 19.9093 44.434 20.912C44.7967 21.8933 45.3513 22.6507 46.098 23.184C46.8447 23.7173 47.794 23.984 48.946 23.984C50.098 23.984 51.0473 23.7173 51.794 23.184C52.5407 22.6507 53.0847 21.8933 53.426 20.912C53.7887 19.9093 53.97 18.736 53.97 17.392C53.97 16.0267 53.7887 14.864 53.426 13.904C53.0633 12.944 52.5087 12.208 51.762 11.696C51.0367 11.1627 50.0873 10.896 48.914 10.896C47.1647 10.896 45.8953 11.472 45.106 12.624C44.3167 13.776 43.922 15.3653 43.922 17.392ZM72.8725 11.216H67.2725V26H64.4885V11.216H58.9525V8.848H72.8725V11.216ZM84.4113 8.528C86.5233 8.528 88.2193 9.264 89.4993 10.736C90.8006 12.208 91.4513 14.4267 91.4513 17.392C91.4513 19.3333 91.1526 20.976 90.5553 22.32C89.9792 23.6427 89.1579 24.6453 88.0913 25.328C87.0459 25.9893 85.8086 26.32 84.3793 26.32C83.5046 26.32 82.7259 26.2027 82.0433 25.968C81.3606 25.7333 80.7739 25.4347 80.2833 25.072C79.8139 24.688 79.4086 24.272 79.0673 23.824H78.8753C78.9179 24.1867 78.9606 24.6453 79.0033 25.2C79.0459 25.7547 79.0673 26.2347 79.0673 26.64V33.68H76.2513V8.848H78.5553L78.9393 11.184H79.0673C79.4086 10.6933 79.8139 10.2453 80.2833 9.84C80.7739 9.43467 81.3499 9.11467 82.0113 8.88C82.6939 8.64533 83.4939 8.528 84.4113 8.528ZM83.8993 10.896C82.7473 10.896 81.8193 11.12 81.1153 11.568C80.4113 11.9947 79.8993 12.6453 79.5793 13.52C79.2593 14.3947 79.0886 15.504 79.0673 16.848V17.392C79.0673 18.8 79.2166 19.9947 79.5153 20.976C79.8139 21.9573 80.3153 22.704 81.0193 23.216C81.7446 23.728 82.7259 23.984 83.9633 23.984C85.0086 23.984 85.8619 23.696 86.5233 23.12C87.2059 22.544 87.7073 21.7653 88.0273 20.784C88.3686 19.7813 88.5393 18.64 88.5393 17.36C88.5393 15.3973 88.1553 13.8293 87.3873 12.656C86.6406 11.4827 85.4779 10.896 83.8993 10.896ZM102.563 8.528C104.035 8.528 105.293 8.848 106.339 9.488C107.405 10.128 108.216 11.0347 108.771 12.208C109.347 13.36 109.635 14.7147 109.635 16.272V17.968H97.8908C97.9334 19.9093 98.4241 21.392 99.3628 22.416C100.323 23.4187 101.656 23.92 103.363 23.92C104.451 23.92 105.411 23.824 106.243 23.632C107.096 23.4187 107.971 23.12 108.867 22.736V25.2C107.992 25.584 107.128 25.8613 106.275 26.032C105.421 26.224 104.408 26.32 103.235 26.32C101.613 26.32 100.173 25.9893 98.9148 25.328C97.6774 24.6667 96.7068 23.6853 96.0028 22.384C95.3201 21.0613 94.9788 19.4507 94.9788 17.552C94.9788 15.6747 95.2881 14.064 95.9068 12.72C96.5468 11.376 97.4321 10.3413 98.5628 9.616C99.7148 8.89067 101.048 8.528 102.563 8.528ZM102.531 10.832C101.187 10.832 100.12 11.2693 99.3308 12.144C98.5628 12.9973 98.1041 14.192 97.9548 15.728H106.691C106.691 14.7467 106.541 13.8933 106.243 13.168C105.944 12.4427 105.485 11.8773 104.867 11.472C104.269 11.0453 103.491 10.832 102.531 10.832ZM125.841 11.216H120.241V26H117.457V11.216H111.921V8.848H125.841V11.216ZM137.124 15.888C138.617 15.888 139.855 16.0693 140.836 16.432C141.817 16.7947 142.553 17.3387 143.044 18.064C143.556 18.768 143.812 19.664 143.812 20.752C143.812 21.8187 143.567 22.7467 143.076 23.536C142.607 24.3253 141.871 24.9333 140.868 25.36C139.865 25.7867 138.575 26 136.996 26H129.22V8.848H132.036V15.888H137.124ZM140.996 20.912C140.996 19.8667 140.623 19.1627 139.876 18.8C139.151 18.416 138.127 18.224 136.804 18.224H132.036V23.728H136.868C138.063 23.728 139.044 23.5147 139.812 23.088C140.601 22.6613 140.996 21.936 140.996 20.912ZM167.05 8.848V23.632H169.546V31.952H166.826V26H154.89V31.952H152.202V23.632H153.578C154.559 22.2667 155.37 20.784 156.01 19.184C156.671 17.5627 157.162 15.8773 157.482 14.128C157.823 12.3573 158.004 10.5973 158.026 8.848H167.05ZM160.522 11.056C160.436 12.5067 160.212 14.0107 159.85 15.568C159.487 17.104 159.018 18.576 158.442 19.984C157.887 21.392 157.236 22.608 156.49 23.632H164.33V11.056H160.522ZM179.404 8.56C181.494 8.56 183.041 9.01867 184.044 9.936C185.046 10.8533 185.548 12.3147 185.548 14.32V26H183.5L182.956 23.568H182.828C182.337 24.1867 181.825 24.7093 181.292 25.136C180.78 25.5413 180.182 25.84 179.5 26.032C178.838 26.224 178.028 26.32 177.068 26.32C176.044 26.32 175.116 26.1387 174.284 25.776C173.473 25.4133 172.833 24.8587 172.364 24.112C171.894 23.344 171.66 22.384 171.66 21.232C171.66 19.5253 172.332 18.2133 173.676 17.296C175.02 16.3573 177.089 15.8453 179.884 15.76L182.796 15.664V14.64C182.796 13.2107 182.486 12.2187 181.868 11.664C181.249 11.1093 180.374 10.832 179.244 10.832C178.348 10.832 177.494 10.9707 176.684 11.248C175.873 11.504 175.116 11.8027 174.411 12.144L173.548 10.032C174.294 9.62667 175.18 9.28533 176.204 9.008C177.228 8.70933 178.294 8.56 179.404 8.56ZM180.236 17.712C178.102 17.7973 176.62 18.1387 175.788 18.736C174.977 19.3333 174.572 20.176 174.572 21.264C174.572 22.224 174.86 22.928 175.436 23.376C176.033 23.824 176.79 24.048 177.708 24.048C179.158 24.048 180.364 23.6533 181.324 22.864C182.284 22.0533 182.764 20.816 182.764 19.152V17.616L180.236 17.712ZM203.901 26H201.053V11.184H195.997C195.784 13.8933 195.517 16.208 195.197 18.128C194.877 20.0267 194.472 21.5733 193.981 22.768C193.49 23.9627 192.904 24.8373 192.221 25.392C191.538 25.9467 190.738 26.224 189.821 26.224C189.544 26.224 189.266 26.2027 188.989 26.16C188.733 26.1387 188.52 26.0853 188.349 26V23.888C188.477 23.9307 188.616 23.9627 188.765 23.984C188.914 24.0053 189.064 24.016 189.213 24.016C189.682 24.016 190.109 23.824 190.493 23.44C190.877 23.056 191.218 22.4693 191.517 21.68C191.837 20.8907 192.125 19.8987 192.381 18.704C192.637 17.488 192.861 16.0587 193.053 14.416C193.245 12.7733 193.416 10.9173 193.565 8.848H203.901V26ZM217.249 15.888C218.742 15.888 219.98 16.0693 220.961 16.432C221.942 16.7947 222.678 17.3387 223.169 18.064C223.681 18.768 223.937 19.664 223.937 20.752C223.937 21.8187 223.692 22.7467 223.201 23.536C222.732 24.3253 221.996 24.9333 220.993 25.36C219.99 25.7867 218.7 26 217.121 26H209.345V8.848H212.161V15.888H217.249ZM221.121 20.912C221.121 19.8667 220.748 19.1627 220.001 18.8C219.276 18.416 218.252 18.224 216.929 18.224H212.161V23.728H216.993C218.188 23.728 219.169 23.5147 219.937 23.088C220.726 22.6613 221.121 21.936 221.121 20.912ZM251.609 8.848V26H228.345V8.848H231.161V23.632H238.553V8.848H241.369V23.632H248.793V8.848H251.609ZM263.719 8.528C265.191 8.528 266.45 8.848 267.495 9.488C268.562 10.128 269.372 11.0347 269.927 12.208C270.503 13.36 270.791 14.7147 270.791 16.272V17.968H259.047C259.09 19.9093 259.58 21.392 260.519 22.416C261.479 23.4187 262.812 23.92 264.519 23.92C265.607 23.92 266.567 23.824 267.399 23.632C268.252 23.4187 269.127 23.12 270.023 22.736V25.2C269.148 25.584 268.284 25.8613 267.431 26.032C266.578 26.224 265.564 26.32 264.391 26.32C262.77 26.32 261.33 25.9893 260.071 25.328C258.834 24.6667 257.863 23.6853 257.159 22.384C256.476 21.0613 256.135 19.4507 256.135 17.552C256.135 15.6747 256.444 14.064 257.063 12.72C257.703 11.376 258.588 10.3413 259.719 9.616C260.871 8.89067 262.204 8.528 263.719 8.528ZM263.687 10.832C262.343 10.832 261.276 11.2693 260.487 12.144C259.719 12.9973 259.26 14.192 259.111 15.728H267.847C267.847 14.7467 267.698 13.8933 267.399 13.168C267.1 12.4427 266.642 11.8773 266.023 11.472C265.426 11.0453 264.647 10.832 263.687 10.832Z" fill="white"/>
<path d="M136 54L126 42H146L136 54Z" fill="white"/>
</svg>
