<svg width="399" height="184" viewBox="0 0 399 184" fill="none" xmlns="http://www.w3.org/2000/svg">
<path d="M53.1953 24.8555H55.6875L58.1797 27.8203C53.1953 42.888 49.8724 55.3346 48.2109 65.1602V71.0469L44.9023 75H44.043L40.7344 71.0469V64.1719L42.3672 56.3086L13.2773 51.4102H8.29297C7.7487 61.2357 6.3737 66.1484 4.16797 66.1484H3.30859L0 62.2383V60.2617L1.67578 44.5352V36.6719C2.01953 32.7188 2.85026 30.7422 4.16797 30.7422H6.66016L9.15234 33.707V42.5586H14.1367L44.043 48.4453C48.4831 32.7188 51.5339 24.8555 53.1953 24.8555ZM89.2891 23.8672H91.3945L93.457 27.3477V28.5078C90.9935 37.2734 88.9167 49.2904 87.2266 64.5586H102.48C106.147 64.5586 109.384 61.4505 112.191 55.2344H114.297C115.672 55.2344 116.359 56.7812 116.359 59.875C113.581 69.9583 108.725 75 101.793 75H83.7461L80.9531 70.3594L77.5156 71.5195C65.9427 68.3685 60.1562 62.9401 60.1562 55.2344C62.362 35.8698 65.3698 26.1875 69.1797 26.1875C71.5 27.5052 72.6602 29.4388 72.6602 31.9883H81.6836L85.8086 34.3086C87.0977 27.3477 88.2578 23.8672 89.2891 23.8672ZM67.0742 44.793V47.1133L66.3867 55.2344C71.3138 59.1016 74.7943 61.0352 76.8281 61.0352H78.2031C80.0365 55.1341 80.9531 48.9466 80.9531 42.4727H76.0977L67.0742 44.793ZM118.336 22.5352H120.914C122.633 22.5352 123.793 25.3281 124.395 30.9141L139.906 47.0273C140.852 47.0273 144.003 43.5326 149.359 36.543L158.855 30.2266C161.462 31.1432 162.895 32.0742 163.152 33.0195V33.707C151.665 43.5039 145.635 50.2786 145.062 54.0312C152.883 60.3906 158.913 65.9766 163.152 70.7891V72.207L159.715 75H158.855L140.766 59.6172C139.19 63.9427 134.592 67.6667 126.973 70.7891L126.113 71.5195H125.254C122.934 70.5456 121.773 69.3711 121.773 67.9961C121.773 66.6497 124.939 64.3151 131.27 60.9922L136.426 53.3008C122.647 39.4362 115.758 31.043 115.758 28.1211V26.7461C116.13 23.9388 116.99 22.5352 118.336 22.5352ZM175.055 22.5352C201.323 25.4857 214.457 29.7682 214.457 35.3828C214.457 49.2474 208.083 62.4531 195.336 75H191.941C173.178 72.7083 163.797 68.4258 163.797 62.1523V61.0781C163.797 49.0755 169.053 40.1523 179.566 34.3086L180.684 33.2344V32.1602C172.434 32.1602 168.309 30.7422 168.309 27.9062C169.512 24.3255 171.76 22.5352 175.055 22.5352ZM173.938 61.0781L188.547 65.375H191.941C195.322 65.375 199.447 56.0938 204.316 37.5312H203.199L196.453 35.3828C181.443 41.4844 173.938 49.6914 173.938 60.0039V61.0781ZM246.598 23.2227C249.09 24.2539 250.465 25.3138 250.723 26.4023V44.75H253.172C257.927 44.75 260.935 49.7917 262.195 59.875L266.32 71.8203L263.012 75H262.195C259.102 75 256.094 67.2943 253.172 51.8828H251.539L248.23 54.2891H247.414L244.148 51.8828H228.508V52.6992L230.141 65.4609V66.2344L226.875 69.4141H226.059C223.996 69.4141 222.077 63.5703 220.301 51.8828C217.007 51.8828 215.359 50.5651 215.359 47.9297C215.359 45.8099 217.823 44.75 222.75 44.75L225.242 43.1172L230.141 44.75H230.957V40.7539L229.324 27.9922C230.098 25.3568 232.017 24.0391 235.082 24.0391H243.289L246.598 23.2227ZM237.531 31.1719L238.391 40.7539V44.75H243.289V31.1719H237.531ZM272.852 22.8789C277.693 22.8789 281.259 31.0716 283.551 47.457L295.41 29.7539L304.906 22.8789C308.516 24.1393 310.492 25.457 310.836 26.832V44.5352L315.605 63.1836V65.1602L310.836 69.1133H309.676C304.434 69.1133 301.268 59.2734 300.18 39.5938H298.977C289.953 63.1979 284.41 75 282.348 75H275.215L272.852 73.0234V48.4453C272.852 41.5417 270.875 34.6523 266.922 27.7773C266.922 26.0586 268.898 24.4258 272.852 22.8789ZM329.656 26.4883H334.039L349.035 31.8594L349.68 32.7617V34.5664L347.188 38.1758L338.422 36.3711L339.023 37.2734V39.0781L336.531 44.4492L337.176 72.293L334.684 75H334.039L331.547 71.3906L330.902 45.3516L331.547 39.0781L327.164 38.1758H318.398L315.906 34.5664C316.479 31.5586 317.94 30.0547 320.289 30.0547H325.918C325.918 27.6771 327.164 26.4883 329.656 26.4883ZM373.312 22.8789C376.721 23.9102 378.598 24.9701 378.941 26.0586V26.832C371.465 33.6497 365.836 40.224 362.055 46.5547C370.562 46.5547 376.564 48.6602 380.059 52.8711V55.2773C380.059 68.4258 375.189 75 365.449 75H360.938C353.432 73.9688 349.68 71.3333 349.68 67.0938V53.6875C352.573 42.7448 360.078 32.4753 372.195 22.8789H373.312ZM359.82 53.6875V67.9102H367.684L369.918 58.4141V54.4609L364.289 53.6875H359.82Z" fill="white"/>
<path d="M70.7383 119.223C73.2305 120.254 74.6055 121.314 74.8633 122.402V140.75H77.3125C82.0677 140.75 85.0755 145.792 86.3359 155.875L90.4609 167.82L87.1523 171H86.3359C83.2422 171 80.2344 163.294 77.3125 147.883H75.6797L72.3711 150.289H71.5547L68.2891 147.883H52.6484V148.699L54.2812 161.461V162.234L51.0156 165.414H50.1992C48.1367 165.414 46.2174 159.57 44.4414 147.883C41.1471 147.883 39.5 146.565 39.5 143.93C39.5 141.81 41.9635 140.75 46.8906 140.75L49.3828 139.117L54.2812 140.75H55.0977V136.754L53.4648 123.992C54.2383 121.357 56.1576 120.039 59.2227 120.039H67.4297L70.7383 119.223ZM61.6719 127.172L62.5312 136.754V140.75H67.4297V127.172H61.6719ZM123.418 118.535C129.863 118.535 135.965 123.061 141.723 132.113V137.527C141.723 145.462 130.221 150.59 107.219 152.91V167.391L102.922 171H101.848L97.5508 167.391V153.812C94.3997 153.812 92.237 152.609 91.0625 150.203C92.237 147.195 94.3997 145.691 97.5508 145.691V131.211C97.5508 125.826 106.173 121.6 123.418 118.535ZM107.219 132.113V144.746C123.747 143.543 132.012 141.137 132.012 137.527V133.918C128.431 129.077 125.924 126.656 124.492 126.656C112.977 129.091 107.219 130.91 107.219 132.113ZM180.395 128.676L182.801 130.051V133.23C179.592 150.246 176.112 160.559 172.359 164.168C171.299 168.723 169.695 171 167.547 171H166.73L163.508 169.195C166.029 162.406 168.449 157.694 170.77 155.059H169.953C167.69 155.059 163.938 152.337 158.695 146.895L142.625 135.938V133.703L144.215 132.758H146.664C160.643 141.38 168.678 147.453 170.77 150.977H171.543L176.355 129.148L177.172 128.676H180.395ZM205.402 118.535H214.039C221.458 118.535 228.462 122.073 235.051 129.148L237.543 142.426L232.602 149.086V168.336L227.66 171H225.168C216.66 171 203.469 166.345 185.594 157.035L189.289 154.414H194.273C207.938 160.43 217.004 163.738 221.473 164.34V150.418H212.793C208.525 150.418 206.061 149.759 205.402 148.441V145.777C206.204 144.431 208.668 143.758 212.793 143.758H222.719L226.414 141.781C226.414 130.266 221.473 124.508 211.59 124.508H204.156L195.477 129.148H194.273L190.535 127.172V125.84C190.535 122.202 195.491 119.767 205.402 118.535ZM265.129 117.891C268.71 117.891 271.044 119.28 272.133 122.059V131.426C272.133 141.137 265.473 145.992 252.152 145.992H249.145L246.137 155.359V160.602L251.164 161.633H256.148C274.138 159.542 283.133 156.763 283.133 153.297H286.098C288.103 153.297 289.105 154.686 289.105 157.465C289.105 163.681 278.779 168.193 258.125 171H250.133C241.482 169.883 237.156 166.417 237.156 160.602V156.434C244.174 130.738 252.167 117.891 261.133 117.891H265.129ZM254.129 136.625H257.137C261.147 136.625 263.152 134.548 263.152 130.395V127.258C257.137 128.375 254.129 131.497 254.129 136.625ZM304.016 111.016L320.902 120.039C327.749 122.245 334.466 123.62 341.055 124.164L342.645 126.613V127.43L339.422 130.738H338.605C328.178 130.738 316.104 126.628 302.383 118.406C300.807 118.406 299.475 117.318 298.387 115.141C299.132 112.391 301.008 111.016 304.016 111.016ZM291.125 135.68H293.531L295.98 138.129V151.277L298.387 163.609L316.906 136.496H320.129C321.934 136.496 324.612 143.887 328.164 158.668C329.224 158.668 329.754 159.771 329.754 161.977C333.22 163.409 335.096 164.77 335.383 166.059V166.875L332.16 170.184H331.387C325.285 170.184 320.988 162.793 318.496 148.012H316.906C314.07 154.171 308.971 161.833 301.609 171H293.531C292.471 171 290.867 164.426 288.719 151.277V140.578C289.062 137.312 289.865 135.68 291.125 135.68Z" fill="white"/>
</svg>
