<svg width="868" height="868" viewBox="0 0 868 868" fill="none" xmlns="http://www.w3.org/2000/svg">
<path d="M434 0L491.03 73.9283L568.113 21.2415L599.507 109.175L689.099 82.8866L691.783 176.217L785.113 178.901L758.825 268.493L846.759 299.887L794.072 376.97L868 434L794.072 491.03L846.759 568.113L758.825 599.507L785.113 689.099L691.783 691.783L689.099 785.113L599.507 758.825L568.113 846.759L491.03 794.072L434 868L376.97 794.072L299.887 846.759L268.493 758.825L178.901 785.113L176.217 691.783L82.8866 689.099L109.175 599.507L21.2415 568.113L73.9283 491.03L0 434L73.9283 376.97L21.2415 299.887L109.175 268.493L82.8866 178.901L176.217 176.217L178.901 82.8866L268.493 109.175L299.887 21.2415L376.97 73.9283L434 0Z" fill="#FFBB00"/>
</svg>
