<svg width="306" height="184" viewBox="0 0 306 184" fill="none" xmlns="http://www.w3.org/2000/svg">
<path d="M9.79688 23.5234H20.582L21.5703 24.2969L22.5586 23.5234H31.3672L33.3438 25.0273L31.3672 29.582C41.1927 39.4362 46.1055 45.237 46.1055 46.9844V47.7578C46.1055 49.763 44.1432 52.026 40.2188 54.5469C46.75 56.8672 50.0156 60.6628 50.0156 65.9336V71.9922L46.1055 75H27.457L26.4688 74.2266L25.4805 75H20.582C13.3919 73.1953 9.79688 71.4336 9.79688 69.7148L12.7617 66.6641H17.6602L12.7617 36.3711C13.7357 34.3659 14.7096 33.3633 15.6836 33.3633H18.6484C20.8828 33.3633 22.5156 38.9206 23.5469 50.0352C32.6849 49.0039 37.2539 47.987 37.2539 46.9844C27.056 35.2682 19.5365 29.2096 14.6953 28.8086L9.79688 29.582L6.875 26.5312V25.8008L9.79688 23.5234ZM1.97656 40.1953V42.4297H0V40.1953H1.97656ZM24.5352 56.8242C25.8242 59.3737 26.4688 63.1549 26.4688 68.168H41.207V67.4375C41.207 62.0521 36.2943 58.5143 26.4688 56.8242H24.5352ZM55.1289 24.8555C57.2773 25.8294 58.4661 26.8464 58.6953 27.9062V42.3438C59.6693 42.3438 64.1667 38.0326 72.1875 29.4102H73.6055C75.7826 30.3841 76.9714 31.401 77.1719 32.4609V33.1914L62.2188 48.4023C66.401 55.793 77.3151 62.1237 94.9609 67.3945C103.497 67.3945 107.766 68.6693 107.766 71.2188V71.9492L105.617 75C92.8984 75 78.9049 69.9297 63.6367 59.7891L60.8008 56.7812L61.5312 60.5625V61.3359L58.6953 64.3438H57.9648C56.1602 64.3438 54.2695 59.5312 52.293 49.9062V31.6875L51.5625 28.6367C51.5625 27.2904 52.7513 26.0299 55.1289 24.8555ZM145.879 32.6758L148.285 34.0508V37.2305C145.077 54.2461 141.596 64.5586 137.844 68.168C136.784 72.7227 135.18 75 133.031 75H132.215L128.992 73.1953C131.513 66.4062 133.934 61.694 136.254 59.0586H135.438C133.174 59.0586 129.422 56.3372 124.18 50.8945L108.109 39.9375V37.7031L109.699 36.7578H112.148C126.128 45.3802 134.163 51.4531 136.254 54.9766H137.027L141.84 33.1484L142.656 32.6758H145.879ZM173.379 26.1016H174.453C178.263 26.1016 180.741 27.4049 181.887 30.0117V31C181.887 33.1771 176.931 35.1393 167.02 36.8867C163.296 41.1549 161.176 45.3802 160.66 49.5625V66.1914H164.871C168.251 66.1914 175.341 62.6107 186.141 55.4492H190.395L193.574 58.3711V59.3594C181.457 69.7865 171.546 75 163.84 75H155.332L151.078 71.0898V48.6172C155.862 33.6068 163.296 26.1016 173.379 26.1016ZM247.242 24.8555H249.734L252.227 27.8203C247.242 42.888 243.919 55.3346 242.258 65.1602V71.0469L238.949 75H238.09L234.781 71.0469V64.1719L236.414 56.3086L207.324 51.4102H202.34C201.796 61.2357 200.421 66.1484 198.215 66.1484H197.355L194.047 62.2383V60.2617L195.723 44.5352V36.6719C196.066 32.7188 196.897 30.7422 198.215 30.7422H200.707L203.199 33.707V42.5586H208.184L238.09 48.4453C242.53 32.7188 245.581 24.8555 247.242 24.8555ZM265.461 22.5352C291.729 25.4857 304.863 29.7682 304.863 35.3828C304.863 49.2474 298.49 62.4531 285.742 75H282.348C263.585 72.7083 254.203 68.4258 254.203 62.1523V61.0781C254.203 49.0755 259.46 40.1523 269.973 34.3086L271.09 33.2344V32.1602C262.84 32.1602 258.715 30.7422 258.715 27.9062C259.918 24.3255 262.167 22.5352 265.461 22.5352ZM264.344 61.0781L278.953 65.375H282.348C285.728 65.375 289.853 56.0938 294.723 37.5312H293.605L286.859 35.3828C271.849 41.4844 264.344 49.6914 264.344 60.0039V61.0781Z" fill="white"/>
<path d="M3.56641 120.855C5.71484 121.829 6.90365 122.846 7.13281 123.906V138.344C8.10677 138.344 12.6042 134.033 20.625 125.41H22.043C24.2201 126.384 25.4089 127.401 25.6094 128.461V129.191L10.6562 144.402C14.8385 151.793 25.7526 158.124 43.3984 163.395C51.9349 163.395 56.2031 164.669 56.2031 167.219V167.949L54.0547 171C41.3359 171 27.3424 165.93 12.0742 155.789L9.23828 152.781L9.96875 156.562V157.336L7.13281 160.344H6.40234C4.59766 160.344 2.70703 155.531 0.730469 145.906V127.688L0 124.637C0 123.29 1.1888 122.03 3.56641 120.855ZM94.3164 128.676L96.7227 130.051V133.23C93.5143 150.246 90.0339 160.559 86.2812 164.168C85.2214 168.723 83.6172 171 81.4688 171H80.6523L77.4297 169.195C79.9505 162.406 82.3711 157.694 84.6914 155.059H83.875C81.612 155.059 77.8594 152.337 72.6172 146.895L56.5469 135.938V133.703L58.1367 132.758H60.5859C74.5651 141.38 82.6003 147.453 84.6914 150.977H85.4648L90.2773 129.148L91.0938 128.676H94.3164ZM138.488 119.867H142.398L143.945 121.371V123.605L138.488 153.684C138.488 163.223 136.927 167.992 133.805 167.992L103.426 171C100.819 170.312 99.5156 168.551 99.5156 165.715V138.645C99.8307 135.637 100.604 134.133 101.836 134.133H104.199L106.52 136.41V164.211L115.887 163.48L115.113 162.707V130.395C115.428 127.387 116.202 125.883 117.434 125.883H119.797L122.117 128.117V161.977H131.484V153.684L136.941 125.883V121.371L138.488 119.867ZM171.617 119.867H173.723L175.785 123.348V124.508C173.322 133.273 171.245 145.29 169.555 160.559H184.809C188.475 160.559 191.712 157.451 194.52 151.234H196.625C198 151.234 198.688 152.781 198.688 155.875C195.909 165.958 191.053 171 184.121 171H166.074L163.281 166.359L159.844 167.52C148.271 164.368 142.484 158.94 142.484 151.234C144.69 131.87 147.698 122.188 151.508 122.188C153.828 123.505 154.988 125.439 154.988 127.988H164.012L168.137 130.309C169.426 123.348 170.586 119.867 171.617 119.867ZM149.402 140.793V143.113L148.715 151.234C153.642 155.102 157.122 157.035 159.156 157.035H160.531C162.365 151.134 163.281 144.947 163.281 138.473H158.426L149.402 140.793ZM212.438 122.488H216.82L231.816 127.859L232.461 128.762V130.566L229.969 134.176L221.203 132.371L221.805 133.273V135.078L219.312 140.449L219.957 168.293L217.465 171H216.82L214.328 167.391L213.684 141.352L214.328 135.078L209.945 134.176H201.18L198.688 130.566C199.26 127.559 200.721 126.055 203.07 126.055H208.699C208.699 123.677 209.945 122.488 212.438 122.488ZM256.094 118.879C259.503 119.91 261.379 120.97 261.723 122.059V122.832C254.246 129.65 248.617 136.224 244.836 142.555C253.344 142.555 259.345 144.66 262.84 148.871V151.277C262.84 164.426 257.97 171 248.23 171H243.719C236.214 169.969 232.461 167.333 232.461 163.094V149.688C235.354 138.745 242.859 128.475 254.977 118.879H256.094ZM242.602 149.688V163.91H250.465L252.699 154.414V150.461L247.07 149.688H242.602Z" fill="white"/>
</svg>
