<svg width="211" height="207" viewBox="0 0 211 207" fill="none" xmlns="http://www.w3.org/2000/svg">
<circle cx="107.5" cy="103.5" r="103.5" fill="#2E281D"/>
<circle cx="103.5" cy="103.5" r="102.75" fill="#FF7F0F" stroke="#2E281D" stroke-width="1.5"/>
<path d="M43.0109 142.929L45.4843 146.536C46.6447 148.228 47.2968 149.991 47.4405 151.823C47.5843 153.656 47.2378 155.411 46.401 157.086C45.5643 158.762 44.2553 160.211 42.474 161.432C40.6927 162.654 38.866 163.355 36.9938 163.537C35.1215 163.719 33.3528 163.415 31.6875 162.626C30.0222 161.836 28.6094 160.595 27.4491 158.903L24.9756 155.296C23.8153 153.604 23.1632 151.841 23.0194 150.009C22.8756 148.176 23.2221 146.421 24.0589 144.746C24.8957 143.07 26.2047 141.621 27.986 140.4C29.7672 139.178 31.594 138.477 33.4662 138.295C35.3384 138.113 37.1072 138.417 38.7724 139.206C40.4377 139.996 41.8505 141.237 43.0109 142.929ZM40.5617 144.608C39.6761 143.317 38.6571 142.412 37.5046 141.893C36.3571 141.381 35.1321 141.233 33.8294 141.45C32.5319 141.674 31.2151 142.244 29.8792 143.161C28.5581 144.066 27.5629 145.082 26.8937 146.206C26.2295 147.338 25.9293 148.531 25.9932 149.786C26.0621 151.048 26.5393 152.325 27.4249 153.617L29.8983 157.224C30.7838 158.515 31.8003 159.417 32.9477 159.928C34.1003 160.447 35.3253 160.595 36.6229 160.371C37.9255 160.154 39.2448 159.588 40.5808 158.671C41.9019 157.766 42.8945 156.747 43.5587 155.615C44.2279 154.49 44.5281 153.297 44.4591 152.035C44.3953 150.78 43.9206 149.507 43.0351 148.215L40.5617 144.608ZM48.3267 143.998L24.1906 160.548L22.2974 157.787L46.4335 141.237L48.3267 143.998Z" fill="#2E281D"/>
<path d="M55.2005 153.901L57.9017 155.785L45.4506 173.631L45.672 173.786L70.5222 164.591L73.1791 166.444L57.3604 189.117L54.6149 187.201L67.0351 169.4L66.8137 169.245L42.0386 178.427L39.3817 176.573L55.2005 153.901Z" fill="#2E281D"/>
<path d="M66.548 193.671L67.3491 190.699L68.1311 190.91C69.2433 191.21 70.2039 191.087 71.0129 190.541C71.822 189.995 72.5755 188.963 73.2735 187.445C73.9803 185.93 74.7351 183.874 75.5382 181.275L79.479 168.525L95.7448 172.91L88.5485 199.602L85.3162 198.731L91.7395 174.906L81.7819 172.221L78.4975 182.744C77.639 185.514 76.7408 187.826 75.803 189.679C74.8652 191.533 73.7443 192.838 72.4402 193.596C71.1361 194.354 69.5022 194.468 67.5385 193.938L66.548 193.671Z" fill="#2E281D"/>
<path d="M101.698 184.364L109.569 183.928C111.546 183.819 113.23 184.05 114.623 184.622C116.025 185.194 117.108 186.049 117.874 187.187C118.649 188.325 119.081 189.693 119.169 191.293C119.258 192.892 118.981 194.323 118.339 195.584C117.705 196.845 116.725 197.859 115.398 198.626C114.079 199.393 112.431 199.831 110.455 199.941L100.103 200.513L98.5764 172.91L101.919 172.725L103.285 197.417L110.293 197.029C111.551 196.96 112.602 196.649 113.446 196.098C114.298 195.537 114.927 194.844 115.332 194.02C115.746 193.186 115.927 192.319 115.878 191.421C115.805 190.1 115.234 188.991 114.166 188.095C113.098 187.19 111.62 186.789 109.733 186.894L101.862 187.329L101.698 184.364Z" fill="#2E281D"/>
<path d="M119.326 174.531L118.269 171.756L137.644 164.373L138.702 167.148L130.578 170.243L139.364 193.302L136.236 194.494L127.45 171.435L119.326 174.531Z" fill="#2E281D"/>
<path d="M156.247 184.913L139.228 163.127L146.589 157.376C148.298 156.041 149.936 155.258 151.503 155.027C153.072 154.784 154.526 154.979 155.865 155.611C157.204 156.244 158.375 157.202 159.378 158.485C160.381 159.769 161.029 161.141 161.325 162.6C161.627 164.054 161.479 165.517 160.882 166.989C160.279 168.453 159.13 169.848 157.435 171.172L152.159 175.294L150.33 172.953L155.521 168.898C156.692 167.984 157.473 167.048 157.867 166.089C158.26 165.131 158.348 164.184 158.129 163.246C157.913 162.296 157.464 161.385 156.782 160.513C156.101 159.641 155.328 158.988 154.465 158.555C153.608 158.117 152.669 157.982 151.648 158.151C150.622 158.314 149.516 158.858 148.332 159.783L143.694 163.406L158.885 182.852L156.247 184.913Z" fill="#2E281D"/>
<path d="M166.167 155.116L170.365 148.443C171.419 146.767 172.582 145.527 173.854 144.722C175.131 143.909 176.455 143.52 177.827 143.553C179.203 143.579 180.569 144.019 181.925 144.872C183.281 145.725 184.288 146.778 184.945 148.031C185.607 149.277 185.867 150.664 185.725 152.191C185.588 153.71 184.993 155.307 183.938 156.983L178.418 165.758L155.018 151.036L156.801 148.203L177.732 161.372L181.47 155.43C182.141 154.364 182.496 153.327 182.534 152.32C182.57 151.3 182.368 150.387 181.93 149.579C181.489 148.76 180.887 148.11 180.126 147.631C179.006 146.926 177.772 146.751 176.423 147.103C175.066 147.451 173.885 148.425 172.878 150.025L168.68 156.697L166.167 155.116ZM168.647 129.373L192.047 144.095L190.264 146.928L166.864 132.207L168.647 129.373Z" fill="#2E281D"/>
<path d="M164.372 65.0681L161.899 61.4611C160.738 59.7689 160.086 58.0064 159.942 56.1736C159.799 54.3408 160.145 52.5865 160.982 50.9106C161.819 49.2347 163.128 47.7861 164.909 46.5646C166.69 45.3432 168.517 44.6416 170.389 44.4599C172.261 44.2781 174.03 44.582 175.695 45.3715C177.361 46.161 178.773 47.4018 179.934 49.094L182.407 52.701C183.568 54.3932 184.22 56.1557 184.363 57.9885C184.507 59.8213 184.161 61.5756 183.324 63.2515C182.487 64.9274 181.178 66.376 179.397 67.5975C177.616 68.8189 175.789 69.5205 173.917 69.7022C172.044 69.884 170.276 69.5801 168.61 68.7906C166.945 68.0012 165.532 66.7603 164.372 65.0681ZM166.821 63.3886C167.707 64.6801 168.726 65.5853 169.878 66.1044C171.026 66.6161 172.251 66.7636 173.553 66.5469C174.851 66.3227 176.168 65.7526 177.504 64.8365C178.825 63.9306 179.82 62.9154 180.489 61.7909C181.153 60.6589 181.453 59.4656 181.39 58.2109C181.321 56.9487 180.843 55.6719 179.958 54.3805L177.485 50.7735C176.599 49.4821 175.582 48.5805 174.435 48.0688C173.283 47.5497 172.058 47.4022 170.76 47.6264C169.457 47.8431 168.138 48.4095 166.802 49.3256C165.481 50.2315 164.488 51.2504 163.824 52.3824C163.155 53.5069 162.855 54.7002 162.924 55.9624C162.988 57.2171 163.462 58.4902 164.348 59.7816L166.821 63.3886ZM159.056 63.9994L183.192 47.4489L185.085 50.2098L160.949 66.7603L159.056 63.9994Z" fill="#2E281D"/>
<path d="M152.182 54.0965L149.481 52.2119L161.932 34.366L161.711 34.2115L136.861 43.4065L134.204 41.5527L150.022 18.8801L152.768 20.7957L140.348 38.5972L140.569 38.7517L165.344 29.5701L168.001 31.4239L152.182 54.0965Z" fill="#2E281D"/>
<path d="M140.835 14.326L140.034 17.2976L139.252 17.0868C138.139 16.7869 137.179 16.9101 136.37 17.4563C135.561 18.0024 134.807 19.0343 134.109 20.5517C133.403 22.0668 132.648 24.1236 131.845 26.7219L127.904 39.4725L111.638 35.0872L118.834 8.39462L122.067 9.26605L115.643 33.0913L125.601 35.7758L128.885 25.2529C129.744 22.4832 130.642 20.1715 131.58 18.3179C132.518 16.4643 133.639 15.1587 134.943 14.4011C136.247 13.6436 137.881 13.5295 139.844 14.0589L140.835 14.326Z" fill="#2E281D"/>
<path d="M105.685 23.6333L97.814 24.0687C95.8372 24.178 94.1525 23.9467 92.7599 23.3748C91.3583 22.8034 90.2745 21.9486 89.5085 20.8102C88.7336 19.6724 88.3018 18.3038 88.2134 16.7043C88.1249 15.1049 88.4018 13.6746 89.0441 12.4133C89.6773 11.1525 90.6577 10.1384 91.9853 9.37094C93.3038 8.60401 94.9515 8.16587 96.9283 8.05653L107.28 7.48397L108.806 35.0874L105.464 35.2723L104.098 10.5802L97.0893 10.9678C95.8313 11.0374 94.7805 11.3479 93.9367 11.8993C93.0845 12.4602 92.4558 13.1529 92.0508 13.9775C91.6373 14.8115 91.4553 15.6778 91.505 16.5763C91.5781 17.8972 92.1487 19.0058 93.2167 19.9021C94.2852 20.8074 95.763 21.2078 97.6499 21.1035L105.521 20.6681L105.685 23.6333Z" fill="#2E281D"/>
<path d="M88.0565 33.4663L89.114 36.2414L69.7387 43.6243L68.6812 40.8492L76.8047 37.7538L68.0184 14.6951L71.1467 13.5031L79.933 36.5617L88.0565 33.4663Z" fill="#2E281D"/>
<path d="M51.1358 23.0844L68.1551 44.8703L60.7938 50.6209C59.0847 51.9561 57.4467 52.739 55.8796 52.9697C54.3111 53.213 52.8572 53.0184 51.518 52.3858C50.1788 51.7533 49.0078 50.7953 48.005 49.5117C47.0023 48.228 46.3533 46.8565 46.0582 45.3969C45.7559 43.9429 45.9036 42.48 46.5011 41.0083C47.1041 39.5437 48.2531 38.1493 49.948 36.8253L55.2243 32.7034L57.0525 35.0437L51.8614 39.099C50.6912 40.0132 49.9095 40.9494 49.5161 41.9076C49.1227 42.8658 49.0351 43.8136 49.2534 44.7508C49.4701 45.7006 49.9192 46.6117 50.6006 47.484C51.2821 48.3562 52.0546 49.0089 52.9182 49.442C53.7747 49.8806 54.7135 50.0151 55.7344 49.8456C56.761 49.6832 57.8664 49.1394 59.0507 48.2142L63.6887 44.5909L48.4976 25.1453L51.1358 23.0844Z" fill="#2E281D"/>
<path d="M41.2162 52.8813L37.0182 59.5539C35.9639 61.2296 34.8008 62.4701 33.5287 63.2752C32.2519 64.088 30.9276 64.4776 29.556 64.4439C28.1796 64.4179 26.8134 63.9784 25.4576 63.1254C24.1017 62.2723 23.0951 61.2191 22.4378 59.9656C21.7756 58.7197 21.5155 57.3334 21.6574 55.8066C21.7945 54.2874 22.3902 52.6899 23.4445 51.0141L28.9651 42.2392L52.365 56.9609L50.5823 59.7945L29.6504 46.6254L25.9125 52.5668C25.2415 53.6332 24.8869 54.67 24.8487 55.6772C24.8132 56.6969 25.0146 57.6104 25.4529 58.4177C25.8941 59.2375 26.4955 59.887 27.2572 60.3662C28.3769 61.0707 29.6113 61.2465 30.9602 60.8938C32.3168 60.5458 33.4982 59.572 34.5046 57.9724L38.7026 51.2998L41.2162 52.8813ZM38.7359 78.624L15.3361 63.9023L17.1188 61.0687L40.5186 75.7905L38.7359 78.624Z" fill="#2E281D"/>
<circle cx="103.5" cy="103.5" r="4.5" fill="#2E281D"/>
</svg>
