<svg width="1009" height="1084" viewBox="0 0 1009 1084" fill="none" xmlns="http://www.w3.org/2000/svg">
<path d="M546.336 252.86L546.578 254.3L547.231 252.994L659.199 29.2207L627.35 281.002L627.171 282.414L628.164 281.394L799.043 105.717L696.305 334.66L695.745 335.906L696.958 335.278L910.056 224.904L746.455 408.579L745.584 409.556L746.879 409.367L981.355 375.132L772.896 495.522L771.793 496.159L773.044 496.402L1005.93 541.694L773.044 586.986L771.793 587.229L772.896 587.866L981.355 708.257L746.879 674.022L745.584 673.833L746.455 674.811L910.057 858.485L696.958 748.111L695.745 747.482L696.305 748.729L799.043 977.671L628.164 801.995L627.171 800.975L627.35 802.387L659.199 1054.17L547.231 830.395L546.578 829.09L546.336 830.529L504.212 1080.52L462.089 830.529L461.847 829.09L461.193 830.395L349.226 1054.16L381.074 802.387L381.253 800.975L380.261 801.995L209.382 977.669L312.119 748.729L312.679 747.482L311.466 748.111L98.3652 858.486L261.97 674.811L262.84 673.833L261.545 674.022L27.0674 708.257L235.528 587.866L236.631 587.229L235.381 586.986L2.49512 541.694L235.381 496.402L236.631 496.159L235.528 495.522L27.0674 375.132L261.545 409.367L262.84 409.556L261.97 408.579L98.3672 224.903L311.466 335.278L312.679 335.906L312.119 334.66L209.381 105.718L380.261 281.394L381.253 282.414L381.074 281.002L349.226 29.2236L461.193 252.994L461.847 254.3L462.089 252.86L504.212 2.86621L546.336 252.86Z" stroke="black" stroke-width="0.952681"/>
</svg>
