<svg width="424" height="88" viewBox="0 0 424 88" fill="none" xmlns="http://www.w3.org/2000/svg">
<path d="M64 8L424 8.25137L389 48.1257L424 88L64 87.7486L0 48.1251L64 8Z" fill="#2E281D"/>
<path d="M64.1424 79.2487L0.945539 40.1224L64.1436 0.5001L422.897 0.750604L388.624 39.7958L388.335 40.1257L388.624 40.4555L422.895 79.4992L64.1424 79.2487Z" fill="white" stroke="#2E281D"/>
<path d="M76.248 39.144C78.216 39.864 79.32 41.376 79.32 43.272C79.32 46.272 76.464 48.36 71.64 48.36C66.888 48.36 63.936 46.344 63.12 42.48L68.712 41.976C69.024 43.056 70.128 43.68 71.52 43.68C72.624 43.68 73.32 43.224 73.32 42.552C73.32 41.856 72.624 41.4 71.52 41.4H69.6V37.56H71.28C72.336 37.56 72.96 37.104 72.96 36.48C72.96 35.856 72.336 35.4 71.208 35.4C69.864 35.4 69 36.024 68.64 36.936L63.36 36.48C64.224 32.784 66.936 30.84 71.448 30.84C75.96 30.84 78.72 32.76 78.72 35.64C78.72 37.272 77.808 38.52 76.248 39.144ZM96.9731 48H91.0211L90.3491 45.12H85.7171L85.0451 48H79.3331L83.9171 31.2H92.3891L96.9731 48ZM87.9731 35.4L86.6531 41.04H89.4131L88.0931 35.4H87.9731ZM103.924 37.2H107.044C110.764 37.2 113.284 39.384 113.284 42.6C113.284 45.816 110.764 48 107.044 48H98.0438V31.2H111.964V35.4H103.924V37.2ZM103.924 43.68H105.844C106.804 43.68 107.404 43.152 107.404 42.288C107.404 41.448 106.804 40.92 105.844 40.92H103.924V43.68ZM115.083 31.2H123.483C127.275 31.2 129.963 33.672 129.963 37.128C129.963 40.608 127.275 43.08 123.483 43.08H121.203V48H115.083V31.2ZM120.843 38.76H122.283C123.435 38.76 124.083 38.088 124.083 37.128C124.083 36.192 123.435 35.52 122.283 35.52H120.843V38.76ZM139.673 48.36C134.345 48.36 130.793 44.856 130.793 39.6C130.793 34.344 134.345 30.84 139.673 30.84C145.001 30.84 148.553 34.344 148.553 39.6C148.553 44.856 145.001 48.36 139.673 48.36ZM139.673 43.08C141.233 43.08 142.312 41.736 142.312 39.6C142.312 37.464 141.233 36.12 139.673 36.12C138.113 36.12 137.033 37.464 137.033 39.6C137.033 41.736 138.113 43.08 139.673 43.08ZM160.199 36.888V31.2H166.319V48H160.199V42.048H156.359V48H150.239V31.2H156.359V36.888H160.199ZM174.588 48H168.708V31.2H174.348V40.056H174.468L179.268 31.2H185.148V48H179.508V39.144H179.388L174.588 48ZM187.552 31.2H195.952C199.744 31.2 202.432 33.672 202.432 37.128C202.432 40.608 199.744 43.08 195.952 43.08H193.672V48H187.552V31.2ZM193.312 38.76H194.752C195.904 38.76 196.552 38.088 196.552 37.128C196.552 36.192 195.904 35.52 194.752 35.52H193.312V38.76ZM212.141 48.36C206.813 48.36 203.261 44.856 203.261 39.6C203.261 34.344 206.813 30.84 212.141 30.84C217.469 30.84 221.021 34.344 221.021 39.6C221.021 44.856 217.469 48.36 212.141 48.36ZM212.141 43.08C213.701 43.08 214.781 41.736 214.781 39.6C214.781 37.464 213.701 36.12 212.141 36.12C210.581 36.12 209.501 37.464 209.501 39.6C209.501 41.736 210.581 43.08 212.141 43.08ZM235.62 39.216C237.492 39.888 238.548 41.328 238.548 43.2C238.548 45.96 236.196 48 233.028 48H222.708V31.2H232.548C235.764 31.2 238.068 33.168 238.068 35.712C238.068 37.272 237.204 38.496 235.62 39.216ZM230.868 35.28H228.468V37.8H230.868C231.732 37.8 232.308 37.32 232.308 36.528C232.308 35.76 231.732 35.28 230.868 35.28ZM228.468 43.92H231.108C232.044 43.92 232.668 43.392 232.668 42.552C232.668 41.688 232.044 41.16 231.108 41.16H228.468V43.92ZM256.208 48H250.256L249.584 45.12H244.952L244.28 48H238.567L243.152 31.2H251.624L256.208 48ZM247.208 35.4L245.888 41.04H248.648L247.328 35.4H247.208ZM265.328 48H259.208V36.12H254.768V31.2H269.768V36.12H265.328V48ZM277.203 36H279.483C283.275 36 285.963 38.496 285.963 42C285.963 45.504 283.275 48 279.483 48H271.083V31.2H277.203V36ZM276.843 43.68H278.283C279.387 43.68 280.083 43.032 280.083 42C280.083 40.968 279.387 40.32 278.283 40.32H276.843V43.68ZM300.149 48.36C294.773 48.36 291.269 44.856 291.269 39.6C291.269 34.344 294.773 30.84 300.149 30.84C304.757 30.84 307.853 33.552 308.381 37.68L302.645 38.184C302.285 36.912 301.421 36.12 300.221 36.12C298.589 36.12 297.509 37.464 297.509 39.6C297.509 41.736 298.589 43.08 300.221 43.08C301.469 43.08 302.357 42.288 302.693 41.016L308.429 41.52C307.901 45.648 304.805 48.36 300.149 48.36ZM319.235 48H313.115V36.12H308.675V31.2H323.675V36.12H319.235V48ZM332.68 48.36C327.352 48.36 323.8 44.856 323.8 39.6C323.8 34.344 327.352 30.84 332.68 30.84C338.008 30.84 341.56 34.344 341.56 39.6C341.56 44.856 338.008 48.36 332.68 48.36ZM332.68 43.08C334.24 43.08 335.32 41.736 335.32 39.6C335.32 37.464 334.24 36.12 332.68 36.12C331.12 36.12 330.04 37.464 330.04 39.6C330.04 41.736 331.12 43.08 332.68 43.08ZM344.242 40.176L344.65 31.2H358.978V48H352.858V36.12H349.954L349.738 41.088C349.522 46.272 348.058 48.24 343.858 48.24C342.946 48.24 342.25 48.144 341.698 48V42.96H342.298C343.618 42.96 344.146 42.288 344.242 40.176Z" fill="#2E281D"/>
</svg>
