<svg width="424" height="72" viewBox="0 0 424 72" fill="none" xmlns="http://www.w3.org/2000/svg">
<path d="M64 8L424 8.2011L389 40.1005L424 72L64 71.7989L0 40.1001L64 8Z" fill="#2E281D"/>
<path d="M422.71 0.700195L388.663 31.7314L388.258 32.1006L388.663 32.4697L422.708 63.499L64.1172 63.2988L1.12012 32.0967L64.1191 0.5L422.71 0.700195Z" fill="white" stroke="#2E281D"/>
<path d="M78.26 38.08L79.64 34.82C80.2267 35.06 80.8267 35.2467 81.44 35.38C82.0667 35.5133 82.6667 35.6 83.24 35.64C83.8133 35.6667 84.32 35.64 84.76 35.56C85.2133 35.48 85.5733 35.3467 85.84 35.16C86.1067 34.9733 86.24 34.7267 86.24 34.42C86.24 34.1 86.1067 33.88 85.84 33.76C85.5733 33.64 85.2467 33.58 84.86 33.58H81.08V30.18H84.46C84.86 30.18 85.16 30.1067 85.36 29.96C85.5733 29.8 85.68 29.5933 85.68 29.34C85.68 29.06 85.56 28.84 85.32 28.68C85.0933 28.52 84.78 28.4133 84.38 28.36C83.9933 28.2933 83.5533 28.2867 83.06 28.34C82.5667 28.38 82.0533 28.48 81.52 28.64C81 28.7867 80.4933 28.98 80 29.22L78.62 25.78C79.6067 25.3267 80.64 25.02 81.72 24.86C82.8133 24.6867 83.8733 24.6533 84.9 24.76C85.94 24.8533 86.8733 25.0733 87.7 25.42C88.54 25.7667 89.2067 26.2267 89.7 26.8C90.1933 27.36 90.44 28.0267 90.44 28.8C90.44 29.4667 90.26 30.0667 89.9 30.6C89.54 31.12 89.0467 31.5267 88.42 31.82C87.8067 32.1133 87.1067 32.26 86.32 32.26L86.42 31.32C87.34 31.32 88.14 31.4867 88.82 31.82C89.5133 32.14 90.0467 32.58 90.42 33.14C90.8067 33.7 91 34.34 91 35.06C91 35.7267 90.82 36.3267 90.46 36.86C90.1 37.38 89.6 37.8267 88.96 38.2C88.3333 38.56 87.6 38.8333 86.76 39.02C85.9333 39.2067 85.04 39.3 84.08 39.3C83.1333 39.3133 82.16 39.2133 81.16 39C80.1733 38.8 79.2067 38.4933 78.26 38.08ZM91.4975 39L97.6175 25H102.258L108.378 39H103.498L98.9775 27.24H100.818L96.2975 39H91.4975ZM95.1375 36.56L96.3375 33.16H102.778L103.978 36.56H95.1375ZM109.67 39V25H121.81V28.56H114.31V30.18H117.65C119.356 30.18 120.663 30.5467 121.57 31.28C122.49 32 122.95 33.0467 122.95 34.42C122.95 35.8467 122.43 36.9667 121.39 37.78C120.35 38.5933 118.903 39 117.05 39H109.67ZM114.31 35.7H116.73C117.196 35.7 117.556 35.6 117.81 35.4C118.076 35.2 118.21 34.9133 118.21 34.54C118.21 33.82 117.716 33.46 116.73 33.46H114.31V35.7ZM124.572 39V25H131.312C132.619 25 133.745 25.2133 134.692 25.64C135.652 26.0667 136.392 26.68 136.912 27.48C137.432 28.2667 137.692 29.2 137.692 30.28C137.692 31.36 137.432 32.2933 136.912 33.08C136.392 33.8667 135.652 34.48 134.692 34.92C133.745 35.3467 132.619 35.56 131.312 35.56H127.192L129.292 33.54V39H124.572ZM129.292 34.06L127.192 31.92H131.012C131.665 31.92 132.145 31.7733 132.452 31.48C132.772 31.1867 132.932 30.7867 132.932 30.28C132.932 29.7733 132.772 29.3733 132.452 29.08C132.145 28.7867 131.665 28.64 131.012 28.64H127.192L129.292 26.5V34.06ZM146.438 39.32C145.305 39.32 144.251 39.14 143.278 38.78C142.318 38.42 141.485 37.9133 140.778 37.26C140.071 36.5933 139.518 35.8133 139.118 34.92C138.731 34.0267 138.538 33.0533 138.538 32C138.538 30.9333 138.731 29.96 139.118 29.08C139.518 28.1867 140.071 27.4133 140.778 26.76C141.485 26.0933 142.318 25.58 143.278 25.22C144.251 24.86 145.305 24.68 146.438 24.68C147.585 24.68 148.638 24.86 149.598 25.22C150.558 25.58 151.391 26.0933 152.098 26.76C152.805 27.4133 153.351 28.1867 153.738 29.08C154.138 29.96 154.338 30.9333 154.338 32C154.338 33.0533 154.138 34.0267 153.738 34.92C153.351 35.8133 152.805 36.5933 152.098 37.26C151.391 37.9133 150.558 38.42 149.598 38.78C148.638 39.14 147.585 39.32 146.438 39.32ZM146.438 35.5C146.878 35.5 147.285 35.42 147.658 35.26C148.045 35.1 148.378 34.8733 148.658 34.58C148.951 34.2733 149.178 33.9067 149.338 33.48C149.498 33.04 149.578 32.5467 149.578 32C149.578 31.4533 149.498 30.9667 149.338 30.54C149.178 30.1 148.951 29.7333 148.658 29.44C148.378 29.1333 148.045 28.9 147.658 28.74C147.285 28.58 146.878 28.5 146.438 28.5C145.998 28.5 145.585 28.58 145.198 28.74C144.825 28.9 144.491 29.1333 144.198 29.44C143.918 29.7333 143.698 30.1 143.538 30.54C143.378 30.9667 143.298 31.4533 143.298 32C143.298 32.5467 143.378 33.04 143.538 33.48C143.698 33.9067 143.918 34.2733 144.198 34.58C144.491 34.8733 144.825 35.1 145.198 35.26C145.585 35.42 145.998 35.5 146.438 35.5ZM165.117 25H169.837V39H165.117V25ZM160.757 39H156.037V25H160.757V39ZM165.437 33.84H160.437V29.96H165.437V33.84ZM172.326 39V25H176.966V32.28L181.786 25H186.226V39H181.586V31.74L176.786 39H172.326ZM188.713 39V25H195.453C196.759 25 197.886 25.2133 198.833 25.64C199.793 26.0667 200.533 26.68 201.053 27.48C201.573 28.2667 201.833 29.2 201.833 30.28C201.833 31.36 201.573 32.2933 201.053 33.08C200.533 33.8667 199.793 34.48 198.833 34.92C197.886 35.3467 196.759 35.56 195.453 35.56H191.333L193.433 33.54V39H188.713ZM193.433 34.06L191.333 31.92H195.153C195.806 31.92 196.286 31.7733 196.593 31.48C196.913 31.1867 197.073 30.7867 197.073 30.28C197.073 29.7733 196.913 29.3733 196.593 29.08C196.286 28.7867 195.806 28.64 195.153 28.64H191.333L193.433 26.5V34.06ZM210.579 39.32C209.445 39.32 208.392 39.14 207.419 38.78C206.459 38.42 205.625 37.9133 204.919 37.26C204.212 36.5933 203.659 35.8133 203.259 34.92C202.872 34.0267 202.679 33.0533 202.679 32C202.679 30.9333 202.872 29.96 203.259 29.08C203.659 28.1867 204.212 27.4133 204.919 26.76C205.625 26.0933 206.459 25.58 207.419 25.22C208.392 24.86 209.445 24.68 210.579 24.68C211.725 24.68 212.779 24.86 213.739 25.22C214.699 25.58 215.532 26.0933 216.239 26.76C216.945 27.4133 217.492 28.1867 217.879 29.08C218.279 29.96 218.479 30.9333 218.479 32C218.479 33.0533 218.279 34.0267 217.879 34.92C217.492 35.8133 216.945 36.5933 216.239 37.26C215.532 37.9133 214.699 38.42 213.739 38.78C212.779 39.14 211.725 39.32 210.579 39.32ZM210.579 35.5C211.019 35.5 211.425 35.42 211.799 35.26C212.185 35.1 212.519 34.8733 212.799 34.58C213.092 34.2733 213.319 33.9067 213.479 33.48C213.639 33.04 213.719 32.5467 213.719 32C213.719 31.4533 213.639 30.9667 213.479 30.54C213.319 30.1 213.092 29.7333 212.799 29.44C212.519 29.1333 212.185 28.9 211.799 28.74C211.425 28.58 211.019 28.5 210.579 28.5C210.139 28.5 209.725 28.58 209.339 28.74C208.965 28.9 208.632 29.1333 208.339 29.44C208.059 29.7333 207.839 30.1 207.679 30.54C207.519 30.9667 207.439 31.4533 207.439 32C207.439 32.5467 207.519 33.04 207.679 33.48C207.839 33.9067 208.059 34.2733 208.339 34.58C208.632 34.8733 208.965 35.1 209.339 35.26C209.725 35.42 210.139 35.5 210.579 35.5ZM220.178 39V25H227.278C229.011 25 230.351 25.32 231.298 25.96C232.258 26.6 232.738 27.5 232.738 28.66C232.738 29.7933 232.298 30.6933 231.418 31.36C230.538 32.0133 229.351 32.34 227.858 32.34L228.258 31.26C229.844 31.26 231.091 31.5733 231.998 32.2C232.904 32.8267 233.358 33.74 233.358 34.94C233.358 36.18 232.864 37.1667 231.878 37.9C230.891 38.6333 229.484 39 227.658 39H220.178ZM224.817 35.7H227.438C227.824 35.7 228.111 35.6067 228.298 35.42C228.498 35.22 228.598 34.94 228.598 34.58C228.598 34.22 228.498 33.9533 228.298 33.78C228.111 33.5933 227.824 33.5 227.438 33.5H224.817V35.7ZM224.817 30.38H226.818C227.218 30.38 227.511 30.2933 227.698 30.12C227.884 29.9467 227.978 29.6933 227.978 29.36C227.978 29.0133 227.884 28.7533 227.698 28.58C227.511 28.3933 227.218 28.3 226.818 28.3H224.817V30.38ZM233.861 39L239.981 25H244.621L250.741 39H245.861L241.341 27.24H243.181L238.661 39H233.861ZM237.501 36.56L238.701 33.16H245.141L246.341 36.56H237.501ZM254.51 39V27.64L255.53 28.66H250.41V25H263.25V28.66H258.13L259.15 27.64V39H254.51ZM272.346 29.3C274.053 29.3 275.386 29.6867 276.346 30.46C277.32 31.22 277.806 32.3733 277.806 33.92C277.806 35.5867 277.26 36.8533 276.166 37.72C275.073 38.5733 273.6 39 271.746 39H264.806V25H269.446V29.3H272.346ZM271.426 35.7C271.893 35.7 272.28 35.5533 272.586 35.26C272.906 34.9533 273.066 34.5333 273.066 34C273.066 33.4667 272.906 33.1 272.586 32.9C272.28 32.7 271.893 32.6 271.426 32.6H269.446V35.7H271.426ZM292.471 39.32C291.351 39.32 290.311 39.1467 289.351 38.8C288.405 38.44 287.578 37.9333 286.871 37.28C286.178 36.6267 285.638 35.8533 285.251 34.96C284.865 34.0667 284.671 33.08 284.671 32C284.671 30.92 284.865 29.9333 285.251 29.04C285.638 28.1467 286.178 27.3733 286.871 26.72C287.578 26.0667 288.405 25.5667 289.351 25.22C290.311 24.86 291.351 24.68 292.471 24.68C293.845 24.68 295.058 24.92 296.111 25.4C297.178 25.88 298.058 26.5733 298.751 27.48L295.771 30.14C295.358 29.62 294.898 29.22 294.391 28.94C293.898 28.6467 293.338 28.5 292.711 28.5C292.218 28.5 291.771 28.58 291.371 28.74C290.971 28.9 290.625 29.1333 290.331 29.44C290.051 29.7467 289.831 30.12 289.671 30.56C289.511 30.9867 289.431 31.4667 289.431 32C289.431 32.5333 289.511 33.02 289.671 33.46C289.831 33.8867 290.051 34.2533 290.331 34.56C290.625 34.8667 290.971 35.1 291.371 35.26C291.771 35.42 292.218 35.5 292.711 35.5C293.338 35.5 293.898 35.36 294.391 35.08C294.898 34.7867 295.358 34.38 295.771 33.86L298.751 36.52C298.058 37.4133 297.178 38.1067 296.111 38.6C295.058 39.08 293.845 39.32 292.471 39.32ZM303.26 39V27.64L304.28 28.66H299.16V25H312V28.66H306.88L307.9 27.64V39H303.26ZM320.481 39.32C319.348 39.32 318.294 39.14 317.321 38.78C316.361 38.42 315.528 37.9133 314.821 37.26C314.114 36.5933 313.561 35.8133 313.161 34.92C312.774 34.0267 312.581 33.0533 312.581 32C312.581 30.9333 312.774 29.96 313.161 29.08C313.561 28.1867 314.114 27.4133 314.821 26.76C315.528 26.0933 316.361 25.58 317.321 25.22C318.294 24.86 319.348 24.68 320.481 24.68C321.628 24.68 322.681 24.86 323.641 25.22C324.601 25.58 325.434 26.0933 326.141 26.76C326.848 27.4133 327.394 28.1867 327.781 29.08C328.181 29.96 328.381 30.9333 328.381 32C328.381 33.0533 328.181 34.0267 327.781 34.92C327.394 35.8133 326.848 36.5933 326.141 37.26C325.434 37.9133 324.601 38.42 323.641 38.78C322.681 39.14 321.628 39.32 320.481 39.32ZM320.481 35.5C320.921 35.5 321.328 35.42 321.701 35.26C322.088 35.1 322.421 34.8733 322.701 34.58C322.994 34.2733 323.221 33.9067 323.381 33.48C323.541 33.04 323.621 32.5467 323.621 32C323.621 31.4533 323.541 30.9667 323.381 30.54C323.221 30.1 322.994 29.7333 322.701 29.44C322.421 29.1333 322.088 28.9 321.701 28.74C321.328 28.58 320.921 28.5 320.481 28.5C320.041 28.5 319.628 28.58 319.241 28.74C318.868 28.9 318.534 29.1333 318.241 29.44C317.961 29.7333 317.741 30.1 317.581 30.54C317.421 30.9667 317.341 31.4533 317.341 32C317.341 32.5467 317.421 33.04 317.581 33.48C317.741 33.9067 317.961 34.2733 318.241 34.58C318.534 34.8733 318.868 35.1 319.241 35.26C319.628 35.42 320.041 35.5 320.481 35.5ZM330.729 39.26C330.436 39.26 330.123 39.24 329.789 39.2C329.456 39.16 329.103 39.0933 328.729 39L328.969 35.22C329.156 35.26 329.329 35.28 329.489 35.28C330.009 35.28 330.396 35.0667 330.649 34.64C330.903 34.2133 331.076 33.64 331.169 32.92C331.263 32.1867 331.323 31.3667 331.349 30.46L331.529 25H343.349V39H338.709V27.66L339.729 28.66H334.629L335.549 27.6L335.469 30.28C335.429 31.6267 335.336 32.8533 335.189 33.96C335.056 35.0533 334.823 36 334.489 36.8C334.156 37.5867 333.683 38.1933 333.069 38.62C332.469 39.0467 331.689 39.26 330.729 39.26Z" fill="#2E281D"/>
</svg>
