<svg width="16" height="16" viewBox="0 0 16 16" fill="none" xmlns="http://www.w3.org/2000/svg">
<path d="M10.2387 5.77462C10.2387 7.75 10.1758 8.85404 8.25 11.5C4.69444 15.4929 1.75 14.1127 1.75 15C1.75 15.8873 3.50311 16.1393 5.31333 15.9002C8.44444 15.4865 12.1389 15.0193 14.75 10.25C15.7081 8.5 15.908 6.88198 16 5.77462L12.8889 4L10.2387 5.77462Z" fill="#FF521C"/>
<path d="M11.25 0.5C11.25 0.5 13 1.5 13.3336 3.11123L11.25 0.5Z" fill="#FF521C"/>
<path d="M11.25 0.5C11.25 0.5 13 1.5 13.3336 3.11123" stroke="#FF521C" stroke-width="0.888867"/>
<path d="M15.9993 6.00024C15.9993 6.00024 15.1104 4.66694 14.2216 6.00024C13.3327 5.11138 12.8883 5.11138 11.9994 6.00024C11.1105 4.66694 10.2217 6.00024 10.2217 6.00024C10.2217 4.40473 11.1385 2.66699 13.2772 2.66699C15.3882 2.66699 15.9993 4.40473 15.9993 6.00024Z" fill="#FF521C"/>
</svg>
