<svg width="1920" height="40" viewBox="0 0 1920 40" fill="none" xmlns="http://www.w3.org/2000/svg">
<g clip-path="url(#clip0_1386_671)">
<rect width="1920" height="40" transform="matrix(-1 0 0 -1 1920 40)" fill="#F1B4D9"/>
<path d="M1800 40C1800 34.7471 1801.55 29.5457 1804.57 24.6927C1807.58 19.8396 1812 15.4301 1817.57 11.7157C1823.15 8.00138 1829.76 5.05501 1837.04 3.04482C1844.32 1.03463 1852.12 0 1860 0C1867.88 0 1875.68 1.03463 1882.96 3.04482C1890.24 5.05501 1896.85 8.00139 1902.43 11.7157C1908 15.4301 1912.42 19.8396 1915.43 24.6927C1918.45 29.5457 1920 34.7471 1920 40L1860 40H1800Z" fill="#FBF5EE"/>
<path d="M1680 40C1680 34.7471 1681.55 29.5457 1684.57 24.6927C1687.58 19.8396 1692 15.4301 1697.57 11.7157C1703.15 8.00138 1709.76 5.05501 1717.04 3.04482C1724.32 1.03463 1732.12 0 1740 0C1747.88 0 1755.68 1.03463 1762.96 3.04482C1770.24 5.05501 1776.85 8.00139 1782.43 11.7157C1788 15.4301 1792.42 19.8396 1795.43 24.6927C1798.45 29.5457 1800 34.7471 1800 40L1740 40H1680Z" fill="#FBF5EE"/>
<path d="M1560 40C1560 34.7471 1561.55 29.5457 1564.57 24.6927C1567.58 19.8396 1572 15.4301 1577.57 11.7157C1583.15 8.00138 1589.76 5.05501 1597.04 3.04482C1604.32 1.03463 1612.12 0 1620 0C1627.88 0 1635.68 1.03463 1642.96 3.04482C1650.24 5.05501 1656.85 8.00139 1662.43 11.7157C1668 15.4301 1672.42 19.8396 1675.43 24.6927C1678.45 29.5457 1680 34.7471 1680 40L1620 40H1560Z" fill="#FBF5EE"/>
<path d="M1440 40C1440 34.7471 1441.55 29.5457 1444.57 24.6927C1447.58 19.8396 1452 15.4301 1457.57 11.7157C1463.15 8.00138 1469.76 5.05501 1477.04 3.04482C1484.32 1.03463 1492.12 0 1500 0C1507.88 0 1515.68 1.03463 1522.96 3.04482C1530.24 5.05501 1536.85 8.00139 1542.43 11.7157C1548 15.4301 1552.42 19.8396 1555.43 24.6927C1558.45 29.5457 1560 34.7471 1560 40L1500 40H1440Z" fill="#FBF5EE"/>
<path d="M1320 40C1320 34.7471 1321.55 29.5457 1324.57 24.6927C1327.58 19.8396 1332 15.4301 1337.57 11.7157C1343.15 8.00138 1349.76 5.05501 1357.04 3.04482C1364.32 1.03463 1372.12 0 1380 0C1387.88 0 1395.68 1.03463 1402.96 3.04482C1410.24 5.05501 1416.85 8.00139 1422.43 11.7157C1428 15.4301 1432.42 19.8396 1435.43 24.6927C1438.45 29.5457 1440 34.7471 1440 40L1380 40H1320Z" fill="#FBF5EE"/>
<path d="M1200 40C1200 34.7471 1201.55 29.5457 1204.57 24.6927C1207.58 19.8396 1212 15.4301 1217.57 11.7157C1223.15 8.00138 1229.76 5.05501 1237.04 3.04482C1244.32 1.03463 1252.12 0 1260 0C1267.88 0 1275.68 1.03463 1282.96 3.04482C1290.24 5.05501 1296.85 8.00139 1302.43 11.7157C1308 15.4301 1312.42 19.8396 1315.43 24.6927C1318.45 29.5457 1320 34.7471 1320 40L1260 40H1200Z" fill="#FBF5EE"/>
<path d="M1080 40C1080 34.7471 1081.55 29.5457 1084.57 24.6927C1087.58 19.8396 1092 15.4301 1097.57 11.7157C1103.15 8.00138 1109.76 5.05501 1117.04 3.04482C1124.32 1.03463 1132.12 0 1140 0C1147.88 0 1155.68 1.03463 1162.96 3.04482C1170.24 5.05501 1176.85 8.00139 1182.43 11.7157C1188 15.4301 1192.42 19.8396 1195.43 24.6927C1198.45 29.5457 1200 34.7471 1200 40L1140 40H1080Z" fill="#FBF5EE"/>
<path d="M960 40C960 34.7471 961.552 29.5457 964.567 24.6927C967.583 19.8396 972.002 15.4301 977.574 11.7157C983.145 8.00138 989.759 5.05501 997.039 3.04482C1004.32 1.03463 1012.12 0 1020 0C1027.88 0 1035.68 1.03463 1042.96 3.04482C1050.24 5.05501 1056.85 8.00139 1062.43 11.7157C1068 15.4301 1072.42 19.8396 1075.43 24.6927C1078.45 29.5457 1080 34.7471 1080 40L1020 40H960Z" fill="#FBF5EE"/>
<path d="M840 40C840 34.7471 841.552 29.5457 844.567 24.6927C847.583 19.8396 852.002 15.4301 857.574 11.7157C863.145 8.00138 869.759 5.05501 877.039 3.04482C884.319 1.03463 892.121 0 900 0C907.879 0 915.681 1.03463 922.961 3.04482C930.241 5.05501 936.855 8.00139 942.426 11.7157C947.998 15.4301 952.417 19.8396 955.433 24.6927C958.448 29.5457 960 34.7471 960 40L900 40H840Z" fill="#FBF5EE"/>
<path d="M720 40C720 34.7471 721.552 29.5457 724.567 24.6927C727.583 19.8396 732.002 15.4301 737.574 11.7157C743.145 8.00138 749.759 5.05501 757.039 3.04482C764.319 1.03463 772.121 0 780 0C787.879 0 795.681 1.03463 802.961 3.04482C810.241 5.05501 816.855 8.00139 822.426 11.7157C827.998 15.4301 832.417 19.8396 835.433 24.6927C838.448 29.5457 840 34.7471 840 40L780 40H720Z" fill="#FBF5EE"/>
<path d="M600 40C600 34.7471 601.552 29.5457 604.567 24.6927C607.583 19.8396 612.002 15.4301 617.574 11.7157C623.145 8.00138 629.759 5.05501 637.039 3.04482C644.319 1.03463 652.121 0 660 0C667.879 0 675.681 1.03463 682.961 3.04482C690.241 5.05501 696.855 8.00139 702.426 11.7157C707.998 15.4301 712.417 19.8396 715.433 24.6927C718.448 29.5457 720 34.7471 720 40L660 40H600Z" fill="#FBF5EE"/>
<path d="M480 40C480 34.7471 481.552 29.5457 484.567 24.6927C487.583 19.8396 492.002 15.4301 497.574 11.7157C503.145 8.00138 509.759 5.05501 517.039 3.04482C524.319 1.03463 532.121 0 540 0C547.879 0 555.681 1.03463 562.961 3.04482C570.241 5.05501 576.855 8.00139 582.426 11.7157C587.998 15.4301 592.417 19.8396 595.433 24.6927C598.448 29.5457 600 34.7471 600 40L540 40H480Z" fill="#FBF5EE"/>
<path d="M360 40C360 34.7471 361.552 29.5457 364.567 24.6927C367.583 19.8396 372.002 15.4301 377.574 11.7157C383.145 8.00138 389.759 5.05501 397.039 3.04482C404.319 1.03463 412.121 0 420 0C427.879 0 435.681 1.03463 442.961 3.04482C450.241 5.05501 456.855 8.00139 462.426 11.7157C467.998 15.4301 472.417 19.8396 475.433 24.6927C478.448 29.5457 480 34.7471 480 40L420 40H360Z" fill="#FBF5EE"/>
<path d="M240 40C240 34.7471 241.552 29.5457 244.567 24.6927C247.583 19.8396 252.002 15.4301 257.574 11.7157C263.145 8.00138 269.759 5.05501 277.039 3.04482C284.319 1.03463 292.121 0 300 0C307.879 0 315.681 1.03463 322.961 3.04482C330.241 5.05501 336.855 8.00139 342.426 11.7157C347.998 15.4301 352.417 19.8396 355.433 24.6927C358.448 29.5457 360 34.7471 360 40L300 40H240Z" fill="#FBF5EE"/>
<path d="M120 40C120 34.7471 121.552 29.5457 124.567 24.6927C127.583 19.8396 132.002 15.4301 137.574 11.7157C143.145 8.00138 149.759 5.05501 157.039 3.04482C164.319 1.03463 172.121 0 180 0C187.879 0 195.681 1.03463 202.961 3.04482C210.241 5.05501 216.855 8.00139 222.426 11.7157C227.998 15.4301 232.417 19.8396 235.433 24.6927C238.448 29.5457 240 34.7471 240 40L180 40H120Z" fill="#FBF5EE"/>
<path d="M0 40C0 34.7471 1.55195 29.5457 4.56723 24.6927C7.58251 19.8396 12.0021 15.4301 17.5736 11.7157C23.1451 8.00138 29.7595 5.05501 37.039 3.04482C44.3185 1.03463 52.1207 0 60 0C67.8793 0 75.6815 1.03463 82.961 3.04482C90.2405 5.05501 96.8549 8.00139 102.426 11.7157C107.998 15.4301 112.417 19.8396 115.433 24.6927C118.448 29.5457 120 34.7471 120 40L60 40H0Z" fill="#FBF5EE"/>
</g>
<defs>
<clipPath id="clip0_1386_671">
<rect width="1920" height="40" fill="white" transform="matrix(-1 0 0 -1 1920 40)"/>
</clipPath>
</defs>
</svg>
