<svg width="424" height="88" viewBox="0 0 424 88" fill="none" xmlns="http://www.w3.org/2000/svg">
<path d="M50 8H272.5H374L424 48L374 88H50L0 48L50 8Z" fill="#2E281D"/>
<path d="M373.824 0.5L423.199 40L373.824 79.5H50.1758L0.800781 40L50.1758 0.5H373.824Z" fill="#FFBB00" stroke="#2E281D"/>
<path d="M78.936 49.384C77.592 49.384 76.344 49.176 75.192 48.76C74.056 48.328 73.064 47.72 72.216 46.936C71.384 46.152 70.736 45.224 70.272 44.152C69.808 43.08 69.576 41.896 69.576 40.6C69.576 39.304 69.808 38.12 70.272 37.048C70.736 35.976 71.384 35.048 72.216 34.264C73.064 33.48 74.056 32.88 75.192 32.464C76.344 32.032 77.592 31.816 78.936 31.816C80.584 31.816 82.04 32.104 83.304 32.68C84.584 33.256 85.64 34.088 86.472 35.176L82.896 38.368C82.4 37.744 81.848 37.264 81.24 36.928C80.648 36.576 79.976 36.4 79.224 36.4C78.632 36.4 78.096 36.496 77.616 36.688C77.136 36.88 76.72 37.16 76.368 37.528C76.032 37.896 75.768 38.344 75.576 38.872C75.384 39.384 75.288 39.96 75.288 40.6C75.288 41.24 75.384 41.824 75.576 42.352C75.768 42.864 76.032 43.304 76.368 43.672C76.72 44.04 77.136 44.32 77.616 44.512C78.096 44.704 78.632 44.8 79.224 44.8C79.976 44.8 80.648 44.632 81.24 44.296C81.848 43.944 82.4 43.456 82.896 42.832L86.472 46.024C85.64 47.096 84.584 47.928 83.304 48.52C82.04 49.096 80.584 49.384 78.936 49.384ZM96.3758 49.384C95.0158 49.384 93.7518 49.168 92.5838 48.736C91.4318 48.304 90.4318 47.696 89.5838 46.912C88.7358 46.112 88.0718 45.176 87.5918 44.104C87.1278 43.032 86.8958 41.864 86.8958 40.6C86.8958 39.32 87.1278 38.152 87.5918 37.096C88.0718 36.024 88.7358 35.096 89.5838 34.312C90.4318 33.512 91.4318 32.896 92.5838 32.464C93.7518 32.032 95.0158 31.816 96.3758 31.816C97.7518 31.816 99.0158 32.032 100.168 32.464C101.32 32.896 102.32 33.512 103.168 34.312C104.016 35.096 104.672 36.024 105.136 37.096C105.616 38.152 105.856 39.32 105.856 40.6C105.856 41.864 105.616 43.032 105.136 44.104C104.672 45.176 104.016 46.112 103.168 46.912C102.32 47.696 101.32 48.304 100.168 48.736C99.0158 49.168 97.7518 49.384 96.3758 49.384ZM96.3758 44.8C96.9038 44.8 97.3918 44.704 97.8398 44.512C98.3038 44.32 98.7038 44.048 99.0398 43.696C99.3918 43.328 99.6638 42.888 99.8558 42.376C100.048 41.848 100.144 41.256 100.144 40.6C100.144 39.944 100.048 39.36 99.8558 38.848C99.6638 38.32 99.3918 37.88 99.0398 37.528C98.7038 37.16 98.3038 36.88 97.8398 36.688C97.3918 36.496 96.9038 36.4 96.3758 36.4C95.8478 36.4 95.3518 36.496 94.8878 36.688C94.4398 36.88 94.0398 37.16 93.6878 37.528C93.3518 37.88 93.0878 38.32 92.8958 38.848C92.7038 39.36 92.6078 39.944 92.6078 40.6C92.6078 41.256 92.7038 41.848 92.8958 42.376C93.0878 42.888 93.3518 43.328 93.6878 43.696C94.0398 44.048 94.4398 44.32 94.8878 44.512C95.3518 44.704 95.8478 44.8 96.3758 44.8ZM107.894 49V32.2H122.462V36.472H113.462V38.416H117.47C119.518 38.416 121.086 38.856 122.174 39.736C123.278 40.6 123.83 41.856 123.83 43.504C123.83 45.216 123.206 46.56 121.958 47.536C120.71 48.512 118.974 49 116.75 49H107.894ZM113.462 45.04H116.366C116.926 45.04 117.358 44.92 117.662 44.68C117.982 44.44 118.142 44.096 118.142 43.648C118.142 42.784 117.55 42.352 116.366 42.352H113.462V45.04ZM134.825 37.36C136.873 37.36 138.473 37.824 139.625 38.752C140.793 39.664 141.377 41.048 141.377 42.904C141.377 44.904 140.721 46.424 139.409 47.464C138.097 48.488 136.329 49 134.105 49H125.777V32.2H131.345V37.36H134.825ZM133.721 45.04C134.281 45.04 134.745 44.864 135.113 44.512C135.497 44.144 135.689 43.64 135.689 43C135.689 42.36 135.497 41.92 135.113 41.68C134.745 41.44 134.281 41.32 133.721 41.32H131.345V45.04H133.721ZM142.913 49V32.2H148.481V49H142.913ZM155.281 49V35.368L156.505 36.592H150.361V32.2H165.769V36.592H159.625L160.849 35.368V49H155.281ZM167.636 49V32.2H173.204V40.936L178.988 32.2H184.316V49H178.748V40.288L172.988 49H167.636ZM187.301 49V32.2H192.868V40.936L198.653 32.2H203.981V49H198.413V40.288L192.653 49H187.301ZM195.629 31.24C193.725 31.24 192.373 30.888 191.573 30.184C190.789 29.464 190.397 28.44 190.397 27.112H194.165C194.165 27.64 194.269 28.032 194.477 28.288C194.701 28.528 195.085 28.648 195.629 28.648C196.189 28.648 196.581 28.528 196.805 28.288C197.029 28.032 197.141 27.64 197.141 27.112H200.909C200.909 28.44 200.501 29.464 199.685 30.184C198.885 30.888 197.533 31.24 195.629 31.24ZM217.861 32.2H223.525V49H217.861V32.2ZM212.629 49H206.965V32.2H212.629V49ZM218.245 42.808H212.245V38.152H218.245V42.808ZM235.055 49.384C233.695 49.384 232.431 49.168 231.263 48.736C230.111 48.304 229.111 47.696 228.263 46.912C227.415 46.112 226.751 45.176 226.271 44.104C225.807 43.032 225.575 41.864 225.575 40.6C225.575 39.32 225.807 38.152 226.271 37.096C226.751 36.024 227.415 35.096 228.263 34.312C229.111 33.512 230.111 32.896 231.263 32.464C232.431 32.032 233.695 31.816 235.055 31.816C236.431 31.816 237.695 32.032 238.847 32.464C239.999 32.896 240.999 33.512 241.847 34.312C242.695 35.096 243.351 36.024 243.815 37.096C244.295 38.152 244.535 39.32 244.535 40.6C244.535 41.864 244.295 43.032 243.815 44.104C243.351 45.176 242.695 46.112 241.847 46.912C240.999 47.696 239.999 48.304 238.847 48.736C237.695 49.168 236.431 49.384 235.055 49.384ZM235.055 44.8C235.583 44.8 236.071 44.704 236.519 44.512C236.983 44.32 237.383 44.048 237.719 43.696C238.071 43.328 238.343 42.888 238.535 42.376C238.727 41.848 238.823 41.256 238.823 40.6C238.823 39.944 238.727 39.36 238.535 38.848C238.343 38.32 238.071 37.88 237.719 37.528C237.383 37.16 236.983 36.88 236.519 36.688C236.071 36.496 235.583 36.4 235.055 36.4C234.527 36.4 234.031 36.496 233.567 36.688C233.119 36.88 232.719 37.16 232.367 37.528C232.031 37.88 231.767 38.32 231.575 38.848C231.383 39.36 231.287 39.944 231.287 40.6C231.287 41.256 231.383 41.848 231.575 42.376C231.767 42.888 232.031 43.328 232.367 43.696C232.719 44.048 233.119 44.32 233.567 44.512C234.031 44.704 234.527 44.8 235.055 44.8ZM251.758 38.44H259.246V42.52H251.758V38.44ZM252.142 44.728H260.542V49H246.574V32.2H260.23V36.472H252.142V44.728ZM270.035 49V32.2H274.691L281.411 43.168H278.963L285.491 32.2H290.147L290.195 49H285.035L284.987 39.976H285.803L281.339 47.488H278.843L274.187 39.976H275.195V49H270.035ZM298.328 38.44H305.816V42.52H298.328V38.44ZM298.712 44.728H307.112V49H293.144V32.2H306.8V36.472H298.712V44.728ZM320.306 32.2H325.97V49H320.306V32.2ZM315.074 49H309.41V32.2H315.074V49ZM320.69 42.808H314.69V38.152H320.69V42.808ZM328.957 49V32.2H334.525V38.152H338.869V42.808H334.525V49H328.957ZM344.821 49.384C343.477 49.384 342.237 49.168 341.101 48.736C339.981 48.304 338.997 47.696 338.149 46.912C337.317 46.112 336.669 45.176 336.205 44.104C335.757 43.032 335.533 41.864 335.533 40.6C335.533 39.32 335.757 38.152 336.205 37.096C336.669 36.024 337.317 35.096 338.149 34.312C338.997 33.512 339.981 32.896 341.101 32.464C342.237 32.032 343.477 31.816 344.821 31.816C346.165 31.816 347.397 32.032 348.517 32.464C349.653 32.896 350.637 33.512 351.469 34.312C352.301 35.096 352.941 36.024 353.389 37.096C353.853 38.152 354.085 39.32 354.085 40.6C354.085 41.864 353.853 43.032 353.389 44.104C352.941 45.176 352.301 46.112 351.469 46.912C350.637 47.696 349.653 48.304 348.517 48.736C347.397 49.168 346.165 49.384 344.821 49.384ZM344.821 44.8C345.317 44.8 345.773 44.704 346.189 44.512C346.621 44.32 346.997 44.048 347.317 43.696C347.653 43.328 347.909 42.888 348.085 42.376C348.277 41.848 348.373 41.256 348.373 40.6C348.373 39.944 348.277 39.36 348.085 38.848C347.909 38.32 347.653 37.88 347.317 37.528C346.997 37.16 346.621 36.88 346.189 36.688C345.773 36.496 345.317 36.4 344.821 36.4C344.325 36.4 343.861 36.496 343.429 36.688C342.997 36.88 342.613 37.16 342.277 37.528C341.957 37.88 341.701 38.32 341.509 38.848C341.333 39.36 341.245 39.944 341.245 40.6C341.245 41.256 341.333 41.848 341.509 42.376C341.701 42.888 341.957 43.328 342.277 43.696C342.613 44.048 342.997 44.32 343.429 44.512C343.861 44.704 344.325 44.8 344.821 44.8Z" fill="#2E281D"/>
</svg>
