<svg width="398" height="1010" viewBox="0 0 398 1010" fill="none" xmlns="http://www.w3.org/2000/svg">
<path d="M547.357 235.742L547.6 237.084L548.245 235.883L660.394 27.2598L628.497 261.958L628.313 263.31L629.299 262.366L800.424 98.6113L697.564 311.965L696.973 313.193L698.201 312.602L911.554 209.741L747.8 380.867L746.856 381.853L748.208 381.669L982.905 349.771L774.283 461.921L773.082 462.566L774.424 462.809L1007.49 505L774.424 547.191L773.082 547.434L774.283 548.079L982.905 660.228L748.208 628.331L746.856 628.147L747.8 629.133L911.554 800.258L698.201 697.398L696.973 696.807L697.564 698.035L800.424 911.388L629.299 747.634L628.313 746.69L628.497 748.042L660.394 982.739L548.245 774.117L547.6 772.916L547.357 774.258L505.166 1007.33L462.975 774.258L462.732 772.916L462.087 774.117L349.938 982.739L381.835 748.042L382.019 746.69L381.033 747.634L209.907 911.388L312.768 698.035L313.359 696.807L312.131 697.398L98.7773 800.258L262.532 629.133L263.476 628.147L262.124 628.331L27.4258 660.228L236.049 548.079L237.25 547.434L235.908 547.191L2.83984 505L235.908 462.809L237.25 462.566L236.049 461.921L27.4258 349.771L262.124 381.669L263.476 381.853L262.532 380.867L98.7773 209.741L312.131 312.602L313.359 313.193L312.768 311.965L209.907 98.6113L381.033 262.366L382.019 263.31L381.835 261.958L349.938 27.2598L462.087 235.883L462.732 237.084L462.975 235.742L505.166 2.67383L547.357 235.742Z" stroke="black" stroke-width="0.952681"/>
</svg>
