<svg width="349" height="1061" viewBox="0 0 349 1061" fill="none" xmlns="http://www.w3.org/2000/svg">
<path d="M-137.631 247.451L-137.376 248.859L-136.698 247.599L-18.9814 28.6143L-52.46 274.97L-52.6533 276.388L-51.6191 275.398L128.007 103.508L20.0381 327.46L19.417 328.749L20.7061 328.128L244.657 220.157L72.7676 399.785L71.7783 400.818L73.1963 400.626L319.553 367.145L100.566 484.864L99.3066 485.541L100.715 485.796L345.357 530.082L100.715 574.369L99.3066 574.624L100.566 575.302L319.551 693.019L73.1963 659.54L71.7783 659.347L72.7676 660.381L244.655 840.006L20.7061 732.038L19.417 731.417L20.0381 732.706L128.006 956.655L-51.6191 784.768L-52.6533 783.778L-52.46 785.196L-18.9814 1031.55L-136.698 812.566L-137.376 811.307L-137.631 812.715L-181.918 1057.36L-226.204 812.715L-226.459 811.307L-227.136 812.566L-344.855 1031.55L-311.374 785.196L-311.182 783.778L-312.215 784.768L-491.843 956.657L-383.872 732.706L-383.251 731.417L-384.54 732.038L-608.492 840.007L-436.602 660.381L-435.612 659.347L-437.03 659.54L-683.386 693.019L-464.401 575.302L-463.141 574.624L-464.549 574.369L-709.192 530.082L-464.549 485.796L-463.141 485.541L-464.401 484.864L-683.388 367.145L-437.03 400.626L-435.612 400.818L-436.602 399.785L-608.494 220.156L-384.54 328.128L-383.251 328.749L-383.872 327.46L-491.844 103.506L-312.215 275.398L-311.182 276.388L-311.374 274.97L-344.855 28.6123L-227.136 247.599L-226.459 248.859L-226.204 247.451L-181.918 2.80762L-137.631 247.451Z" stroke="black"/>
</svg>
