<svg width="424" height="88" viewBox="0 0 424 88" fill="none" xmlns="http://www.w3.org/2000/svg">
<path d="M50 8H272.5H374L424 48L374 88H50L0 48L50 8Z" fill="#2E281D"/>
<path d="M373.824 0.5L423.199 40L373.824 79.5H50.1758L0.800781 40L50.1758 0.5H373.824Z" fill="#FFBB00" stroke="#2E281D"/>
<path d="M52.312 46.896L53.968 42.984C54.672 43.272 55.392 43.496 56.128 43.656C56.88 43.816 57.6 43.92 58.288 43.968C58.976 44 59.584 43.968 60.112 43.872C60.656 43.776 61.088 43.616 61.408 43.392C61.728 43.168 61.888 42.872 61.888 42.504C61.888 42.12 61.728 41.856 61.408 41.712C61.088 41.568 60.696 41.496 60.232 41.496H55.696V37.416H59.752C60.232 37.416 60.592 37.328 60.832 37.152C61.088 36.96 61.216 36.712 61.216 36.408C61.216 36.072 61.072 35.808 60.784 35.616C60.512 35.424 60.136 35.296 59.656 35.232C59.192 35.152 58.664 35.144 58.072 35.208C57.48 35.256 56.864 35.376 56.224 35.568C55.6 35.744 54.992 35.976 54.4 36.264L52.744 32.136C53.928 31.592 55.168 31.224 56.464 31.032C57.776 30.824 59.048 30.784 60.28 30.912C61.528 31.024 62.648 31.288 63.64 31.704C64.648 32.12 65.448 32.672 66.04 33.36C66.632 34.032 66.928 34.832 66.928 35.76C66.928 36.56 66.712 37.28 66.28 37.92C65.848 38.544 65.256 39.032 64.504 39.384C63.768 39.736 62.928 39.912 61.984 39.912L62.104 38.784C63.208 38.784 64.168 38.984 64.984 39.384C65.816 39.768 66.456 40.296 66.904 40.968C67.368 41.64 67.6 42.408 67.6 43.272C67.6 44.072 67.384 44.792 66.952 45.432C66.52 46.056 65.92 46.592 65.152 47.04C64.4 47.472 63.52 47.8 62.512 48.024C61.52 48.248 60.448 48.36 59.296 48.36C58.16 48.376 56.992 48.256 55.792 48C54.608 47.76 53.448 47.392 52.312 46.896ZM68.197 48L75.541 31.2H81.109L88.453 48H82.597L77.173 33.888H79.381L73.957 48H68.197ZM72.565 45.072L74.005 40.992H81.733L83.173 45.072H72.565ZM90.0036 48V31.2H104.572V35.472H95.5716V37.416H99.5796C101.628 37.416 103.196 37.856 104.284 38.736C105.388 39.6 105.94 40.856 105.94 42.504C105.94 44.216 105.316 45.56 104.068 46.536C102.82 47.512 101.084 48 98.8596 48H90.0036ZM95.5716 44.04H98.4756C99.0356 44.04 99.4676 43.92 99.7716 43.68C100.092 43.44 100.252 43.096 100.252 42.648C100.252 41.784 99.6596 41.352 98.4756 41.352H95.5716V44.04ZM107.886 48V31.2H115.974C117.542 31.2 118.894 31.456 120.03 31.968C121.182 32.48 122.07 33.216 122.694 34.176C123.318 35.12 123.63 36.24 123.63 37.536C123.63 38.832 123.318 39.952 122.694 40.896C122.07 41.84 121.182 42.576 120.03 43.104C118.894 43.616 117.542 43.872 115.974 43.872H111.03L113.55 41.448V48H107.886ZM113.55 42.072L111.03 39.504H115.614C116.398 39.504 116.974 39.328 117.342 38.976C117.726 38.624 117.918 38.144 117.918 37.536C117.918 36.928 117.726 36.448 117.342 36.096C116.974 35.744 116.398 35.568 115.614 35.568H111.03L113.55 33V42.072ZM134.126 48.384C132.766 48.384 131.502 48.168 130.334 47.736C129.182 47.304 128.182 46.696 127.334 45.912C126.486 45.112 125.822 44.176 125.342 43.104C124.878 42.032 124.646 40.864 124.646 39.6C124.646 38.32 124.878 37.152 125.342 36.096C125.822 35.024 126.486 34.096 127.334 33.312C128.182 32.512 129.182 31.896 130.334 31.464C131.502 31.032 132.766 30.816 134.126 30.816C135.502 30.816 136.766 31.032 137.918 31.464C139.07 31.896 140.07 32.512 140.918 33.312C141.766 34.096 142.422 35.024 142.886 36.096C143.366 37.152 143.606 38.32 143.606 39.6C143.606 40.864 143.366 42.032 142.886 43.104C142.422 44.176 141.766 45.112 140.918 45.912C140.07 46.696 139.07 47.304 137.918 47.736C136.766 48.168 135.502 48.384 134.126 48.384ZM134.126 43.8C134.654 43.8 135.142 43.704 135.59 43.512C136.054 43.32 136.454 43.048 136.79 42.696C137.142 42.328 137.414 41.888 137.606 41.376C137.798 40.848 137.894 40.256 137.894 39.6C137.894 38.944 137.798 38.36 137.606 37.848C137.414 37.32 137.142 36.88 136.79 36.528C136.454 36.16 136.054 35.88 135.59 35.688C135.142 35.496 134.654 35.4 134.126 35.4C133.598 35.4 133.102 35.496 132.638 35.688C132.19 35.88 131.79 36.16 131.438 36.528C131.102 36.88 130.838 37.32 130.646 37.848C130.454 38.36 130.358 38.944 130.358 39.6C130.358 40.256 130.454 40.848 130.646 41.376C130.838 41.888 131.102 42.328 131.438 42.696C131.79 43.048 132.19 43.32 132.638 43.512C133.102 43.704 133.598 43.8 134.126 43.8ZM156.54 31.2H162.204V48H156.54V31.2ZM151.308 48H145.644V31.2H151.308V48ZM156.924 41.808H150.924V37.152H156.924V41.808ZM165.191 48V31.2H170.759V39.936L176.543 31.2H181.871V48H176.303V39.288L170.543 48H165.191ZM184.855 48V31.2H192.943C194.511 31.2 195.863 31.456 196.999 31.968C198.151 32.48 199.039 33.216 199.663 34.176C200.287 35.12 200.599 36.24 200.599 37.536C200.599 38.832 200.287 39.952 199.663 40.896C199.039 41.84 198.151 42.576 196.999 43.104C195.863 43.616 194.511 43.872 192.943 43.872H187.999L190.519 41.448V48H184.855ZM190.519 42.072L187.999 39.504H192.583C193.367 39.504 193.943 39.328 194.311 38.976C194.695 38.624 194.887 38.144 194.887 37.536C194.887 36.928 194.695 36.448 194.311 36.096C193.943 35.744 193.367 35.568 192.583 35.568H187.999L190.519 33V42.072ZM211.095 48.384C209.735 48.384 208.471 48.168 207.303 47.736C206.151 47.304 205.151 46.696 204.303 45.912C203.455 45.112 202.791 44.176 202.311 43.104C201.847 42.032 201.615 40.864 201.615 39.6C201.615 38.32 201.847 37.152 202.311 36.096C202.791 35.024 203.455 34.096 204.303 33.312C205.151 32.512 206.151 31.896 207.303 31.464C208.471 31.032 209.735 30.816 211.095 30.816C212.471 30.816 213.735 31.032 214.887 31.464C216.039 31.896 217.039 32.512 217.887 33.312C218.735 34.096 219.391 35.024 219.855 36.096C220.335 37.152 220.575 38.32 220.575 39.6C220.575 40.864 220.335 42.032 219.855 43.104C219.391 44.176 218.735 45.112 217.887 45.912C217.039 46.696 216.039 47.304 214.887 47.736C213.735 48.168 212.471 48.384 211.095 48.384ZM211.095 43.8C211.623 43.8 212.111 43.704 212.559 43.512C213.023 43.32 213.423 43.048 213.759 42.696C214.111 42.328 214.383 41.888 214.575 41.376C214.767 40.848 214.863 40.256 214.863 39.6C214.863 38.944 214.767 38.36 214.575 37.848C214.383 37.32 214.111 36.88 213.759 36.528C213.423 36.16 213.023 35.88 212.559 35.688C212.111 35.496 211.623 35.4 211.095 35.4C210.567 35.4 210.071 35.496 209.607 35.688C209.159 35.88 208.759 36.16 208.407 36.528C208.071 36.88 207.807 37.32 207.615 37.848C207.423 38.36 207.327 38.944 207.327 39.6C207.327 40.256 207.423 40.848 207.615 41.376C207.807 41.888 208.071 42.328 208.407 42.696C208.759 43.048 209.159 43.32 209.607 43.512C210.071 43.704 210.567 43.8 211.095 43.8ZM222.613 48V31.2H231.133C233.213 31.2 234.821 31.584 235.957 32.352C237.109 33.12 237.685 34.2 237.685 35.592C237.685 36.952 237.157 38.032 236.101 38.832C235.045 39.616 233.621 40.008 231.829 40.008L232.309 38.712C234.213 38.712 235.709 39.088 236.797 39.84C237.885 40.592 238.429 41.688 238.429 43.128C238.429 44.616 237.837 45.8 236.653 46.68C235.469 47.56 233.781 48 231.589 48H222.613ZM228.181 44.04H231.325C231.789 44.04 232.133 43.928 232.357 43.704C232.597 43.464 232.717 43.128 232.717 42.696C232.717 42.264 232.597 41.944 232.357 41.736C232.133 41.512 231.789 41.4 231.325 41.4H228.181V44.04ZM228.181 37.656H230.581C231.061 37.656 231.413 37.552 231.637 37.344C231.861 37.136 231.973 36.832 231.973 36.432C231.973 36.016 231.861 35.704 231.637 35.496C231.413 35.272 231.061 35.16 230.581 35.16H228.181V37.656ZM239.033 48L246.377 31.2H251.945L259.289 48H253.433L248.009 33.888H250.217L244.793 48H239.033ZM243.401 45.072L244.841 40.992H252.569L254.009 45.072H243.401ZM263.812 48V34.368L265.036 35.592H258.892V31.2H274.3V35.592H268.156L269.38 34.368V48H263.812ZM285.216 36.36C287.264 36.36 288.864 36.824 290.016 37.752C291.184 38.664 291.768 40.048 291.768 41.904C291.768 43.904 291.112 45.424 289.8 46.464C288.488 47.488 286.72 48 284.496 48H276.168V31.2H281.736V36.36H285.216ZM284.112 44.04C284.672 44.04 285.136 43.864 285.504 43.512C285.888 43.144 286.08 42.64 286.08 42C286.08 41.36 285.888 40.92 285.504 40.68C285.136 40.44 284.672 40.32 284.112 40.32H281.736V44.04H284.112ZM309.366 48.384C308.022 48.384 306.774 48.176 305.622 47.76C304.486 47.328 303.494 46.72 302.646 45.936C301.814 45.152 301.166 44.224 300.702 43.152C300.238 42.08 300.006 40.896 300.006 39.6C300.006 38.304 300.238 37.12 300.702 36.048C301.166 34.976 301.814 34.048 302.646 33.264C303.494 32.48 304.486 31.88 305.622 31.464C306.774 31.032 308.022 30.816 309.366 30.816C311.014 30.816 312.47 31.104 313.734 31.68C315.014 32.256 316.07 33.088 316.902 34.176L313.326 37.368C312.83 36.744 312.278 36.264 311.67 35.928C311.078 35.576 310.406 35.4 309.654 35.4C309.062 35.4 308.526 35.496 308.046 35.688C307.566 35.88 307.15 36.16 306.798 36.528C306.462 36.896 306.198 37.344 306.006 37.872C305.814 38.384 305.718 38.96 305.718 39.6C305.718 40.24 305.814 40.824 306.006 41.352C306.198 41.864 306.462 42.304 306.798 42.672C307.15 43.04 307.566 43.32 308.046 43.512C308.526 43.704 309.062 43.8 309.654 43.8C310.406 43.8 311.078 43.632 311.67 43.296C312.278 42.944 312.83 42.456 313.326 41.832L316.902 45.024C316.07 46.096 315.014 46.928 313.734 47.52C312.47 48.096 311.014 48.384 309.366 48.384ZM322.312 48V34.368L323.536 35.592H317.392V31.2H332.8V35.592H326.656L327.88 34.368V48H322.312ZM342.977 48.384C341.617 48.384 340.353 48.168 339.185 47.736C338.033 47.304 337.033 46.696 336.185 45.912C335.337 45.112 334.673 44.176 334.193 43.104C333.729 42.032 333.497 40.864 333.497 39.6C333.497 38.32 333.729 37.152 334.193 36.096C334.673 35.024 335.337 34.096 336.185 33.312C337.033 32.512 338.033 31.896 339.185 31.464C340.353 31.032 341.617 30.816 342.977 30.816C344.353 30.816 345.617 31.032 346.769 31.464C347.921 31.896 348.921 32.512 349.769 33.312C350.617 34.096 351.273 35.024 351.737 36.096C352.217 37.152 352.457 38.32 352.457 39.6C352.457 40.864 352.217 42.032 351.737 43.104C351.273 44.176 350.617 45.112 349.769 45.912C348.921 46.696 347.921 47.304 346.769 47.736C345.617 48.168 344.353 48.384 342.977 48.384ZM342.977 43.8C343.505 43.8 343.993 43.704 344.441 43.512C344.905 43.32 345.305 43.048 345.641 42.696C345.993 42.328 346.265 41.888 346.457 41.376C346.649 40.848 346.745 40.256 346.745 39.6C346.745 38.944 346.649 38.36 346.457 37.848C346.265 37.32 345.993 36.88 345.641 36.528C345.305 36.16 344.905 35.88 344.441 35.688C343.993 35.496 343.505 35.4 342.977 35.4C342.449 35.4 341.953 35.496 341.489 35.688C341.041 35.88 340.641 36.16 340.289 36.528C339.953 36.88 339.689 37.32 339.497 37.848C339.305 38.36 339.209 38.944 339.209 39.6C339.209 40.256 339.305 40.848 339.497 41.376C339.689 41.888 339.953 42.328 340.289 42.696C340.641 43.048 341.041 43.32 341.489 43.512C341.953 43.704 342.449 43.8 342.977 43.8ZM355.275 48.312C354.923 48.312 354.547 48.288 354.147 48.24C353.747 48.192 353.323 48.112 352.875 48L353.163 43.464C353.387 43.512 353.595 43.536 353.787 43.536C354.411 43.536 354.875 43.28 355.179 42.768C355.483 42.256 355.691 41.568 355.803 40.704C355.915 39.824 355.987 38.84 356.019 37.752L356.235 31.2H370.419V48H364.851V34.392L366.075 35.592H359.955L361.059 34.32L360.963 37.536C360.915 39.152 360.803 40.624 360.627 41.952C360.467 43.264 360.187 44.4 359.787 45.36C359.387 46.304 358.819 47.032 358.083 47.544C357.363 48.056 356.427 48.312 355.275 48.312Z" fill="#2E281D"/>
</svg>
