<svg width="572" height="108" viewBox="0 0 572 108" fill="none" xmlns="http://www.w3.org/2000/svg">
<path d="M1.48535 1.01074L47.7236 53.7256L48.1123 54.1699L47.7236 54.6133L1.48828 107.324L485.469 106.987L570.729 54.165L485.469 0.673828L1.48535 1.01074Z" fill="#FBF5EE" stroke="#2E281D" stroke-width="1.3467"/>
<path d="M110.168 49V26.6H113.56L123.384 42.952H121.56L131.224 26.6H134.616L134.68 49H130.712L130.68 32.776H131.512L123.32 46.44H121.464L113.144 32.776H114.104V49H110.168ZM148.117 49.224C146.367 49.224 144.81 48.8507 143.445 48.104C142.079 47.336 141.002 46.2907 140.213 44.968C139.423 43.6453 139.029 42.1413 139.029 40.456C139.029 38.7493 139.423 37.2453 140.213 35.944C141.002 34.6213 142.079 33.5867 143.445 32.84C144.81 32.0933 146.367 31.72 148.117 31.72C149.887 31.72 151.455 32.0933 152.821 32.84C154.207 33.5867 155.285 34.6107 156.053 35.912C156.842 37.2133 157.237 38.728 157.237 40.456C157.237 42.1413 156.842 43.6453 156.053 44.968C155.285 46.2907 154.207 47.336 152.821 48.104C151.455 48.8507 149.887 49.224 148.117 49.224ZM148.117 45.8C149.098 45.8 149.973 45.5867 150.741 45.16C151.509 44.7333 152.106 44.1147 152.533 43.304C152.981 42.4933 153.205 41.544 153.205 40.456C153.205 39.3467 152.981 38.3973 152.533 37.608C152.106 36.7973 151.509 36.1787 150.741 35.752C149.973 35.3253 149.109 35.112 148.149 35.112C147.167 35.112 146.293 35.3253 145.525 35.752C144.778 36.1787 144.181 36.7973 143.733 37.608C143.285 38.3973 143.061 39.3467 143.061 40.456C143.061 41.544 143.285 42.4933 143.733 43.304C144.181 44.1147 144.778 44.7333 145.525 45.16C146.293 45.5867 147.157 45.8 148.117 45.8ZM168.964 49.224C167.172 49.224 165.572 48.8507 164.164 48.104C162.777 47.336 161.689 46.2907 160.9 44.968C160.111 43.6453 159.716 42.1413 159.716 40.456C159.716 38.7493 160.111 37.2453 160.9 35.944C161.689 34.6213 162.777 33.5867 164.164 32.84C165.572 32.0933 167.172 31.72 168.964 31.72C170.628 31.72 172.089 32.0613 173.348 32.744C174.628 33.4053 175.599 34.3867 176.26 35.688L173.188 37.48C172.676 36.6693 172.047 36.072 171.3 35.688C170.575 35.304 169.785 35.112 168.932 35.112C167.951 35.112 167.065 35.3253 166.276 35.752C165.487 36.1787 164.868 36.7973 164.42 37.608C163.972 38.3973 163.748 39.3467 163.748 40.456C163.748 41.5653 163.972 42.5253 164.42 43.336C164.868 44.1253 165.487 44.7333 166.276 45.16C167.065 45.5867 167.951 45.8 168.932 45.8C169.785 45.8 170.575 45.608 171.3 45.224C172.047 44.84 172.676 44.2427 173.188 43.432L176.26 45.224C175.599 46.504 174.628 47.496 173.348 48.2C172.089 48.8827 170.628 49.224 168.964 49.224ZM192.038 49L185.862 40.808L189.126 38.792L196.742 49H192.038ZM179.782 49V31.912H183.782V49H179.782ZM182.598 42.152V38.824H188.39V42.152H182.598ZM189.51 40.936L185.766 40.488L192.038 31.912H196.326L189.51 40.936ZM199.563 49V31.912H207.915C209.984 31.912 211.606 32.296 212.779 33.064C213.974 33.832 214.571 34.92 214.571 36.328C214.571 37.7147 214.016 38.8027 212.907 39.592C211.798 40.36 210.326 40.744 208.491 40.744L208.971 39.752C211.04 39.752 212.576 40.136 213.579 40.904C214.603 41.6507 215.115 42.7493 215.115 44.2C215.115 45.7147 214.55 46.8987 213.419 47.752C212.288 48.584 210.571 49 208.267 49H199.563ZM203.371 46.088H207.947C209.035 46.088 209.856 45.9173 210.411 45.576C210.966 45.2133 211.243 44.6693 211.243 43.944C211.243 43.176 210.987 42.6107 210.475 42.248C209.963 41.8853 209.163 41.704 208.075 41.704H203.371V46.088ZM203.371 39.048H207.563C208.587 39.048 209.355 38.8667 209.867 38.504C210.4 38.12 210.667 37.5867 210.667 36.904C210.667 36.2 210.4 35.6773 209.867 35.336C209.355 34.9947 208.587 34.824 207.563 34.824H203.371V39.048ZM229.744 49V45.544L229.52 44.808V38.76C229.52 37.5867 229.168 36.68 228.464 36.04C227.76 35.3787 226.693 35.048 225.264 35.048C224.304 35.048 223.354 35.1973 222.416 35.496C221.498 35.7947 220.72 36.2107 220.08 36.744L218.512 33.832C219.429 33.128 220.517 32.6053 221.776 32.264C223.056 31.9013 224.378 31.72 225.744 31.72C228.218 31.72 230.128 32.3173 231.472 33.512C232.837 34.6853 233.52 36.5093 233.52 38.984V49H229.744ZM224.368 49.224C223.088 49.224 221.968 49.0107 221.008 48.584C220.048 48.136 219.301 47.528 218.768 46.76C218.256 45.9707 218 45.0853 218 44.104C218 43.144 218.224 42.28 218.672 41.512C219.141 40.744 219.898 40.136 220.944 39.688C221.989 39.24 223.376 39.016 225.104 39.016H230.064V41.672H225.392C224.026 41.672 223.109 41.896 222.64 42.344C222.17 42.7707 221.936 43.304 221.936 43.944C221.936 44.6693 222.224 45.2453 222.8 45.672C223.376 46.0987 224.176 46.312 225.2 46.312C226.181 46.312 227.056 46.088 227.824 45.64C228.613 45.192 229.178 44.5307 229.52 43.656L230.192 46.056C229.808 47.0587 229.114 47.8373 228.112 48.392C227.13 48.9467 225.882 49.224 224.368 49.224ZM237.349 53.832L239.205 46.76L239.749 49.128C239.003 49.128 238.373 48.904 237.861 48.456C237.371 47.9867 237.125 47.3573 237.125 46.568C237.125 45.7573 237.371 45.1173 237.861 44.648C238.373 44.1573 238.992 43.912 239.717 43.912C240.464 43.912 241.083 44.1573 241.573 44.648C242.064 45.1387 242.309 45.7787 242.309 46.568C242.309 46.7813 242.288 47.016 242.245 47.272C242.203 47.5067 242.128 47.784 242.021 48.104C241.936 48.424 241.787 48.8293 241.573 49.32L239.941 53.832H237.349ZM255.606 49V26.6H275.414V49H271.318V29.096L272.278 30.12H258.742L259.702 29.096V49H255.606ZM288.898 49.224C287.148 49.224 285.591 48.8507 284.226 48.104C282.86 47.336 281.783 46.2907 280.994 44.968C280.204 43.6453 279.81 42.1413 279.81 40.456C279.81 38.7493 280.204 37.2453 280.994 35.944C281.783 34.6213 282.86 33.5867 284.226 32.84C285.591 32.0933 287.148 31.72 288.898 31.72C290.668 31.72 292.236 32.0933 293.602 32.84C294.988 33.5867 296.066 34.6107 296.834 35.912C297.623 37.2133 298.018 38.728 298.018 40.456C298.018 42.1413 297.623 43.6453 296.834 44.968C296.066 46.2907 294.988 47.336 293.602 48.104C292.236 48.8507 290.668 49.224 288.898 49.224ZM288.898 45.8C289.879 45.8 290.754 45.5867 291.522 45.16C292.29 44.7333 292.887 44.1147 293.314 43.304C293.762 42.4933 293.986 41.544 293.986 40.456C293.986 39.3467 293.762 38.3973 293.314 37.608C292.887 36.7973 292.29 36.1787 291.522 35.752C290.754 35.3253 289.89 35.112 288.93 35.112C287.948 35.112 287.074 35.3253 286.306 35.752C285.559 36.1787 284.962 36.7973 284.514 37.608C284.066 38.3973 283.842 39.3467 283.842 40.456C283.842 41.544 284.066 42.4933 284.514 43.304C284.962 44.1147 285.559 44.7333 286.306 45.16C287.074 45.5867 287.938 45.8 288.898 45.8ZM314.225 49L308.049 40.808L311.313 38.792L318.929 49H314.225ZM301.969 49V31.912H305.969V49H301.969ZM304.785 42.152V38.824H310.577V42.152H304.785ZM311.697 40.936L307.953 40.488L314.225 31.912H318.513L311.697 40.936ZM331.223 49.224C329.836 49.224 328.567 48.904 327.415 48.264C326.284 47.624 325.377 46.664 324.695 45.384C324.033 44.0827 323.703 42.44 323.703 40.456C323.703 38.4507 324.023 36.808 324.663 35.528C325.324 34.248 326.22 33.2987 327.351 32.68C328.481 32.04 329.772 31.72 331.223 31.72C332.908 31.72 334.391 32.0827 335.671 32.808C336.972 33.5333 337.996 34.5467 338.743 35.848C339.511 37.1493 339.895 38.6853 339.895 40.456C339.895 42.2267 339.511 43.7733 338.743 45.096C337.996 46.3973 336.972 47.4107 335.671 48.136C334.391 48.8613 332.908 49.224 331.223 49.224ZM321.751 55.208V31.912H325.559V35.944L325.431 40.488L325.751 45.032V55.208H321.751ZM330.775 45.8C331.735 45.8 332.588 45.5867 333.335 45.16C334.103 44.7333 334.711 44.1147 335.159 43.304C335.607 42.4933 335.831 41.544 335.831 40.456C335.831 39.3467 335.607 38.3973 335.159 37.608C334.711 36.7973 334.103 36.1787 333.335 35.752C332.588 35.3253 331.735 35.112 330.775 35.112C329.815 35.112 328.951 35.3253 328.183 35.752C327.415 36.1787 326.807 36.7973 326.359 37.608C325.911 38.3973 325.687 39.3467 325.687 40.456C325.687 41.544 325.911 42.4933 326.359 43.304C326.807 44.1147 327.415 44.7333 328.183 45.16C328.951 45.5867 329.815 45.8 330.775 45.8ZM351.492 49.224C349.742 49.224 348.185 48.8507 346.82 48.104C345.454 47.336 344.377 46.2907 343.588 44.968C342.798 43.6453 342.404 42.1413 342.404 40.456C342.404 38.7493 342.798 37.2453 343.588 35.944C344.377 34.6213 345.454 33.5867 346.82 32.84C348.185 32.0933 349.742 31.72 351.492 31.72C353.262 31.72 354.83 32.0933 356.196 32.84C357.582 33.5867 358.66 34.6107 359.428 35.912C360.217 37.2133 360.612 38.728 360.612 40.456C360.612 42.1413 360.217 43.6453 359.428 44.968C358.66 46.2907 357.582 47.336 356.196 48.104C354.83 48.8507 353.262 49.224 351.492 49.224ZM351.492 45.8C352.473 45.8 353.348 45.5867 354.116 45.16C354.884 44.7333 355.481 44.1147 355.908 43.304C356.356 42.4933 356.58 41.544 356.58 40.456C356.58 39.3467 356.356 38.3973 355.908 37.608C355.481 36.7973 354.884 36.1787 354.116 35.752C353.348 35.3253 352.484 35.112 351.524 35.112C350.542 35.112 349.668 35.3253 348.9 35.752C348.153 36.1787 347.556 36.7973 347.108 37.608C346.66 38.3973 346.436 39.3467 346.436 40.456C346.436 41.544 346.66 42.4933 347.108 43.304C347.556 44.1147 348.153 44.7333 348.9 45.16C349.668 45.5867 350.532 45.8 351.492 45.8ZM364.563 49V31.912H372.915C374.984 31.912 376.606 32.296 377.779 33.064C378.974 33.832 379.571 34.92 379.571 36.328C379.571 37.7147 379.016 38.8027 377.907 39.592C376.798 40.36 375.326 40.744 373.491 40.744L373.971 39.752C376.04 39.752 377.576 40.136 378.579 40.904C379.603 41.6507 380.115 42.7493 380.115 44.2C380.115 45.7147 379.55 46.8987 378.419 47.752C377.288 48.584 375.571 49 373.267 49H364.563ZM368.371 46.088H372.947C374.035 46.088 374.856 45.9173 375.411 45.576C375.966 45.2133 376.243 44.6693 376.243 43.944C376.243 43.176 375.987 42.6107 375.475 42.248C374.963 41.8853 374.163 41.704 373.075 41.704H368.371V46.088ZM368.371 39.048H372.563C373.587 39.048 374.355 38.8667 374.867 38.504C375.4 38.12 375.667 37.5867 375.667 36.904C375.667 36.2 375.4 35.6773 374.867 35.336C374.355 34.9947 373.587 34.824 372.563 34.824H368.371V39.048ZM392.152 49.224C390.36 49.224 388.76 48.8507 387.352 48.104C385.965 47.336 384.877 46.2907 384.088 44.968C383.298 43.6453 382.904 42.1413 382.904 40.456C382.904 38.7493 383.298 37.2453 384.088 35.944C384.877 34.6213 385.965 33.5867 387.352 32.84C388.76 32.0933 390.36 31.72 392.152 31.72C393.816 31.72 395.277 32.0613 396.536 32.744C397.816 33.4053 398.786 34.3867 399.448 35.688L396.376 37.48C395.864 36.6693 395.234 36.072 394.488 35.688C393.762 35.304 392.973 35.112 392.12 35.112C391.138 35.112 390.253 35.3253 389.464 35.752C388.674 36.1787 388.056 36.7973 387.608 37.608C387.16 38.3973 386.936 39.3467 386.936 40.456C386.936 41.5653 387.16 42.5253 387.608 43.336C388.056 44.1253 388.674 44.7333 389.464 45.16C390.253 45.5867 391.138 45.8 392.12 45.8C392.973 45.8 393.762 45.608 394.488 45.224C395.234 44.84 395.864 44.2427 396.376 43.432L399.448 45.224C398.786 46.504 397.816 47.496 396.536 48.2C395.277 48.8827 393.816 49.224 392.152 49.224ZM415.225 49L409.049 40.808L412.313 38.792L419.929 49H415.225ZM402.969 49V31.912H406.969V49H402.969ZM405.785 42.152V38.824H411.577V42.152H405.785ZM412.697 40.936L408.953 40.488L415.225 31.912H419.513L412.697 40.936ZM422.751 49V31.912H426.751V43.176L436.191 31.912H439.839V49H435.839V37.736L426.431 49H422.751ZM445.219 49V31.912H449.219V43.176L458.659 31.912H462.307V49H458.307V37.736L448.899 49H445.219ZM453.507 29.896C451.801 29.896 450.489 29.5013 449.571 28.712C448.654 27.9013 448.185 26.728 448.163 25.192H450.819C450.841 25.96 451.075 26.568 451.523 27.016C451.993 27.464 452.643 27.688 453.475 27.688C454.286 27.688 454.926 27.464 455.395 27.016C455.886 26.568 456.142 25.96 456.163 25.192H458.883C458.862 26.728 458.382 27.9013 457.443 28.712C456.526 29.5013 455.214 29.896 453.507 29.896ZM117.848 81.32C116.44 81.32 115.181 81.1067 114.072 80.68C112.963 80.2533 112.003 79.6027 111.192 78.728C110.403 77.832 109.795 76.7013 109.368 75.336C108.941 73.9707 108.728 72.3493 108.728 70.472C108.728 69.1067 108.845 67.8587 109.08 66.728C109.315 65.5973 109.667 64.584 110.136 63.688C110.605 62.7707 111.192 61.96 111.896 61.256C112.621 60.552 113.464 59.9653 114.424 59.496C115.384 59.0267 116.472 58.664 117.688 58.408L125.624 56.712L126.2 60.296L119 61.768C118.595 61.8533 118.104 61.9813 117.528 62.152C116.973 62.3013 116.397 62.536 115.8 62.856C115.224 63.1547 114.68 63.592 114.168 64.168C113.677 64.7227 113.272 65.448 112.952 66.344C112.653 67.2187 112.504 68.3173 112.504 69.64C112.504 70.0453 112.515 70.3547 112.536 70.568C112.579 70.76 112.611 70.9733 112.632 71.208C112.675 71.4213 112.696 71.7413 112.696 72.168L111.192 70.6C111.619 69.512 112.205 68.584 112.952 67.816C113.72 67.0267 114.605 66.4293 115.608 66.024C116.632 65.5973 117.741 65.384 118.936 65.384C120.536 65.384 121.955 65.7147 123.192 66.376C124.429 67.0373 125.4 67.9653 126.104 69.16C126.808 70.3547 127.16 71.7093 127.16 73.224C127.16 74.8027 126.776 76.2 126.008 77.416C125.24 78.632 124.152 79.592 122.744 80.296C121.357 80.9787 119.725 81.32 117.848 81.32ZM118.168 78.088C119.128 78.088 119.971 77.8853 120.696 77.48C121.443 77.0533 122.019 76.4773 122.424 75.752C122.851 75.0267 123.064 74.216 123.064 73.32C123.064 72.424 122.851 71.6453 122.424 70.984C122.019 70.3013 121.443 69.7573 120.696 69.352C119.971 68.9467 119.107 68.744 118.104 68.744C117.144 68.744 116.28 68.936 115.512 69.32C114.765 69.704 114.179 70.2373 113.752 70.92C113.347 71.5813 113.144 72.3493 113.144 73.224C113.144 74.12 113.357 74.9413 113.784 75.688C114.211 76.4347 114.797 77.0213 115.544 77.448C116.312 77.8747 117.187 78.088 118.168 78.088ZM132.099 87.432C131.267 87.432 130.435 87.2933 129.603 87.016C128.771 86.7387 128.078 86.3547 127.523 85.864L129.123 82.92C129.528 83.2827 129.987 83.5707 130.499 83.784C131.011 83.9973 131.534 84.104 132.067 84.104C132.792 84.104 133.379 83.9227 133.827 83.56C134.275 83.1973 134.691 82.5893 135.075 81.736L136.067 79.496L136.387 79.016L142.851 63.912H146.691L138.691 82.376C138.158 83.656 137.56 84.6693 136.899 85.416C136.259 86.1627 135.534 86.6853 134.723 86.984C133.934 87.2827 133.059 87.432 132.099 87.432ZM135.619 81.608L127.907 63.912H132.067L138.339 78.664L135.619 81.608ZM145.942 80.968L146.134 77.608C146.283 77.6293 146.422 77.6507 146.55 77.672C146.678 77.6933 146.795 77.704 146.902 77.704C147.563 77.704 148.075 77.5013 148.438 77.096C148.801 76.6907 149.067 76.1467 149.238 75.464C149.43 74.76 149.558 73.9813 149.622 73.128C149.707 72.2533 149.771 71.3787 149.814 70.504L150.102 63.912H163.926V81H159.926V66.216L160.854 67.304H152.726L153.59 66.184L153.366 70.696C153.302 72.2107 153.174 73.6187 152.982 74.92C152.811 76.2 152.534 77.32 152.15 78.28C151.787 79.24 151.275 79.9867 150.614 80.52C149.974 81.0533 149.153 81.32 148.15 81.32C147.83 81.32 147.478 81.288 147.094 81.224C146.731 81.16 146.347 81.0747 145.942 80.968ZM177.889 69.544C180.086 69.544 181.761 70.0347 182.913 71.016C184.065 71.9973 184.641 73.384 184.641 75.176C184.641 77.032 184.001 78.4827 182.721 79.528C181.441 80.552 179.638 81.0533 177.313 81.032L169.313 81V63.912H173.313V69.512L177.889 69.544ZM176.961 78.088C178.134 78.1093 179.03 77.864 179.649 77.352C180.268 76.84 180.577 76.0933 180.577 75.112C180.577 74.1307 180.268 73.4267 179.649 73C179.052 72.552 178.156 72.3173 176.961 72.296L173.313 72.264V78.056L176.961 78.088ZM188.157 81V63.912H196.509C198.578 63.912 200.199 64.296 201.373 65.064C202.567 65.832 203.165 66.92 203.165 68.328C203.165 69.7147 202.61 70.8027 201.501 71.592C200.391 72.36 198.919 72.744 197.085 72.744L197.565 71.752C199.634 71.752 201.17 72.136 202.173 72.904C203.197 73.6507 203.709 74.7493 203.709 76.2C203.709 77.7147 203.143 78.8987 202.013 79.752C200.882 80.584 199.165 81 196.861 81H188.157ZM191.965 78.088H196.541C197.629 78.088 198.45 77.9173 199.005 77.576C199.559 77.2133 199.837 76.6693 199.837 75.944C199.837 75.176 199.581 74.6107 199.069 74.248C198.557 73.8853 197.757 73.704 196.669 73.704H191.965V78.088ZM191.965 71.048H196.157C197.181 71.048 197.949 70.8667 198.461 70.504C198.994 70.12 199.261 69.5867 199.261 68.904C199.261 68.2 198.994 67.6773 198.461 67.336C197.949 66.9947 197.181 66.824 196.157 66.824H191.965V71.048ZM218.337 81V77.544L218.113 76.808V70.76C218.113 69.5867 217.761 68.68 217.057 68.04C216.353 67.3787 215.287 67.048 213.857 67.048C212.897 67.048 211.948 67.1973 211.009 67.496C210.092 67.7947 209.313 68.2107 208.673 68.744L207.105 65.832C208.023 65.128 209.111 64.6053 210.369 64.264C211.649 63.9013 212.972 63.72 214.337 63.72C216.812 63.72 218.721 64.3173 220.065 65.512C221.431 66.6853 222.113 68.5093 222.113 70.984V81H218.337ZM212.961 81.224C211.681 81.224 210.561 81.0107 209.601 80.584C208.641 80.136 207.895 79.528 207.361 78.76C206.849 77.9707 206.593 77.0853 206.593 76.104C206.593 75.144 206.817 74.28 207.265 73.512C207.735 72.744 208.492 72.136 209.537 71.688C210.583 71.24 211.969 71.016 213.697 71.016H218.657V73.672H213.985C212.62 73.672 211.703 73.896 211.233 74.344C210.764 74.7707 210.529 75.304 210.529 75.944C210.529 76.6693 210.817 77.2453 211.393 77.672C211.969 78.0987 212.769 78.312 213.793 78.312C214.775 78.312 215.649 78.088 216.417 77.64C217.207 77.192 217.772 76.5307 218.113 75.656L218.785 78.056C218.401 79.0587 217.708 79.8373 216.705 80.392C215.724 80.9467 214.476 81.224 212.961 81.224ZM236.535 81.224C235.148 81.224 233.879 80.904 232.727 80.264C231.596 79.624 230.69 78.664 230.007 77.384C229.346 76.0827 229.015 74.44 229.015 72.456C229.015 70.4507 229.335 68.808 229.975 67.528C230.636 66.248 231.532 65.2987 232.663 64.68C233.794 64.04 235.084 63.72 236.535 63.72C238.22 63.72 239.703 64.0827 240.983 64.808C242.284 65.5333 243.308 66.5467 244.055 67.848C244.823 69.1493 245.207 70.6853 245.207 72.456C245.207 74.2267 244.823 75.7733 244.055 77.096C243.308 78.3973 242.284 79.4107 240.983 80.136C239.703 80.8613 238.22 81.224 236.535 81.224ZM227.063 87.208V63.912H230.871V67.944L230.743 72.488L231.063 77.032V87.208H227.063ZM236.087 77.8C237.047 77.8 237.9 77.5867 238.647 77.16C239.415 76.7333 240.023 76.1147 240.471 75.304C240.919 74.4933 241.143 73.544 241.143 72.456C241.143 71.3467 240.919 70.3973 240.471 69.608C240.023 68.7973 239.415 68.1787 238.647 67.752C237.9 67.3253 237.047 67.112 236.087 67.112C235.127 67.112 234.263 67.3253 233.495 67.752C232.727 68.1787 232.119 68.7973 231.671 69.608C231.223 70.3973 230.999 71.3467 230.999 72.456C230.999 73.544 231.223 74.4933 231.671 75.304C232.119 76.1147 232.727 76.7333 233.495 77.16C234.263 77.5867 235.127 77.8 236.087 77.8ZM247.787 85.832L249.643 78.76L250.187 81.128C249.44 81.128 248.811 80.904 248.299 80.456C247.808 79.9867 247.563 79.3573 247.563 78.568C247.563 77.7573 247.808 77.1173 248.299 76.648C248.811 76.1573 249.429 75.912 250.155 75.912C250.901 75.912 251.52 76.1573 252.011 76.648C252.501 77.1387 252.747 77.7787 252.747 78.568C252.747 78.7813 252.725 79.016 252.683 79.272C252.64 79.5067 252.565 79.784 252.459 80.104C252.373 80.424 252.224 80.8293 252.011 81.32L250.379 85.832H247.787ZM267.867 81V60.2L269.691 62.088H263.131V58.6H272.027V81H267.867ZM276.151 75.912V73.032L287.191 58.6H291.639L280.759 73.032L278.679 72.392H296.439V75.912H276.151ZM288.439 81V75.912L288.567 72.392V67.88H292.471V81H288.439ZM311.725 81L305.549 72.808L308.813 70.792L316.429 81H311.725ZM299.469 81V63.912H303.469V81H299.469ZM302.285 74.152V70.824H308.077V74.152H302.285ZM309.197 72.936L305.453 72.488L311.725 63.912H316.013L309.197 72.936ZM317.776 81V78.216L326.672 69.768C327.419 69.064 327.974 68.4453 328.336 67.912C328.699 67.3787 328.934 66.888 329.04 66.44C329.168 65.9707 329.232 65.5333 329.232 65.128C329.232 64.104 328.88 63.3147 328.176 62.76C327.472 62.184 326.438 61.896 325.072 61.896C323.984 61.896 322.992 62.088 322.096 62.472C321.222 62.856 320.464 63.4427 319.824 64.232L316.912 61.992C317.787 60.8187 318.96 59.912 320.432 59.272C321.926 58.6107 323.59 58.28 325.424 58.28C327.046 58.28 328.454 58.5467 329.648 59.08C330.864 59.592 331.792 60.328 332.432 61.288C333.094 62.248 333.424 63.3893 333.424 64.712C333.424 65.4373 333.328 66.1627 333.136 66.888C332.944 67.592 332.582 68.3387 332.048 69.128C331.515 69.9173 330.736 70.8027 329.712 71.784L322.064 79.048L321.2 77.48H334.288V81H317.776Z" fill="#2E281D"/>
</svg>
