<svg width="16" height="16" viewBox="0 0 16 16" fill="none" xmlns="http://www.w3.org/2000/svg">
<path d="M15.9987 1.54889C16.01 1.11623 15.8305 0.697567 15.5069 0.400905C15.1799 0.102243 14.7414 -0.0410883 14.3044 0.0102442C10.53 0.446238 8.79502 2.96687 7.99959 5.05683C7.20415 2.96687 5.46914 0.446238 1.69481 0.0102442C1.26106 -0.0404216 0.8193 0.102243 0.492317 0.400905C0.16867 0.697567 -0.0108374 1.11623 0.000506968 1.54889C0.0585632 3.72885 0.771921 5.46016 2.12189 6.69548C3.86158 8.28745 6.18049 8.60411 7.33294 8.65744V15.3333C7.33294 15.7013 7.63123 16 8.00025 16C8.36928 16 8.66757 15.7013 8.66757 15.3333V8.65744C9.82002 8.60411 12.1389 8.28745 13.8786 6.69548C15.2279 5.46016 15.9419 3.72885 16 1.54889H15.9987Z" fill="#69C053"/>
</svg>
